%TF.GenerationSoftware,KiCad,Pcbnew,(6.0.9)*%
%TF.CreationDate,2023-03-27T13:44:46+03:00*%
%TF.ProjectId,GMWPY,474d5750-592e-46b6-9963-61645f706362,rev?*%
%TF.SameCoordinates,Original*%
%TF.FileFunction,Copper,L3,Inr*%
%TF.FilePolarity,Positive*%
%FSLAX46Y46*%
G04 Gerber Fmt 4.6, Leading zero omitted, Abs format (unit mm)*
G04 Created by KiCad (PCBNEW (6.0.9)) date 2023-03-27 13:44:46*
%MOMM*%
%LPD*%
G01*
G04 APERTURE LIST*
G04 Aperture macros list*
%AMOutline4P*
0 Free polygon, 4 corners , with rotation*
0 The origin of the aperture is its center*
0 number of corners: always 4*
0 $1 to $8 corner X, Y*
0 $9 Rotation angle, in degrees counterclockwise*
0 create outline with 4 corners*
4,1,4,$1,$2,$3,$4,$5,$6,$7,$8,$1,$2,$9*%
G04 Aperture macros list end*
%TA.AperFunction,ComponentPad*%
%ADD10C,1.700000*%
%TD*%
%TA.AperFunction,ComponentPad*%
%ADD11R,1.700000X1.700000*%
%TD*%
%TA.AperFunction,ComponentPad*%
%ADD12O,1.700000X1.700000*%
%TD*%
%TA.AperFunction,ComponentPad*%
%ADD13C,3.600000*%
%TD*%
%TA.AperFunction,ComponentPad*%
%ADD14C,1.400000*%
%TD*%
%TA.AperFunction,ComponentPad*%
%ADD15R,1.400000X1.400000*%
%TD*%
%TA.AperFunction,ComponentPad*%
%ADD16C,3.450000*%
%TD*%
%TA.AperFunction,ComponentPad*%
%ADD17C,4.000000*%
%TD*%
%TA.AperFunction,ComponentPad*%
%ADD18Outline4P,-1.000000X-0.600000X1.000000X-0.600000X1.000000X0.600000X-1.000000X0.600000X270.000000*%
%TD*%
%TA.AperFunction,ViaPad*%
%ADD19C,0.600000*%
%TD*%
%TA.AperFunction,Conductor*%
%ADD20C,0.293300*%
%TD*%
G04 APERTURE END LIST*
D10*
%TO.N,VBUS*%
%TO.C,J3*%
X91400000Y-73550000D03*
D11*
%TO.N,GND*%
X93940000Y-73550000D03*
D12*
%TO.N,GPIO_6*%
X96480000Y-73550000D03*
%TO.N,GPIO_5*%
X99020000Y-73550000D03*
D11*
%TO.N,GND*%
X101560000Y-73550000D03*
D12*
%TO.N,+3V3*%
X104100000Y-73550000D03*
%TD*%
D13*
%TO.N,GND*%
%TO.C,H3*%
X131000000Y-101000000D03*
%TD*%
D14*
%TO.N,VBUS*%
%TO.C,J1*%
X60300000Y-71300000D03*
%TO.N,D-*%
X60300000Y-73800000D03*
%TO.N,D+*%
X60300000Y-75800000D03*
D15*
%TO.N,GND*%
X60300000Y-78300000D03*
D16*
%TO.N,N/C*%
X57900000Y-68230000D03*
X57900000Y-81370000D03*
%TD*%
D13*
%TO.N,GND*%
%TO.C,H2*%
X131000000Y-54000000D03*
%TD*%
%TO.N,GND*%
%TO.C,H4*%
X54000000Y-101000000D03*
%TD*%
%TO.N,GND*%
%TO.C,H1*%
X54000000Y-54000000D03*
%TD*%
D17*
%TO.N,/GAS_Measurements/H2_reference*%
%TO.C,U9*%
X127557971Y-79937971D03*
%TO.N,/GAS_Measurements/H2_sensing*%
X127557971Y-70392029D03*
%TO.N,/GAS_Measurements/H2_counter*%
X118012029Y-70392029D03*
%TD*%
D10*
%TO.N,GPIO_5*%
%TO.C,J2*%
X92425000Y-81125000D03*
D12*
%TO.N,+3V3*%
X89885000Y-81125000D03*
D11*
%TO.N,GND*%
X92425000Y-83665000D03*
D12*
%TO.N,GPIO_6*%
X89885000Y-83665000D03*
%TD*%
D18*
%TO.N,GND*%
%TO.C,U3*%
X97785000Y-90420000D03*
%TD*%
D19*
%TO.N,GPIO_44*%
X84875000Y-64400000D03*
%TO.N,GPIO_43*%
X84900000Y-62825000D03*
%TO.N,GND*%
X100927970Y-96330910D03*
X104710000Y-89410000D03*
X123100000Y-96510000D03*
X80050000Y-74400000D03*
X51100000Y-87510000D03*
X120100000Y-66510000D03*
X89800000Y-67300000D03*
X72100000Y-66510000D03*
X124400000Y-84250000D03*
X102100000Y-54510000D03*
X114100000Y-54510000D03*
X84700000Y-59100000D03*
X132100000Y-81510000D03*
X114100000Y-60510000D03*
X78100000Y-81510000D03*
X111100000Y-57510000D03*
X123100000Y-60510000D03*
X51100000Y-60510000D03*
X114100000Y-96510000D03*
X105100000Y-102510000D03*
X84100000Y-69510000D03*
X114100000Y-66510000D03*
X120100000Y-60510000D03*
X114100000Y-69510000D03*
X99810000Y-90710000D03*
X117100000Y-54510000D03*
X129100000Y-57510000D03*
X60950000Y-87600000D03*
X114100000Y-51510000D03*
X90100000Y-102510000D03*
X108100000Y-51510000D03*
X111100000Y-93510000D03*
X85750000Y-98587500D03*
X117100000Y-60510000D03*
X111100000Y-60510000D03*
X69700000Y-58800000D03*
X105100000Y-51510000D03*
X65100000Y-91500000D03*
X108100000Y-54510000D03*
X78100000Y-63510000D03*
X95750000Y-81700000D03*
X65100000Y-92600000D03*
X63000000Y-61650000D03*
X89800000Y-66000000D03*
X126100000Y-102510000D03*
X93700000Y-59400000D03*
X120310000Y-88115000D03*
X52150000Y-93500000D03*
X125585000Y-75665000D03*
X129100000Y-90510000D03*
X54100000Y-72510000D03*
X111100000Y-99510000D03*
X119100000Y-74250000D03*
X114100000Y-57510000D03*
X75100000Y-63510000D03*
X111100000Y-54510000D03*
X117100000Y-63510000D03*
X108810000Y-85910000D03*
X105100000Y-54510000D03*
X129100000Y-87510000D03*
X75300000Y-74150000D03*
X64900000Y-90100000D03*
X81100000Y-66510000D03*
X75100000Y-67450000D03*
X77000000Y-99900000D03*
X102100000Y-81510000D03*
X51100000Y-75510000D03*
X109404894Y-80252635D03*
X92910000Y-88110000D03*
X84100000Y-84510000D03*
X111100000Y-96510000D03*
X108100000Y-99510000D03*
X129100000Y-60510000D03*
X132100000Y-96510000D03*
X98200000Y-68600000D03*
X51100000Y-78510000D03*
X89850000Y-60950000D03*
X120100000Y-99510000D03*
X120760000Y-91265000D03*
X67200000Y-94600000D03*
X123100000Y-51510000D03*
X64550000Y-77150000D03*
X117300000Y-83800000D03*
X89799999Y-63442031D03*
X132100000Y-93510000D03*
X81100000Y-63510000D03*
X87400000Y-59000000D03*
X120100000Y-102510000D03*
X108100000Y-96510000D03*
X51100000Y-57510000D03*
X126100000Y-66510000D03*
X51100000Y-66510000D03*
X62200000Y-88850000D03*
X111100000Y-72510000D03*
X102100000Y-51510000D03*
X99100000Y-102510000D03*
X131285000Y-77365000D03*
X103600000Y-65950000D03*
X122885000Y-77465000D03*
X81100000Y-102510000D03*
X79500000Y-99950000D03*
X112600000Y-87900000D03*
X129100000Y-84510000D03*
X92750000Y-66200000D03*
X93600000Y-58200000D03*
X51100000Y-81510000D03*
X105100000Y-82600000D03*
X114100000Y-93510000D03*
X117100000Y-51510000D03*
X74400000Y-70750000D03*
X99850000Y-63200000D03*
X132100000Y-63510000D03*
X51100000Y-63510000D03*
X79650000Y-85050000D03*
X99650000Y-80350000D03*
X111100000Y-63510000D03*
X78450000Y-58900000D03*
X60100000Y-84510000D03*
X99100000Y-75510000D03*
X102100000Y-69510000D03*
X57100000Y-78510000D03*
X117100000Y-57510000D03*
X93100000Y-99510000D03*
X126100000Y-63510000D03*
X123100000Y-63510000D03*
X63100000Y-63510000D03*
X117100000Y-66510000D03*
X132100000Y-60510000D03*
X63100000Y-81510000D03*
X126100000Y-99510000D03*
X114100000Y-102510000D03*
X65950000Y-94600000D03*
X64750000Y-68450000D03*
X117100000Y-93510000D03*
X99710000Y-88210000D03*
X86100000Y-58100000D03*
X120100000Y-54510000D03*
X120100000Y-63510000D03*
X84100000Y-102510000D03*
X108100000Y-90510000D03*
X129100000Y-63510000D03*
X66100000Y-81510000D03*
X123100000Y-66510000D03*
X115485000Y-79365000D03*
X89850000Y-64750000D03*
X88050000Y-98087500D03*
X108100000Y-72510000D03*
X123100000Y-99510000D03*
X107500000Y-78039500D03*
X126100000Y-96510000D03*
X81300000Y-58700000D03*
X132100000Y-84510000D03*
X107700000Y-79800000D03*
X84100000Y-66510000D03*
X102800000Y-59800000D03*
X132100000Y-66510000D03*
X91850000Y-75200000D03*
X106100000Y-60700000D03*
X51100000Y-72510000D03*
X123400000Y-83250000D03*
X96100000Y-102510000D03*
X111100000Y-90510000D03*
X57100000Y-84510000D03*
X132100000Y-87510000D03*
X129100000Y-66510000D03*
X57100000Y-75510000D03*
X72300000Y-58850000D03*
X51100000Y-90510000D03*
X87100000Y-102510000D03*
X90100000Y-69510000D03*
X63100000Y-66510000D03*
X78100000Y-102510000D03*
X71650000Y-70700000D03*
X98400000Y-61900000D03*
X120100000Y-57510000D03*
X51100000Y-69510000D03*
X101210000Y-99210000D03*
X117100000Y-99510000D03*
X108100000Y-102510000D03*
X72100000Y-90510000D03*
X67500000Y-58200000D03*
X108100000Y-60510000D03*
X92310000Y-94910000D03*
X123100000Y-54510000D03*
X126100000Y-54510000D03*
X84100000Y-93510000D03*
X102600000Y-57900000D03*
X93100000Y-102510000D03*
X129100000Y-93510000D03*
X87100000Y-84510000D03*
X117100000Y-102510000D03*
X96100000Y-99510000D03*
X72100000Y-81510000D03*
X123100000Y-57510000D03*
X62000000Y-87950000D03*
X76450000Y-66050000D03*
X120100000Y-51510000D03*
X126100000Y-57510000D03*
X126100000Y-93510000D03*
X108100000Y-69510000D03*
X67150000Y-68000000D03*
X108100000Y-63510000D03*
X111100000Y-102510000D03*
X132100000Y-72510000D03*
X66450000Y-84500000D03*
X96100000Y-69510000D03*
X63100000Y-84510000D03*
X96100000Y-84510000D03*
X113485000Y-83665000D03*
X111100000Y-69510000D03*
X72100000Y-87510000D03*
X89800000Y-62196150D03*
X75050000Y-66050000D03*
X51100000Y-84510000D03*
X75100000Y-78510000D03*
X104725000Y-76775000D03*
X95800000Y-65000000D03*
X110185000Y-82365000D03*
X108100000Y-66510000D03*
X102100000Y-78510000D03*
X116960000Y-86065000D03*
X89350000Y-59400000D03*
X70300000Y-93700000D03*
X97250000Y-60800000D03*
X114100000Y-63510000D03*
X132100000Y-90510000D03*
X132100000Y-69510000D03*
X107685000Y-76265000D03*
X126100000Y-51510000D03*
X76750000Y-79400000D03*
X120685000Y-75565000D03*
X123100000Y-102510000D03*
X102100000Y-102510000D03*
X96100000Y-54510000D03*
X108100000Y-57510000D03*
X84100000Y-87510000D03*
X99100000Y-54510000D03*
X104100000Y-68500000D03*
X93650000Y-77200000D03*
X126100000Y-60510000D03*
X103310000Y-97910000D03*
X84100000Y-60510000D03*
X68500000Y-57800000D03*
X63100000Y-78510000D03*
X75500000Y-58850000D03*
X66100000Y-78510000D03*
X72200000Y-73800000D03*
X76450000Y-67450000D03*
X129100000Y-96510000D03*
X54100000Y-69510000D03*
X75100000Y-81510000D03*
X77000000Y-93900000D03*
X111100000Y-51510000D03*
%TO.N,+5V*%
X124075000Y-82675000D03*
X124963556Y-83563556D03*
%TO.N,Net-(C1-Pad1)*%
X87050000Y-100900000D03*
X58500000Y-90050000D03*
%TO.N,+3V3*%
X100600000Y-59900000D03*
X100595000Y-57895000D03*
X63200000Y-60800000D03*
X69900000Y-60300000D03*
X68200000Y-78800000D03*
%TO.N,VBUS*%
X65000000Y-72350000D03*
X75150000Y-72400000D03*
%TO.N,/MCU/DATA_2*%
X93300000Y-60300000D03*
X90300000Y-59600000D03*
%TO.N,/MCU/DATA_3*%
X92600000Y-61600000D03*
X90710500Y-61091962D03*
%TO.N,/MCU/CMD*%
X90700000Y-62400000D03*
X93300000Y-62900000D03*
%TO.N,/MCU/CLK*%
X90710500Y-63591962D03*
X92600000Y-64100000D03*
%TO.N,/MCU/DATA_0*%
X90700000Y-65000000D03*
X93300000Y-65400000D03*
%TO.N,/MCU/DATA_1*%
X90710500Y-66173977D03*
X92600000Y-67100000D03*
%TO.N,/GAS_Measurements/H2_sensing*%
X119112132Y-73287868D03*
%TO.N,GPIO_40*%
X92800000Y-68250000D03*
X90710500Y-67350000D03*
%TO.N,+3.3VA*%
X111600000Y-87900000D03*
X90850000Y-86650000D03*
X110950000Y-75500000D03*
X110600000Y-80450000D03*
X103050000Y-88250000D03*
X105725000Y-78450498D03*
%TO.N,/MCU/ESP_EN*%
X70200000Y-61600000D03*
X73400000Y-84600000D03*
%TO.N,GPIO_8*%
X71150000Y-75000000D03*
X67450000Y-80000000D03*
%TO.N,/MCU/ESP_BOOT*%
X81600000Y-84200000D03*
X86025000Y-78175000D03*
%TO.N,GPIO_5*%
X65300000Y-69100000D03*
X101000000Y-85750000D03*
X93875000Y-78225000D03*
X108100000Y-83800000D03*
%TO.N,GPIO_6*%
X66300000Y-68503850D03*
X107800000Y-80750000D03*
X91150000Y-76400000D03*
%TD*%
D20*
%TO.N,VBUS*%
X75100000Y-72350000D02*
X65000000Y-72350000D01*
X75150000Y-72400000D02*
X75100000Y-72350000D01*
%TO.N,GPIO_5*%
X90825000Y-78225000D02*
X93875000Y-78225000D01*
X65300000Y-69100000D02*
X65850000Y-69650000D01*
X94345000Y-78225000D02*
X93875000Y-78225000D01*
X89550000Y-76950000D02*
X90825000Y-78225000D01*
X99020000Y-73550000D02*
X94345000Y-78225000D01*
X85400000Y-76950000D02*
X89550000Y-76950000D01*
X65850000Y-69650000D02*
X78100000Y-69650000D01*
X78100000Y-69650000D02*
X85400000Y-76950000D01*
%TO.N,GPIO_6*%
X66392800Y-68596650D02*
X66300000Y-68503850D01*
X91150000Y-76400000D02*
X90500000Y-75750000D01*
X91150000Y-76400000D02*
X93630000Y-76400000D01*
X90500000Y-75750000D02*
X85800000Y-75750000D01*
X85800000Y-75750000D02*
X78646650Y-68596650D01*
X78646650Y-68596650D02*
X66392800Y-68596650D01*
X93630000Y-76400000D02*
X96480000Y-73550000D01*
%TD*%
%TA.AperFunction,Conductor*%
%TO.N,VBUS*%
G36*
X65138119Y-72083599D02*
G01*
X65163645Y-72096094D01*
X65163639Y-72096106D01*
X65163695Y-72096119D01*
X65193803Y-72111039D01*
X65221795Y-72124838D01*
X65248172Y-72137500D01*
X65248210Y-72137517D01*
X65248222Y-72137523D01*
X65273440Y-72149006D01*
X65273460Y-72149015D01*
X65273489Y-72149028D01*
X65273510Y-72149037D01*
X65273540Y-72149050D01*
X65288128Y-72155166D01*
X65298298Y-72159430D01*
X65307016Y-72162686D01*
X65323033Y-72168668D01*
X65323048Y-72168673D01*
X65323152Y-72168712D01*
X65348604Y-72176879D01*
X65348703Y-72176905D01*
X65348719Y-72176910D01*
X65375060Y-72183899D01*
X65375079Y-72183903D01*
X65375209Y-72183938D01*
X65375347Y-72183967D01*
X65375368Y-72183972D01*
X65393837Y-72187857D01*
X65403518Y-72189894D01*
X65434086Y-72194754D01*
X65434208Y-72194768D01*
X65434217Y-72194769D01*
X65463424Y-72198068D01*
X65467464Y-72198524D01*
X65504207Y-72201209D01*
X65504308Y-72201213D01*
X65504325Y-72201214D01*
X65542025Y-72202703D01*
X65544868Y-72202815D01*
X65544905Y-72202815D01*
X65544925Y-72202816D01*
X65578439Y-72203213D01*
X65586671Y-72206738D01*
X65590000Y-72214912D01*
X65590000Y-72485088D01*
X65586573Y-72493361D01*
X65578438Y-72496787D01*
X65565729Y-72496937D01*
X65544925Y-72497183D01*
X65544905Y-72497184D01*
X65544868Y-72497184D01*
X65538340Y-72497442D01*
X65504325Y-72498785D01*
X65504308Y-72498786D01*
X65504207Y-72498790D01*
X65467464Y-72501475D01*
X65467357Y-72501487D01*
X65467358Y-72501487D01*
X65434217Y-72505230D01*
X65434208Y-72505231D01*
X65434086Y-72505245D01*
X65403518Y-72510105D01*
X65393837Y-72512142D01*
X65375368Y-72516027D01*
X65375347Y-72516032D01*
X65375209Y-72516061D01*
X65375079Y-72516096D01*
X65375060Y-72516100D01*
X65348719Y-72523089D01*
X65348703Y-72523094D01*
X65348604Y-72523120D01*
X65323152Y-72531287D01*
X65323048Y-72531326D01*
X65323033Y-72531331D01*
X65307016Y-72537313D01*
X65298298Y-72540569D01*
X65288128Y-72544833D01*
X65273540Y-72550949D01*
X65273510Y-72550962D01*
X65273489Y-72550971D01*
X65273460Y-72550984D01*
X65273440Y-72550993D01*
X65248222Y-72562476D01*
X65248210Y-72562482D01*
X65248172Y-72562499D01*
X65221795Y-72575161D01*
X65193803Y-72588960D01*
X65163645Y-72603905D01*
X65138118Y-72616401D01*
X65129182Y-72616960D01*
X65124865Y-72614325D01*
X64858769Y-72358433D01*
X64855181Y-72350229D01*
X64858769Y-72341567D01*
X65124865Y-72085675D01*
X65133204Y-72082410D01*
X65138119Y-72083599D01*
G37*
%TD.AperFunction*%
%TD*%
%TA.AperFunction,Conductor*%
%TO.N,VBUS*%
G36*
X75066461Y-72115436D02*
G01*
X75070289Y-72118746D01*
X75290695Y-72414899D01*
X75292885Y-72423582D01*
X75287922Y-72431536D01*
X74983353Y-72640218D01*
X74974591Y-72642067D01*
X74969972Y-72640110D01*
X74948174Y-72624651D01*
X74921819Y-72606105D01*
X74921796Y-72606089D01*
X74897012Y-72589108D01*
X74873346Y-72573675D01*
X74850317Y-72559757D01*
X74843164Y-72555867D01*
X74827607Y-72547406D01*
X74827597Y-72547401D01*
X74827450Y-72547321D01*
X74804265Y-72536335D01*
X74804100Y-72536269D01*
X74780479Y-72526841D01*
X74780468Y-72526837D01*
X74780285Y-72526764D01*
X74755032Y-72518577D01*
X74754859Y-72518533D01*
X74754848Y-72518530D01*
X74728198Y-72511782D01*
X74728189Y-72511780D01*
X74728027Y-72511739D01*
X74716602Y-72509582D01*
X74698957Y-72506250D01*
X74698952Y-72506249D01*
X74698792Y-72506219D01*
X74698623Y-72506197D01*
X74698613Y-72506195D01*
X74679378Y-72503644D01*
X74666850Y-72501983D01*
X74642263Y-72499894D01*
X74631830Y-72499007D01*
X74631825Y-72499007D01*
X74631723Y-72498998D01*
X74631626Y-72498994D01*
X74631617Y-72498993D01*
X74593023Y-72497235D01*
X74593015Y-72497235D01*
X74592932Y-72497231D01*
X74575123Y-72496990D01*
X74561542Y-72496806D01*
X74553316Y-72493267D01*
X74550000Y-72485107D01*
X74550000Y-72214951D01*
X74553427Y-72206678D01*
X74561600Y-72203251D01*
X74599647Y-72202927D01*
X74599671Y-72202926D01*
X74599694Y-72202926D01*
X74620788Y-72202329D01*
X74644336Y-72201663D01*
X74684706Y-72199566D01*
X74699595Y-72198380D01*
X74721315Y-72196651D01*
X74721337Y-72196649D01*
X74721398Y-72196644D01*
X74721480Y-72196635D01*
X74721489Y-72196634D01*
X74754940Y-72192916D01*
X74754964Y-72192913D01*
X74755053Y-72192903D01*
X74786311Y-72188353D01*
X74786395Y-72188338D01*
X74786412Y-72188335D01*
X74815734Y-72183013D01*
X74815735Y-72183013D01*
X74815811Y-72182999D01*
X74844194Y-72176850D01*
X74872102Y-72169913D01*
X74882765Y-72166982D01*
X74900105Y-72162215D01*
X74900173Y-72162196D01*
X74929048Y-72153707D01*
X74929056Y-72153705D01*
X74959368Y-72144453D01*
X74991773Y-72134441D01*
X74991800Y-72134433D01*
X75026904Y-72123679D01*
X75026981Y-72123656D01*
X75057553Y-72114521D01*
X75066461Y-72115436D01*
G37*
%TD.AperFunction*%
%TD*%
%TA.AperFunction,Conductor*%
%TO.N,GPIO_5*%
G36*
X93750135Y-77960675D02*
G01*
X93872360Y-78078213D01*
X94025000Y-78225000D01*
X93815993Y-78425993D01*
X93750135Y-78489325D01*
X93741796Y-78492590D01*
X93736881Y-78491400D01*
X93711354Y-78478904D01*
X93711359Y-78478893D01*
X93711304Y-78478880D01*
X93681196Y-78463960D01*
X93653204Y-78450161D01*
X93626827Y-78437499D01*
X93626789Y-78437482D01*
X93626777Y-78437476D01*
X93601559Y-78425993D01*
X93601539Y-78425984D01*
X93601510Y-78425971D01*
X93601489Y-78425962D01*
X93601459Y-78425949D01*
X93586871Y-78419833D01*
X93576701Y-78415569D01*
X93567983Y-78412313D01*
X93551966Y-78406331D01*
X93551951Y-78406326D01*
X93551847Y-78406287D01*
X93526395Y-78398120D01*
X93526296Y-78398094D01*
X93526280Y-78398089D01*
X93499939Y-78391100D01*
X93499920Y-78391096D01*
X93499790Y-78391061D01*
X93499652Y-78391032D01*
X93499631Y-78391027D01*
X93481162Y-78387142D01*
X93471481Y-78385105D01*
X93440913Y-78380245D01*
X93440791Y-78380231D01*
X93440782Y-78380230D01*
X93407641Y-78376487D01*
X93407642Y-78376487D01*
X93407535Y-78376475D01*
X93370792Y-78373790D01*
X93370691Y-78373786D01*
X93370674Y-78373785D01*
X93336659Y-78372442D01*
X93330131Y-78372184D01*
X93330094Y-78372184D01*
X93330074Y-78372183D01*
X93309150Y-78371936D01*
X93296562Y-78371787D01*
X93288330Y-78368263D01*
X93285000Y-78360088D01*
X93285000Y-78089912D01*
X93288427Y-78081639D01*
X93296561Y-78078213D01*
X93330074Y-78077816D01*
X93330094Y-78077815D01*
X93330131Y-78077815D01*
X93332974Y-78077703D01*
X93370674Y-78076214D01*
X93370691Y-78076213D01*
X93370792Y-78076209D01*
X93407535Y-78073524D01*
X93413201Y-78072884D01*
X93440782Y-78069769D01*
X93440791Y-78069768D01*
X93440913Y-78069754D01*
X93471481Y-78064894D01*
X93481162Y-78062857D01*
X93499631Y-78058972D01*
X93499652Y-78058967D01*
X93499790Y-78058938D01*
X93499920Y-78058903D01*
X93499939Y-78058899D01*
X93526280Y-78051910D01*
X93526296Y-78051905D01*
X93526395Y-78051879D01*
X93551847Y-78043712D01*
X93551951Y-78043673D01*
X93551966Y-78043668D01*
X93567983Y-78037686D01*
X93576701Y-78034430D01*
X93586871Y-78030166D01*
X93601459Y-78024050D01*
X93601489Y-78024037D01*
X93601510Y-78024028D01*
X93601539Y-78024015D01*
X93601559Y-78024006D01*
X93626777Y-78012523D01*
X93626789Y-78012517D01*
X93626827Y-78012500D01*
X93653204Y-77999838D01*
X93681196Y-77986039D01*
X93711304Y-77971119D01*
X93711364Y-77971115D01*
X93711354Y-77971094D01*
X93736881Y-77958599D01*
X93745819Y-77958040D01*
X93750135Y-77960675D01*
G37*
%TD.AperFunction*%
%TD*%
%TA.AperFunction,Conductor*%
%TO.N,GPIO_5*%
G36*
X65575200Y-69001388D02*
G01*
X65583404Y-69004976D01*
X65586039Y-69009293D01*
X65595253Y-69036177D01*
X65606011Y-69068070D01*
X65616046Y-69097620D01*
X65625744Y-69125225D01*
X65635494Y-69151278D01*
X65645681Y-69176176D01*
X65656692Y-69200313D01*
X65668915Y-69224086D01*
X65668978Y-69224195D01*
X65668987Y-69224211D01*
X65682667Y-69247772D01*
X65682735Y-69247889D01*
X65698541Y-69272118D01*
X65698635Y-69272247D01*
X65698636Y-69272249D01*
X65716651Y-69297076D01*
X65716663Y-69297091D01*
X65716719Y-69297169D01*
X65716775Y-69297239D01*
X65716790Y-69297259D01*
X65737568Y-69323326D01*
X65737656Y-69323436D01*
X65761739Y-69351316D01*
X65789354Y-69381203D01*
X65789408Y-69381258D01*
X65789437Y-69381289D01*
X65812810Y-69405222D01*
X65816139Y-69413535D01*
X65812713Y-69421670D01*
X65621670Y-69612713D01*
X65613397Y-69616140D01*
X65605222Y-69612810D01*
X65581289Y-69589437D01*
X65581258Y-69589408D01*
X65581203Y-69589354D01*
X65551316Y-69561739D01*
X65548222Y-69559066D01*
X65523550Y-69537754D01*
X65523536Y-69537742D01*
X65523436Y-69537656D01*
X65523326Y-69537568D01*
X65497259Y-69516790D01*
X65497239Y-69516775D01*
X65497169Y-69516719D01*
X65497091Y-69516663D01*
X65497076Y-69516651D01*
X65472249Y-69498636D01*
X65472247Y-69498635D01*
X65472118Y-69498541D01*
X65447889Y-69482735D01*
X65447772Y-69482667D01*
X65424211Y-69468987D01*
X65424195Y-69468978D01*
X65424086Y-69468915D01*
X65400313Y-69456692D01*
X65388516Y-69451310D01*
X65376260Y-69445719D01*
X65376246Y-69445713D01*
X65376176Y-69445681D01*
X65376112Y-69445655D01*
X65376094Y-69445647D01*
X65359561Y-69438883D01*
X65351278Y-69435494D01*
X65325225Y-69425744D01*
X65297620Y-69416046D01*
X65268070Y-69406011D01*
X65236177Y-69395253D01*
X65227643Y-69392328D01*
X65209293Y-69386039D01*
X65202577Y-69380115D01*
X65201388Y-69375200D01*
X65194172Y-69006099D01*
X65197437Y-68997760D01*
X65206099Y-68994172D01*
X65575200Y-69001388D01*
G37*
%TD.AperFunction*%
%TD*%
%TA.AperFunction,Conductor*%
%TO.N,GPIO_5*%
G36*
X94013252Y-77958977D02*
G01*
X94029346Y-77967526D01*
X94029920Y-77967854D01*
X94052513Y-77981668D01*
X94052906Y-77981920D01*
X94075003Y-77996674D01*
X94075195Y-77996805D01*
X94096924Y-78011946D01*
X94118301Y-78026830D01*
X94118375Y-78026879D01*
X94139251Y-78040741D01*
X94139263Y-78040749D01*
X94139348Y-78040805D01*
X94160182Y-78053287D01*
X94160365Y-78053379D01*
X94160378Y-78053386D01*
X94180642Y-78063554D01*
X94180919Y-78063693D01*
X94181201Y-78063798D01*
X94181205Y-78063800D01*
X94191565Y-78067666D01*
X94201678Y-78071440D01*
X94222574Y-78075943D01*
X94223106Y-78075960D01*
X94243124Y-78076600D01*
X94243126Y-78076600D01*
X94243725Y-78076619D01*
X94265249Y-78072884D01*
X94265805Y-78072664D01*
X94265807Y-78072663D01*
X94286757Y-78064356D01*
X94286760Y-78064354D01*
X94287263Y-78064155D01*
X94309883Y-78049848D01*
X94324989Y-78036603D01*
X94333468Y-78033725D01*
X94340975Y-78037127D01*
X94531933Y-78228085D01*
X94535360Y-78236358D01*
X94531518Y-78245026D01*
X94506517Y-78267692D01*
X94505558Y-78268474D01*
X94472963Y-78292271D01*
X94471872Y-78292978D01*
X94440238Y-78311067D01*
X94439092Y-78311641D01*
X94408256Y-78325038D01*
X94407167Y-78325448D01*
X94376932Y-78335144D01*
X94376012Y-78335398D01*
X94346198Y-78342341D01*
X94345552Y-78342472D01*
X94327661Y-78345574D01*
X94316004Y-78347595D01*
X94315676Y-78347647D01*
X94286305Y-78351885D01*
X94257187Y-78356178D01*
X94228414Y-78361475D01*
X94228218Y-78361525D01*
X94228209Y-78361527D01*
X94200186Y-78368681D01*
X94200180Y-78368683D01*
X94199913Y-78368751D01*
X94171608Y-78378980D01*
X94143426Y-78393137D01*
X94115292Y-78412196D01*
X94115007Y-78412448D01*
X94115001Y-78412453D01*
X94093482Y-78431508D01*
X94085017Y-78434427D01*
X94079812Y-78432844D01*
X93935024Y-78348029D01*
X93911435Y-78334211D01*
X93725000Y-78225000D01*
X93875000Y-78080752D01*
X93999655Y-77960877D01*
X94007993Y-77957612D01*
X94013252Y-77958977D01*
G37*
%TD.AperFunction*%
%TD*%
%TA.AperFunction,Conductor*%
%TO.N,GPIO_5*%
G36*
X99316694Y-73252983D02*
G01*
X99320282Y-73261645D01*
X99317815Y-73387854D01*
X99300493Y-74273969D01*
X99299114Y-74344508D01*
X99295526Y-74352712D01*
X99290917Y-74355443D01*
X99182825Y-74389345D01*
X99182150Y-74389535D01*
X99130493Y-74402393D01*
X99074679Y-74416285D01*
X99074091Y-74416415D01*
X98973803Y-74435699D01*
X98973307Y-74435783D01*
X98879019Y-74449704D01*
X98878716Y-74449744D01*
X98789264Y-74460399D01*
X98753633Y-74464340D01*
X98703672Y-74469866D01*
X98703636Y-74469870D01*
X98703603Y-74469874D01*
X98620794Y-74480256D01*
X98573528Y-74488067D01*
X98539922Y-74493620D01*
X98539914Y-74493622D01*
X98539736Y-74493651D01*
X98517249Y-74498829D01*
X98459561Y-74512111D01*
X98459551Y-74512114D01*
X98459324Y-74512166D01*
X98459092Y-74512240D01*
X98378716Y-74537824D01*
X98378711Y-74537826D01*
X98378456Y-74537907D01*
X98378208Y-74538012D01*
X98378204Y-74538014D01*
X98316993Y-74564059D01*
X98296030Y-74572979D01*
X98210943Y-74619489D01*
X98210730Y-74619633D01*
X98210720Y-74619639D01*
X98159683Y-74654136D01*
X98122092Y-74679543D01*
X98028374Y-74755246D01*
X97936952Y-74840959D01*
X97928574Y-74844117D01*
X97920678Y-74840696D01*
X97729304Y-74649322D01*
X97725877Y-74641049D01*
X97729042Y-74633048D01*
X97814753Y-74541625D01*
X97880358Y-74460408D01*
X97890302Y-74448098D01*
X97890305Y-74448094D01*
X97890456Y-74447907D01*
X97915863Y-74410316D01*
X97950360Y-74359279D01*
X97950366Y-74359269D01*
X97950510Y-74359056D01*
X97997020Y-74273969D01*
X98032092Y-74191543D01*
X98057833Y-74110675D01*
X98076348Y-74030263D01*
X98089743Y-73949205D01*
X98093522Y-73919061D01*
X98100116Y-73866472D01*
X98100135Y-73866307D01*
X98109589Y-73780833D01*
X98109600Y-73780735D01*
X98120253Y-73691295D01*
X98120296Y-73690970D01*
X98134215Y-73596696D01*
X98134300Y-73596196D01*
X98153581Y-73495922D01*
X98153717Y-73495305D01*
X98180462Y-73387854D01*
X98180652Y-73387178D01*
X98214557Y-73279082D01*
X98220303Y-73272214D01*
X98225490Y-73270887D01*
X99001314Y-73255720D01*
X99308355Y-73249718D01*
X99316694Y-73252983D01*
G37*
%TD.AperFunction*%
%TD*%
%TA.AperFunction,Conductor*%
%TO.N,GPIO_6*%
G36*
X90844778Y-75887189D02*
G01*
X90868741Y-75910592D01*
X90868762Y-75910612D01*
X90868796Y-75910645D01*
X90898683Y-75938260D01*
X90898756Y-75938323D01*
X90926449Y-75962245D01*
X90926463Y-75962257D01*
X90926563Y-75962343D01*
X90926673Y-75962431D01*
X90952740Y-75983209D01*
X90952760Y-75983224D01*
X90952830Y-75983280D01*
X90952908Y-75983336D01*
X90952923Y-75983348D01*
X90977750Y-76001363D01*
X90977881Y-76001458D01*
X91002110Y-76017264D01*
X91002225Y-76017331D01*
X91002227Y-76017332D01*
X91025788Y-76031012D01*
X91025804Y-76031021D01*
X91025913Y-76031084D01*
X91049686Y-76043307D01*
X91061483Y-76048689D01*
X91073739Y-76054280D01*
X91073753Y-76054286D01*
X91073823Y-76054318D01*
X91073887Y-76054344D01*
X91073905Y-76054352D01*
X91090438Y-76061116D01*
X91098721Y-76064505D01*
X91124774Y-76074255D01*
X91152379Y-76083953D01*
X91181929Y-76093988D01*
X91213822Y-76104746D01*
X91240708Y-76113961D01*
X91247422Y-76119884D01*
X91248612Y-76124799D01*
X91256066Y-76506066D01*
X90897392Y-76499054D01*
X90874800Y-76498612D01*
X90866596Y-76495024D01*
X90863961Y-76490708D01*
X90854746Y-76463823D01*
X90854728Y-76463769D01*
X90843988Y-76431929D01*
X90833953Y-76402379D01*
X90824255Y-76374774D01*
X90814531Y-76348790D01*
X90814527Y-76348781D01*
X90814505Y-76348721D01*
X90804318Y-76323823D01*
X90793307Y-76299686D01*
X90781084Y-76275913D01*
X90781021Y-76275804D01*
X90781012Y-76275788D01*
X90767332Y-76252227D01*
X90767331Y-76252225D01*
X90767264Y-76252110D01*
X90751458Y-76227881D01*
X90751363Y-76227750D01*
X90733348Y-76202923D01*
X90733336Y-76202908D01*
X90733280Y-76202830D01*
X90733224Y-76202760D01*
X90733209Y-76202740D01*
X90712431Y-76176673D01*
X90712343Y-76176563D01*
X90688260Y-76148683D01*
X90660645Y-76118796D01*
X90660610Y-76118760D01*
X90660592Y-76118741D01*
X90637189Y-76094778D01*
X90633861Y-76086465D01*
X90637287Y-76078330D01*
X90828330Y-75887287D01*
X90836603Y-75883860D01*
X90844778Y-75887189D01*
G37*
%TD.AperFunction*%
%TD*%
%TA.AperFunction,Conductor*%
%TO.N,GPIO_6*%
G36*
X91288119Y-76133599D02*
G01*
X91313645Y-76146094D01*
X91313639Y-76146106D01*
X91313695Y-76146119D01*
X91343803Y-76161039D01*
X91371795Y-76174838D01*
X91398172Y-76187500D01*
X91398210Y-76187517D01*
X91398222Y-76187523D01*
X91423440Y-76199006D01*
X91423460Y-76199015D01*
X91423489Y-76199028D01*
X91423510Y-76199037D01*
X91423540Y-76199050D01*
X91438128Y-76205166D01*
X91448298Y-76209430D01*
X91457016Y-76212686D01*
X91473033Y-76218668D01*
X91473048Y-76218673D01*
X91473152Y-76218712D01*
X91498604Y-76226879D01*
X91498703Y-76226905D01*
X91498719Y-76226910D01*
X91525060Y-76233899D01*
X91525079Y-76233903D01*
X91525209Y-76233938D01*
X91525347Y-76233967D01*
X91525368Y-76233972D01*
X91543837Y-76237857D01*
X91553518Y-76239894D01*
X91584086Y-76244754D01*
X91584208Y-76244768D01*
X91584217Y-76244769D01*
X91613424Y-76248068D01*
X91617464Y-76248524D01*
X91654207Y-76251209D01*
X91654308Y-76251213D01*
X91654325Y-76251214D01*
X91692025Y-76252703D01*
X91694868Y-76252815D01*
X91694905Y-76252815D01*
X91694925Y-76252816D01*
X91728439Y-76253213D01*
X91736671Y-76256738D01*
X91740000Y-76264912D01*
X91740000Y-76535088D01*
X91736573Y-76543361D01*
X91728438Y-76546787D01*
X91715729Y-76546937D01*
X91694925Y-76547183D01*
X91694905Y-76547184D01*
X91694868Y-76547184D01*
X91688340Y-76547442D01*
X91654325Y-76548785D01*
X91654308Y-76548786D01*
X91654207Y-76548790D01*
X91617464Y-76551475D01*
X91617357Y-76551487D01*
X91617358Y-76551487D01*
X91584217Y-76555230D01*
X91584208Y-76555231D01*
X91584086Y-76555245D01*
X91553518Y-76560105D01*
X91543837Y-76562142D01*
X91525368Y-76566027D01*
X91525347Y-76566032D01*
X91525209Y-76566061D01*
X91525079Y-76566096D01*
X91525060Y-76566100D01*
X91498719Y-76573089D01*
X91498703Y-76573094D01*
X91498604Y-76573120D01*
X91473152Y-76581287D01*
X91473048Y-76581326D01*
X91473033Y-76581331D01*
X91457016Y-76587313D01*
X91448298Y-76590569D01*
X91438128Y-76594833D01*
X91423540Y-76600949D01*
X91423510Y-76600962D01*
X91423489Y-76600971D01*
X91423460Y-76600984D01*
X91423440Y-76600993D01*
X91398222Y-76612476D01*
X91398210Y-76612482D01*
X91398172Y-76612499D01*
X91371795Y-76625161D01*
X91343803Y-76638960D01*
X91313645Y-76653905D01*
X91288118Y-76666401D01*
X91279182Y-76666960D01*
X91274865Y-76664325D01*
X91172723Y-76566100D01*
X91000000Y-76400000D01*
X91267902Y-76142370D01*
X91274865Y-76135675D01*
X91283204Y-76132410D01*
X91288119Y-76133599D01*
G37*
%TD.AperFunction*%
%TD*%
%TA.AperFunction,Conductor*%
%TO.N,GPIO_6*%
G36*
X66512147Y-68291553D02*
G01*
X66529911Y-68308293D01*
X66539626Y-68317259D01*
X66552143Y-68328813D01*
X66552160Y-68328828D01*
X66573375Y-68347617D01*
X66593958Y-68364696D01*
X66614306Y-68380101D01*
X66634819Y-68393868D01*
X66655897Y-68406032D01*
X66677940Y-68416631D01*
X66701347Y-68425700D01*
X66726517Y-68433275D01*
X66753850Y-68439392D01*
X66754035Y-68439421D01*
X66754040Y-68439422D01*
X66762248Y-68440711D01*
X66783745Y-68444087D01*
X66816602Y-68447396D01*
X66816734Y-68447403D01*
X66816745Y-68447404D01*
X66852721Y-68449350D01*
X66852738Y-68449351D01*
X66852820Y-68449355D01*
X66852923Y-68449357D01*
X66852933Y-68449357D01*
X66863627Y-68449529D01*
X66881290Y-68449814D01*
X66889505Y-68453373D01*
X66892800Y-68461512D01*
X66892800Y-68731674D01*
X66889373Y-68739947D01*
X66881175Y-68743374D01*
X66870337Y-68743443D01*
X66840386Y-68743634D01*
X66793226Y-68744615D01*
X66750627Y-68746209D01*
X66711896Y-68748381D01*
X66676341Y-68751098D01*
X66676327Y-68751099D01*
X66676319Y-68751100D01*
X66643309Y-68754321D01*
X66643300Y-68754322D01*
X66643269Y-68754325D01*
X66643235Y-68754329D01*
X66643226Y-68754330D01*
X66635447Y-68755251D01*
X66611988Y-68758029D01*
X66581804Y-68762175D01*
X66552026Y-68766730D01*
X66551987Y-68766736D01*
X66551983Y-68766737D01*
X66521960Y-68771660D01*
X66521954Y-68771661D01*
X66490915Y-68776931D01*
X66458195Y-68782508D01*
X66458153Y-68782515D01*
X66423113Y-68788358D01*
X66384972Y-68794446D01*
X66351183Y-68799523D01*
X66342494Y-68797364D01*
X66339167Y-68793542D01*
X66333168Y-68782508D01*
X66293540Y-68709628D01*
X66162822Y-68469219D01*
X66161881Y-68460314D01*
X66167918Y-68453141D01*
X66174652Y-68449814D01*
X66498940Y-68289579D01*
X66507875Y-68288986D01*
X66512147Y-68291553D01*
G37*
%TD.AperFunction*%
%TD*%
%TA.AperFunction,Conductor*%
%TO.N,GPIO_6*%
G36*
X96776694Y-73252983D02*
G01*
X96780282Y-73261645D01*
X96777815Y-73387854D01*
X96760493Y-74273969D01*
X96759114Y-74344508D01*
X96755526Y-74352712D01*
X96750917Y-74355443D01*
X96642825Y-74389345D01*
X96642150Y-74389535D01*
X96590493Y-74402393D01*
X96534679Y-74416285D01*
X96534091Y-74416415D01*
X96433803Y-74435699D01*
X96433307Y-74435783D01*
X96339019Y-74449704D01*
X96338716Y-74449744D01*
X96249264Y-74460399D01*
X96213633Y-74464340D01*
X96163672Y-74469866D01*
X96163636Y-74469870D01*
X96163603Y-74469874D01*
X96080794Y-74480256D01*
X96033528Y-74488067D01*
X95999922Y-74493620D01*
X95999914Y-74493622D01*
X95999736Y-74493651D01*
X95977249Y-74498829D01*
X95919561Y-74512111D01*
X95919551Y-74512114D01*
X95919324Y-74512166D01*
X95919092Y-74512240D01*
X95838716Y-74537824D01*
X95838711Y-74537826D01*
X95838456Y-74537907D01*
X95838208Y-74538012D01*
X95838204Y-74538014D01*
X95776993Y-74564059D01*
X95756030Y-74572979D01*
X95670943Y-74619489D01*
X95670730Y-74619633D01*
X95670720Y-74619639D01*
X95619683Y-74654136D01*
X95582092Y-74679543D01*
X95488374Y-74755246D01*
X95396952Y-74840959D01*
X95388574Y-74844117D01*
X95380678Y-74840696D01*
X95189304Y-74649322D01*
X95185877Y-74641049D01*
X95189042Y-74633048D01*
X95274753Y-74541625D01*
X95340358Y-74460408D01*
X95350302Y-74448098D01*
X95350305Y-74448094D01*
X95350456Y-74447907D01*
X95375863Y-74410316D01*
X95410360Y-74359279D01*
X95410366Y-74359269D01*
X95410510Y-74359056D01*
X95457020Y-74273969D01*
X95492092Y-74191543D01*
X95517833Y-74110675D01*
X95536348Y-74030263D01*
X95549743Y-73949205D01*
X95553522Y-73919061D01*
X95560116Y-73866472D01*
X95560135Y-73866307D01*
X95569589Y-73780833D01*
X95569600Y-73780735D01*
X95580253Y-73691295D01*
X95580296Y-73690970D01*
X95594215Y-73596696D01*
X95594300Y-73596196D01*
X95613581Y-73495922D01*
X95613717Y-73495305D01*
X95640462Y-73387854D01*
X95640652Y-73387178D01*
X95674557Y-73279082D01*
X95680303Y-73272214D01*
X95685490Y-73270887D01*
X96461314Y-73255720D01*
X96768355Y-73249718D01*
X96776694Y-73252983D01*
G37*
%TD.AperFunction*%
%TD*%
%TA.AperFunction,Conductor*%
%TO.N,GND*%
G36*
X57092905Y-50519407D02*
G01*
X57128869Y-50568907D01*
X57133704Y-50598077D01*
X57229966Y-57304356D01*
X91500000Y-57050000D01*
X91500000Y-56300228D01*
X91518907Y-56242037D01*
X91540533Y-56220338D01*
X92212976Y-55728244D01*
X129807727Y-55728244D01*
X129813878Y-55734968D01*
X130002464Y-55853267D01*
X130008400Y-55856451D01*
X130263219Y-55971505D01*
X130269517Y-55973848D01*
X130537602Y-56053258D01*
X130544155Y-56054723D01*
X130820532Y-56097015D01*
X130827238Y-56097578D01*
X131106798Y-56101969D01*
X131113503Y-56101618D01*
X131391076Y-56068028D01*
X131397675Y-56066769D01*
X131668125Y-55995818D01*
X131674492Y-55993675D01*
X131932807Y-55886678D01*
X131938824Y-55883691D01*
X132180223Y-55742628D01*
X132185782Y-55738851D01*
X132186187Y-55738533D01*
X132193627Y-55727463D01*
X132193551Y-55725388D01*
X132190893Y-55721224D01*
X131011086Y-54541416D01*
X130999203Y-54535362D01*
X130994172Y-54536158D01*
X129813586Y-55716745D01*
X129807727Y-55728244D01*
X92212976Y-55728244D01*
X94600124Y-53981327D01*
X128895402Y-53981327D01*
X128911497Y-54260455D01*
X128912339Y-54267118D01*
X128966166Y-54541477D01*
X128967911Y-54547988D01*
X129058472Y-54812495D01*
X129061077Y-54818693D01*
X129186700Y-55068467D01*
X129190131Y-55074268D01*
X129264863Y-55183004D01*
X129275444Y-55191123D01*
X129275841Y-55191133D01*
X129282493Y-55187176D01*
X130458584Y-54011086D01*
X130463826Y-54000797D01*
X131535362Y-54000797D01*
X131536158Y-54005828D01*
X132715736Y-55185405D01*
X132727619Y-55191459D01*
X132728840Y-55191266D01*
X132733682Y-55187152D01*
X132775235Y-55130584D01*
X132778842Y-55124901D01*
X132912246Y-54879198D01*
X132915049Y-54873076D01*
X133013879Y-54611535D01*
X133015821Y-54605101D01*
X133078239Y-54332570D01*
X133079292Y-54325920D01*
X133104273Y-54046013D01*
X133104465Y-54042151D01*
X133104887Y-54001937D01*
X133104775Y-53998066D01*
X133085661Y-53717696D01*
X133084747Y-53711025D01*
X133028051Y-53437248D01*
X133026242Y-53430771D01*
X132932913Y-53167218D01*
X132930243Y-53161047D01*
X132802013Y-52912605D01*
X132798521Y-52906839D01*
X132735297Y-52816881D01*
X132724630Y-52808872D01*
X132723951Y-52808861D01*
X132717717Y-52812614D01*
X131541416Y-53988914D01*
X131535362Y-54000797D01*
X130463826Y-54000797D01*
X130464638Y-53999203D01*
X130463842Y-53994172D01*
X129284617Y-52814948D01*
X129272734Y-52808894D01*
X129271789Y-52809043D01*
X129266616Y-52813485D01*
X129213028Y-52888062D01*
X129209476Y-52893790D01*
X129078651Y-53140875D01*
X129075911Y-53147029D01*
X128979829Y-53409587D01*
X128977955Y-53416035D01*
X128918390Y-53689224D01*
X128917410Y-53695863D01*
X128895473Y-53974594D01*
X128895402Y-53981327D01*
X94600124Y-53981327D01*
X96936204Y-52271782D01*
X129805889Y-52271782D01*
X129810563Y-52280232D01*
X130988914Y-53458584D01*
X131000797Y-53464638D01*
X131005828Y-53463842D01*
X132187230Y-52282439D01*
X132193012Y-52271091D01*
X132186640Y-52264198D01*
X131978070Y-52136386D01*
X131972113Y-52133271D01*
X131716095Y-52020886D01*
X131709768Y-52018609D01*
X131440887Y-51942016D01*
X131434288Y-51940614D01*
X131157504Y-51901222D01*
X131150788Y-51900728D01*
X130871192Y-51899265D01*
X130864498Y-51899686D01*
X130587295Y-51936180D01*
X130580696Y-51937510D01*
X130311017Y-52011287D01*
X130304663Y-52013500D01*
X130047501Y-52123188D01*
X130041493Y-52126249D01*
X129814150Y-52262311D01*
X129805889Y-52271782D01*
X96936204Y-52271782D01*
X99330536Y-50519608D01*
X99389001Y-50500500D01*
X134400500Y-50500500D01*
X134458691Y-50519407D01*
X134494655Y-50568907D01*
X134499500Y-50599500D01*
X134499500Y-104400500D01*
X134480593Y-104458691D01*
X134431093Y-104494655D01*
X134400500Y-104499500D01*
X50599500Y-104499500D01*
X50541309Y-104480593D01*
X50505345Y-104431093D01*
X50500500Y-104400500D01*
X50500500Y-102728244D01*
X52807727Y-102728244D01*
X52813878Y-102734968D01*
X53002464Y-102853267D01*
X53008400Y-102856451D01*
X53263219Y-102971505D01*
X53269517Y-102973848D01*
X53537602Y-103053258D01*
X53544155Y-103054723D01*
X53820532Y-103097015D01*
X53827238Y-103097578D01*
X54106798Y-103101969D01*
X54113503Y-103101618D01*
X54391076Y-103068028D01*
X54397675Y-103066769D01*
X54668125Y-102995818D01*
X54674492Y-102993675D01*
X54932807Y-102886678D01*
X54938824Y-102883691D01*
X55180223Y-102742628D01*
X55185782Y-102738851D01*
X55186187Y-102738533D01*
X55193102Y-102728244D01*
X129807727Y-102728244D01*
X129813878Y-102734968D01*
X130002464Y-102853267D01*
X130008400Y-102856451D01*
X130263219Y-102971505D01*
X130269517Y-102973848D01*
X130537602Y-103053258D01*
X130544155Y-103054723D01*
X130820532Y-103097015D01*
X130827238Y-103097578D01*
X131106798Y-103101969D01*
X131113503Y-103101618D01*
X131391076Y-103068028D01*
X131397675Y-103066769D01*
X131668125Y-102995818D01*
X131674492Y-102993675D01*
X131932807Y-102886678D01*
X131938824Y-102883691D01*
X132180223Y-102742628D01*
X132185782Y-102738851D01*
X132186187Y-102738533D01*
X132193627Y-102727463D01*
X132193551Y-102725388D01*
X132190893Y-102721224D01*
X131011086Y-101541416D01*
X130999203Y-101535362D01*
X130994172Y-101536158D01*
X129813586Y-102716745D01*
X129807727Y-102728244D01*
X55193102Y-102728244D01*
X55193627Y-102727463D01*
X55193551Y-102725388D01*
X55190893Y-102721224D01*
X54011086Y-101541416D01*
X53999203Y-101535362D01*
X53994172Y-101536158D01*
X52813586Y-102716745D01*
X52807727Y-102728244D01*
X50500500Y-102728244D01*
X50500500Y-100981327D01*
X51895402Y-100981327D01*
X51911497Y-101260455D01*
X51912339Y-101267118D01*
X51966166Y-101541477D01*
X51967911Y-101547988D01*
X52058472Y-101812495D01*
X52061077Y-101818693D01*
X52186700Y-102068467D01*
X52190131Y-102074268D01*
X52264863Y-102183004D01*
X52275444Y-102191123D01*
X52275841Y-102191133D01*
X52282493Y-102187176D01*
X53458584Y-101011086D01*
X53463826Y-101000797D01*
X54535362Y-101000797D01*
X54536158Y-101005828D01*
X55715736Y-102185405D01*
X55727619Y-102191459D01*
X55728840Y-102191266D01*
X55733682Y-102187152D01*
X55775235Y-102130584D01*
X55778842Y-102124901D01*
X55912246Y-101879198D01*
X55915049Y-101873076D01*
X56013879Y-101611535D01*
X56015821Y-101605101D01*
X56078239Y-101332570D01*
X56079292Y-101325920D01*
X56104273Y-101046013D01*
X56104465Y-101042151D01*
X56104887Y-101001937D01*
X56104775Y-100998066D01*
X56098089Y-100900000D01*
X86494750Y-100900000D01*
X86495597Y-100906433D01*
X86508171Y-101001937D01*
X86513670Y-101043709D01*
X86569139Y-101177625D01*
X86657379Y-101292621D01*
X86772375Y-101380861D01*
X86906291Y-101436330D01*
X86912720Y-101437176D01*
X86912722Y-101437177D01*
X87043567Y-101454403D01*
X87050000Y-101455250D01*
X87056433Y-101454403D01*
X87187278Y-101437177D01*
X87187280Y-101437176D01*
X87193709Y-101436330D01*
X87327625Y-101380861D01*
X87442621Y-101292621D01*
X87530861Y-101177625D01*
X87586330Y-101043709D01*
X87591830Y-101001937D01*
X87594543Y-100981327D01*
X128895402Y-100981327D01*
X128911497Y-101260455D01*
X128912339Y-101267118D01*
X128966166Y-101541477D01*
X128967911Y-101547988D01*
X129058472Y-101812495D01*
X129061077Y-101818693D01*
X129186700Y-102068467D01*
X129190131Y-102074268D01*
X129264863Y-102183004D01*
X129275444Y-102191123D01*
X129275841Y-102191133D01*
X129282493Y-102187176D01*
X130458584Y-101011086D01*
X130463826Y-101000797D01*
X131535362Y-101000797D01*
X131536158Y-101005828D01*
X132715736Y-102185405D01*
X132727619Y-102191459D01*
X132728840Y-102191266D01*
X132733682Y-102187152D01*
X132775235Y-102130584D01*
X132778842Y-102124901D01*
X132912246Y-101879198D01*
X132915049Y-101873076D01*
X133013879Y-101611535D01*
X133015821Y-101605101D01*
X133078239Y-101332570D01*
X133079292Y-101325920D01*
X133104273Y-101046013D01*
X133104465Y-101042151D01*
X133104887Y-101001937D01*
X133104775Y-100998066D01*
X133085661Y-100717696D01*
X133084747Y-100711025D01*
X133028051Y-100437248D01*
X133026242Y-100430771D01*
X132932913Y-100167218D01*
X132930243Y-100161047D01*
X132802013Y-99912605D01*
X132798521Y-99906839D01*
X132735297Y-99816881D01*
X132724630Y-99808872D01*
X132723951Y-99808861D01*
X132717717Y-99812614D01*
X131541416Y-100988914D01*
X131535362Y-101000797D01*
X130463826Y-101000797D01*
X130464638Y-100999203D01*
X130463842Y-100994172D01*
X129284617Y-99814948D01*
X129272734Y-99808894D01*
X129271789Y-99809043D01*
X129266616Y-99813485D01*
X129213028Y-99888062D01*
X129209476Y-99893790D01*
X129078651Y-100140875D01*
X129075911Y-100147029D01*
X128979829Y-100409587D01*
X128977955Y-100416035D01*
X128918390Y-100689224D01*
X128917410Y-100695863D01*
X128895473Y-100974594D01*
X128895402Y-100981327D01*
X87594543Y-100981327D01*
X87604403Y-100906433D01*
X87605250Y-100900000D01*
X87586330Y-100756291D01*
X87530861Y-100622375D01*
X87442621Y-100507379D01*
X87327625Y-100419139D01*
X87193709Y-100363670D01*
X87187280Y-100362824D01*
X87187278Y-100362823D01*
X87056433Y-100345597D01*
X87050000Y-100344750D01*
X87043567Y-100345597D01*
X86912722Y-100362823D01*
X86912720Y-100362824D01*
X86906291Y-100363670D01*
X86772375Y-100419139D01*
X86657379Y-100507379D01*
X86569139Y-100622375D01*
X86513670Y-100756291D01*
X86494750Y-100900000D01*
X56098089Y-100900000D01*
X56085661Y-100717696D01*
X56084747Y-100711025D01*
X56028051Y-100437248D01*
X56026242Y-100430771D01*
X55932913Y-100167218D01*
X55930243Y-100161047D01*
X55802013Y-99912605D01*
X55798521Y-99906839D01*
X55735297Y-99816881D01*
X55724630Y-99808872D01*
X55723951Y-99808861D01*
X55717717Y-99812614D01*
X54541416Y-100988914D01*
X54535362Y-101000797D01*
X53463826Y-101000797D01*
X53464638Y-100999203D01*
X53463842Y-100994172D01*
X52284617Y-99814948D01*
X52272734Y-99808894D01*
X52271789Y-99809043D01*
X52266616Y-99813485D01*
X52213028Y-99888062D01*
X52209476Y-99893790D01*
X52078651Y-100140875D01*
X52075911Y-100147029D01*
X51979829Y-100409587D01*
X51977955Y-100416035D01*
X51918390Y-100689224D01*
X51917410Y-100695863D01*
X51895473Y-100974594D01*
X51895402Y-100981327D01*
X50500500Y-100981327D01*
X50500500Y-99271782D01*
X52805889Y-99271782D01*
X52810563Y-99280232D01*
X53988914Y-100458584D01*
X54000797Y-100464638D01*
X54005828Y-100463842D01*
X55187230Y-99282439D01*
X55192660Y-99271782D01*
X129805889Y-99271782D01*
X129810563Y-99280232D01*
X130988914Y-100458584D01*
X131000797Y-100464638D01*
X131005828Y-100463842D01*
X132187230Y-99282439D01*
X132193012Y-99271091D01*
X132186640Y-99264198D01*
X131978070Y-99136386D01*
X131972113Y-99133271D01*
X131716095Y-99020886D01*
X131709768Y-99018609D01*
X131440887Y-98942016D01*
X131434288Y-98940614D01*
X131157504Y-98901222D01*
X131150788Y-98900728D01*
X130871192Y-98899265D01*
X130864498Y-98899686D01*
X130587295Y-98936180D01*
X130580696Y-98937510D01*
X130311017Y-99011287D01*
X130304663Y-99013500D01*
X130047501Y-99123188D01*
X130041493Y-99126249D01*
X129814150Y-99262311D01*
X129805889Y-99271782D01*
X55192660Y-99271782D01*
X55193012Y-99271091D01*
X55186640Y-99264198D01*
X54978070Y-99136386D01*
X54972113Y-99133271D01*
X54716095Y-99020886D01*
X54709768Y-99018609D01*
X54440887Y-98942016D01*
X54434288Y-98940614D01*
X54157504Y-98901222D01*
X54150788Y-98900728D01*
X53871192Y-98899265D01*
X53864498Y-98899686D01*
X53587295Y-98936180D01*
X53580696Y-98937510D01*
X53311017Y-99011287D01*
X53304663Y-99013500D01*
X53047501Y-99123188D01*
X53041493Y-99126249D01*
X52814150Y-99262311D01*
X52805889Y-99271782D01*
X50500500Y-99271782D01*
X50500500Y-95461362D01*
X97170862Y-95461362D01*
X97180548Y-95615305D01*
X97182470Y-95621221D01*
X97182471Y-95621225D01*
X97204868Y-95690154D01*
X97228213Y-95762004D01*
X97310863Y-95892240D01*
X97315400Y-95896500D01*
X97315402Y-95896503D01*
X97374747Y-95952231D01*
X97423305Y-95997830D01*
X97558474Y-96072140D01*
X97707876Y-96110500D01*
X97823408Y-96110500D01*
X97938032Y-96096020D01*
X98081448Y-96039237D01*
X98206237Y-95948572D01*
X98304559Y-95829722D01*
X98370235Y-95690154D01*
X98399138Y-95538638D01*
X98389452Y-95384695D01*
X98387530Y-95378779D01*
X98387529Y-95378775D01*
X98343711Y-95243919D01*
X98341787Y-95237996D01*
X98259137Y-95107760D01*
X98254600Y-95103500D01*
X98254598Y-95103497D01*
X98151238Y-95006436D01*
X98151237Y-95006435D01*
X98146695Y-95002170D01*
X98011526Y-94927860D01*
X97862124Y-94889500D01*
X97746592Y-94889500D01*
X97631968Y-94903980D01*
X97488552Y-94960763D01*
X97363763Y-95051428D01*
X97265441Y-95170278D01*
X97199765Y-95309846D01*
X97170862Y-95461362D01*
X50500500Y-95461362D01*
X50500500Y-92921362D01*
X94630862Y-92921362D01*
X94640548Y-93075305D01*
X94642470Y-93081221D01*
X94642471Y-93081225D01*
X94664868Y-93150154D01*
X94688213Y-93222004D01*
X94770863Y-93352240D01*
X94775400Y-93356500D01*
X94775402Y-93356503D01*
X94834747Y-93412231D01*
X94883305Y-93457830D01*
X95018474Y-93532140D01*
X95167876Y-93570500D01*
X95283408Y-93570500D01*
X95398032Y-93556020D01*
X95541448Y-93499237D01*
X95666237Y-93408572D01*
X95764559Y-93289722D01*
X95830235Y-93150154D01*
X95859138Y-92998638D01*
X95854276Y-92921362D01*
X99710862Y-92921362D01*
X99720548Y-93075305D01*
X99722470Y-93081221D01*
X99722471Y-93081225D01*
X99744868Y-93150154D01*
X99768213Y-93222004D01*
X99850863Y-93352240D01*
X99855400Y-93356500D01*
X99855402Y-93356503D01*
X99914747Y-93412231D01*
X99963305Y-93457830D01*
X100098474Y-93532140D01*
X100247876Y-93570500D01*
X100363408Y-93570500D01*
X100478032Y-93556020D01*
X100621448Y-93499237D01*
X100746237Y-93408572D01*
X100844559Y-93289722D01*
X100910235Y-93150154D01*
X100939138Y-92998638D01*
X100929452Y-92844695D01*
X100927530Y-92838779D01*
X100927529Y-92838775D01*
X100883711Y-92703919D01*
X100881787Y-92697996D01*
X100799137Y-92567760D01*
X100794600Y-92563500D01*
X100794598Y-92563497D01*
X100691238Y-92466436D01*
X100691237Y-92466435D01*
X100686695Y-92462170D01*
X100551526Y-92387860D01*
X100402124Y-92349500D01*
X100286592Y-92349500D01*
X100171968Y-92363980D01*
X100028552Y-92420763D01*
X99903763Y-92511428D01*
X99805441Y-92630278D01*
X99739765Y-92769846D01*
X99710862Y-92921362D01*
X95854276Y-92921362D01*
X95849452Y-92844695D01*
X95847530Y-92838779D01*
X95847529Y-92838775D01*
X95803711Y-92703919D01*
X95801787Y-92697996D01*
X95719137Y-92567760D01*
X95714600Y-92563500D01*
X95714598Y-92563497D01*
X95611238Y-92466436D01*
X95611237Y-92466435D01*
X95606695Y-92462170D01*
X95471526Y-92387860D01*
X95322124Y-92349500D01*
X95206592Y-92349500D01*
X95091968Y-92363980D01*
X94948552Y-92420763D01*
X94823763Y-92511428D01*
X94725441Y-92630278D01*
X94659765Y-92769846D01*
X94630862Y-92921362D01*
X50500500Y-92921362D01*
X50500500Y-91461639D01*
X96885000Y-91461639D01*
X96885346Y-91467485D01*
X96887234Y-91483353D01*
X96891128Y-91497519D01*
X96929770Y-91584514D01*
X96939946Y-91599321D01*
X97006108Y-91665367D01*
X97020931Y-91675517D01*
X97107980Y-91714000D01*
X97122185Y-91717873D01*
X97137580Y-91719668D01*
X97143292Y-91720000D01*
X97394320Y-91720000D01*
X97407005Y-91715878D01*
X97410000Y-91711757D01*
X97410000Y-91704320D01*
X98160000Y-91704320D01*
X98164122Y-91717005D01*
X98168243Y-91720000D01*
X98426639Y-91720000D01*
X98432485Y-91719654D01*
X98448353Y-91717766D01*
X98462519Y-91713872D01*
X98549514Y-91675230D01*
X98564321Y-91665054D01*
X98630367Y-91598892D01*
X98640517Y-91584069D01*
X98679000Y-91497020D01*
X98682873Y-91482815D01*
X98684668Y-91467420D01*
X98685000Y-91461708D01*
X98685000Y-90810680D01*
X98680878Y-90797995D01*
X98676757Y-90795000D01*
X98175680Y-90795000D01*
X98162995Y-90799122D01*
X98160000Y-90803243D01*
X98160000Y-91704320D01*
X97410000Y-91704320D01*
X97410000Y-90810680D01*
X97405878Y-90797995D01*
X97401757Y-90795000D01*
X96900680Y-90795000D01*
X96887995Y-90799122D01*
X96885000Y-90803243D01*
X96885000Y-91461639D01*
X50500500Y-91461639D01*
X50500500Y-90050000D01*
X57944750Y-90050000D01*
X57963670Y-90193709D01*
X58019139Y-90327625D01*
X58107379Y-90442621D01*
X58222375Y-90530861D01*
X58356291Y-90586330D01*
X58362720Y-90587176D01*
X58362722Y-90587177D01*
X58493567Y-90604403D01*
X58500000Y-90605250D01*
X58506433Y-90604403D01*
X58637278Y-90587177D01*
X58637280Y-90587176D01*
X58643709Y-90586330D01*
X58777625Y-90530861D01*
X58892621Y-90442621D01*
X58980861Y-90327625D01*
X59036330Y-90193709D01*
X59055250Y-90050000D01*
X59052527Y-90029320D01*
X96885000Y-90029320D01*
X96889122Y-90042005D01*
X96893243Y-90045000D01*
X97394320Y-90045000D01*
X97407005Y-90040878D01*
X97410000Y-90036757D01*
X97410000Y-90029320D01*
X98160000Y-90029320D01*
X98164122Y-90042005D01*
X98168243Y-90045000D01*
X98669320Y-90045000D01*
X98682005Y-90040878D01*
X98685000Y-90036757D01*
X98685000Y-89378361D01*
X98684654Y-89372515D01*
X98682766Y-89356647D01*
X98678872Y-89342481D01*
X98640230Y-89255486D01*
X98630054Y-89240679D01*
X98563892Y-89174633D01*
X98549069Y-89164483D01*
X98462020Y-89126000D01*
X98447815Y-89122127D01*
X98432420Y-89120332D01*
X98426708Y-89120000D01*
X98175680Y-89120000D01*
X98162995Y-89124122D01*
X98160000Y-89128243D01*
X98160000Y-90029320D01*
X97410000Y-90029320D01*
X97410000Y-89135680D01*
X97405878Y-89122995D01*
X97401757Y-89120000D01*
X97143361Y-89120000D01*
X97137515Y-89120346D01*
X97121647Y-89122234D01*
X97107481Y-89126128D01*
X97020486Y-89164770D01*
X97005679Y-89174946D01*
X96939633Y-89241108D01*
X96929483Y-89255931D01*
X96891000Y-89342980D01*
X96887127Y-89357185D01*
X96885332Y-89372580D01*
X96885000Y-89378292D01*
X96885000Y-90029320D01*
X59052527Y-90029320D01*
X59036330Y-89906291D01*
X58980861Y-89772375D01*
X58892621Y-89657379D01*
X58777625Y-89569139D01*
X58643709Y-89513670D01*
X58637280Y-89512824D01*
X58637278Y-89512823D01*
X58506433Y-89495597D01*
X58500000Y-89494750D01*
X58493567Y-89495597D01*
X58362722Y-89512823D01*
X58362720Y-89512824D01*
X58356291Y-89513670D01*
X58222375Y-89569139D01*
X58107379Y-89657379D01*
X58019139Y-89772375D01*
X57963670Y-89906291D01*
X57944750Y-90050000D01*
X50500500Y-90050000D01*
X50500500Y-88250000D01*
X102494750Y-88250000D01*
X102495597Y-88256433D01*
X102512306Y-88383345D01*
X102513670Y-88393709D01*
X102569139Y-88527625D01*
X102657379Y-88642621D01*
X102772375Y-88730861D01*
X102906291Y-88786330D01*
X102912720Y-88787176D01*
X102912722Y-88787177D01*
X103043567Y-88804403D01*
X103050000Y-88805250D01*
X103056433Y-88804403D01*
X103187278Y-88787177D01*
X103187280Y-88787176D01*
X103193709Y-88786330D01*
X103327625Y-88730861D01*
X103442621Y-88642621D01*
X103530861Y-88527625D01*
X103586330Y-88393709D01*
X103587695Y-88383345D01*
X103604403Y-88256433D01*
X103605250Y-88250000D01*
X103596399Y-88182774D01*
X103587177Y-88112722D01*
X103587176Y-88112720D01*
X103586330Y-88106291D01*
X103530861Y-87972375D01*
X103475325Y-87900000D01*
X111044750Y-87900000D01*
X111045597Y-87906433D01*
X111054279Y-87972375D01*
X111063670Y-88043709D01*
X111119139Y-88177625D01*
X111207379Y-88292621D01*
X111322375Y-88380861D01*
X111456291Y-88436330D01*
X111462720Y-88437176D01*
X111462722Y-88437177D01*
X111593567Y-88454403D01*
X111600000Y-88455250D01*
X111606433Y-88454403D01*
X111737278Y-88437177D01*
X111737280Y-88437176D01*
X111743709Y-88436330D01*
X111877625Y-88380861D01*
X111992621Y-88292621D01*
X112080861Y-88177625D01*
X112136330Y-88043709D01*
X112145722Y-87972375D01*
X112154403Y-87906433D01*
X112155250Y-87900000D01*
X112138022Y-87769139D01*
X112137177Y-87762722D01*
X112137176Y-87762720D01*
X112136330Y-87756291D01*
X112080861Y-87622375D01*
X111992621Y-87507379D01*
X111877625Y-87419139D01*
X111743709Y-87363670D01*
X111737280Y-87362824D01*
X111737278Y-87362823D01*
X111606433Y-87345597D01*
X111600000Y-87344750D01*
X111593567Y-87345597D01*
X111462722Y-87362823D01*
X111462720Y-87362824D01*
X111456291Y-87363670D01*
X111322375Y-87419139D01*
X111207379Y-87507379D01*
X111119139Y-87622375D01*
X111063670Y-87756291D01*
X111062824Y-87762720D01*
X111062823Y-87762722D01*
X111061978Y-87769139D01*
X111044750Y-87900000D01*
X103475325Y-87900000D01*
X103442621Y-87857379D01*
X103327625Y-87769139D01*
X103193709Y-87713670D01*
X103187280Y-87712824D01*
X103187278Y-87712823D01*
X103056433Y-87695597D01*
X103050000Y-87694750D01*
X103043567Y-87695597D01*
X102912722Y-87712823D01*
X102912720Y-87712824D01*
X102906291Y-87713670D01*
X102772375Y-87769139D01*
X102657379Y-87857379D01*
X102569139Y-87972375D01*
X102513670Y-88106291D01*
X102512824Y-88112720D01*
X102512823Y-88112722D01*
X102503601Y-88182774D01*
X102494750Y-88250000D01*
X50500500Y-88250000D01*
X50500500Y-86650000D01*
X90294750Y-86650000D01*
X90313670Y-86793709D01*
X90369139Y-86927625D01*
X90457379Y-87042621D01*
X90572375Y-87130861D01*
X90706291Y-87186330D01*
X90712720Y-87187176D01*
X90712722Y-87187177D01*
X90843567Y-87204403D01*
X90850000Y-87205250D01*
X90856433Y-87204403D01*
X90987278Y-87187177D01*
X90987280Y-87187176D01*
X90993709Y-87186330D01*
X91127625Y-87130861D01*
X91242621Y-87042621D01*
X91330861Y-86927625D01*
X91386330Y-86793709D01*
X91405250Y-86650000D01*
X91386330Y-86506291D01*
X91330861Y-86372375D01*
X91242621Y-86257379D01*
X91127625Y-86169139D01*
X90993709Y-86113670D01*
X90987280Y-86112824D01*
X90987278Y-86112823D01*
X90856433Y-86095597D01*
X90850000Y-86094750D01*
X90843567Y-86095597D01*
X90712722Y-86112823D01*
X90712720Y-86112824D01*
X90706291Y-86113670D01*
X90572375Y-86169139D01*
X90457379Y-86257379D01*
X90369139Y-86372375D01*
X90313670Y-86506291D01*
X90294750Y-86650000D01*
X50500500Y-86650000D01*
X50500500Y-85750000D01*
X100444750Y-85750000D01*
X100463670Y-85893709D01*
X100519139Y-86027625D01*
X100607379Y-86142621D01*
X100722375Y-86230861D01*
X100856291Y-86286330D01*
X100862720Y-86287176D01*
X100862722Y-86287177D01*
X100993567Y-86304403D01*
X101000000Y-86305250D01*
X101006433Y-86304403D01*
X101137278Y-86287177D01*
X101137280Y-86287176D01*
X101143709Y-86286330D01*
X101277625Y-86230861D01*
X101392621Y-86142621D01*
X101480861Y-86027625D01*
X101536330Y-85893709D01*
X101555250Y-85750000D01*
X101536330Y-85606291D01*
X101480861Y-85472375D01*
X101392621Y-85357379D01*
X101277625Y-85269139D01*
X101143709Y-85213670D01*
X101137280Y-85212824D01*
X101137278Y-85212823D01*
X101006433Y-85195597D01*
X101000000Y-85194750D01*
X100993567Y-85195597D01*
X100862722Y-85212823D01*
X100862720Y-85212824D01*
X100856291Y-85213670D01*
X100722375Y-85269139D01*
X100607379Y-85357379D01*
X100519139Y-85472375D01*
X100463670Y-85606291D01*
X100444750Y-85750000D01*
X50500500Y-85750000D01*
X50500500Y-84600000D01*
X72844750Y-84600000D01*
X72845597Y-84606433D01*
X72862699Y-84736330D01*
X72863670Y-84743709D01*
X72919139Y-84877625D01*
X73007379Y-84992621D01*
X73122375Y-85080861D01*
X73256291Y-85136330D01*
X73262720Y-85137176D01*
X73262722Y-85137177D01*
X73393567Y-85154403D01*
X73400000Y-85155250D01*
X73406433Y-85154403D01*
X73537278Y-85137177D01*
X73537280Y-85137176D01*
X73543709Y-85136330D01*
X73677625Y-85080861D01*
X73792621Y-84992621D01*
X73880861Y-84877625D01*
X73936330Y-84743709D01*
X73937302Y-84736330D01*
X73954403Y-84606433D01*
X73955250Y-84600000D01*
X73936330Y-84456291D01*
X73880861Y-84322375D01*
X73792621Y-84207379D01*
X73783005Y-84200000D01*
X81044750Y-84200000D01*
X81046399Y-84212528D01*
X81062699Y-84336330D01*
X81063670Y-84343709D01*
X81119139Y-84477625D01*
X81207379Y-84592621D01*
X81322375Y-84680861D01*
X81456291Y-84736330D01*
X81462720Y-84737176D01*
X81462722Y-84737177D01*
X81593567Y-84754403D01*
X81600000Y-84755250D01*
X81606433Y-84754403D01*
X81737278Y-84737177D01*
X81737280Y-84737176D01*
X81743709Y-84736330D01*
X81877625Y-84680861D01*
X81992621Y-84592621D01*
X82080861Y-84477625D01*
X82136330Y-84343709D01*
X82137302Y-84336330D01*
X82153601Y-84212528D01*
X82155250Y-84200000D01*
X82151593Y-84172221D01*
X82137177Y-84062722D01*
X82137176Y-84062720D01*
X82136330Y-84056291D01*
X82080861Y-83922375D01*
X81992621Y-83807379D01*
X81877625Y-83719139D01*
X81743709Y-83663670D01*
X81737280Y-83662824D01*
X81737278Y-83662823D01*
X81606433Y-83645597D01*
X81600000Y-83644750D01*
X81593567Y-83645597D01*
X81462722Y-83662823D01*
X81462720Y-83662824D01*
X81456291Y-83663670D01*
X81322375Y-83719139D01*
X81207379Y-83807379D01*
X81119139Y-83922375D01*
X81063670Y-84056291D01*
X81062824Y-84062720D01*
X81062823Y-84062722D01*
X81048407Y-84172221D01*
X81044750Y-84200000D01*
X73783005Y-84200000D01*
X73677625Y-84119139D01*
X73543709Y-84063670D01*
X73537280Y-84062824D01*
X73537278Y-84062823D01*
X73406433Y-84045597D01*
X73400000Y-84044750D01*
X73393567Y-84045597D01*
X73262722Y-84062823D01*
X73262720Y-84062824D01*
X73256291Y-84063670D01*
X73122375Y-84119139D01*
X73007379Y-84207379D01*
X72919139Y-84322375D01*
X72863670Y-84456291D01*
X72844750Y-84600000D01*
X50500500Y-84600000D01*
X50500500Y-83636069D01*
X88780164Y-83636069D01*
X88781870Y-83662101D01*
X88790487Y-83793567D01*
X88793392Y-83837894D01*
X88794508Y-83842287D01*
X88794508Y-83842289D01*
X88818632Y-83937278D01*
X88843178Y-84033928D01*
X88927856Y-84217607D01*
X89044588Y-84382780D01*
X89189466Y-84523913D01*
X89357637Y-84636282D01*
X89543470Y-84716122D01*
X89740740Y-84760760D01*
X89942842Y-84768700D01*
X89996377Y-84760938D01*
X90138519Y-84740329D01*
X90138522Y-84740328D01*
X90143007Y-84739678D01*
X90276624Y-84694321D01*
X90330234Y-84676123D01*
X90330237Y-84676121D01*
X90334531Y-84674664D01*
X90490225Y-84587472D01*
X90507039Y-84578056D01*
X90507041Y-84578055D01*
X90511001Y-84575837D01*
X90534084Y-84556639D01*
X91275000Y-84556639D01*
X91275346Y-84562485D01*
X91277234Y-84578353D01*
X91281128Y-84592519D01*
X91319770Y-84679514D01*
X91329946Y-84694321D01*
X91396108Y-84760367D01*
X91410931Y-84770517D01*
X91497980Y-84809000D01*
X91512185Y-84812873D01*
X91527580Y-84814668D01*
X91533292Y-84815000D01*
X92034320Y-84815000D01*
X92047005Y-84810878D01*
X92050000Y-84806757D01*
X92050000Y-84799320D01*
X92800000Y-84799320D01*
X92804122Y-84812005D01*
X92808243Y-84815000D01*
X93316639Y-84815000D01*
X93322485Y-84814654D01*
X93338353Y-84812766D01*
X93352519Y-84808872D01*
X93439514Y-84770230D01*
X93454321Y-84760054D01*
X93520367Y-84693892D01*
X93530517Y-84679069D01*
X93569000Y-84592020D01*
X93572873Y-84577815D01*
X93574668Y-84562420D01*
X93575000Y-84556708D01*
X93575000Y-84055680D01*
X93570878Y-84042995D01*
X93566757Y-84040000D01*
X92815680Y-84040000D01*
X92802995Y-84044122D01*
X92800000Y-84048243D01*
X92800000Y-84799320D01*
X92050000Y-84799320D01*
X92050000Y-84055680D01*
X92045878Y-84042995D01*
X92041757Y-84040000D01*
X91290680Y-84040000D01*
X91277995Y-84044122D01*
X91275000Y-84048243D01*
X91275000Y-84556639D01*
X90534084Y-84556639D01*
X90666505Y-84446505D01*
X90795837Y-84291001D01*
X90894664Y-84114531D01*
X90899636Y-84099886D01*
X90950616Y-83949703D01*
X90959678Y-83923007D01*
X90970796Y-83846330D01*
X90977513Y-83800000D01*
X107544750Y-83800000D01*
X107546399Y-83812528D01*
X107560354Y-83918519D01*
X107563670Y-83943709D01*
X107619139Y-84077625D01*
X107707379Y-84192621D01*
X107822375Y-84280861D01*
X107956291Y-84336330D01*
X107962720Y-84337176D01*
X107962722Y-84337177D01*
X108093567Y-84354403D01*
X108100000Y-84355250D01*
X108106433Y-84354403D01*
X108237278Y-84337177D01*
X108237280Y-84337176D01*
X108243709Y-84336330D01*
X108377625Y-84280861D01*
X108492621Y-84192621D01*
X108580861Y-84077625D01*
X108636330Y-83943709D01*
X108639647Y-83918519D01*
X108653601Y-83812528D01*
X108655250Y-83800000D01*
X108645470Y-83725717D01*
X108637177Y-83662722D01*
X108637176Y-83662720D01*
X108636330Y-83656291D01*
X108580861Y-83522375D01*
X108492621Y-83407379D01*
X108377625Y-83319139D01*
X108243709Y-83263670D01*
X108237280Y-83262824D01*
X108237278Y-83262823D01*
X108106433Y-83245597D01*
X108100000Y-83244750D01*
X108093567Y-83245597D01*
X107962722Y-83262823D01*
X107962720Y-83262824D01*
X107956291Y-83263670D01*
X107822375Y-83319139D01*
X107707379Y-83407379D01*
X107619139Y-83522375D01*
X107563670Y-83656291D01*
X107562824Y-83662720D01*
X107562823Y-83662722D01*
X107554530Y-83725717D01*
X107544750Y-83800000D01*
X90977513Y-83800000D01*
X90988283Y-83725717D01*
X90988700Y-83722842D01*
X90990215Y-83665000D01*
X90988355Y-83644750D01*
X90972123Y-83468109D01*
X90971708Y-83463591D01*
X90918328Y-83274320D01*
X91275000Y-83274320D01*
X91279122Y-83287005D01*
X91283243Y-83290000D01*
X92034320Y-83290000D01*
X92047005Y-83285878D01*
X92050000Y-83281757D01*
X92050000Y-83274320D01*
X92800000Y-83274320D01*
X92804122Y-83287005D01*
X92808243Y-83290000D01*
X93559320Y-83290000D01*
X93572005Y-83285878D01*
X93575000Y-83281757D01*
X93575000Y-82773361D01*
X93574654Y-82767515D01*
X93572766Y-82751647D01*
X93568872Y-82737481D01*
X93541119Y-82675000D01*
X123519750Y-82675000D01*
X123520597Y-82681433D01*
X123532691Y-82773292D01*
X123538670Y-82818709D01*
X123594139Y-82952625D01*
X123682379Y-83067621D01*
X123797375Y-83155861D01*
X123931291Y-83211330D01*
X123937720Y-83212176D01*
X123937722Y-83212177D01*
X124068567Y-83229403D01*
X124075000Y-83230250D01*
X124081433Y-83229403D01*
X124212278Y-83212177D01*
X124212280Y-83212176D01*
X124218709Y-83211330D01*
X124352625Y-83155861D01*
X124353629Y-83158284D01*
X124402563Y-83147882D01*
X124458459Y-83172767D01*
X124489052Y-83225755D01*
X124482734Y-83285880D01*
X124482695Y-83285931D01*
X124427226Y-83419847D01*
X124408306Y-83563556D01*
X124409153Y-83569989D01*
X124421662Y-83665000D01*
X124427226Y-83707265D01*
X124482695Y-83841181D01*
X124570935Y-83956177D01*
X124685931Y-84044417D01*
X124819847Y-84099886D01*
X124826276Y-84100732D01*
X124826278Y-84100733D01*
X124957123Y-84117959D01*
X124963556Y-84118806D01*
X124969989Y-84117959D01*
X125100834Y-84100733D01*
X125100836Y-84100732D01*
X125107265Y-84099886D01*
X125241181Y-84044417D01*
X125356177Y-83956177D01*
X125444417Y-83841181D01*
X125499886Y-83707265D01*
X125505451Y-83665000D01*
X125517959Y-83569989D01*
X125518806Y-83563556D01*
X125499886Y-83419847D01*
X125444417Y-83285931D01*
X125356177Y-83170935D01*
X125241181Y-83082695D01*
X125107265Y-83027226D01*
X125100836Y-83026380D01*
X125100834Y-83026379D01*
X124969989Y-83009153D01*
X124963556Y-83008306D01*
X124957123Y-83009153D01*
X124826278Y-83026379D01*
X124826276Y-83026380D01*
X124819847Y-83027226D01*
X124685931Y-83082695D01*
X124684927Y-83080272D01*
X124635993Y-83090674D01*
X124580097Y-83065789D01*
X124549504Y-83012801D01*
X124555822Y-82952676D01*
X124555861Y-82952625D01*
X124611330Y-82818709D01*
X124617310Y-82773292D01*
X124629403Y-82681433D01*
X124630250Y-82675000D01*
X124621093Y-82605447D01*
X124612177Y-82537722D01*
X124612176Y-82537720D01*
X124611330Y-82531291D01*
X124555861Y-82397375D01*
X124467621Y-82282379D01*
X124352625Y-82194139D01*
X124218709Y-82138670D01*
X124212280Y-82137824D01*
X124212278Y-82137823D01*
X124081433Y-82120597D01*
X124075000Y-82119750D01*
X124068567Y-82120597D01*
X123937722Y-82137823D01*
X123937720Y-82137824D01*
X123931291Y-82138670D01*
X123797375Y-82194139D01*
X123682379Y-82282379D01*
X123594139Y-82397375D01*
X123538670Y-82531291D01*
X123537824Y-82537720D01*
X123537823Y-82537722D01*
X123528907Y-82605447D01*
X123519750Y-82675000D01*
X93541119Y-82675000D01*
X93530230Y-82650486D01*
X93520054Y-82635679D01*
X93453892Y-82569633D01*
X93439069Y-82559483D01*
X93352020Y-82521000D01*
X93337815Y-82517127D01*
X93322420Y-82515332D01*
X93316708Y-82515000D01*
X92815680Y-82515000D01*
X92802995Y-82519122D01*
X92800000Y-82523243D01*
X92800000Y-83274320D01*
X92050000Y-83274320D01*
X92050000Y-82530680D01*
X92045878Y-82517995D01*
X92041757Y-82515000D01*
X91533361Y-82515000D01*
X91527515Y-82515346D01*
X91511647Y-82517234D01*
X91497481Y-82521128D01*
X91410486Y-82559770D01*
X91395679Y-82569946D01*
X91329633Y-82636108D01*
X91319483Y-82650931D01*
X91281000Y-82737980D01*
X91277127Y-82752185D01*
X91275332Y-82767580D01*
X91275000Y-82773292D01*
X91275000Y-83274320D01*
X90918328Y-83274320D01*
X90916807Y-83268926D01*
X90904400Y-83243766D01*
X90829359Y-83091599D01*
X90827351Y-83087527D01*
X90706335Y-82925467D01*
X90557812Y-82788174D01*
X90535125Y-82773859D01*
X90390594Y-82682667D01*
X90386757Y-82680246D01*
X90198898Y-82605298D01*
X90000526Y-82565839D01*
X89900930Y-82564535D01*
X89802826Y-82563251D01*
X89802821Y-82563251D01*
X89798286Y-82563192D01*
X89793813Y-82563961D01*
X89793808Y-82563961D01*
X89695245Y-82580898D01*
X89598949Y-82597444D01*
X89409193Y-82667449D01*
X89235371Y-82770862D01*
X89231956Y-82773857D01*
X89231953Y-82773859D01*
X89180812Y-82818709D01*
X89083305Y-82904220D01*
X89080497Y-82907782D01*
X88986336Y-83027226D01*
X88958089Y-83063057D01*
X88863914Y-83242053D01*
X88862569Y-83246384D01*
X88862568Y-83246387D01*
X88810981Y-83412528D01*
X88803937Y-83435213D01*
X88794230Y-83517226D01*
X88788747Y-83563556D01*
X88780164Y-83636069D01*
X50500500Y-83636069D01*
X50500500Y-81307790D01*
X55920431Y-81307790D01*
X55931415Y-81587334D01*
X55981676Y-81862542D01*
X55982783Y-81865860D01*
X55982784Y-81865864D01*
X56023010Y-81986434D01*
X56070214Y-82127922D01*
X56195261Y-82378180D01*
X56354322Y-82608322D01*
X56544223Y-82813756D01*
X56546933Y-82815963D01*
X56546937Y-82815966D01*
X56714797Y-82952625D01*
X56761176Y-82990383D01*
X57000851Y-83134679D01*
X57004075Y-83136044D01*
X57255238Y-83242399D01*
X57255242Y-83242400D01*
X57258467Y-83243766D01*
X57369841Y-83273296D01*
X57525487Y-83314565D01*
X57525493Y-83314566D01*
X57528883Y-83315465D01*
X57806704Y-83348347D01*
X57810193Y-83348265D01*
X57810198Y-83348265D01*
X57937701Y-83345260D01*
X58086386Y-83341756D01*
X58362349Y-83295823D01*
X58365681Y-83294769D01*
X58365686Y-83294768D01*
X58466695Y-83262823D01*
X58629088Y-83211465D01*
X58632246Y-83209949D01*
X58632250Y-83209947D01*
X58878118Y-83091883D01*
X58878119Y-83091882D01*
X58881279Y-83090365D01*
X59113891Y-82934938D01*
X59148187Y-82904220D01*
X59319671Y-82750626D01*
X59319674Y-82750623D01*
X59322282Y-82748287D01*
X59502295Y-82534136D01*
X59650338Y-82296757D01*
X59693256Y-82199678D01*
X59762042Y-82044090D01*
X59762044Y-82044084D01*
X59763458Y-82040886D01*
X59764406Y-82037523D01*
X59764409Y-82037516D01*
X59838445Y-81775001D01*
X59839396Y-81771630D01*
X59876638Y-81494360D01*
X59876790Y-81489534D01*
X59880467Y-81372528D01*
X59880467Y-81372519D01*
X59880546Y-81370000D01*
X59876389Y-81311286D01*
X59861151Y-81096069D01*
X88780164Y-81096069D01*
X88780461Y-81100597D01*
X88792690Y-81287177D01*
X88793392Y-81297894D01*
X88794508Y-81302287D01*
X88794508Y-81302289D01*
X88813868Y-81378519D01*
X88843178Y-81493928D01*
X88927856Y-81677607D01*
X89044588Y-81842780D01*
X89189466Y-81983913D01*
X89357637Y-82096282D01*
X89543470Y-82176122D01*
X89740740Y-82220760D01*
X89942842Y-82228700D01*
X89996377Y-82220938D01*
X90138519Y-82200329D01*
X90138522Y-82200328D01*
X90143007Y-82199678D01*
X90238769Y-82167171D01*
X90330234Y-82136123D01*
X90330237Y-82136121D01*
X90334531Y-82134664D01*
X90496264Y-82044090D01*
X90507039Y-82038056D01*
X90507041Y-82038055D01*
X90511001Y-82035837D01*
X90666505Y-81906505D01*
X90795837Y-81751001D01*
X90808130Y-81729051D01*
X90817412Y-81712476D01*
X90894664Y-81574531D01*
X90908126Y-81534875D01*
X90958219Y-81387304D01*
X90959678Y-81383007D01*
X90961198Y-81372528D01*
X90988283Y-81185717D01*
X90988700Y-81182842D01*
X90989650Y-81146572D01*
X90990139Y-81127913D01*
X90990139Y-81127908D01*
X90990215Y-81125000D01*
X90987557Y-81096069D01*
X91320164Y-81096069D01*
X91320461Y-81100597D01*
X91332690Y-81287177D01*
X91333392Y-81297894D01*
X91334508Y-81302287D01*
X91334508Y-81302289D01*
X91353868Y-81378519D01*
X91383178Y-81493928D01*
X91467856Y-81677607D01*
X91584588Y-81842780D01*
X91729466Y-81983913D01*
X91897637Y-82096282D01*
X92083470Y-82176122D01*
X92280740Y-82220760D01*
X92482842Y-82228700D01*
X92536377Y-82220938D01*
X92678519Y-82200329D01*
X92678522Y-82200328D01*
X92683007Y-82199678D01*
X92778769Y-82167171D01*
X92870234Y-82136123D01*
X92870237Y-82136121D01*
X92874531Y-82134664D01*
X93036264Y-82044090D01*
X93047039Y-82038056D01*
X93047041Y-82038055D01*
X93051001Y-82035837D01*
X93206505Y-81906505D01*
X93335837Y-81751001D01*
X93348130Y-81729051D01*
X93357412Y-81712476D01*
X93434664Y-81574531D01*
X93448126Y-81534875D01*
X93498219Y-81387304D01*
X93499678Y-81383007D01*
X93501198Y-81372528D01*
X93528283Y-81185717D01*
X93528700Y-81182842D01*
X93529650Y-81146572D01*
X93530139Y-81127913D01*
X93530139Y-81127908D01*
X93530215Y-81125000D01*
X93527407Y-81094435D01*
X93512123Y-80928109D01*
X93511708Y-80923591D01*
X93462750Y-80750000D01*
X107244750Y-80750000D01*
X107263670Y-80893709D01*
X107319139Y-81027625D01*
X107407379Y-81142621D01*
X107522375Y-81230861D01*
X107656291Y-81286330D01*
X107662720Y-81287176D01*
X107662722Y-81287177D01*
X107772221Y-81301593D01*
X107777510Y-81302289D01*
X107793567Y-81304403D01*
X107800000Y-81305250D01*
X107806433Y-81304403D01*
X107822491Y-81302289D01*
X107827779Y-81301593D01*
X107937278Y-81287177D01*
X107937280Y-81287176D01*
X107943709Y-81286330D01*
X108077625Y-81230861D01*
X108192621Y-81142621D01*
X108280861Y-81027625D01*
X108336330Y-80893709D01*
X108355250Y-80750000D01*
X108336330Y-80606291D01*
X108280861Y-80472375D01*
X108263692Y-80450000D01*
X110044750Y-80450000D01*
X110045597Y-80456433D01*
X110058607Y-80555250D01*
X110063670Y-80593709D01*
X110119139Y-80727625D01*
X110207379Y-80842621D01*
X110322375Y-80930861D01*
X110456291Y-80986330D01*
X110462720Y-80987176D01*
X110462722Y-80987177D01*
X110593567Y-81004403D01*
X110600000Y-81005250D01*
X110606433Y-81004403D01*
X110737278Y-80987177D01*
X110737280Y-80987176D01*
X110743709Y-80986330D01*
X110877625Y-80930861D01*
X110992621Y-80842621D01*
X111080861Y-80727625D01*
X111136330Y-80593709D01*
X111141394Y-80555250D01*
X111154403Y-80456433D01*
X111155250Y-80450000D01*
X111136330Y-80306291D01*
X111080861Y-80172375D01*
X110999987Y-80066979D01*
X110996572Y-80062528D01*
X110992621Y-80057379D01*
X110877625Y-79969139D01*
X110802378Y-79937971D01*
X125302642Y-79937971D01*
X125302854Y-79941205D01*
X125320713Y-80213670D01*
X125321937Y-80232351D01*
X125379490Y-80521693D01*
X125474319Y-80801048D01*
X125520756Y-80895213D01*
X125588594Y-81032774D01*
X125604799Y-81065635D01*
X125768698Y-81310928D01*
X125770837Y-81313367D01*
X125931765Y-81496869D01*
X125963213Y-81532729D01*
X126185014Y-81727244D01*
X126187716Y-81729049D01*
X126187718Y-81729051D01*
X126392473Y-81865864D01*
X126430306Y-81891143D01*
X126433210Y-81892575D01*
X126433215Y-81892578D01*
X126691980Y-82020186D01*
X126694894Y-82021623D01*
X126697963Y-82022665D01*
X126697966Y-82022666D01*
X126761079Y-82044090D01*
X126974249Y-82116452D01*
X127263591Y-82174005D01*
X127266813Y-82174216D01*
X127266819Y-82174217D01*
X127554737Y-82193088D01*
X127557971Y-82193300D01*
X127561205Y-82193088D01*
X127849123Y-82174217D01*
X127849129Y-82174216D01*
X127852351Y-82174005D01*
X128141693Y-82116452D01*
X128354863Y-82044090D01*
X128417976Y-82022666D01*
X128417979Y-82022665D01*
X128421048Y-82021623D01*
X128423962Y-82020186D01*
X128682727Y-81892578D01*
X128682732Y-81892575D01*
X128685636Y-81891143D01*
X128723469Y-81865864D01*
X128928224Y-81729051D01*
X128928226Y-81729049D01*
X128930928Y-81727244D01*
X129152729Y-81532729D01*
X129184178Y-81496869D01*
X129345105Y-81313367D01*
X129347244Y-81310928D01*
X129511143Y-81065635D01*
X129527349Y-81032774D01*
X129595186Y-80895213D01*
X129641623Y-80801048D01*
X129736452Y-80521693D01*
X129794005Y-80232351D01*
X129795230Y-80213670D01*
X129813088Y-79941205D01*
X129813300Y-79937971D01*
X129807946Y-79856291D01*
X129794217Y-79646819D01*
X129794216Y-79646813D01*
X129794005Y-79643591D01*
X129736452Y-79354249D01*
X129641623Y-79074894D01*
X129511143Y-78810307D01*
X129508555Y-78806433D01*
X129457085Y-78729403D01*
X129347244Y-78565014D01*
X129152729Y-78343213D01*
X128930928Y-78148698D01*
X128746246Y-78025297D01*
X128688333Y-77986601D01*
X128688332Y-77986600D01*
X128685636Y-77984799D01*
X128682732Y-77983367D01*
X128682727Y-77983364D01*
X128423962Y-77855756D01*
X128421048Y-77854319D01*
X128417979Y-77853277D01*
X128417976Y-77853276D01*
X128327993Y-77822731D01*
X128141693Y-77759490D01*
X127852351Y-77701937D01*
X127849129Y-77701726D01*
X127849123Y-77701725D01*
X127561205Y-77682854D01*
X127557971Y-77682642D01*
X127554737Y-77682854D01*
X127266819Y-77701725D01*
X127266813Y-77701726D01*
X127263591Y-77701937D01*
X126974249Y-77759490D01*
X126694894Y-77854319D01*
X126583363Y-77909320D01*
X126433218Y-77983363D01*
X126433213Y-77983366D01*
X126430307Y-77984799D01*
X126185014Y-78148698D01*
X125963213Y-78343213D01*
X125768698Y-78565014D01*
X125658857Y-78729403D01*
X125607388Y-78806433D01*
X125604799Y-78810307D01*
X125474319Y-79074894D01*
X125379490Y-79354249D01*
X125321937Y-79643591D01*
X125321726Y-79646813D01*
X125321725Y-79646819D01*
X125307996Y-79856291D01*
X125302642Y-79937971D01*
X110802378Y-79937971D01*
X110743709Y-79913670D01*
X110737280Y-79912824D01*
X110737278Y-79912823D01*
X110606433Y-79895597D01*
X110600000Y-79894750D01*
X110593567Y-79895597D01*
X110462722Y-79912823D01*
X110462720Y-79912824D01*
X110456291Y-79913670D01*
X110322375Y-79969139D01*
X110207379Y-80057379D01*
X110203428Y-80062528D01*
X110200013Y-80066979D01*
X110119139Y-80172375D01*
X110063670Y-80306291D01*
X110044750Y-80450000D01*
X108263692Y-80450000D01*
X108192621Y-80357379D01*
X108077625Y-80269139D01*
X107943709Y-80213670D01*
X107937280Y-80212824D01*
X107937278Y-80212823D01*
X107806433Y-80195597D01*
X107800000Y-80194750D01*
X107793567Y-80195597D01*
X107662722Y-80212823D01*
X107662720Y-80212824D01*
X107656291Y-80213670D01*
X107522375Y-80269139D01*
X107407379Y-80357379D01*
X107319139Y-80472375D01*
X107263670Y-80606291D01*
X107244750Y-80750000D01*
X93462750Y-80750000D01*
X93456807Y-80728926D01*
X93367351Y-80547527D01*
X93246335Y-80385467D01*
X93097812Y-80248174D01*
X93075125Y-80233859D01*
X92941745Y-80149703D01*
X92926757Y-80140246D01*
X92738898Y-80065298D01*
X92540526Y-80025839D01*
X92440930Y-80024535D01*
X92342826Y-80023251D01*
X92342821Y-80023251D01*
X92338286Y-80023192D01*
X92333813Y-80023961D01*
X92333808Y-80023961D01*
X92235245Y-80040898D01*
X92138949Y-80057444D01*
X91949193Y-80127449D01*
X91775371Y-80230862D01*
X91771956Y-80233857D01*
X91771953Y-80233859D01*
X91686534Y-80308770D01*
X91623305Y-80364220D01*
X91620497Y-80367782D01*
X91501666Y-80518520D01*
X91498089Y-80523057D01*
X91403914Y-80702053D01*
X91402569Y-80706384D01*
X91402568Y-80706387D01*
X91346401Y-80887278D01*
X91343937Y-80895213D01*
X91320164Y-81096069D01*
X90987557Y-81096069D01*
X90987407Y-81094435D01*
X90972123Y-80928109D01*
X90971708Y-80923591D01*
X90916807Y-80728926D01*
X90827351Y-80547527D01*
X90706335Y-80385467D01*
X90557812Y-80248174D01*
X90535125Y-80233859D01*
X90401745Y-80149703D01*
X90386757Y-80140246D01*
X90198898Y-80065298D01*
X90000526Y-80025839D01*
X89900930Y-80024535D01*
X89802826Y-80023251D01*
X89802821Y-80023251D01*
X89798286Y-80023192D01*
X89793813Y-80023961D01*
X89793808Y-80023961D01*
X89695245Y-80040898D01*
X89598949Y-80057444D01*
X89409193Y-80127449D01*
X89235371Y-80230862D01*
X89231956Y-80233857D01*
X89231953Y-80233859D01*
X89146534Y-80308770D01*
X89083305Y-80364220D01*
X89080497Y-80367782D01*
X88961666Y-80518520D01*
X88958089Y-80523057D01*
X88863914Y-80702053D01*
X88862569Y-80706384D01*
X88862568Y-80706387D01*
X88806401Y-80887278D01*
X88803937Y-80895213D01*
X88780164Y-81096069D01*
X59861151Y-81096069D01*
X59861035Y-81094435D01*
X59861034Y-81094429D01*
X59860787Y-81090939D01*
X59801906Y-80817445D01*
X59705076Y-80554977D01*
X59596326Y-80353428D01*
X59573891Y-80311848D01*
X59573890Y-80311846D01*
X59572230Y-80308770D01*
X59553030Y-80282774D01*
X59408097Y-80086551D01*
X59408095Y-80086549D01*
X59406019Y-80083738D01*
X59323586Y-80000000D01*
X66894750Y-80000000D01*
X66895597Y-80006433D01*
X66905775Y-80083738D01*
X66913670Y-80143709D01*
X66969139Y-80277625D01*
X67057379Y-80392621D01*
X67172375Y-80480861D01*
X67306291Y-80536330D01*
X67312720Y-80537176D01*
X67312722Y-80537177D01*
X67443567Y-80554403D01*
X67450000Y-80555250D01*
X67456433Y-80554403D01*
X67587278Y-80537177D01*
X67587280Y-80537176D01*
X67593709Y-80536330D01*
X67727625Y-80480861D01*
X67842621Y-80392621D01*
X67930861Y-80277625D01*
X67986330Y-80143709D01*
X67994226Y-80083738D01*
X68004403Y-80006433D01*
X68005250Y-80000000D01*
X67991505Y-79895597D01*
X67987177Y-79862722D01*
X67987176Y-79862720D01*
X67986330Y-79856291D01*
X67930861Y-79722375D01*
X67842621Y-79607379D01*
X67727625Y-79519139D01*
X67593709Y-79463670D01*
X67587280Y-79462824D01*
X67587278Y-79462823D01*
X67456433Y-79445597D01*
X67450000Y-79444750D01*
X67443567Y-79445597D01*
X67312722Y-79462823D01*
X67312720Y-79462824D01*
X67306291Y-79463670D01*
X67172375Y-79519139D01*
X67057379Y-79607379D01*
X66969139Y-79722375D01*
X66913670Y-79856291D01*
X66912824Y-79862720D01*
X66912823Y-79862722D01*
X66908495Y-79895597D01*
X66894750Y-80000000D01*
X59323586Y-80000000D01*
X59209759Y-79884371D01*
X58987365Y-79714645D01*
X58743275Y-79577948D01*
X58482360Y-79477008D01*
X58478954Y-79476219D01*
X58478949Y-79476217D01*
X58213244Y-79414630D01*
X58213241Y-79414629D01*
X58209826Y-79413838D01*
X57993589Y-79395109D01*
X57934597Y-79390000D01*
X57934596Y-79390000D01*
X57931109Y-79389698D01*
X57811088Y-79396303D01*
X57655271Y-79404878D01*
X57655265Y-79404879D01*
X57651772Y-79405071D01*
X57377387Y-79459650D01*
X57113430Y-79552345D01*
X57110331Y-79553955D01*
X56868274Y-79679693D01*
X56868268Y-79679697D01*
X56865168Y-79681307D01*
X56862320Y-79683342D01*
X56862317Y-79683344D01*
X56640402Y-79841926D01*
X56640399Y-79841929D01*
X56637552Y-79843963D01*
X56635019Y-79846379D01*
X56635017Y-79846381D01*
X56437665Y-80034646D01*
X56437659Y-80034652D01*
X56435127Y-80037068D01*
X56261929Y-80256768D01*
X56260174Y-80259790D01*
X56260173Y-80259791D01*
X56149691Y-80450000D01*
X56121415Y-80498680D01*
X56016389Y-80757978D01*
X56015547Y-80761369D01*
X56015546Y-80761371D01*
X56001617Y-80817445D01*
X55948946Y-81029487D01*
X55933531Y-81179933D01*
X55920995Y-81302289D01*
X55920431Y-81307790D01*
X50500500Y-81307790D01*
X50500500Y-79041639D01*
X59300000Y-79041639D01*
X59300346Y-79047485D01*
X59302234Y-79063353D01*
X59306128Y-79077519D01*
X59344770Y-79164514D01*
X59354946Y-79179321D01*
X59421108Y-79245367D01*
X59435931Y-79255517D01*
X59522980Y-79294000D01*
X59537185Y-79297873D01*
X59552580Y-79299668D01*
X59558292Y-79300000D01*
X59909320Y-79300000D01*
X59922005Y-79295878D01*
X59925000Y-79291757D01*
X59925000Y-79284320D01*
X60675000Y-79284320D01*
X60679122Y-79297005D01*
X60683243Y-79300000D01*
X61041639Y-79300000D01*
X61047485Y-79299654D01*
X61063353Y-79297766D01*
X61077519Y-79293872D01*
X61164514Y-79255230D01*
X61179321Y-79245054D01*
X61245367Y-79178892D01*
X61255517Y-79164069D01*
X61294000Y-79077020D01*
X61297873Y-79062815D01*
X61299668Y-79047420D01*
X61300000Y-79041708D01*
X61300000Y-78800000D01*
X67644750Y-78800000D01*
X67663670Y-78943709D01*
X67719139Y-79077625D01*
X67807379Y-79192621D01*
X67922375Y-79280861D01*
X68056291Y-79336330D01*
X68062720Y-79337176D01*
X68062722Y-79337177D01*
X68193567Y-79354403D01*
X68200000Y-79355250D01*
X68206433Y-79354403D01*
X68337278Y-79337177D01*
X68337280Y-79337176D01*
X68343709Y-79336330D01*
X68477625Y-79280861D01*
X68592621Y-79192621D01*
X68680861Y-79077625D01*
X68736330Y-78943709D01*
X68755250Y-78800000D01*
X68747395Y-78740334D01*
X68737177Y-78662722D01*
X68737176Y-78662720D01*
X68736330Y-78656291D01*
X68680861Y-78522375D01*
X68592621Y-78407379D01*
X68477625Y-78319139D01*
X68343709Y-78263670D01*
X68337280Y-78262824D01*
X68337278Y-78262823D01*
X68206433Y-78245597D01*
X68200000Y-78244750D01*
X68193567Y-78245597D01*
X68062722Y-78262823D01*
X68062720Y-78262824D01*
X68056291Y-78263670D01*
X67922375Y-78319139D01*
X67807379Y-78407379D01*
X67719139Y-78522375D01*
X67663670Y-78656291D01*
X67662824Y-78662720D01*
X67662823Y-78662722D01*
X67652605Y-78740334D01*
X67644750Y-78800000D01*
X61300000Y-78800000D01*
X61300000Y-78690680D01*
X61295878Y-78677995D01*
X61291757Y-78675000D01*
X60690680Y-78675000D01*
X60677995Y-78679122D01*
X60675000Y-78683243D01*
X60675000Y-79284320D01*
X59925000Y-79284320D01*
X59925000Y-78690680D01*
X59920878Y-78677995D01*
X59916757Y-78675000D01*
X59315680Y-78675000D01*
X59302995Y-78679122D01*
X59300000Y-78683243D01*
X59300000Y-79041639D01*
X50500500Y-79041639D01*
X50500500Y-78175000D01*
X85469750Y-78175000D01*
X85470597Y-78181433D01*
X85487101Y-78306789D01*
X85488670Y-78318709D01*
X85544139Y-78452625D01*
X85548090Y-78457774D01*
X85614869Y-78544801D01*
X85632379Y-78567621D01*
X85747375Y-78655861D01*
X85881291Y-78711330D01*
X85887720Y-78712176D01*
X85887722Y-78712177D01*
X86018567Y-78729403D01*
X86025000Y-78730250D01*
X86031433Y-78729403D01*
X86162278Y-78712177D01*
X86162280Y-78712176D01*
X86168709Y-78711330D01*
X86302625Y-78655861D01*
X86417621Y-78567621D01*
X86435132Y-78544801D01*
X86501910Y-78457774D01*
X86505861Y-78452625D01*
X86561330Y-78318709D01*
X86562900Y-78306789D01*
X86579403Y-78181433D01*
X86580250Y-78175000D01*
X86561330Y-78031291D01*
X86505861Y-77897375D01*
X86417621Y-77782379D01*
X86302625Y-77694139D01*
X86168709Y-77638670D01*
X86162280Y-77637824D01*
X86162278Y-77637823D01*
X86031433Y-77620597D01*
X86025000Y-77619750D01*
X86018567Y-77620597D01*
X85887722Y-77637823D01*
X85887720Y-77637824D01*
X85881291Y-77638670D01*
X85747375Y-77694139D01*
X85632379Y-77782379D01*
X85544139Y-77897375D01*
X85488670Y-78031291D01*
X85469750Y-78175000D01*
X50500500Y-78175000D01*
X50500500Y-77909320D01*
X59300000Y-77909320D01*
X59304122Y-77922005D01*
X59308243Y-77925000D01*
X59909320Y-77925000D01*
X59922005Y-77920878D01*
X59925000Y-77916757D01*
X59925000Y-77909320D01*
X60675000Y-77909320D01*
X60679122Y-77922005D01*
X60683243Y-77925000D01*
X61284320Y-77925000D01*
X61297005Y-77920878D01*
X61300000Y-77916757D01*
X61300000Y-77558361D01*
X61299654Y-77552515D01*
X61297766Y-77536647D01*
X61293872Y-77522481D01*
X61255230Y-77435486D01*
X61245054Y-77420679D01*
X61178892Y-77354633D01*
X61164069Y-77344483D01*
X61077020Y-77306000D01*
X61062815Y-77302127D01*
X61047420Y-77300332D01*
X61041708Y-77300000D01*
X60690680Y-77300000D01*
X60677995Y-77304122D01*
X60675000Y-77308243D01*
X60675000Y-77909320D01*
X59925000Y-77909320D01*
X59925000Y-77315680D01*
X59920878Y-77302995D01*
X59916757Y-77300000D01*
X59558361Y-77300000D01*
X59552515Y-77300346D01*
X59536647Y-77302234D01*
X59522481Y-77306128D01*
X59435486Y-77344770D01*
X59420679Y-77354946D01*
X59354633Y-77421108D01*
X59344483Y-77435931D01*
X59306000Y-77522980D01*
X59302127Y-77537185D01*
X59300332Y-77552580D01*
X59300000Y-77558292D01*
X59300000Y-77909320D01*
X50500500Y-77909320D01*
X50500500Y-75786665D01*
X59344994Y-75786665D01*
X59346582Y-75805577D01*
X59360011Y-75965491D01*
X59360592Y-75972414D01*
X59361925Y-75977062D01*
X59361925Y-75977063D01*
X59407543Y-76136152D01*
X59411971Y-76151595D01*
X59414186Y-76155905D01*
X59468306Y-76261211D01*
X59497176Y-76317385D01*
X59612959Y-76463468D01*
X59616646Y-76466606D01*
X59616648Y-76466608D01*
X59751224Y-76581141D01*
X59751229Y-76581144D01*
X59754912Y-76584279D01*
X59759134Y-76586639D01*
X59759139Y-76586642D01*
X59863578Y-76645010D01*
X59917627Y-76675217D01*
X59922225Y-76676711D01*
X60090302Y-76731323D01*
X60090304Y-76731324D01*
X60094907Y-76732819D01*
X60279998Y-76754890D01*
X60284820Y-76754519D01*
X60284823Y-76754519D01*
X60461023Y-76740961D01*
X60461028Y-76740960D01*
X60465851Y-76740589D01*
X60645387Y-76690462D01*
X60649700Y-76688283D01*
X60649706Y-76688281D01*
X60807447Y-76608600D01*
X60807449Y-76608598D01*
X60811768Y-76606417D01*
X60958655Y-76491656D01*
X61080454Y-76350550D01*
X61172526Y-76188474D01*
X61179984Y-76166057D01*
X61229837Y-76016192D01*
X61229837Y-76016190D01*
X61231364Y-76011601D01*
X61232990Y-75998735D01*
X61241444Y-75931812D01*
X61254727Y-75826668D01*
X61255099Y-75800000D01*
X61236909Y-75614487D01*
X61183033Y-75436040D01*
X61095522Y-75271456D01*
X60977710Y-75127005D01*
X60973981Y-75123920D01*
X60837812Y-75011270D01*
X60837810Y-75011269D01*
X60834085Y-75008187D01*
X60818943Y-75000000D01*
X70594750Y-75000000D01*
X70595597Y-75006433D01*
X70611965Y-75130757D01*
X70613670Y-75143709D01*
X70669139Y-75277625D01*
X70757379Y-75392621D01*
X70872375Y-75480861D01*
X71006291Y-75536330D01*
X71012720Y-75537176D01*
X71012722Y-75537177D01*
X71143567Y-75554403D01*
X71150000Y-75555250D01*
X71156433Y-75554403D01*
X71287278Y-75537177D01*
X71287280Y-75537176D01*
X71293709Y-75536330D01*
X71427625Y-75480861D01*
X71542621Y-75392621D01*
X71630861Y-75277625D01*
X71686330Y-75143709D01*
X71688036Y-75130757D01*
X71704403Y-75006433D01*
X71705250Y-75000000D01*
X71697976Y-74944750D01*
X71687177Y-74862722D01*
X71687176Y-74862720D01*
X71686330Y-74856291D01*
X71630861Y-74722375D01*
X71542621Y-74607379D01*
X71427625Y-74519139D01*
X71293709Y-74463670D01*
X71287280Y-74462824D01*
X71287278Y-74462823D01*
X71156433Y-74445597D01*
X71150000Y-74444750D01*
X71143567Y-74445597D01*
X71012722Y-74462823D01*
X71012720Y-74462824D01*
X71006291Y-74463670D01*
X70872375Y-74519139D01*
X70757379Y-74607379D01*
X70669139Y-74722375D01*
X70613670Y-74856291D01*
X70612824Y-74862720D01*
X70612823Y-74862722D01*
X70602024Y-74944750D01*
X70594750Y-75000000D01*
X60818943Y-75000000D01*
X60727543Y-74950580D01*
X60674370Y-74921829D01*
X60674369Y-74921829D01*
X60670116Y-74919529D01*
X60648212Y-74912749D01*
X60590650Y-74894930D01*
X60540652Y-74859660D01*
X60520935Y-74801739D01*
X60539028Y-74743290D01*
X60593303Y-74705004D01*
X60640724Y-74691764D01*
X60640725Y-74691764D01*
X60645387Y-74690462D01*
X60649700Y-74688283D01*
X60649706Y-74688281D01*
X60807447Y-74608600D01*
X60807449Y-74608598D01*
X60811768Y-74606417D01*
X60958655Y-74491656D01*
X61080454Y-74350550D01*
X61172526Y-74188474D01*
X61175515Y-74179491D01*
X61229837Y-74016192D01*
X61229837Y-74016190D01*
X61231364Y-74011601D01*
X61232389Y-74003492D01*
X61254379Y-73829420D01*
X61254727Y-73826668D01*
X61255099Y-73800000D01*
X61236909Y-73614487D01*
X61183033Y-73436040D01*
X61095522Y-73271456D01*
X60977710Y-73127005D01*
X60972916Y-73123039D01*
X60837812Y-73011270D01*
X60837810Y-73011269D01*
X60834085Y-73008187D01*
X60701189Y-72936330D01*
X60674370Y-72921829D01*
X60674369Y-72921829D01*
X60670116Y-72919529D01*
X60492049Y-72864409D01*
X60487239Y-72863903D01*
X60487237Y-72863903D01*
X60311484Y-72845430D01*
X60311482Y-72845430D01*
X60306668Y-72844924D01*
X60244673Y-72850566D01*
X60125852Y-72861379D01*
X60125848Y-72861380D01*
X60121032Y-72861818D01*
X60116390Y-72863184D01*
X60116386Y-72863185D01*
X59946861Y-72913080D01*
X59946858Y-72913081D01*
X59942214Y-72914448D01*
X59777023Y-73000807D01*
X59773247Y-73003843D01*
X59773244Y-73003845D01*
X59757827Y-73016241D01*
X59631752Y-73117608D01*
X59628644Y-73121312D01*
X59515044Y-73256695D01*
X59515041Y-73256699D01*
X59511935Y-73260401D01*
X59422135Y-73423746D01*
X59420672Y-73428359D01*
X59420670Y-73428363D01*
X59392691Y-73516565D01*
X59365772Y-73601424D01*
X59365232Y-73606236D01*
X59365232Y-73606237D01*
X59349026Y-73750721D01*
X59344994Y-73786665D01*
X59349735Y-73843118D01*
X59359373Y-73957892D01*
X59360592Y-73972414D01*
X59361925Y-73977062D01*
X59361925Y-73977063D01*
X59399149Y-74106878D01*
X59411971Y-74151595D01*
X59497176Y-74317385D01*
X59612959Y-74463468D01*
X59616646Y-74466606D01*
X59616648Y-74466608D01*
X59751224Y-74581141D01*
X59751229Y-74581144D01*
X59754912Y-74584279D01*
X59759134Y-74586639D01*
X59759139Y-74586642D01*
X59842122Y-74633019D01*
X59917627Y-74675217D01*
X59958640Y-74688543D01*
X60011480Y-74705712D01*
X60060980Y-74741677D01*
X60079887Y-74799867D01*
X60060980Y-74858058D01*
X60008839Y-74894839D01*
X59985252Y-74901781D01*
X59946861Y-74913080D01*
X59946858Y-74913081D01*
X59942214Y-74914448D01*
X59777023Y-75000807D01*
X59773247Y-75003843D01*
X59773244Y-75003845D01*
X59728830Y-75039555D01*
X59631752Y-75117608D01*
X59628644Y-75121312D01*
X59515044Y-75256695D01*
X59515041Y-75256699D01*
X59511935Y-75260401D01*
X59422135Y-75423746D01*
X59420672Y-75428359D01*
X59420670Y-75428363D01*
X59395905Y-75506433D01*
X59365772Y-75601424D01*
X59365232Y-75606236D01*
X59365232Y-75606237D01*
X59346681Y-75771627D01*
X59344994Y-75786665D01*
X50500500Y-75786665D01*
X50500500Y-72350000D01*
X64444750Y-72350000D01*
X64445597Y-72356433D01*
X64462394Y-72484014D01*
X64463670Y-72493709D01*
X64519139Y-72627625D01*
X64607379Y-72742621D01*
X64612528Y-72746572D01*
X64640131Y-72767753D01*
X64722375Y-72830861D01*
X64856291Y-72886330D01*
X64862720Y-72887176D01*
X64862722Y-72887177D01*
X64993567Y-72904403D01*
X65000000Y-72905250D01*
X65006433Y-72904403D01*
X65137278Y-72887177D01*
X65137280Y-72887176D01*
X65143709Y-72886330D01*
X65219120Y-72855094D01*
X65231662Y-72850857D01*
X65245750Y-72847127D01*
X65245756Y-72847125D01*
X65250453Y-72845881D01*
X65275980Y-72833385D01*
X65277094Y-72832837D01*
X65307112Y-72817962D01*
X65311848Y-72815627D01*
X65333139Y-72805131D01*
X65334013Y-72804705D01*
X65355639Y-72794324D01*
X65357249Y-72793571D01*
X65374468Y-72785731D01*
X65377139Y-72784564D01*
X65390636Y-72778903D01*
X65394264Y-72777466D01*
X65404768Y-72773543D01*
X65409146Y-72772025D01*
X65418017Y-72769178D01*
X65422882Y-72767753D01*
X65431841Y-72765376D01*
X65436811Y-72764194D01*
X65447523Y-72761940D01*
X65452299Y-72761059D01*
X65466312Y-72758831D01*
X65470716Y-72758233D01*
X65489174Y-72756148D01*
X65493062Y-72755786D01*
X65516927Y-72754043D01*
X65520229Y-72753857D01*
X65550069Y-72752678D01*
X65552807Y-72752608D01*
X65576668Y-72752326D01*
X65576672Y-72752326D01*
X65581459Y-72752269D01*
X65596074Y-72749227D01*
X65616248Y-72747150D01*
X74523560Y-72747150D01*
X74544190Y-72749323D01*
X74553326Y-72751270D01*
X74553331Y-72751271D01*
X74558083Y-72752283D01*
X74562947Y-72752349D01*
X74562948Y-72752349D01*
X74583845Y-72752632D01*
X74587010Y-72752726D01*
X74613151Y-72753917D01*
X74617028Y-72754170D01*
X74636891Y-72755858D01*
X74641518Y-72756361D01*
X74655556Y-72758222D01*
X74660915Y-72759082D01*
X74669934Y-72760785D01*
X74675863Y-72762094D01*
X74681057Y-72763409D01*
X74687297Y-72765209D01*
X74689647Y-72765971D01*
X74690336Y-72766194D01*
X74696466Y-72768409D01*
X74699191Y-72769496D01*
X74704912Y-72771990D01*
X74709157Y-72774002D01*
X74714046Y-72776487D01*
X74721149Y-72780349D01*
X74725051Y-72782587D01*
X74736006Y-72789208D01*
X74738855Y-72790997D01*
X74747403Y-72796572D01*
X74754057Y-72800911D01*
X74755937Y-72802168D01*
X74775580Y-72815627D01*
X74776587Y-72816327D01*
X74800729Y-72833315D01*
X74822169Y-72848520D01*
X74845374Y-72861463D01*
X74857405Y-72869375D01*
X74867223Y-72876908D01*
X74872375Y-72880861D01*
X75006291Y-72936330D01*
X75012720Y-72937176D01*
X75012722Y-72937177D01*
X75143567Y-72954403D01*
X75150000Y-72955250D01*
X75156433Y-72954403D01*
X75287278Y-72937177D01*
X75287280Y-72937176D01*
X75293709Y-72936330D01*
X75427625Y-72880861D01*
X75542621Y-72792621D01*
X75550314Y-72782596D01*
X75626910Y-72682774D01*
X75630861Y-72677625D01*
X75686330Y-72543709D01*
X75693760Y-72487278D01*
X75704403Y-72406433D01*
X75705250Y-72400000D01*
X75698224Y-72346636D01*
X75687177Y-72262722D01*
X75687176Y-72262720D01*
X75686330Y-72256291D01*
X75630861Y-72122375D01*
X75542621Y-72007379D01*
X75522131Y-71991656D01*
X75453439Y-71938947D01*
X75427625Y-71919139D01*
X75293709Y-71863670D01*
X75287280Y-71862824D01*
X75287278Y-71862823D01*
X75156433Y-71845597D01*
X75150000Y-71844750D01*
X75143567Y-71845597D01*
X75012722Y-71862823D01*
X75012720Y-71862824D01*
X75006291Y-71863670D01*
X75000298Y-71866152D01*
X74994030Y-71867832D01*
X74993946Y-71867517D01*
X74987662Y-71869409D01*
X74984405Y-71869716D01*
X74953833Y-71878851D01*
X74952146Y-71879361D01*
X74916965Y-71890138D01*
X74916380Y-71890318D01*
X74884230Y-71900251D01*
X74856237Y-71908795D01*
X74855261Y-71909087D01*
X74831071Y-71916199D01*
X74829506Y-71916644D01*
X74808554Y-71922405D01*
X74806258Y-71923005D01*
X74787754Y-71927604D01*
X74784834Y-71928283D01*
X74767573Y-71932022D01*
X74764293Y-71932675D01*
X74753560Y-71934623D01*
X74746766Y-71935856D01*
X74743361Y-71936412D01*
X74724184Y-71939204D01*
X74720888Y-71939627D01*
X74698692Y-71942094D01*
X74695615Y-71942388D01*
X74689739Y-71942856D01*
X74669266Y-71944486D01*
X74666568Y-71944663D01*
X74635234Y-71946291D01*
X74632905Y-71946384D01*
X74629782Y-71946472D01*
X74595973Y-71947428D01*
X74594022Y-71947464D01*
X74574175Y-71947634D01*
X74559420Y-71947760D01*
X74545063Y-71950712D01*
X74544533Y-71950821D01*
X74524594Y-71952850D01*
X65616039Y-71952850D01*
X65595575Y-71950712D01*
X65586218Y-71948735D01*
X65586216Y-71948735D01*
X65581465Y-71947731D01*
X65576611Y-71947674D01*
X65576606Y-71947673D01*
X65552841Y-71947392D01*
X65550111Y-71947322D01*
X65529801Y-71946521D01*
X65520241Y-71946144D01*
X65516945Y-71945958D01*
X65493033Y-71944211D01*
X65489193Y-71943853D01*
X65470710Y-71941766D01*
X65466312Y-71941168D01*
X65452299Y-71938940D01*
X65447523Y-71938059D01*
X65436811Y-71935805D01*
X65431841Y-71934623D01*
X65422882Y-71932246D01*
X65418013Y-71930820D01*
X65409134Y-71927970D01*
X65404770Y-71926456D01*
X65394227Y-71922519D01*
X65390637Y-71921097D01*
X65377241Y-71915480D01*
X65374524Y-71914292D01*
X65357380Y-71906486D01*
X65355567Y-71905638D01*
X65334015Y-71895294D01*
X65333131Y-71894864D01*
X65306957Y-71881961D01*
X65306803Y-71881812D01*
X65306774Y-71881871D01*
X65277142Y-71867187D01*
X65277222Y-71867026D01*
X65276067Y-71866429D01*
X65275977Y-71866612D01*
X65252862Y-71855297D01*
X65252859Y-71855296D01*
X65250451Y-71854117D01*
X65198195Y-71835262D01*
X65195656Y-71834648D01*
X65186351Y-71831332D01*
X65143709Y-71813670D01*
X65137280Y-71812824D01*
X65137278Y-71812823D01*
X65006433Y-71795597D01*
X65000000Y-71794750D01*
X64993567Y-71795597D01*
X64862722Y-71812823D01*
X64862720Y-71812824D01*
X64856291Y-71813670D01*
X64722375Y-71869139D01*
X64717226Y-71873090D01*
X64615926Y-71950821D01*
X64607379Y-71957379D01*
X64519139Y-72072375D01*
X64463670Y-72206291D01*
X64462824Y-72212720D01*
X64462823Y-72212722D01*
X64448407Y-72322221D01*
X64444750Y-72350000D01*
X50500500Y-72350000D01*
X50500500Y-71286665D01*
X59344994Y-71286665D01*
X59360592Y-71472414D01*
X59361925Y-71477062D01*
X59361925Y-71477063D01*
X59371829Y-71511601D01*
X59411971Y-71651595D01*
X59497176Y-71817385D01*
X59612959Y-71963468D01*
X59616646Y-71966606D01*
X59616648Y-71966608D01*
X59751224Y-72081141D01*
X59751229Y-72081144D01*
X59754912Y-72084279D01*
X59759134Y-72086639D01*
X59759139Y-72086642D01*
X59823077Y-72122375D01*
X59917627Y-72175217D01*
X59922225Y-72176711D01*
X60090302Y-72231323D01*
X60090304Y-72231324D01*
X60094907Y-72232819D01*
X60279998Y-72254890D01*
X60284820Y-72254519D01*
X60284823Y-72254519D01*
X60461023Y-72240961D01*
X60461028Y-72240960D01*
X60465851Y-72240589D01*
X60645387Y-72190462D01*
X60649700Y-72188283D01*
X60649706Y-72188281D01*
X60807447Y-72108600D01*
X60807449Y-72108598D01*
X60811768Y-72106417D01*
X60958655Y-71991656D01*
X61080454Y-71850550D01*
X61172526Y-71688474D01*
X61183361Y-71655905D01*
X61229837Y-71516192D01*
X61229837Y-71516190D01*
X61231364Y-71511601D01*
X61254727Y-71326668D01*
X61255099Y-71300000D01*
X61236909Y-71114487D01*
X61183033Y-70936040D01*
X61095522Y-70771456D01*
X60977710Y-70627005D01*
X60973981Y-70623920D01*
X60837812Y-70511270D01*
X60837810Y-70511269D01*
X60834085Y-70508187D01*
X60670116Y-70419529D01*
X60492049Y-70364409D01*
X60487239Y-70363903D01*
X60487237Y-70363903D01*
X60311484Y-70345430D01*
X60311482Y-70345430D01*
X60306668Y-70344924D01*
X60244673Y-70350566D01*
X60125852Y-70361379D01*
X60125848Y-70361380D01*
X60121032Y-70361818D01*
X60116390Y-70363184D01*
X60116386Y-70363185D01*
X59946861Y-70413080D01*
X59946858Y-70413081D01*
X59942214Y-70414448D01*
X59777023Y-70500807D01*
X59773247Y-70503843D01*
X59773244Y-70503845D01*
X59635523Y-70614576D01*
X59631752Y-70617608D01*
X59628644Y-70621312D01*
X59515044Y-70756695D01*
X59515041Y-70756699D01*
X59511935Y-70760401D01*
X59422135Y-70923746D01*
X59420672Y-70928359D01*
X59420670Y-70928363D01*
X59371013Y-71084902D01*
X59365772Y-71101424D01*
X59344994Y-71286665D01*
X50500500Y-71286665D01*
X50500500Y-68167790D01*
X55920431Y-68167790D01*
X55920568Y-68171281D01*
X55920568Y-68171286D01*
X55922525Y-68221076D01*
X55931415Y-68447334D01*
X55981676Y-68722542D01*
X55982783Y-68725860D01*
X55982784Y-68725864D01*
X56013265Y-68817226D01*
X56070214Y-68987922D01*
X56195261Y-69238180D01*
X56354322Y-69468322D01*
X56544223Y-69673756D01*
X56546933Y-69675963D01*
X56546937Y-69675966D01*
X56758466Y-69848177D01*
X56761176Y-69850383D01*
X57000851Y-69994679D01*
X57038641Y-70010681D01*
X57255238Y-70102399D01*
X57255242Y-70102400D01*
X57258467Y-70103766D01*
X57393675Y-70139616D01*
X57525487Y-70174565D01*
X57525493Y-70174566D01*
X57528883Y-70175465D01*
X57806704Y-70208347D01*
X57810193Y-70208265D01*
X57810198Y-70208265D01*
X57937701Y-70205260D01*
X58086386Y-70201756D01*
X58362349Y-70155823D01*
X58365681Y-70154769D01*
X58365686Y-70154768D01*
X58465203Y-70123295D01*
X58629088Y-70071465D01*
X58632246Y-70069949D01*
X58632250Y-70069947D01*
X58878118Y-69951883D01*
X58878119Y-69951882D01*
X58881279Y-69950365D01*
X59113891Y-69794938D01*
X59116879Y-69792262D01*
X59319671Y-69610626D01*
X59319674Y-69610623D01*
X59322282Y-69608287D01*
X59502295Y-69394136D01*
X59650338Y-69156757D01*
X59675430Y-69100000D01*
X64744750Y-69100000D01*
X64745597Y-69106433D01*
X64750107Y-69140686D01*
X64763670Y-69243709D01*
X64819139Y-69377625D01*
X64907379Y-69492621D01*
X65022375Y-69580861D01*
X65097786Y-69612097D01*
X65109637Y-69617962D01*
X65126455Y-69627737D01*
X65131048Y-69629311D01*
X65131052Y-69629313D01*
X65143757Y-69633667D01*
X65153339Y-69636951D01*
X65154514Y-69637351D01*
X65154584Y-69637374D01*
X65154614Y-69637385D01*
X65186318Y-69648079D01*
X65186510Y-69648144D01*
X65213665Y-69657366D01*
X65214645Y-69657705D01*
X65237177Y-69665621D01*
X65239049Y-69666299D01*
X65256719Y-69672912D01*
X65259495Y-69673999D01*
X65272909Y-69679488D01*
X65276505Y-69681044D01*
X65286709Y-69685699D01*
X65290883Y-69687722D01*
X65299191Y-69691993D01*
X65303633Y-69694422D01*
X65311633Y-69699067D01*
X65316013Y-69701765D01*
X65325131Y-69707714D01*
X65329177Y-69710499D01*
X65340639Y-69718816D01*
X65344187Y-69721514D01*
X65358716Y-69733096D01*
X65361702Y-69735574D01*
X65379817Y-69751221D01*
X65382285Y-69753426D01*
X65404265Y-69773736D01*
X65406139Y-69775515D01*
X65426711Y-69795605D01*
X65430718Y-69798231D01*
X65430720Y-69798233D01*
X65439192Y-69803786D01*
X65454927Y-69816582D01*
X65524692Y-69886347D01*
X65524693Y-69886349D01*
X65613651Y-69975307D01*
X65634915Y-69986142D01*
X65648150Y-69994253D01*
X65667449Y-70008274D01*
X65690133Y-70015644D01*
X65704484Y-70021588D01*
X65725744Y-70032421D01*
X65749307Y-70036153D01*
X65764411Y-70039779D01*
X65787097Y-70047150D01*
X77894487Y-70047150D01*
X77952678Y-70066057D01*
X77964491Y-70076146D01*
X85074692Y-77186347D01*
X85074693Y-77186349D01*
X85163651Y-77275307D01*
X85170590Y-77278843D01*
X85170592Y-77278844D01*
X85184904Y-77286136D01*
X85198152Y-77294254D01*
X85211148Y-77303697D01*
X85211151Y-77303699D01*
X85217450Y-77308275D01*
X85240143Y-77315649D01*
X85254487Y-77321591D01*
X85268799Y-77328883D01*
X85268802Y-77328884D01*
X85275744Y-77332421D01*
X85299303Y-77336152D01*
X85314400Y-77339776D01*
X85337097Y-77347151D01*
X85462903Y-77347151D01*
X85462905Y-77347150D01*
X89344487Y-77347150D01*
X89402678Y-77366057D01*
X89414491Y-77376146D01*
X90499692Y-78461347D01*
X90499693Y-78461349D01*
X90588651Y-78550307D01*
X90595590Y-78553843D01*
X90595592Y-78553844D01*
X90609904Y-78561136D01*
X90623152Y-78569254D01*
X90636148Y-78578697D01*
X90636151Y-78578699D01*
X90642450Y-78583275D01*
X90665143Y-78590649D01*
X90679487Y-78596591D01*
X90693799Y-78603883D01*
X90693802Y-78603884D01*
X90700744Y-78607421D01*
X90724303Y-78611152D01*
X90739400Y-78614776D01*
X90762097Y-78622151D01*
X90887903Y-78622151D01*
X90887905Y-78622150D01*
X93258966Y-78622150D01*
X93279424Y-78624287D01*
X93293543Y-78627269D01*
X93314744Y-78627519D01*
X93322156Y-78627607D01*
X93324889Y-78627677D01*
X93345258Y-78628481D01*
X93354758Y-78628855D01*
X93358054Y-78629041D01*
X93381966Y-78630788D01*
X93385806Y-78631146D01*
X93404289Y-78633233D01*
X93408687Y-78633831D01*
X93422700Y-78636059D01*
X93427476Y-78636940D01*
X93438188Y-78639194D01*
X93443158Y-78640376D01*
X93452117Y-78642753D01*
X93456986Y-78644179D01*
X93465865Y-78647029D01*
X93470229Y-78648543D01*
X93480772Y-78652480D01*
X93484362Y-78653902D01*
X93497758Y-78659519D01*
X93500475Y-78660707D01*
X93517619Y-78668513D01*
X93519432Y-78669361D01*
X93540984Y-78679705D01*
X93541868Y-78680135D01*
X93568042Y-78693038D01*
X93568196Y-78693187D01*
X93568225Y-78693128D01*
X93597857Y-78707812D01*
X93597776Y-78707975D01*
X93598927Y-78708572D01*
X93599019Y-78708384D01*
X93624546Y-78720880D01*
X93627070Y-78721791D01*
X93674232Y-78738814D01*
X93674238Y-78738816D01*
X93676757Y-78739725D01*
X93679327Y-78740347D01*
X93688676Y-78743679D01*
X93725291Y-78758845D01*
X93725293Y-78758846D01*
X93731291Y-78761330D01*
X93875000Y-78780250D01*
X93881433Y-78779403D01*
X94012278Y-78762177D01*
X94012280Y-78762176D01*
X94018709Y-78761330D01*
X94152625Y-78705861D01*
X94235056Y-78642609D01*
X94295324Y-78622151D01*
X94407903Y-78622151D01*
X94430600Y-78614776D01*
X94445697Y-78611152D01*
X94469256Y-78607421D01*
X94476198Y-78603884D01*
X94476201Y-78603883D01*
X94490513Y-78596591D01*
X94504857Y-78590649D01*
X94527550Y-78583275D01*
X94533849Y-78578699D01*
X94533852Y-78578697D01*
X94546848Y-78569254D01*
X94560096Y-78561136D01*
X94574408Y-78553844D01*
X94574410Y-78553843D01*
X94581349Y-78550307D01*
X94654408Y-78477248D01*
X94663923Y-78468881D01*
X94666463Y-78466920D01*
X94667024Y-78466487D01*
X94667983Y-78465705D01*
X94668437Y-78465315D01*
X94668458Y-78465297D01*
X94677670Y-78457374D01*
X94678127Y-78456981D01*
X94685278Y-78450498D01*
X105169750Y-78450498D01*
X105170597Y-78456931D01*
X105187548Y-78585681D01*
X105188670Y-78594207D01*
X105244139Y-78728123D01*
X105332379Y-78843119D01*
X105447375Y-78931359D01*
X105581291Y-78986828D01*
X105587720Y-78987674D01*
X105587722Y-78987675D01*
X105718567Y-79004901D01*
X105725000Y-79005748D01*
X105731433Y-79004901D01*
X105862278Y-78987675D01*
X105862280Y-78987674D01*
X105868709Y-78986828D01*
X106002625Y-78931359D01*
X106117621Y-78843119D01*
X106205861Y-78728123D01*
X106261330Y-78594207D01*
X106262453Y-78585681D01*
X106279403Y-78456931D01*
X106280250Y-78450498D01*
X106266448Y-78345660D01*
X106262177Y-78313220D01*
X106262176Y-78313218D01*
X106261330Y-78306789D01*
X106205861Y-78172873D01*
X106117621Y-78057877D01*
X106002625Y-77969637D01*
X105868709Y-77914168D01*
X105862280Y-77913322D01*
X105862278Y-77913321D01*
X105731433Y-77896095D01*
X105725000Y-77895248D01*
X105718567Y-77896095D01*
X105587722Y-77913321D01*
X105587720Y-77913322D01*
X105581291Y-77914168D01*
X105447375Y-77969637D01*
X105332379Y-78057877D01*
X105244139Y-78172873D01*
X105188670Y-78306789D01*
X105187824Y-78313218D01*
X105187823Y-78313220D01*
X105183552Y-78345660D01*
X105169750Y-78450498D01*
X94685278Y-78450498D01*
X94703128Y-78434315D01*
X94713575Y-78419859D01*
X94723805Y-78407850D01*
X97631655Y-75500000D01*
X110394750Y-75500000D01*
X110398407Y-75527779D01*
X110408737Y-75606237D01*
X110413670Y-75643709D01*
X110469139Y-75777625D01*
X110557379Y-75892621D01*
X110672375Y-75980861D01*
X110806291Y-76036330D01*
X110812720Y-76037176D01*
X110812722Y-76037177D01*
X110943567Y-76054403D01*
X110950000Y-76055250D01*
X110956433Y-76054403D01*
X111087278Y-76037177D01*
X111087280Y-76037176D01*
X111093709Y-76036330D01*
X111227625Y-75980861D01*
X111342621Y-75892621D01*
X111430861Y-75777625D01*
X111486330Y-75643709D01*
X111491264Y-75606237D01*
X111501593Y-75527779D01*
X111505250Y-75500000D01*
X111495819Y-75428363D01*
X111487177Y-75362722D01*
X111487176Y-75362720D01*
X111486330Y-75356291D01*
X111430861Y-75222375D01*
X111342621Y-75107379D01*
X111227625Y-75019139D01*
X111093709Y-74963670D01*
X111087280Y-74962824D01*
X111087278Y-74962823D01*
X110975309Y-74948082D01*
X110950000Y-74944750D01*
X110924691Y-74948082D01*
X110812722Y-74962823D01*
X110812720Y-74962824D01*
X110806291Y-74963670D01*
X110672375Y-75019139D01*
X110557379Y-75107379D01*
X110469139Y-75222375D01*
X110413670Y-75356291D01*
X110412824Y-75362720D01*
X110412823Y-75362722D01*
X110404181Y-75428363D01*
X110394750Y-75500000D01*
X97631655Y-75500000D01*
X98084067Y-75047588D01*
X98101751Y-75033547D01*
X98107569Y-75029925D01*
X98111704Y-75027351D01*
X98193597Y-74950573D01*
X98199082Y-74945796D01*
X98270900Y-74887784D01*
X98277663Y-74882781D01*
X98340192Y-74840518D01*
X98348146Y-74835671D01*
X98403335Y-74805504D01*
X98412058Y-74801276D01*
X98463121Y-74779549D01*
X98471853Y-74776310D01*
X98523000Y-74760029D01*
X98530810Y-74757891D01*
X98586270Y-74745122D01*
X98592340Y-74743923D01*
X98605931Y-74741677D01*
X98655639Y-74733463D01*
X98659428Y-74732912D01*
X98732807Y-74723713D01*
X98734236Y-74723544D01*
X98744804Y-74722375D01*
X98817354Y-74714350D01*
X98819484Y-74714106D01*
X98908936Y-74703451D01*
X98908946Y-74703450D01*
X98912048Y-74703060D01*
X98912133Y-74703049D01*
X98912155Y-74703046D01*
X98912458Y-74703006D01*
X98912481Y-74703003D01*
X98912532Y-74702996D01*
X98914910Y-74702663D01*
X98916337Y-74702464D01*
X98916456Y-74702446D01*
X98916550Y-74702433D01*
X99010371Y-74688581D01*
X99010449Y-74688569D01*
X99010625Y-74688543D01*
X99012755Y-74688205D01*
X99015801Y-74687723D01*
X99015831Y-74687718D01*
X99015970Y-74687696D01*
X99016466Y-74687612D01*
X99016673Y-74687575D01*
X99016705Y-74687569D01*
X99018908Y-74687171D01*
X99022048Y-74686603D01*
X99022333Y-74686548D01*
X99022388Y-74686538D01*
X99121942Y-74667395D01*
X99121975Y-74667388D01*
X99122336Y-74667319D01*
X99122700Y-74667244D01*
X99122724Y-74667239D01*
X99128963Y-74665950D01*
X99129009Y-74665940D01*
X99129247Y-74665891D01*
X99129463Y-74665843D01*
X99129511Y-74665833D01*
X99129601Y-74665813D01*
X99129638Y-74665805D01*
X99129835Y-74665761D01*
X99130043Y-74665712D01*
X99130061Y-74665708D01*
X99136125Y-74664283D01*
X99136183Y-74664269D01*
X99136391Y-74664220D01*
X99243862Y-74637470D01*
X99244175Y-74637387D01*
X99244214Y-74637377D01*
X99247620Y-74636473D01*
X99251378Y-74635477D01*
X99251673Y-74635394D01*
X99251728Y-74635379D01*
X99251748Y-74635373D01*
X99252053Y-74635287D01*
X99252330Y-74635205D01*
X99252384Y-74635189D01*
X99255261Y-74634333D01*
X99259287Y-74633135D01*
X99358165Y-74602123D01*
X99364647Y-74600090D01*
X99364649Y-74600089D01*
X99367379Y-74599233D01*
X99409207Y-74580583D01*
X99417678Y-74577266D01*
X99469531Y-74559664D01*
X99602474Y-74485213D01*
X99642039Y-74463056D01*
X99642041Y-74463055D01*
X99646001Y-74460837D01*
X99669084Y-74441639D01*
X100410000Y-74441639D01*
X100410346Y-74447485D01*
X100412234Y-74463353D01*
X100416128Y-74477519D01*
X100454770Y-74564514D01*
X100464946Y-74579321D01*
X100531108Y-74645367D01*
X100545931Y-74655517D01*
X100632980Y-74694000D01*
X100647185Y-74697873D01*
X100662580Y-74699668D01*
X100668292Y-74700000D01*
X101169320Y-74700000D01*
X101182005Y-74695878D01*
X101185000Y-74691757D01*
X101185000Y-74684320D01*
X101935000Y-74684320D01*
X101939122Y-74697005D01*
X101943243Y-74700000D01*
X102451639Y-74700000D01*
X102457485Y-74699654D01*
X102473353Y-74697766D01*
X102487519Y-74693872D01*
X102574514Y-74655230D01*
X102589321Y-74645054D01*
X102655367Y-74578892D01*
X102665517Y-74564069D01*
X102704000Y-74477020D01*
X102707873Y-74462815D01*
X102709668Y-74447420D01*
X102710000Y-74441708D01*
X102710000Y-73940680D01*
X102705878Y-73927995D01*
X102701757Y-73925000D01*
X101950680Y-73925000D01*
X101937995Y-73929122D01*
X101935000Y-73933243D01*
X101935000Y-74684320D01*
X101185000Y-74684320D01*
X101185000Y-73940680D01*
X101180878Y-73927995D01*
X101176757Y-73925000D01*
X100425680Y-73925000D01*
X100412995Y-73929122D01*
X100410000Y-73933243D01*
X100410000Y-74441639D01*
X99669084Y-74441639D01*
X99801505Y-74331505D01*
X99930837Y-74176001D01*
X99947114Y-74146937D01*
X99969547Y-74106878D01*
X100029664Y-73999531D01*
X100035027Y-73983734D01*
X100089285Y-73823894D01*
X100094678Y-73808007D01*
X100097773Y-73786665D01*
X100116459Y-73657782D01*
X100123700Y-73607842D01*
X100124964Y-73559597D01*
X100125139Y-73552913D01*
X100125139Y-73552908D01*
X100125215Y-73550000D01*
X100122557Y-73521069D01*
X102995164Y-73521069D01*
X102997295Y-73553579D01*
X103005872Y-73684440D01*
X103008392Y-73722894D01*
X103009508Y-73727287D01*
X103009508Y-73727289D01*
X103057062Y-73914534D01*
X103058178Y-73918928D01*
X103142856Y-74102607D01*
X103259588Y-74267780D01*
X103404466Y-74408913D01*
X103572637Y-74521282D01*
X103758470Y-74601122D01*
X103955740Y-74645760D01*
X104157842Y-74653700D01*
X104211377Y-74645938D01*
X104353519Y-74625329D01*
X104353522Y-74625328D01*
X104358007Y-74624678D01*
X104477018Y-74584279D01*
X104545234Y-74561123D01*
X104545237Y-74561121D01*
X104549531Y-74559664D01*
X104716509Y-74466153D01*
X104722039Y-74463056D01*
X104722041Y-74463055D01*
X104726001Y-74460837D01*
X104881505Y-74331505D01*
X105010837Y-74176001D01*
X105027114Y-74146937D01*
X105049547Y-74106878D01*
X105109664Y-73999531D01*
X105115027Y-73983734D01*
X105169285Y-73823894D01*
X105174678Y-73808007D01*
X105177773Y-73786665D01*
X105196459Y-73657782D01*
X105203700Y-73607842D01*
X105204964Y-73559597D01*
X105205139Y-73552913D01*
X105205139Y-73552908D01*
X105205215Y-73550000D01*
X105194744Y-73436040D01*
X105187123Y-73353109D01*
X105186708Y-73348591D01*
X105169582Y-73287868D01*
X118556882Y-73287868D01*
X118575802Y-73431577D01*
X118631271Y-73565493D01*
X118719511Y-73680489D01*
X118834507Y-73768729D01*
X118968423Y-73824198D01*
X118974852Y-73825044D01*
X118974854Y-73825045D01*
X119105699Y-73842271D01*
X119112132Y-73843118D01*
X119118565Y-73842271D01*
X119249410Y-73825045D01*
X119249412Y-73825044D01*
X119255841Y-73824198D01*
X119389757Y-73768729D01*
X119504753Y-73680489D01*
X119592993Y-73565493D01*
X119648462Y-73431577D01*
X119667382Y-73287868D01*
X119656158Y-73202616D01*
X119649309Y-73150590D01*
X119649308Y-73150588D01*
X119648462Y-73144159D01*
X119592993Y-73010243D01*
X119504753Y-72895247D01*
X119389757Y-72807007D01*
X119255841Y-72751538D01*
X119249412Y-72750692D01*
X119249410Y-72750691D01*
X119118565Y-72733465D01*
X119112132Y-72732618D01*
X119105699Y-72733465D01*
X118974854Y-72750691D01*
X118974852Y-72750692D01*
X118968423Y-72751538D01*
X118834507Y-72807007D01*
X118719511Y-72895247D01*
X118631271Y-73010243D01*
X118575802Y-73144159D01*
X118574956Y-73150588D01*
X118574955Y-73150590D01*
X118568106Y-73202616D01*
X118556882Y-73287868D01*
X105169582Y-73287868D01*
X105131807Y-73153926D01*
X105126991Y-73144159D01*
X105060950Y-73010243D01*
X105042351Y-72972527D01*
X104938240Y-72833106D01*
X104924051Y-72814104D01*
X104924050Y-72814103D01*
X104921335Y-72810467D01*
X104772812Y-72673174D01*
X104750125Y-72658859D01*
X104605594Y-72567667D01*
X104601757Y-72565246D01*
X104413898Y-72490298D01*
X104215526Y-72450839D01*
X104115930Y-72449535D01*
X104017826Y-72448251D01*
X104017821Y-72448251D01*
X104013286Y-72448192D01*
X104008813Y-72448961D01*
X104008808Y-72448961D01*
X103910245Y-72465898D01*
X103813949Y-72482444D01*
X103624193Y-72552449D01*
X103450371Y-72655862D01*
X103446956Y-72658857D01*
X103446953Y-72658859D01*
X103357312Y-72737472D01*
X103298305Y-72789220D01*
X103295497Y-72792782D01*
X103182334Y-72936330D01*
X103173089Y-72948057D01*
X103078914Y-73127053D01*
X103077569Y-73131384D01*
X103077568Y-73131387D01*
X103022013Y-73310307D01*
X103018937Y-73320213D01*
X103007186Y-73419500D01*
X103003892Y-73447331D01*
X102995164Y-73521069D01*
X100122557Y-73521069D01*
X100114744Y-73436040D01*
X100107123Y-73353109D01*
X100106708Y-73348591D01*
X100053328Y-73159320D01*
X100410000Y-73159320D01*
X100414122Y-73172005D01*
X100418243Y-73175000D01*
X101169320Y-73175000D01*
X101182005Y-73170878D01*
X101185000Y-73166757D01*
X101185000Y-73159320D01*
X101935000Y-73159320D01*
X101939122Y-73172005D01*
X101943243Y-73175000D01*
X102694320Y-73175000D01*
X102707005Y-73170878D01*
X102710000Y-73166757D01*
X102710000Y-72658361D01*
X102709654Y-72652515D01*
X102707766Y-72636647D01*
X102703872Y-72622481D01*
X102665230Y-72535486D01*
X102655054Y-72520679D01*
X102588892Y-72454633D01*
X102574069Y-72444483D01*
X102487020Y-72406000D01*
X102472815Y-72402127D01*
X102457420Y-72400332D01*
X102451708Y-72400000D01*
X101950680Y-72400000D01*
X101937995Y-72404122D01*
X101935000Y-72408243D01*
X101935000Y-73159320D01*
X101185000Y-73159320D01*
X101185000Y-72415680D01*
X101180878Y-72402995D01*
X101176757Y-72400000D01*
X100668361Y-72400000D01*
X100662515Y-72400346D01*
X100646647Y-72402234D01*
X100632481Y-72406128D01*
X100545486Y-72444770D01*
X100530679Y-72454946D01*
X100464633Y-72521108D01*
X100454483Y-72535931D01*
X100416000Y-72622980D01*
X100412127Y-72637185D01*
X100410332Y-72652580D01*
X100410000Y-72658292D01*
X100410000Y-73159320D01*
X100053328Y-73159320D01*
X100051807Y-73153926D01*
X100046991Y-73144159D01*
X99980950Y-73010243D01*
X99962351Y-72972527D01*
X99858240Y-72833106D01*
X99844051Y-72814104D01*
X99844050Y-72814103D01*
X99841335Y-72810467D01*
X99692812Y-72673174D01*
X99670125Y-72658859D01*
X99525594Y-72567667D01*
X99521757Y-72565246D01*
X99333898Y-72490298D01*
X99135526Y-72450839D01*
X99035930Y-72449535D01*
X98937826Y-72448251D01*
X98937821Y-72448251D01*
X98933286Y-72448192D01*
X98928813Y-72448961D01*
X98928808Y-72448961D01*
X98830245Y-72465898D01*
X98733949Y-72482444D01*
X98544193Y-72552449D01*
X98370371Y-72655862D01*
X98366956Y-72658857D01*
X98366953Y-72658859D01*
X98277312Y-72737472D01*
X98218305Y-72789220D01*
X98215497Y-72792782D01*
X98102334Y-72936330D01*
X98093089Y-72948057D01*
X97998914Y-73127053D01*
X97997570Y-73131380D01*
X97997568Y-73131386D01*
X97991835Y-73149852D01*
X97984957Y-73172005D01*
X97984543Y-73173337D01*
X97976865Y-73191464D01*
X97970768Y-73202616D01*
X97936863Y-73310712D01*
X97934683Y-73318045D01*
X97934493Y-73318721D01*
X97934426Y-73318975D01*
X97934412Y-73319025D01*
X97932626Y-73325768D01*
X97932527Y-73326142D01*
X97905782Y-73433593D01*
X97905707Y-73433911D01*
X97905696Y-73433958D01*
X97904848Y-73437571D01*
X97904206Y-73440308D01*
X97904070Y-73440925D01*
X97902677Y-73447677D01*
X97883396Y-73547951D01*
X97883343Y-73548244D01*
X97882498Y-73552913D01*
X97882414Y-73553375D01*
X97882329Y-73553875D01*
X97881455Y-73559377D01*
X97867536Y-73653651D01*
X97867003Y-73657457D01*
X97866960Y-73657782D01*
X97866546Y-73661077D01*
X97855893Y-73750517D01*
X97855870Y-73750721D01*
X97855662Y-73752529D01*
X97855649Y-73752646D01*
X97855620Y-73752908D01*
X97855619Y-73752917D01*
X97846469Y-73835644D01*
X97846300Y-73837074D01*
X97837088Y-73910562D01*
X97836533Y-73914382D01*
X97834284Y-73927995D01*
X97826076Y-73977661D01*
X97824881Y-73983712D01*
X97812105Y-74039203D01*
X97809970Y-74046999D01*
X97793689Y-74098146D01*
X97790450Y-74106878D01*
X97768723Y-74157941D01*
X97764495Y-74166664D01*
X97734328Y-74221853D01*
X97729481Y-74229807D01*
X97687218Y-74292336D01*
X97682215Y-74299099D01*
X97653691Y-74334411D01*
X97624216Y-74370900D01*
X97619426Y-74376402D01*
X97545836Y-74454896D01*
X97545829Y-74454904D01*
X97542647Y-74458299D01*
X97535704Y-74469252D01*
X97522093Y-74486252D01*
X94277367Y-77730978D01*
X94222850Y-77758755D01*
X94162418Y-77749184D01*
X94157285Y-77746358D01*
X94157279Y-77746368D01*
X94157037Y-77746227D01*
X94156683Y-77746018D01*
X94156109Y-77745690D01*
X94149205Y-77741884D01*
X94133111Y-77733335D01*
X94077441Y-77711672D01*
X94074644Y-77710946D01*
X94071874Y-77710051D01*
X94071903Y-77709961D01*
X94062524Y-77706819D01*
X94018709Y-77688670D01*
X94012280Y-77687824D01*
X94012278Y-77687823D01*
X93881433Y-77670597D01*
X93875000Y-77669750D01*
X93731291Y-77688670D01*
X93725294Y-77691154D01*
X93719171Y-77693690D01*
X93655877Y-77719907D01*
X93643345Y-77724141D01*
X93624553Y-77729116D01*
X93620184Y-77731254D01*
X93620180Y-77731256D01*
X93599026Y-77741611D01*
X93598871Y-77741294D01*
X93597699Y-77741869D01*
X93597857Y-77742187D01*
X93568225Y-77756871D01*
X93541792Y-77769902D01*
X93541072Y-77770252D01*
X93519390Y-77780660D01*
X93517748Y-77781429D01*
X93500531Y-77789268D01*
X93497860Y-77790435D01*
X93484363Y-77796096D01*
X93480735Y-77797533D01*
X93471429Y-77801008D01*
X93470230Y-77801456D01*
X93465853Y-77802974D01*
X93456982Y-77805821D01*
X93452117Y-77807246D01*
X93443158Y-77809623D01*
X93438188Y-77810805D01*
X93427476Y-77813059D01*
X93422700Y-77813940D01*
X93408687Y-77816168D01*
X93404283Y-77816766D01*
X93385825Y-77818851D01*
X93381937Y-77819213D01*
X93358072Y-77820956D01*
X93354769Y-77821142D01*
X93324928Y-77822321D01*
X93322194Y-77822391D01*
X93298320Y-77822674D01*
X93298317Y-77822674D01*
X93293532Y-77822731D01*
X93288849Y-77823706D01*
X93288848Y-77823706D01*
X93285799Y-77824341D01*
X93278923Y-77825772D01*
X93258748Y-77827850D01*
X91030513Y-77827850D01*
X90972322Y-77808943D01*
X90960509Y-77798854D01*
X89875308Y-76713653D01*
X89875307Y-76713651D01*
X89786349Y-76624693D01*
X89779410Y-76621157D01*
X89779408Y-76621156D01*
X89765096Y-76613864D01*
X89751848Y-76605746D01*
X89738852Y-76596303D01*
X89738849Y-76596301D01*
X89732550Y-76591725D01*
X89709857Y-76584351D01*
X89695513Y-76578409D01*
X89681201Y-76571117D01*
X89681198Y-76571116D01*
X89674256Y-76567579D01*
X89650697Y-76563848D01*
X89635600Y-76560224D01*
X89612903Y-76552849D01*
X89487097Y-76552849D01*
X89487095Y-76552850D01*
X85605513Y-76552850D01*
X85547322Y-76533943D01*
X85535509Y-76523854D01*
X78425308Y-69413653D01*
X78425307Y-69413651D01*
X78336349Y-69324693D01*
X78329410Y-69321157D01*
X78329408Y-69321156D01*
X78315096Y-69313864D01*
X78301848Y-69305746D01*
X78288852Y-69296303D01*
X78288849Y-69296301D01*
X78282550Y-69291725D01*
X78259857Y-69284351D01*
X78245513Y-69278409D01*
X78231201Y-69271117D01*
X78231198Y-69271116D01*
X78224256Y-69267579D01*
X78200697Y-69263848D01*
X78185600Y-69260224D01*
X78162903Y-69252849D01*
X78037097Y-69252849D01*
X78037095Y-69252850D01*
X66338770Y-69252850D01*
X66304751Y-69241797D01*
X66261230Y-69252850D01*
X66062828Y-69252850D01*
X66004637Y-69233943D01*
X65992005Y-69223024D01*
X65975517Y-69206140D01*
X65973736Y-69204265D01*
X65953426Y-69182285D01*
X65951221Y-69179817D01*
X65935574Y-69161702D01*
X65933096Y-69158716D01*
X65921514Y-69144187D01*
X65918850Y-69140686D01*
X65918502Y-69140207D01*
X65899596Y-69082016D01*
X65918504Y-69023826D01*
X65968005Y-68987863D01*
X66029190Y-68987864D01*
X66036481Y-68990554D01*
X66079494Y-69008370D01*
X66156291Y-69040180D01*
X66162720Y-69041026D01*
X66162722Y-69041027D01*
X66274152Y-69055697D01*
X66297697Y-69066928D01*
X66325847Y-69055697D01*
X66327875Y-69055430D01*
X66353418Y-69052067D01*
X66371011Y-69051330D01*
X66377663Y-69051644D01*
X66384296Y-69051958D01*
X66384298Y-69051958D01*
X66389147Y-69052187D01*
X66422936Y-69047110D01*
X66425245Y-69046752D01*
X66425410Y-69046726D01*
X66463386Y-69040664D01*
X66465138Y-69040378D01*
X66500178Y-69034535D01*
X66501082Y-69034383D01*
X66533844Y-69028799D01*
X66533845Y-69028803D01*
X66533895Y-69028790D01*
X66563791Y-69023714D01*
X66564215Y-69023644D01*
X66591434Y-69019180D01*
X66592489Y-69019013D01*
X66617787Y-69015144D01*
X66619278Y-69014927D01*
X66643507Y-69011598D01*
X66645343Y-69011364D01*
X66669601Y-69008492D01*
X66671623Y-69008273D01*
X66681481Y-69007311D01*
X66697491Y-69005748D01*
X66699530Y-69005571D01*
X66705480Y-69005117D01*
X66727772Y-69003413D01*
X66729772Y-69003280D01*
X66734736Y-69003002D01*
X66761688Y-69001490D01*
X66763458Y-69001408D01*
X66799817Y-69000047D01*
X66801409Y-69000001D01*
X66843211Y-68999131D01*
X66844570Y-68999112D01*
X66860960Y-68999008D01*
X66877978Y-68998900D01*
X66877981Y-68998900D01*
X66882804Y-68998869D01*
X66897873Y-68995796D01*
X66917655Y-68993800D01*
X78441137Y-68993800D01*
X78499328Y-69012707D01*
X78511141Y-69022796D01*
X85474692Y-75986347D01*
X85474693Y-75986349D01*
X85563651Y-76075307D01*
X85570590Y-76078843D01*
X85570592Y-76078844D01*
X85584904Y-76086136D01*
X85598152Y-76094254D01*
X85611148Y-76103697D01*
X85611151Y-76103699D01*
X85617450Y-76108275D01*
X85640143Y-76115649D01*
X85654487Y-76121591D01*
X85668799Y-76128883D01*
X85668802Y-76128884D01*
X85675744Y-76132421D01*
X85699303Y-76136152D01*
X85714400Y-76139776D01*
X85737097Y-76147151D01*
X85862903Y-76147151D01*
X85862905Y-76147150D01*
X90294487Y-76147150D01*
X90352678Y-76166057D01*
X90364491Y-76176146D01*
X90433574Y-76245229D01*
X90446529Y-76261208D01*
X90454400Y-76273295D01*
X90457802Y-76276778D01*
X90474378Y-76293751D01*
X90476229Y-76295698D01*
X90496596Y-76317739D01*
X90498776Y-76320180D01*
X90514424Y-76338296D01*
X90516917Y-76341301D01*
X90528469Y-76355793D01*
X90531183Y-76359360D01*
X90539500Y-76370822D01*
X90542285Y-76374868D01*
X90548234Y-76383986D01*
X90550939Y-76388377D01*
X90555577Y-76396366D01*
X90558006Y-76400808D01*
X90562277Y-76409116D01*
X90564300Y-76413290D01*
X90568955Y-76423494D01*
X90570511Y-76427090D01*
X90576000Y-76440504D01*
X90577095Y-76443300D01*
X90583696Y-76460940D01*
X90584378Y-76462822D01*
X90592284Y-76485325D01*
X90592623Y-76486303D01*
X90601890Y-76513591D01*
X90612630Y-76545431D01*
X90613030Y-76546608D01*
X90622263Y-76573547D01*
X90623406Y-76575981D01*
X90623408Y-76575985D01*
X90628414Y-76586642D01*
X90645890Y-76623844D01*
X90647237Y-76626050D01*
X90651468Y-76634965D01*
X90666655Y-76671631D01*
X90666660Y-76671639D01*
X90669139Y-76677625D01*
X90673084Y-76682766D01*
X90673085Y-76682768D01*
X90753428Y-76787472D01*
X90757379Y-76792621D01*
X90762528Y-76796572D01*
X90769952Y-76802269D01*
X90872375Y-76880861D01*
X91006291Y-76936330D01*
X91012720Y-76937176D01*
X91012722Y-76937177D01*
X91143567Y-76954403D01*
X91150000Y-76955250D01*
X91156433Y-76954403D01*
X91287278Y-76937177D01*
X91287280Y-76937176D01*
X91293709Y-76936330D01*
X91369120Y-76905094D01*
X91381662Y-76900857D01*
X91395750Y-76897127D01*
X91395756Y-76897125D01*
X91400453Y-76895881D01*
X91425980Y-76883385D01*
X91427094Y-76882837D01*
X91457112Y-76867962D01*
X91457786Y-76867630D01*
X91483139Y-76855131D01*
X91484013Y-76854705D01*
X91505639Y-76844324D01*
X91507249Y-76843571D01*
X91524468Y-76835731D01*
X91527139Y-76834564D01*
X91540636Y-76828903D01*
X91544264Y-76827466D01*
X91554768Y-76823543D01*
X91559146Y-76822025D01*
X91568017Y-76819178D01*
X91572882Y-76817753D01*
X91581841Y-76815376D01*
X91586811Y-76814194D01*
X91597523Y-76811940D01*
X91602299Y-76811059D01*
X91616312Y-76808831D01*
X91620716Y-76808233D01*
X91639174Y-76806148D01*
X91643062Y-76805786D01*
X91666927Y-76804043D01*
X91670229Y-76803857D01*
X91700069Y-76802678D01*
X91702807Y-76802608D01*
X91726668Y-76802326D01*
X91726672Y-76802326D01*
X91731459Y-76802269D01*
X91746074Y-76799227D01*
X91766248Y-76797150D01*
X93567095Y-76797150D01*
X93567097Y-76797151D01*
X93692903Y-76797151D01*
X93715600Y-76789776D01*
X93730697Y-76786152D01*
X93754256Y-76782421D01*
X93761198Y-76778884D01*
X93761201Y-76778883D01*
X93775513Y-76771591D01*
X93789857Y-76765649D01*
X93812550Y-76758275D01*
X93818849Y-76753699D01*
X93818852Y-76753697D01*
X93831848Y-76744254D01*
X93845096Y-76736136D01*
X93859408Y-76728844D01*
X93859410Y-76728843D01*
X93866349Y-76725307D01*
X93955307Y-76636349D01*
X93955308Y-76636347D01*
X95544067Y-75047588D01*
X95561751Y-75033547D01*
X95567569Y-75029925D01*
X95571704Y-75027351D01*
X95653597Y-74950573D01*
X95659082Y-74945796D01*
X95730900Y-74887784D01*
X95737663Y-74882781D01*
X95800192Y-74840518D01*
X95808146Y-74835671D01*
X95863335Y-74805504D01*
X95872058Y-74801276D01*
X95923121Y-74779549D01*
X95931853Y-74776310D01*
X95983000Y-74760029D01*
X95990810Y-74757891D01*
X96046270Y-74745122D01*
X96052340Y-74743923D01*
X96065931Y-74741677D01*
X96115639Y-74733463D01*
X96119428Y-74732912D01*
X96192807Y-74723713D01*
X96194236Y-74723544D01*
X96204804Y-74722375D01*
X96277354Y-74714350D01*
X96279484Y-74714106D01*
X96368936Y-74703451D01*
X96368946Y-74703450D01*
X96372048Y-74703060D01*
X96372133Y-74703049D01*
X96372155Y-74703046D01*
X96372458Y-74703006D01*
X96372481Y-74703003D01*
X96372532Y-74702996D01*
X96374910Y-74702663D01*
X96376337Y-74702464D01*
X96376456Y-74702446D01*
X96376550Y-74702433D01*
X96470371Y-74688581D01*
X96470449Y-74688569D01*
X96470625Y-74688543D01*
X96472755Y-74688205D01*
X96475801Y-74687723D01*
X96475831Y-74687718D01*
X96475970Y-74687696D01*
X96476466Y-74687612D01*
X96476673Y-74687575D01*
X96476705Y-74687569D01*
X96478908Y-74687171D01*
X96482048Y-74686603D01*
X96482333Y-74686548D01*
X96482388Y-74686538D01*
X96581942Y-74667395D01*
X96581975Y-74667388D01*
X96582336Y-74667319D01*
X96582700Y-74667244D01*
X96582724Y-74667239D01*
X96588963Y-74665950D01*
X96589009Y-74665940D01*
X96589247Y-74665891D01*
X96589463Y-74665843D01*
X96589511Y-74665833D01*
X96589601Y-74665813D01*
X96589638Y-74665805D01*
X96589835Y-74665761D01*
X96590043Y-74665712D01*
X96590061Y-74665708D01*
X96596125Y-74664283D01*
X96596183Y-74664269D01*
X96596391Y-74664220D01*
X96703862Y-74637470D01*
X96704175Y-74637387D01*
X96704214Y-74637377D01*
X96707620Y-74636473D01*
X96711378Y-74635477D01*
X96711673Y-74635394D01*
X96711728Y-74635379D01*
X96711748Y-74635373D01*
X96712053Y-74635287D01*
X96712330Y-74635205D01*
X96712384Y-74635189D01*
X96715261Y-74634333D01*
X96719287Y-74633135D01*
X96818165Y-74602123D01*
X96824647Y-74600090D01*
X96824649Y-74600089D01*
X96827379Y-74599233D01*
X96869207Y-74580583D01*
X96877678Y-74577266D01*
X96929531Y-74559664D01*
X97062474Y-74485213D01*
X97102039Y-74463056D01*
X97102041Y-74463055D01*
X97106001Y-74460837D01*
X97261505Y-74331505D01*
X97390837Y-74176001D01*
X97407114Y-74146937D01*
X97429547Y-74106878D01*
X97489664Y-73999531D01*
X97495027Y-73983734D01*
X97549285Y-73823894D01*
X97554678Y-73808007D01*
X97557773Y-73786665D01*
X97576459Y-73657782D01*
X97583700Y-73607842D01*
X97584964Y-73559597D01*
X97585139Y-73552913D01*
X97585139Y-73552908D01*
X97585215Y-73550000D01*
X97574744Y-73436040D01*
X97567123Y-73353109D01*
X97566708Y-73348591D01*
X97511807Y-73153926D01*
X97506991Y-73144159D01*
X97440950Y-73010243D01*
X97422351Y-72972527D01*
X97318240Y-72833106D01*
X97304051Y-72814104D01*
X97304050Y-72814103D01*
X97301335Y-72810467D01*
X97152812Y-72673174D01*
X97130125Y-72658859D01*
X96985594Y-72567667D01*
X96981757Y-72565246D01*
X96793898Y-72490298D01*
X96595526Y-72450839D01*
X96495930Y-72449535D01*
X96397826Y-72448251D01*
X96397821Y-72448251D01*
X96393286Y-72448192D01*
X96388813Y-72448961D01*
X96388808Y-72448961D01*
X96290245Y-72465898D01*
X96193949Y-72482444D01*
X96004193Y-72552449D01*
X95830371Y-72655862D01*
X95826956Y-72658857D01*
X95826953Y-72658859D01*
X95737312Y-72737472D01*
X95678305Y-72789220D01*
X95675497Y-72792782D01*
X95562334Y-72936330D01*
X95553089Y-72948057D01*
X95458914Y-73127053D01*
X95457570Y-73131380D01*
X95457568Y-73131386D01*
X95451835Y-73149852D01*
X95444957Y-73172005D01*
X95444543Y-73173337D01*
X95436865Y-73191464D01*
X95430768Y-73202616D01*
X95396863Y-73310712D01*
X95394683Y-73318045D01*
X95394493Y-73318721D01*
X95394426Y-73318975D01*
X95394412Y-73319025D01*
X95392626Y-73325768D01*
X95392527Y-73326142D01*
X95365782Y-73433593D01*
X95365707Y-73433911D01*
X95365696Y-73433958D01*
X95364848Y-73437571D01*
X95364206Y-73440308D01*
X95364070Y-73440925D01*
X95362677Y-73447677D01*
X95343396Y-73547951D01*
X95343343Y-73548244D01*
X95342498Y-73552913D01*
X95342414Y-73553375D01*
X95342329Y-73553875D01*
X95341455Y-73559377D01*
X95327536Y-73653651D01*
X95327003Y-73657457D01*
X95326960Y-73657782D01*
X95326546Y-73661077D01*
X95315893Y-73750517D01*
X95315870Y-73750721D01*
X95315662Y-73752529D01*
X95315649Y-73752646D01*
X95315620Y-73752908D01*
X95315619Y-73752917D01*
X95306469Y-73835644D01*
X95306300Y-73837074D01*
X95297088Y-73910562D01*
X95296534Y-73914374D01*
X95294097Y-73929122D01*
X95286675Y-73974034D01*
X95258533Y-74028363D01*
X95203831Y-74055775D01*
X95143465Y-74045798D01*
X95100491Y-74002245D01*
X95090000Y-73957892D01*
X95090000Y-73940680D01*
X95085878Y-73927995D01*
X95081757Y-73925000D01*
X94330680Y-73925000D01*
X94317995Y-73929122D01*
X94315000Y-73933243D01*
X94315000Y-74684320D01*
X94319122Y-74697005D01*
X94323243Y-74700000D01*
X94529337Y-74700000D01*
X94587528Y-74718907D01*
X94623492Y-74768407D01*
X94623492Y-74829593D01*
X94599341Y-74869004D01*
X93494491Y-75973854D01*
X93439974Y-76001631D01*
X93424487Y-76002850D01*
X91766039Y-76002850D01*
X91745575Y-76000712D01*
X91736218Y-75998735D01*
X91736216Y-75998735D01*
X91731465Y-75997731D01*
X91726611Y-75997674D01*
X91726606Y-75997673D01*
X91702841Y-75997392D01*
X91700111Y-75997322D01*
X91679801Y-75996521D01*
X91670241Y-75996144D01*
X91666945Y-75995958D01*
X91643033Y-75994211D01*
X91639193Y-75993853D01*
X91620710Y-75991766D01*
X91616312Y-75991168D01*
X91602299Y-75988940D01*
X91597523Y-75988059D01*
X91586811Y-75985805D01*
X91581841Y-75984623D01*
X91572882Y-75982246D01*
X91568013Y-75980820D01*
X91559134Y-75977970D01*
X91554770Y-75976456D01*
X91544227Y-75972519D01*
X91540637Y-75971097D01*
X91527241Y-75965480D01*
X91524524Y-75964292D01*
X91507380Y-75956486D01*
X91505567Y-75955638D01*
X91484015Y-75945294D01*
X91483131Y-75944864D01*
X91456957Y-75931961D01*
X91456803Y-75931812D01*
X91456774Y-75931871D01*
X91427142Y-75917187D01*
X91427222Y-75917026D01*
X91426067Y-75916429D01*
X91425977Y-75916612D01*
X91402862Y-75905297D01*
X91402859Y-75905296D01*
X91400451Y-75904117D01*
X91397918Y-75903203D01*
X91350590Y-75886126D01*
X91334441Y-75878595D01*
X91323548Y-75872263D01*
X91318958Y-75870690D01*
X91318954Y-75870688D01*
X91296761Y-75863082D01*
X91296662Y-75863048D01*
X91295485Y-75862648D01*
X91263592Y-75851890D01*
X91263489Y-75851855D01*
X91236334Y-75842633D01*
X91235354Y-75842294D01*
X91212822Y-75834378D01*
X91210940Y-75833696D01*
X91193280Y-75827087D01*
X91190504Y-75826000D01*
X91177090Y-75820511D01*
X91173494Y-75818955D01*
X91163290Y-75814300D01*
X91159116Y-75812277D01*
X91150808Y-75808006D01*
X91146366Y-75805577D01*
X91141533Y-75802771D01*
X91138366Y-75800932D01*
X91133986Y-75798234D01*
X91124868Y-75792285D01*
X91120822Y-75789500D01*
X91109360Y-75781183D01*
X91105812Y-75778485D01*
X91091283Y-75766903D01*
X91088296Y-75764424D01*
X91070198Y-75748791D01*
X91067730Y-75746586D01*
X91045777Y-75726303D01*
X91043808Y-75724432D01*
X91023293Y-75704397D01*
X91019289Y-75701773D01*
X91019284Y-75701769D01*
X91010815Y-75696219D01*
X90995075Y-75683420D01*
X90825308Y-75513653D01*
X90825307Y-75513651D01*
X90736349Y-75424693D01*
X90729410Y-75421157D01*
X90729408Y-75421156D01*
X90715096Y-75413864D01*
X90701848Y-75405746D01*
X90688852Y-75396303D01*
X90688849Y-75396301D01*
X90682550Y-75391725D01*
X90659857Y-75384351D01*
X90645513Y-75378409D01*
X90631201Y-75371117D01*
X90631198Y-75371116D01*
X90624256Y-75367579D01*
X90600697Y-75363848D01*
X90585600Y-75360224D01*
X90562903Y-75352849D01*
X90437097Y-75352849D01*
X90437095Y-75352850D01*
X86005513Y-75352850D01*
X85947322Y-75333943D01*
X85935509Y-75323854D01*
X84132724Y-73521069D01*
X90295164Y-73521069D01*
X90297295Y-73553579D01*
X90305872Y-73684440D01*
X90308392Y-73722894D01*
X90309508Y-73727287D01*
X90309508Y-73727289D01*
X90357062Y-73914534D01*
X90358178Y-73918928D01*
X90442856Y-74102607D01*
X90559588Y-74267780D01*
X90704466Y-74408913D01*
X90872637Y-74521282D01*
X91058470Y-74601122D01*
X91255740Y-74645760D01*
X91457842Y-74653700D01*
X91511377Y-74645938D01*
X91653519Y-74625329D01*
X91653522Y-74625328D01*
X91658007Y-74624678D01*
X91777018Y-74584279D01*
X91845234Y-74561123D01*
X91845237Y-74561121D01*
X91849531Y-74559664D01*
X92016509Y-74466153D01*
X92022039Y-74463056D01*
X92022041Y-74463055D01*
X92026001Y-74460837D01*
X92049084Y-74441639D01*
X92790000Y-74441639D01*
X92790346Y-74447485D01*
X92792234Y-74463353D01*
X92796128Y-74477519D01*
X92834770Y-74564514D01*
X92844946Y-74579321D01*
X92911108Y-74645367D01*
X92925931Y-74655517D01*
X93012980Y-74694000D01*
X93027185Y-74697873D01*
X93042580Y-74699668D01*
X93048292Y-74700000D01*
X93549320Y-74700000D01*
X93562005Y-74695878D01*
X93565000Y-74691757D01*
X93565000Y-73940680D01*
X93560878Y-73927995D01*
X93556757Y-73925000D01*
X92805680Y-73925000D01*
X92792995Y-73929122D01*
X92790000Y-73933243D01*
X92790000Y-74441639D01*
X92049084Y-74441639D01*
X92181505Y-74331505D01*
X92310837Y-74176001D01*
X92327114Y-74146937D01*
X92349547Y-74106878D01*
X92409664Y-73999531D01*
X92415027Y-73983734D01*
X92469285Y-73823894D01*
X92474678Y-73808007D01*
X92477773Y-73786665D01*
X92496459Y-73657782D01*
X92503700Y-73607842D01*
X92504964Y-73559597D01*
X92505139Y-73552913D01*
X92505139Y-73552908D01*
X92505215Y-73550000D01*
X92494744Y-73436040D01*
X92487123Y-73353109D01*
X92486708Y-73348591D01*
X92433328Y-73159320D01*
X92790000Y-73159320D01*
X92794122Y-73172005D01*
X92798243Y-73175000D01*
X93549320Y-73175000D01*
X93562005Y-73170878D01*
X93565000Y-73166757D01*
X93565000Y-73159320D01*
X94315000Y-73159320D01*
X94319122Y-73172005D01*
X94323243Y-73175000D01*
X95074320Y-73175000D01*
X95087005Y-73170878D01*
X95090000Y-73166757D01*
X95090000Y-72658361D01*
X95089654Y-72652515D01*
X95087766Y-72636647D01*
X95083872Y-72622481D01*
X95045230Y-72535486D01*
X95035054Y-72520679D01*
X94968892Y-72454633D01*
X94954069Y-72444483D01*
X94867020Y-72406000D01*
X94852815Y-72402127D01*
X94837420Y-72400332D01*
X94831708Y-72400000D01*
X94330680Y-72400000D01*
X94317995Y-72404122D01*
X94315000Y-72408243D01*
X94315000Y-73159320D01*
X93565000Y-73159320D01*
X93565000Y-72415680D01*
X93560878Y-72402995D01*
X93556757Y-72400000D01*
X93048361Y-72400000D01*
X93042515Y-72400346D01*
X93026647Y-72402234D01*
X93012481Y-72406128D01*
X92925486Y-72444770D01*
X92910679Y-72454946D01*
X92844633Y-72521108D01*
X92834483Y-72535931D01*
X92796000Y-72622980D01*
X92792127Y-72637185D01*
X92790332Y-72652580D01*
X92790000Y-72658292D01*
X92790000Y-73159320D01*
X92433328Y-73159320D01*
X92431807Y-73153926D01*
X92426991Y-73144159D01*
X92360950Y-73010243D01*
X92342351Y-72972527D01*
X92238240Y-72833106D01*
X92224051Y-72814104D01*
X92224050Y-72814103D01*
X92221335Y-72810467D01*
X92072812Y-72673174D01*
X92050125Y-72658859D01*
X91905594Y-72567667D01*
X91901757Y-72565246D01*
X91713898Y-72490298D01*
X91515526Y-72450839D01*
X91415930Y-72449535D01*
X91317826Y-72448251D01*
X91317821Y-72448251D01*
X91313286Y-72448192D01*
X91308813Y-72448961D01*
X91308808Y-72448961D01*
X91210245Y-72465898D01*
X91113949Y-72482444D01*
X90924193Y-72552449D01*
X90750371Y-72655862D01*
X90746956Y-72658857D01*
X90746953Y-72658859D01*
X90657312Y-72737472D01*
X90598305Y-72789220D01*
X90595497Y-72792782D01*
X90482334Y-72936330D01*
X90473089Y-72948057D01*
X90378914Y-73127053D01*
X90377569Y-73131384D01*
X90377568Y-73131387D01*
X90322013Y-73310307D01*
X90318937Y-73320213D01*
X90307186Y-73419500D01*
X90303892Y-73447331D01*
X90295164Y-73521069D01*
X84132724Y-73521069D01*
X81003684Y-70392029D01*
X115756700Y-70392029D01*
X115756912Y-70395263D01*
X115771287Y-70614576D01*
X115775995Y-70686409D01*
X115833548Y-70975751D01*
X115928377Y-71255106D01*
X115951883Y-71302771D01*
X116052498Y-71506798D01*
X116058857Y-71519693D01*
X116222756Y-71764986D01*
X116224895Y-71767425D01*
X116382779Y-71947456D01*
X116417271Y-71986787D01*
X116639072Y-72181302D01*
X116641774Y-72183107D01*
X116641776Y-72183109D01*
X116881667Y-72343399D01*
X116884364Y-72345201D01*
X116887268Y-72346633D01*
X116887273Y-72346636D01*
X117098577Y-72450839D01*
X117148952Y-72475681D01*
X117152021Y-72476723D01*
X117152024Y-72476724D01*
X117168875Y-72482444D01*
X117428307Y-72570510D01*
X117717649Y-72628063D01*
X117720871Y-72628274D01*
X117720877Y-72628275D01*
X118008795Y-72647146D01*
X118012029Y-72647358D01*
X118015263Y-72647146D01*
X118303181Y-72628275D01*
X118303187Y-72628274D01*
X118306409Y-72628063D01*
X118595751Y-72570510D01*
X118855183Y-72482444D01*
X118872034Y-72476724D01*
X118872037Y-72476723D01*
X118875106Y-72475681D01*
X118925481Y-72450839D01*
X119136785Y-72346636D01*
X119136790Y-72346633D01*
X119139694Y-72345201D01*
X119142391Y-72343399D01*
X119382282Y-72183109D01*
X119382284Y-72183107D01*
X119384986Y-72181302D01*
X119606787Y-71986787D01*
X119641280Y-71947456D01*
X119799163Y-71767425D01*
X119801302Y-71764986D01*
X119965201Y-71519693D01*
X119971561Y-71506798D01*
X120072175Y-71302771D01*
X120095681Y-71255106D01*
X120190510Y-70975751D01*
X120248063Y-70686409D01*
X120252772Y-70614576D01*
X120267146Y-70395263D01*
X120267358Y-70392029D01*
X125302642Y-70392029D01*
X125302854Y-70395263D01*
X125317229Y-70614576D01*
X125321937Y-70686409D01*
X125379490Y-70975751D01*
X125474319Y-71255106D01*
X125497825Y-71302771D01*
X125598440Y-71506798D01*
X125604799Y-71519693D01*
X125768698Y-71764986D01*
X125770837Y-71767425D01*
X125928721Y-71947456D01*
X125963213Y-71986787D01*
X126185014Y-72181302D01*
X126187716Y-72183107D01*
X126187718Y-72183109D01*
X126427609Y-72343399D01*
X126430306Y-72345201D01*
X126433210Y-72346633D01*
X126433215Y-72346636D01*
X126644519Y-72450839D01*
X126694894Y-72475681D01*
X126697963Y-72476723D01*
X126697966Y-72476724D01*
X126714817Y-72482444D01*
X126974249Y-72570510D01*
X127263591Y-72628063D01*
X127266813Y-72628274D01*
X127266819Y-72628275D01*
X127554737Y-72647146D01*
X127557971Y-72647358D01*
X127561205Y-72647146D01*
X127849123Y-72628275D01*
X127849129Y-72628274D01*
X127852351Y-72628063D01*
X128141693Y-72570510D01*
X128401125Y-72482444D01*
X128417976Y-72476724D01*
X128417979Y-72476723D01*
X128421048Y-72475681D01*
X128471423Y-72450839D01*
X128682727Y-72346636D01*
X128682732Y-72346633D01*
X128685636Y-72345201D01*
X128688333Y-72343399D01*
X128928224Y-72183109D01*
X128928226Y-72183107D01*
X128930928Y-72181302D01*
X129152729Y-71986787D01*
X129187222Y-71947456D01*
X129345105Y-71767425D01*
X129347244Y-71764986D01*
X129511143Y-71519693D01*
X129517503Y-71506798D01*
X129618117Y-71302771D01*
X129641623Y-71255106D01*
X129736452Y-70975751D01*
X129794005Y-70686409D01*
X129798714Y-70614576D01*
X129813088Y-70395263D01*
X129813300Y-70392029D01*
X129811490Y-70364409D01*
X129794217Y-70100877D01*
X129794216Y-70100871D01*
X129794005Y-70097649D01*
X129736452Y-69808307D01*
X129641623Y-69528952D01*
X129540894Y-69324693D01*
X129512579Y-69267276D01*
X129512576Y-69267271D01*
X129511143Y-69264365D01*
X129347244Y-69019072D01*
X129152729Y-68797271D01*
X128930928Y-68602756D01*
X128792536Y-68510285D01*
X128688333Y-68440659D01*
X128688332Y-68440658D01*
X128685636Y-68438857D01*
X128682732Y-68437425D01*
X128682727Y-68437422D01*
X128423962Y-68309814D01*
X128421048Y-68308377D01*
X128417979Y-68307335D01*
X128417976Y-68307334D01*
X128311950Y-68271343D01*
X128141693Y-68213548D01*
X127852351Y-68155995D01*
X127849129Y-68155784D01*
X127849123Y-68155783D01*
X127561205Y-68136912D01*
X127557971Y-68136700D01*
X127554737Y-68136912D01*
X127266819Y-68155783D01*
X127266813Y-68155784D01*
X127263591Y-68155995D01*
X126974249Y-68213548D01*
X126694894Y-68308377D01*
X126606786Y-68351827D01*
X126433218Y-68437421D01*
X126433213Y-68437424D01*
X126430307Y-68438857D01*
X126185014Y-68602756D01*
X125963213Y-68797271D01*
X125768698Y-69019072D01*
X125604799Y-69264365D01*
X125603366Y-69267271D01*
X125603363Y-69267276D01*
X125575048Y-69324693D01*
X125474319Y-69528952D01*
X125379490Y-69808307D01*
X125321937Y-70097649D01*
X125321726Y-70100871D01*
X125321725Y-70100877D01*
X125304452Y-70364409D01*
X125302642Y-70392029D01*
X120267358Y-70392029D01*
X120265548Y-70364409D01*
X120248275Y-70100877D01*
X120248274Y-70100871D01*
X120248063Y-70097649D01*
X120190510Y-69808307D01*
X120095681Y-69528952D01*
X119994952Y-69324693D01*
X119966637Y-69267276D01*
X119966634Y-69267271D01*
X119965201Y-69264365D01*
X119801302Y-69019072D01*
X119606787Y-68797271D01*
X119384986Y-68602756D01*
X119246594Y-68510285D01*
X119142391Y-68440659D01*
X119142390Y-68440658D01*
X119139694Y-68438857D01*
X119136790Y-68437425D01*
X119136785Y-68437422D01*
X118878020Y-68309814D01*
X118875106Y-68308377D01*
X118872037Y-68307335D01*
X118872034Y-68307334D01*
X118766008Y-68271343D01*
X118595751Y-68213548D01*
X118306409Y-68155995D01*
X118303187Y-68155784D01*
X118303181Y-68155783D01*
X118015263Y-68136912D01*
X118012029Y-68136700D01*
X118008795Y-68136912D01*
X117720877Y-68155783D01*
X117720871Y-68155784D01*
X117717649Y-68155995D01*
X117428307Y-68213548D01*
X117148952Y-68308377D01*
X117060844Y-68351827D01*
X116887276Y-68437421D01*
X116887271Y-68437424D01*
X116884365Y-68438857D01*
X116639072Y-68602756D01*
X116417271Y-68797271D01*
X116222756Y-69019072D01*
X116058857Y-69264365D01*
X116057424Y-69267271D01*
X116057421Y-69267276D01*
X116029106Y-69324693D01*
X115928377Y-69528952D01*
X115833548Y-69808307D01*
X115775995Y-70097649D01*
X115775784Y-70100871D01*
X115775783Y-70100877D01*
X115758510Y-70364409D01*
X115756700Y-70392029D01*
X81003684Y-70392029D01*
X78971958Y-68360303D01*
X78971957Y-68360301D01*
X78882999Y-68271343D01*
X78876060Y-68267807D01*
X78876058Y-68267806D01*
X78861746Y-68260514D01*
X78848498Y-68252396D01*
X78835502Y-68242953D01*
X78835499Y-68242951D01*
X78829200Y-68238375D01*
X78806507Y-68231001D01*
X78792163Y-68225059D01*
X78777851Y-68217767D01*
X78777848Y-68217766D01*
X78770906Y-68214229D01*
X78747347Y-68210498D01*
X78732250Y-68206874D01*
X78709553Y-68199499D01*
X78583747Y-68199499D01*
X78583745Y-68199500D01*
X66919854Y-68199500D01*
X66898977Y-68197274D01*
X66897229Y-68196897D01*
X66885409Y-68194347D01*
X66873000Y-68194147D01*
X66863665Y-68193996D01*
X66859920Y-68193865D01*
X66838606Y-68192713D01*
X66834038Y-68192360D01*
X66819101Y-68190855D01*
X66813686Y-68190158D01*
X66804744Y-68188753D01*
X66798463Y-68187557D01*
X66797812Y-68187411D01*
X66759747Y-68169747D01*
X66754465Y-68165748D01*
X66751005Y-68163005D01*
X66740948Y-68154660D01*
X66738528Y-68152585D01*
X66724272Y-68139959D01*
X66722767Y-68138599D01*
X66704531Y-68121769D01*
X66703777Y-68121065D01*
X66689315Y-68107436D01*
X66689313Y-68107434D01*
X66687374Y-68105607D01*
X66643744Y-68072550D01*
X66641472Y-68071185D01*
X66639268Y-68069694D01*
X66639274Y-68069686D01*
X66632225Y-68064886D01*
X66582773Y-68026939D01*
X66582772Y-68026938D01*
X66577625Y-68022989D01*
X66443709Y-67967520D01*
X66437280Y-67966674D01*
X66437278Y-67966673D01*
X66306433Y-67949447D01*
X66300000Y-67948600D01*
X66293567Y-67949447D01*
X66162722Y-67966673D01*
X66162720Y-67966674D01*
X66156291Y-67967520D01*
X66022375Y-68022989D01*
X65907379Y-68111229D01*
X65819139Y-68226225D01*
X65763670Y-68360141D01*
X65762824Y-68366570D01*
X65762823Y-68366572D01*
X65753307Y-68438857D01*
X65744750Y-68503850D01*
X65745597Y-68510283D01*
X65745597Y-68510285D01*
X65749217Y-68537783D01*
X65738067Y-68597943D01*
X65693684Y-68640060D01*
X65633022Y-68648046D01*
X65590795Y-68629244D01*
X65582779Y-68623093D01*
X65582775Y-68623090D01*
X65577625Y-68619139D01*
X65443709Y-68563670D01*
X65437280Y-68562824D01*
X65437278Y-68562823D01*
X65306433Y-68545597D01*
X65300000Y-68544750D01*
X65293567Y-68545597D01*
X65162722Y-68562823D01*
X65162720Y-68562824D01*
X65156291Y-68563670D01*
X65022375Y-68619139D01*
X64907379Y-68707379D01*
X64819139Y-68822375D01*
X64763670Y-68956291D01*
X64762824Y-68962720D01*
X64762823Y-68962722D01*
X64751158Y-69051330D01*
X64744750Y-69100000D01*
X59675430Y-69100000D01*
X59696621Y-69052067D01*
X59762042Y-68904090D01*
X59762044Y-68904084D01*
X59763458Y-68900886D01*
X59764406Y-68897523D01*
X59764409Y-68897516D01*
X59834766Y-68648046D01*
X59839396Y-68631630D01*
X59876638Y-68354360D01*
X59879358Y-68267806D01*
X59880467Y-68232528D01*
X59880467Y-68232519D01*
X59880546Y-68230000D01*
X59880279Y-68226225D01*
X59861035Y-67954435D01*
X59861034Y-67954429D01*
X59860787Y-67950939D01*
X59801906Y-67677445D01*
X59705076Y-67414977D01*
X59572230Y-67168770D01*
X59531791Y-67114019D01*
X59408097Y-66946551D01*
X59408095Y-66946549D01*
X59406019Y-66943738D01*
X59209759Y-66744371D01*
X58987365Y-66574645D01*
X58972202Y-66566153D01*
X58746325Y-66439656D01*
X58746324Y-66439656D01*
X58743275Y-66437948D01*
X58482360Y-66337008D01*
X58478954Y-66336219D01*
X58478949Y-66336217D01*
X58213244Y-66274630D01*
X58213241Y-66274629D01*
X58209826Y-66273838D01*
X57993589Y-66255109D01*
X57934597Y-66250000D01*
X57934596Y-66250000D01*
X57931109Y-66249698D01*
X57811088Y-66256303D01*
X57655271Y-66264878D01*
X57655265Y-66264879D01*
X57651772Y-66265071D01*
X57377387Y-66319650D01*
X57113430Y-66412345D01*
X57110331Y-66413955D01*
X56868274Y-66539693D01*
X56868268Y-66539697D01*
X56865168Y-66541307D01*
X56862320Y-66543342D01*
X56862317Y-66543344D01*
X56640402Y-66701926D01*
X56640399Y-66701929D01*
X56637552Y-66703963D01*
X56635019Y-66706379D01*
X56635017Y-66706381D01*
X56437665Y-66894646D01*
X56437659Y-66894652D01*
X56435127Y-66897068D01*
X56261929Y-67116768D01*
X56260174Y-67119790D01*
X56260173Y-67119791D01*
X56126457Y-67350000D01*
X56121415Y-67358680D01*
X56016389Y-67617978D01*
X56015547Y-67621369D01*
X56015546Y-67621371D01*
X56001617Y-67677445D01*
X55948946Y-67889487D01*
X55941038Y-67966673D01*
X55921640Y-68155995D01*
X55920431Y-68167790D01*
X50500500Y-68167790D01*
X50500500Y-65000000D01*
X90144750Y-65000000D01*
X90163670Y-65143709D01*
X90219139Y-65277625D01*
X90307379Y-65392621D01*
X90422375Y-65480861D01*
X90428369Y-65483344D01*
X90428373Y-65483346D01*
X90463026Y-65497699D01*
X90509552Y-65537435D01*
X90523836Y-65596930D01*
X90500421Y-65653458D01*
X90463028Y-65680627D01*
X90432875Y-65693116D01*
X90317879Y-65781356D01*
X90229639Y-65896352D01*
X90174170Y-66030268D01*
X90155250Y-66173977D01*
X90156097Y-66180410D01*
X90167218Y-66264878D01*
X90174170Y-66317686D01*
X90229639Y-66451602D01*
X90317879Y-66566598D01*
X90432875Y-66654838D01*
X90470747Y-66670525D01*
X90517272Y-66710259D01*
X90531556Y-66769754D01*
X90508142Y-66826282D01*
X90470747Y-66853452D01*
X90432875Y-66869139D01*
X90317879Y-66957379D01*
X90229639Y-67072375D01*
X90174170Y-67206291D01*
X90173324Y-67212720D01*
X90173323Y-67212722D01*
X90158907Y-67322221D01*
X90155250Y-67350000D01*
X90156097Y-67356433D01*
X90163805Y-67414977D01*
X90174170Y-67493709D01*
X90229639Y-67627625D01*
X90317879Y-67742621D01*
X90432875Y-67830861D01*
X90566791Y-67886330D01*
X90573220Y-67887176D01*
X90573222Y-67887177D01*
X90704067Y-67904403D01*
X90710500Y-67905250D01*
X90716933Y-67904403D01*
X90847778Y-67887177D01*
X90847780Y-67887176D01*
X90854209Y-67886330D01*
X90988125Y-67830861D01*
X91103121Y-67742621D01*
X91191361Y-67627625D01*
X91246830Y-67493709D01*
X91257196Y-67414977D01*
X91264903Y-67356433D01*
X91265750Y-67350000D01*
X91262093Y-67322221D01*
X91247677Y-67212722D01*
X91247676Y-67212720D01*
X91246830Y-67206291D01*
X91202803Y-67100000D01*
X92044750Y-67100000D01*
X92045597Y-67106433D01*
X92057955Y-67200297D01*
X92063670Y-67243709D01*
X92119139Y-67377625D01*
X92207379Y-67492621D01*
X92322375Y-67580861D01*
X92328369Y-67583344D01*
X92328373Y-67583346D01*
X92453190Y-67635046D01*
X92499716Y-67674782D01*
X92514000Y-67734277D01*
X92490585Y-67790805D01*
X92475572Y-67805052D01*
X92412531Y-67853425D01*
X92412528Y-67853428D01*
X92407379Y-67857379D01*
X92319139Y-67972375D01*
X92263670Y-68106291D01*
X92262824Y-68112720D01*
X92262823Y-68112722D01*
X92253454Y-68183890D01*
X92244750Y-68250000D01*
X92245597Y-68256433D01*
X92259272Y-68360301D01*
X92263670Y-68393709D01*
X92319139Y-68527625D01*
X92407379Y-68642621D01*
X92522375Y-68730861D01*
X92656291Y-68786330D01*
X92662720Y-68787176D01*
X92662722Y-68787177D01*
X92793567Y-68804403D01*
X92800000Y-68805250D01*
X92806433Y-68804403D01*
X92937278Y-68787177D01*
X92937280Y-68787176D01*
X92943709Y-68786330D01*
X93077625Y-68730861D01*
X93192621Y-68642621D01*
X93280861Y-68527625D01*
X93336330Y-68393709D01*
X93340729Y-68360301D01*
X93354403Y-68256433D01*
X93355250Y-68250000D01*
X93346546Y-68183890D01*
X93337177Y-68112722D01*
X93337176Y-68112720D01*
X93336330Y-68106291D01*
X93280861Y-67972375D01*
X93192621Y-67857379D01*
X93077625Y-67769139D01*
X93071631Y-67766656D01*
X93071627Y-67766654D01*
X92946810Y-67714954D01*
X92900284Y-67675218D01*
X92886000Y-67615723D01*
X92909415Y-67559195D01*
X92924428Y-67544948D01*
X92987469Y-67496575D01*
X92987472Y-67496572D01*
X92992621Y-67492621D01*
X93080861Y-67377625D01*
X93136330Y-67243709D01*
X93142046Y-67200297D01*
X93154403Y-67106433D01*
X93155250Y-67100000D01*
X93136330Y-66956291D01*
X93080861Y-66822375D01*
X92992621Y-66707379D01*
X92877625Y-66619139D01*
X92743709Y-66563670D01*
X92737280Y-66562824D01*
X92737278Y-66562823D01*
X92606433Y-66545597D01*
X92600000Y-66544750D01*
X92593567Y-66545597D01*
X92462722Y-66562823D01*
X92462720Y-66562824D01*
X92456291Y-66563670D01*
X92322375Y-66619139D01*
X92207379Y-66707379D01*
X92119139Y-66822375D01*
X92063670Y-66956291D01*
X92044750Y-67100000D01*
X91202803Y-67100000D01*
X91191361Y-67072375D01*
X91103121Y-66957379D01*
X90988125Y-66869139D01*
X90950253Y-66853452D01*
X90903727Y-66813715D01*
X90889444Y-66754220D01*
X90912859Y-66697692D01*
X90950252Y-66670525D01*
X90988125Y-66654838D01*
X91103121Y-66566598D01*
X91191361Y-66451602D01*
X91246830Y-66317686D01*
X91253783Y-66264878D01*
X91264903Y-66180410D01*
X91265750Y-66173977D01*
X91246830Y-66030268D01*
X91191361Y-65896352D01*
X91103121Y-65781356D01*
X90988125Y-65693116D01*
X90982131Y-65690633D01*
X90982127Y-65690631D01*
X90947474Y-65676278D01*
X90900948Y-65636542D01*
X90886664Y-65577047D01*
X90910079Y-65520519D01*
X90947473Y-65493350D01*
X90977625Y-65480861D01*
X91083005Y-65400000D01*
X92744750Y-65400000D01*
X92745597Y-65406433D01*
X92762699Y-65536330D01*
X92763670Y-65543709D01*
X92819139Y-65677625D01*
X92907379Y-65792621D01*
X93022375Y-65880861D01*
X93156291Y-65936330D01*
X93162720Y-65937176D01*
X93162722Y-65937177D01*
X93293567Y-65954403D01*
X93300000Y-65955250D01*
X93306433Y-65954403D01*
X93437278Y-65937177D01*
X93437280Y-65937176D01*
X93443709Y-65936330D01*
X93577625Y-65880861D01*
X93692621Y-65792621D01*
X93780861Y-65677625D01*
X93836330Y-65543709D01*
X93837302Y-65536330D01*
X93854403Y-65406433D01*
X93855250Y-65400000D01*
X93836330Y-65256291D01*
X93780861Y-65122375D01*
X93692621Y-65007379D01*
X93577625Y-64919139D01*
X93443709Y-64863670D01*
X93437280Y-64862824D01*
X93437278Y-64862823D01*
X93306433Y-64845597D01*
X93300000Y-64844750D01*
X93293567Y-64845597D01*
X93162722Y-64862823D01*
X93162720Y-64862824D01*
X93156291Y-64863670D01*
X93022375Y-64919139D01*
X92907379Y-65007379D01*
X92819139Y-65122375D01*
X92763670Y-65256291D01*
X92744750Y-65400000D01*
X91083005Y-65400000D01*
X91092621Y-65392621D01*
X91180861Y-65277625D01*
X91236330Y-65143709D01*
X91255250Y-65000000D01*
X91246541Y-64933847D01*
X91237177Y-64862722D01*
X91237176Y-64862720D01*
X91236330Y-64856291D01*
X91180861Y-64722375D01*
X91092621Y-64607379D01*
X90977625Y-64519139D01*
X90843709Y-64463670D01*
X90837280Y-64462824D01*
X90837278Y-64462823D01*
X90706433Y-64445597D01*
X90700000Y-64444750D01*
X90693567Y-64445597D01*
X90562722Y-64462823D01*
X90562720Y-64462824D01*
X90556291Y-64463670D01*
X90422375Y-64519139D01*
X90307379Y-64607379D01*
X90219139Y-64722375D01*
X90163670Y-64856291D01*
X90162824Y-64862720D01*
X90162823Y-64862722D01*
X90153459Y-64933847D01*
X90144750Y-65000000D01*
X50500500Y-65000000D01*
X50500500Y-64400000D01*
X84319750Y-64400000D01*
X84338670Y-64543709D01*
X84394139Y-64677625D01*
X84482379Y-64792621D01*
X84597375Y-64880861D01*
X84731291Y-64936330D01*
X84737720Y-64937176D01*
X84737722Y-64937177D01*
X84868567Y-64954403D01*
X84875000Y-64955250D01*
X84881433Y-64954403D01*
X85012278Y-64937177D01*
X85012280Y-64937176D01*
X85018709Y-64936330D01*
X85152625Y-64880861D01*
X85267621Y-64792621D01*
X85355861Y-64677625D01*
X85411330Y-64543709D01*
X85430250Y-64400000D01*
X85411330Y-64256291D01*
X85355861Y-64122375D01*
X85267621Y-64007379D01*
X85152625Y-63919139D01*
X85018709Y-63863670D01*
X85012280Y-63862824D01*
X85012278Y-63862823D01*
X84881433Y-63845597D01*
X84875000Y-63844750D01*
X84868567Y-63845597D01*
X84737722Y-63862823D01*
X84737720Y-63862824D01*
X84731291Y-63863670D01*
X84597375Y-63919139D01*
X84482379Y-64007379D01*
X84394139Y-64122375D01*
X84338670Y-64256291D01*
X84319750Y-64400000D01*
X50500500Y-64400000D01*
X50500500Y-62825000D01*
X84344750Y-62825000D01*
X84345597Y-62831433D01*
X84360737Y-62946429D01*
X84363670Y-62968709D01*
X84419139Y-63102625D01*
X84507379Y-63217621D01*
X84622375Y-63305861D01*
X84756291Y-63361330D01*
X84762720Y-63362176D01*
X84762722Y-63362177D01*
X84893567Y-63379403D01*
X84900000Y-63380250D01*
X84906433Y-63379403D01*
X85037278Y-63362177D01*
X85037280Y-63362176D01*
X85043709Y-63361330D01*
X85177625Y-63305861D01*
X85292621Y-63217621D01*
X85380861Y-63102625D01*
X85436330Y-62968709D01*
X85439264Y-62946429D01*
X85454403Y-62831433D01*
X85455250Y-62825000D01*
X85436330Y-62681291D01*
X85380861Y-62547375D01*
X85292621Y-62432379D01*
X85250424Y-62400000D01*
X90144750Y-62400000D01*
X90163670Y-62543709D01*
X90219139Y-62677625D01*
X90307379Y-62792621D01*
X90422375Y-62880861D01*
X90468581Y-62900000D01*
X90484737Y-62906692D01*
X90531263Y-62946429D01*
X90545546Y-63005924D01*
X90522131Y-63062452D01*
X90484737Y-63089620D01*
X90432875Y-63111101D01*
X90317879Y-63199341D01*
X90229639Y-63314337D01*
X90174170Y-63448253D01*
X90173324Y-63454682D01*
X90173323Y-63454684D01*
X90161466Y-63544750D01*
X90155250Y-63591962D01*
X90174170Y-63735671D01*
X90229639Y-63869587D01*
X90317879Y-63984583D01*
X90432875Y-64072823D01*
X90566791Y-64128292D01*
X90573220Y-64129138D01*
X90573222Y-64129139D01*
X90704067Y-64146365D01*
X90710500Y-64147212D01*
X90716933Y-64146365D01*
X90847778Y-64129139D01*
X90847780Y-64129138D01*
X90854209Y-64128292D01*
X90922513Y-64100000D01*
X92044750Y-64100000D01*
X92063670Y-64243709D01*
X92119139Y-64377625D01*
X92207379Y-64492621D01*
X92322375Y-64580861D01*
X92456291Y-64636330D01*
X92462720Y-64637176D01*
X92462722Y-64637177D01*
X92593567Y-64654403D01*
X92600000Y-64655250D01*
X92606433Y-64654403D01*
X92737278Y-64637177D01*
X92737280Y-64637176D01*
X92743709Y-64636330D01*
X92877625Y-64580861D01*
X92992621Y-64492621D01*
X93080861Y-64377625D01*
X93136330Y-64243709D01*
X93155250Y-64100000D01*
X93136330Y-63956291D01*
X93080861Y-63822375D01*
X92992621Y-63707379D01*
X92877625Y-63619139D01*
X92743709Y-63563670D01*
X92737280Y-63562824D01*
X92737278Y-63562823D01*
X92606433Y-63545597D01*
X92600000Y-63544750D01*
X92593567Y-63545597D01*
X92462722Y-63562823D01*
X92462720Y-63562824D01*
X92456291Y-63563670D01*
X92322375Y-63619139D01*
X92207379Y-63707379D01*
X92119139Y-63822375D01*
X92063670Y-63956291D01*
X92044750Y-64100000D01*
X90922513Y-64100000D01*
X90988125Y-64072823D01*
X91103121Y-63984583D01*
X91191361Y-63869587D01*
X91246830Y-63735671D01*
X91265750Y-63591962D01*
X91259534Y-63544750D01*
X91247677Y-63454684D01*
X91247676Y-63454682D01*
X91246830Y-63448253D01*
X91191361Y-63314337D01*
X91103121Y-63199341D01*
X90988125Y-63111101D01*
X90925763Y-63085270D01*
X90879237Y-63045533D01*
X90864954Y-62986038D01*
X90888369Y-62929510D01*
X90925763Y-62902342D01*
X90931417Y-62900000D01*
X92744750Y-62900000D01*
X92745597Y-62906433D01*
X92762749Y-63036712D01*
X92763670Y-63043709D01*
X92819139Y-63177625D01*
X92907379Y-63292621D01*
X93022375Y-63380861D01*
X93156291Y-63436330D01*
X93162720Y-63437176D01*
X93162722Y-63437177D01*
X93293567Y-63454403D01*
X93300000Y-63455250D01*
X93306433Y-63454403D01*
X93437278Y-63437177D01*
X93437280Y-63437176D01*
X93443709Y-63436330D01*
X93577625Y-63380861D01*
X93692621Y-63292621D01*
X93780861Y-63177625D01*
X93836330Y-63043709D01*
X93837252Y-63036712D01*
X93854403Y-62906433D01*
X93855250Y-62900000D01*
X93836330Y-62756291D01*
X93780861Y-62622375D01*
X93692621Y-62507379D01*
X93577625Y-62419139D01*
X93443709Y-62363670D01*
X93437280Y-62362824D01*
X93437278Y-62362823D01*
X93306433Y-62345597D01*
X93300000Y-62344750D01*
X93293567Y-62345597D01*
X93162722Y-62362823D01*
X93162720Y-62362824D01*
X93156291Y-62363670D01*
X93022375Y-62419139D01*
X92907379Y-62507379D01*
X92819139Y-62622375D01*
X92763670Y-62756291D01*
X92744750Y-62900000D01*
X90931417Y-62900000D01*
X90977625Y-62880861D01*
X91092621Y-62792621D01*
X91180861Y-62677625D01*
X91236330Y-62543709D01*
X91255250Y-62400000D01*
X91240593Y-62288670D01*
X91237177Y-62262722D01*
X91237176Y-62262720D01*
X91236330Y-62256291D01*
X91180861Y-62122375D01*
X91092621Y-62007379D01*
X90977625Y-61919139D01*
X90843709Y-61863670D01*
X90837280Y-61862824D01*
X90837278Y-61862823D01*
X90706433Y-61845597D01*
X90700000Y-61844750D01*
X90693567Y-61845597D01*
X90562722Y-61862823D01*
X90562720Y-61862824D01*
X90556291Y-61863670D01*
X90422375Y-61919139D01*
X90307379Y-62007379D01*
X90219139Y-62122375D01*
X90163670Y-62256291D01*
X90162824Y-62262720D01*
X90162823Y-62262722D01*
X90159407Y-62288670D01*
X90144750Y-62400000D01*
X85250424Y-62400000D01*
X85177625Y-62344139D01*
X85043709Y-62288670D01*
X85037280Y-62287824D01*
X85037278Y-62287823D01*
X84906433Y-62270597D01*
X84900000Y-62269750D01*
X84893567Y-62270597D01*
X84762722Y-62287823D01*
X84762720Y-62287824D01*
X84756291Y-62288670D01*
X84622375Y-62344139D01*
X84507379Y-62432379D01*
X84419139Y-62547375D01*
X84363670Y-62681291D01*
X84344750Y-62825000D01*
X50500500Y-62825000D01*
X50500500Y-61600000D01*
X69644750Y-61600000D01*
X69663670Y-61743709D01*
X69719139Y-61877625D01*
X69807379Y-61992621D01*
X69922375Y-62080861D01*
X70056291Y-62136330D01*
X70062720Y-62137176D01*
X70062722Y-62137177D01*
X70193567Y-62154403D01*
X70200000Y-62155250D01*
X70206433Y-62154403D01*
X70337278Y-62137177D01*
X70337280Y-62137176D01*
X70343709Y-62136330D01*
X70477625Y-62080861D01*
X70592621Y-61992621D01*
X70680861Y-61877625D01*
X70736330Y-61743709D01*
X70755250Y-61600000D01*
X70736330Y-61456291D01*
X70680861Y-61322375D01*
X70592621Y-61207379D01*
X70477625Y-61119139D01*
X70412013Y-61091962D01*
X90155250Y-61091962D01*
X90174170Y-61235671D01*
X90229639Y-61369587D01*
X90317879Y-61484583D01*
X90432875Y-61572823D01*
X90566791Y-61628292D01*
X90573220Y-61629138D01*
X90573222Y-61629139D01*
X90704067Y-61646365D01*
X90710500Y-61647212D01*
X90716933Y-61646365D01*
X90847778Y-61629139D01*
X90847780Y-61629138D01*
X90854209Y-61628292D01*
X90922513Y-61600000D01*
X92044750Y-61600000D01*
X92063670Y-61743709D01*
X92119139Y-61877625D01*
X92207379Y-61992621D01*
X92322375Y-62080861D01*
X92456291Y-62136330D01*
X92462720Y-62137176D01*
X92462722Y-62137177D01*
X92593567Y-62154403D01*
X92600000Y-62155250D01*
X92606433Y-62154403D01*
X92737278Y-62137177D01*
X92737280Y-62137176D01*
X92743709Y-62136330D01*
X92877625Y-62080861D01*
X92992621Y-61992621D01*
X93080861Y-61877625D01*
X93136330Y-61743709D01*
X93155250Y-61600000D01*
X93136330Y-61456291D01*
X93080861Y-61322375D01*
X92992621Y-61207379D01*
X92877625Y-61119139D01*
X92743709Y-61063670D01*
X92737280Y-61062824D01*
X92737278Y-61062823D01*
X92606433Y-61045597D01*
X92600000Y-61044750D01*
X92593567Y-61045597D01*
X92462722Y-61062823D01*
X92462720Y-61062824D01*
X92456291Y-61063670D01*
X92322375Y-61119139D01*
X92207379Y-61207379D01*
X92119139Y-61322375D01*
X92063670Y-61456291D01*
X92044750Y-61600000D01*
X90922513Y-61600000D01*
X90988125Y-61572823D01*
X91103121Y-61484583D01*
X91191361Y-61369587D01*
X91246830Y-61235671D01*
X91265750Y-61091962D01*
X91246830Y-60948253D01*
X91191361Y-60814337D01*
X91103121Y-60699341D01*
X90988125Y-60611101D01*
X90854209Y-60555632D01*
X90847780Y-60554786D01*
X90847778Y-60554785D01*
X90716933Y-60537559D01*
X90710500Y-60536712D01*
X90704067Y-60537559D01*
X90573222Y-60554785D01*
X90573220Y-60554786D01*
X90566791Y-60555632D01*
X90432875Y-60611101D01*
X90317879Y-60699341D01*
X90229639Y-60814337D01*
X90174170Y-60948253D01*
X90155250Y-61091962D01*
X70412013Y-61091962D01*
X70343709Y-61063670D01*
X70337280Y-61062824D01*
X70337278Y-61062823D01*
X70206433Y-61045597D01*
X70200000Y-61044750D01*
X70193567Y-61045597D01*
X70062722Y-61062823D01*
X70062720Y-61062824D01*
X70056291Y-61063670D01*
X69922375Y-61119139D01*
X69807379Y-61207379D01*
X69719139Y-61322375D01*
X69663670Y-61456291D01*
X69644750Y-61600000D01*
X50500500Y-61600000D01*
X50500500Y-60800000D01*
X62644750Y-60800000D01*
X62663670Y-60943709D01*
X62719139Y-61077625D01*
X62807379Y-61192621D01*
X62922375Y-61280861D01*
X63056291Y-61336330D01*
X63062720Y-61337176D01*
X63062722Y-61337177D01*
X63193567Y-61354403D01*
X63200000Y-61355250D01*
X63206433Y-61354403D01*
X63337278Y-61337177D01*
X63337280Y-61337176D01*
X63343709Y-61336330D01*
X63477625Y-61280861D01*
X63592621Y-61192621D01*
X63680861Y-61077625D01*
X63736330Y-60943709D01*
X63755250Y-60800000D01*
X63736330Y-60656291D01*
X63680861Y-60522375D01*
X63592621Y-60407379D01*
X63477625Y-60319139D01*
X63431419Y-60300000D01*
X69344750Y-60300000D01*
X69345597Y-60306433D01*
X69362699Y-60436330D01*
X69363670Y-60443709D01*
X69419139Y-60577625D01*
X69507379Y-60692621D01*
X69622375Y-60780861D01*
X69756291Y-60836330D01*
X69762720Y-60837176D01*
X69762722Y-60837177D01*
X69893567Y-60854403D01*
X69900000Y-60855250D01*
X69906433Y-60854403D01*
X70037278Y-60837177D01*
X70037280Y-60837176D01*
X70043709Y-60836330D01*
X70177625Y-60780861D01*
X70292621Y-60692621D01*
X70380861Y-60577625D01*
X70436330Y-60443709D01*
X70437302Y-60436330D01*
X70454403Y-60306433D01*
X70455250Y-60300000D01*
X92744750Y-60300000D01*
X92745597Y-60306433D01*
X92762699Y-60436330D01*
X92763670Y-60443709D01*
X92819139Y-60577625D01*
X92907379Y-60692621D01*
X93022375Y-60780861D01*
X93156291Y-60836330D01*
X93162720Y-60837176D01*
X93162722Y-60837177D01*
X93293567Y-60854403D01*
X93300000Y-60855250D01*
X93306433Y-60854403D01*
X93437278Y-60837177D01*
X93437280Y-60837176D01*
X93443709Y-60836330D01*
X93577625Y-60780861D01*
X93692621Y-60692621D01*
X93780861Y-60577625D01*
X93836330Y-60443709D01*
X93837302Y-60436330D01*
X93854403Y-60306433D01*
X93855250Y-60300000D01*
X93836330Y-60156291D01*
X93780861Y-60022375D01*
X93692621Y-59907379D01*
X93683005Y-59900000D01*
X100044750Y-59900000D01*
X100063670Y-60043709D01*
X100119139Y-60177625D01*
X100207379Y-60292621D01*
X100322375Y-60380861D01*
X100456291Y-60436330D01*
X100462720Y-60437176D01*
X100462722Y-60437177D01*
X100593567Y-60454403D01*
X100600000Y-60455250D01*
X100606433Y-60454403D01*
X100737278Y-60437177D01*
X100737280Y-60437176D01*
X100743709Y-60436330D01*
X100877625Y-60380861D01*
X100992621Y-60292621D01*
X101080861Y-60177625D01*
X101136330Y-60043709D01*
X101155250Y-59900000D01*
X101151515Y-59871627D01*
X101137177Y-59762722D01*
X101137176Y-59762720D01*
X101136330Y-59756291D01*
X101080861Y-59622375D01*
X100992621Y-59507379D01*
X100877625Y-59419139D01*
X100743709Y-59363670D01*
X100737280Y-59362824D01*
X100737278Y-59362823D01*
X100606433Y-59345597D01*
X100600000Y-59344750D01*
X100593567Y-59345597D01*
X100462722Y-59362823D01*
X100462720Y-59362824D01*
X100456291Y-59363670D01*
X100322375Y-59419139D01*
X100207379Y-59507379D01*
X100119139Y-59622375D01*
X100063670Y-59756291D01*
X100062824Y-59762720D01*
X100062823Y-59762722D01*
X100048485Y-59871627D01*
X100044750Y-59900000D01*
X93683005Y-59900000D01*
X93577625Y-59819139D01*
X93443709Y-59763670D01*
X93437280Y-59762824D01*
X93437278Y-59762823D01*
X93306433Y-59745597D01*
X93300000Y-59744750D01*
X93293567Y-59745597D01*
X93162722Y-59762823D01*
X93162720Y-59762824D01*
X93156291Y-59763670D01*
X93022375Y-59819139D01*
X92907379Y-59907379D01*
X92819139Y-60022375D01*
X92763670Y-60156291D01*
X92744750Y-60300000D01*
X70455250Y-60300000D01*
X70436330Y-60156291D01*
X70380861Y-60022375D01*
X70292621Y-59907379D01*
X70177625Y-59819139D01*
X70043709Y-59763670D01*
X70037280Y-59762824D01*
X70037278Y-59762823D01*
X69906433Y-59745597D01*
X69900000Y-59744750D01*
X69893567Y-59745597D01*
X69762722Y-59762823D01*
X69762720Y-59762824D01*
X69756291Y-59763670D01*
X69622375Y-59819139D01*
X69507379Y-59907379D01*
X69419139Y-60022375D01*
X69363670Y-60156291D01*
X69344750Y-60300000D01*
X63431419Y-60300000D01*
X63343709Y-60263670D01*
X63337280Y-60262824D01*
X63337278Y-60262823D01*
X63206433Y-60245597D01*
X63200000Y-60244750D01*
X63193567Y-60245597D01*
X63062722Y-60262823D01*
X63062720Y-60262824D01*
X63056291Y-60263670D01*
X62922375Y-60319139D01*
X62807379Y-60407379D01*
X62719139Y-60522375D01*
X62663670Y-60656291D01*
X62644750Y-60800000D01*
X50500500Y-60800000D01*
X50500500Y-59600000D01*
X89744750Y-59600000D01*
X89763670Y-59743709D01*
X89819139Y-59877625D01*
X89907379Y-59992621D01*
X90022375Y-60080861D01*
X90156291Y-60136330D01*
X90162720Y-60137176D01*
X90162722Y-60137177D01*
X90293567Y-60154403D01*
X90300000Y-60155250D01*
X90306433Y-60154403D01*
X90437278Y-60137177D01*
X90437280Y-60137176D01*
X90443709Y-60136330D01*
X90577625Y-60080861D01*
X90692621Y-59992621D01*
X90780861Y-59877625D01*
X90836330Y-59743709D01*
X90855250Y-59600000D01*
X90836330Y-59456291D01*
X90780861Y-59322375D01*
X90692621Y-59207379D01*
X90577625Y-59119139D01*
X90443709Y-59063670D01*
X90437280Y-59062824D01*
X90437278Y-59062823D01*
X90306433Y-59045597D01*
X90300000Y-59044750D01*
X90293567Y-59045597D01*
X90162722Y-59062823D01*
X90162720Y-59062824D01*
X90156291Y-59063670D01*
X90022375Y-59119139D01*
X89907379Y-59207379D01*
X89819139Y-59322375D01*
X89763670Y-59456291D01*
X89744750Y-59600000D01*
X50500500Y-59600000D01*
X50500500Y-57895000D01*
X100039750Y-57895000D01*
X100058670Y-58038709D01*
X100114139Y-58172625D01*
X100202379Y-58287621D01*
X100317375Y-58375861D01*
X100451291Y-58431330D01*
X100457720Y-58432176D01*
X100457722Y-58432177D01*
X100588567Y-58449403D01*
X100595000Y-58450250D01*
X100601433Y-58449403D01*
X100732278Y-58432177D01*
X100732280Y-58432176D01*
X100738709Y-58431330D01*
X100872625Y-58375861D01*
X100987621Y-58287621D01*
X101075861Y-58172625D01*
X101131330Y-58038709D01*
X101150250Y-57895000D01*
X101131330Y-57751291D01*
X101075861Y-57617375D01*
X100987621Y-57502379D01*
X100872625Y-57414139D01*
X100738709Y-57358670D01*
X100732280Y-57357824D01*
X100732278Y-57357823D01*
X100601433Y-57340597D01*
X100595000Y-57339750D01*
X100588567Y-57340597D01*
X100457722Y-57357823D01*
X100457720Y-57357824D01*
X100451291Y-57358670D01*
X100317375Y-57414139D01*
X100202379Y-57502379D01*
X100114139Y-57617375D01*
X100058670Y-57751291D01*
X100039750Y-57895000D01*
X50500500Y-57895000D01*
X50500500Y-55728244D01*
X52807727Y-55728244D01*
X52813878Y-55734968D01*
X53002464Y-55853267D01*
X53008400Y-55856451D01*
X53263219Y-55971505D01*
X53269517Y-55973848D01*
X53537602Y-56053258D01*
X53544155Y-56054723D01*
X53820532Y-56097015D01*
X53827238Y-56097578D01*
X54106798Y-56101969D01*
X54113503Y-56101618D01*
X54391076Y-56068028D01*
X54397675Y-56066769D01*
X54668125Y-55995818D01*
X54674492Y-55993675D01*
X54932807Y-55886678D01*
X54938824Y-55883691D01*
X55180223Y-55742628D01*
X55185782Y-55738851D01*
X55186187Y-55738533D01*
X55193627Y-55727463D01*
X55193551Y-55725388D01*
X55190893Y-55721224D01*
X54011086Y-54541416D01*
X53999203Y-54535362D01*
X53994172Y-54536158D01*
X52813586Y-55716745D01*
X52807727Y-55728244D01*
X50500500Y-55728244D01*
X50500500Y-53981327D01*
X51895402Y-53981327D01*
X51911497Y-54260455D01*
X51912339Y-54267118D01*
X51966166Y-54541477D01*
X51967911Y-54547988D01*
X52058472Y-54812495D01*
X52061077Y-54818693D01*
X52186700Y-55068467D01*
X52190131Y-55074268D01*
X52264863Y-55183004D01*
X52275444Y-55191123D01*
X52275841Y-55191133D01*
X52282493Y-55187176D01*
X53458584Y-54011086D01*
X53463826Y-54000797D01*
X54535362Y-54000797D01*
X54536158Y-54005828D01*
X55715736Y-55185405D01*
X55727619Y-55191459D01*
X55728840Y-55191266D01*
X55733682Y-55187152D01*
X55775235Y-55130584D01*
X55778842Y-55124901D01*
X55912246Y-54879198D01*
X55915049Y-54873076D01*
X56013879Y-54611535D01*
X56015821Y-54605101D01*
X56078239Y-54332570D01*
X56079292Y-54325920D01*
X56104273Y-54046013D01*
X56104465Y-54042151D01*
X56104887Y-54001937D01*
X56104775Y-53998066D01*
X56085661Y-53717696D01*
X56084747Y-53711025D01*
X56028051Y-53437248D01*
X56026242Y-53430771D01*
X55932913Y-53167218D01*
X55930243Y-53161047D01*
X55802013Y-52912605D01*
X55798521Y-52906839D01*
X55735297Y-52816881D01*
X55724630Y-52808872D01*
X55723951Y-52808861D01*
X55717717Y-52812614D01*
X54541416Y-53988914D01*
X54535362Y-54000797D01*
X53463826Y-54000797D01*
X53464638Y-53999203D01*
X53463842Y-53994172D01*
X52284617Y-52814948D01*
X52272734Y-52808894D01*
X52271789Y-52809043D01*
X52266616Y-52813485D01*
X52213028Y-52888062D01*
X52209476Y-52893790D01*
X52078651Y-53140875D01*
X52075911Y-53147029D01*
X51979829Y-53409587D01*
X51977955Y-53416035D01*
X51918390Y-53689224D01*
X51917410Y-53695863D01*
X51895473Y-53974594D01*
X51895402Y-53981327D01*
X50500500Y-53981327D01*
X50500500Y-52271782D01*
X52805889Y-52271782D01*
X52810563Y-52280232D01*
X53988914Y-53458584D01*
X54000797Y-53464638D01*
X54005828Y-53463842D01*
X55187230Y-52282439D01*
X55193012Y-52271091D01*
X55186640Y-52264198D01*
X54978070Y-52136386D01*
X54972113Y-52133271D01*
X54716095Y-52020886D01*
X54709768Y-52018609D01*
X54440887Y-51942016D01*
X54434288Y-51940614D01*
X54157504Y-51901222D01*
X54150788Y-51900728D01*
X53871192Y-51899265D01*
X53864498Y-51899686D01*
X53587295Y-51936180D01*
X53580696Y-51937510D01*
X53311017Y-52011287D01*
X53304663Y-52013500D01*
X53047501Y-52123188D01*
X53041493Y-52126249D01*
X52814150Y-52262311D01*
X52805889Y-52271782D01*
X50500500Y-52271782D01*
X50500500Y-50599500D01*
X50519407Y-50541309D01*
X50568907Y-50505345D01*
X50599500Y-50500500D01*
X57034714Y-50500500D01*
X57092905Y-50519407D01*
G37*
%TD.AperFunction*%
%TD*%
M02*
