%TF.GenerationSoftware,KiCad,Pcbnew,(6.0.9)*%
%TF.CreationDate,2023-03-27T13:44:46+03:00*%
%TF.ProjectId,GMWPY,474d5750-592e-46b6-9963-61645f706362,rev?*%
%TF.SameCoordinates,Original*%
%TF.FileFunction,Soldermask,Bot*%
%TF.FilePolarity,Negative*%
%FSLAX46Y46*%
G04 Gerber Fmt 4.6, Leading zero omitted, Abs format (unit mm)*
G04 Created by KiCad (PCBNEW (6.0.9)) date 2023-03-27 13:44:46*
%MOMM*%
%LPD*%
G01*
G04 APERTURE LIST*
G04 Aperture macros list*
%AMRoundRect*
0 Rectangle with rounded corners*
0 $1 Rounding radius*
0 $2 $3 $4 $5 $6 $7 $8 $9 X,Y pos of 4 corners*
0 Add a 4 corners polygon primitive as box body*
4,1,4,$2,$3,$4,$5,$6,$7,$8,$9,$2,$3,0*
0 Add four circle primitives for the rounded corners*
1,1,$1+$1,$2,$3*
1,1,$1+$1,$4,$5*
1,1,$1+$1,$6,$7*
1,1,$1+$1,$8,$9*
0 Add four rect primitives between the rounded corners*
20,1,$1+$1,$2,$3,$4,$5,0*
20,1,$1+$1,$4,$5,$6,$7,0*
20,1,$1+$1,$6,$7,$8,$9,0*
20,1,$1+$1,$8,$9,$2,$3,0*%
%AMFreePoly0*
4,1,22,0.500000,-0.700000,0.012584,-0.700000,0.000916,-0.695041,-0.071867,-0.693707,-0.193510,-0.655704,-0.299600,-0.585084,-0.381604,-0.487528,-0.432932,-0.370876,-0.449586,-0.243517,-0.450000,-0.242798,-0.450000,0.247982,-0.449164,0.250000,-0.449502,0.255197,-0.429848,0.381420,-0.375688,0.496779,-0.291323,0.592304,-0.183541,0.660310,-0.061003,0.695331,-0.000306,0.694960,0.012075,0.700000,
0.500000,0.700000,0.500000,-0.700000,0.500000,-0.700000,$1*%
%AMFreePoly1*
4,1,20,-0.000305,0.694960,0.066438,0.694553,0.188542,0.658036,0.295483,0.588720,0.378674,0.492172,0.431423,0.376157,0.450000,0.246438,0.450000,-0.249718,0.449902,-0.257736,0.428212,-0.386659,0.372645,-0.501350,0.287118,-0.595839,0.178514,-0.662521,0.055560,-0.696043,0.000916,-0.695041,-0.011705,-0.700000,-0.500000,-0.700000,-0.500000,0.700000,-0.012368,0.700000,-0.000305,0.694960,
-0.000305,0.694960,$1*%
%AMFreePoly2*
4,1,5,0.950000,-0.550000,-0.950000,-0.550000,-0.950000,0.550000,0.950000,0.550000,0.950000,-0.550000,0.950000,-0.550000,$1*%
G04 Aperture macros list end*
%ADD10R,1.400000X1.400000*%
%ADD11C,1.600000*%
%ADD12R,1.600000X1.600000*%
%ADD13O,1.600000X1.600000*%
%ADD14C,3.500000*%
%ADD15C,5.500000*%
%ADD16C,1.300000*%
%ADD17R,1.300000X1.300000*%
%ADD18C,3.350000*%
%ADD19RoundRect,0.187500X-0.300000X-0.237500X0.300000X-0.237500X0.300000X0.237500X-0.300000X0.237500X0*%
%ADD20RoundRect,0.200000X0.475000X-0.250000X0.475000X0.250000X-0.475000X0.250000X-0.475000X-0.250000X0*%
%ADD21R,0.400000X0.250000*%
%ADD22FreePoly0,90.000000*%
%ADD23R,1.400000X0.900000*%
%ADD24FreePoly1,90.000000*%
%ADD25C,3.900000*%
%ADD26FreePoly2,270.000000*%
%ADD27O,1.100000X1.100000*%
G04 APERTURE END LIST*
D10*
%TO.C,TP13*%
X78650000Y-60250000D03*
%TD*%
%TO.C,TP12*%
X83275000Y-62525000D03*
%TD*%
%TO.C,TP11*%
X83275000Y-65075000D03*
%TD*%
D11*
%TO.C,J3*%
X91400000Y-73550000D03*
D12*
X93940000Y-73550000D03*
D13*
X96480000Y-73550000D03*
X99020000Y-73550000D03*
D12*
X101560000Y-73550000D03*
D13*
X104100000Y-73550000D03*
%TD*%
D14*
%TO.C,H3*%
X131000000Y-101000000D03*
D15*
X131000000Y-101000000D03*
%TD*%
D16*
%TO.C,J1*%
X60300000Y-71300000D03*
X60300000Y-73800000D03*
X60300000Y-75800000D03*
D17*
X60300000Y-78300000D03*
D18*
X57900000Y-68230000D03*
X57900000Y-81370000D03*
%TD*%
D14*
%TO.C,H2*%
X131000000Y-54000000D03*
D15*
X131000000Y-54000000D03*
%TD*%
D14*
%TO.C,H4*%
X54000000Y-101000000D03*
D15*
X54000000Y-101000000D03*
%TD*%
D14*
%TO.C,H1*%
X54000000Y-54000000D03*
D15*
X54000000Y-54000000D03*
%TD*%
D19*
%TO.C,C34*%
X100837500Y-58800000D03*
X102562500Y-58800000D03*
%TD*%
D20*
%TO.C,C30*%
X68500000Y-60750000D03*
X68500000Y-58850000D03*
%TD*%
D21*
%TO.C,U7*%
X104650000Y-77400000D03*
X104650000Y-78050000D03*
X104650000Y-78700000D03*
X104650000Y-79350000D03*
X106700000Y-79350000D03*
X106700000Y-78700000D03*
X106700000Y-78050000D03*
X106700000Y-77400000D03*
%TD*%
D22*
%TO.C,JP1*%
X109300000Y-79000000D03*
D23*
X109300000Y-77700000D03*
D24*
X109300000Y-76400000D03*
%TD*%
D25*
%TO.C,U9*%
X127557971Y-79937971D03*
X127557971Y-70392029D03*
X118012029Y-70392029D03*
%TD*%
D11*
%TO.C,J2*%
X92425000Y-81125000D03*
D13*
X89885000Y-81125000D03*
D12*
X92425000Y-83665000D03*
D13*
X89885000Y-83665000D03*
%TD*%
D26*
%TO.C,U3*%
X97785000Y-90420000D03*
D27*
X100325000Y-92960000D03*
X97785000Y-95500000D03*
X95245000Y-92960000D03*
%TD*%
M02*
