%TF.GenerationSoftware,KiCad,Pcbnew,(6.0.9)*%
%TF.CreationDate,2023-03-27T13:44:46+03:00*%
%TF.ProjectId,GMWPY,474d5750-592e-46b6-9963-61645f706362,rev?*%
%TF.SameCoordinates,Original*%
%TF.FileFunction,Legend,Top*%
%TF.FilePolarity,Positive*%
%FSLAX46Y46*%
G04 Gerber Fmt 4.6, Leading zero omitted, Abs format (unit mm)*
G04 Created by KiCad (PCBNEW (6.0.9)) date 2023-03-27 13:44:46*
%MOMM*%
%LPD*%
G01*
G04 APERTURE LIST*
G04 Aperture macros list*
%AMRoundRect*
0 Rectangle with rounded corners*
0 $1 Rounding radius*
0 $2 $3 $4 $5 $6 $7 $8 $9 X,Y pos of 4 corners*
0 Add a 4 corners polygon primitive as box body*
4,1,4,$2,$3,$4,$5,$6,$7,$8,$9,$2,$3,0*
0 Add four circle primitives for the rounded corners*
1,1,$1+$1,$2,$3*
1,1,$1+$1,$4,$5*
1,1,$1+$1,$6,$7*
1,1,$1+$1,$8,$9*
0 Add four rect primitives between the rounded corners*
20,1,$1+$1,$2,$3,$4,$5,0*
20,1,$1+$1,$4,$5,$6,$7,0*
20,1,$1+$1,$6,$7,$8,$9,0*
20,1,$1+$1,$8,$9,$2,$3,0*%
%AMFreePoly0*
4,1,22,0.500000,-0.700000,0.012584,-0.700000,0.000916,-0.695041,-0.071867,-0.693707,-0.193510,-0.655704,-0.299600,-0.585084,-0.381604,-0.487528,-0.432932,-0.370876,-0.449586,-0.243517,-0.450000,-0.242798,-0.450000,0.247982,-0.449164,0.250000,-0.449502,0.255197,-0.429848,0.381420,-0.375688,0.496779,-0.291323,0.592304,-0.183541,0.660310,-0.061003,0.695331,-0.000306,0.694960,0.012075,0.700000,
0.500000,0.700000,0.500000,-0.700000,0.500000,-0.700000,$1*%
%AMFreePoly1*
4,1,20,-0.000305,0.694960,0.066438,0.694553,0.188542,0.658036,0.295483,0.588720,0.378674,0.492172,0.431423,0.376157,0.450000,0.246438,0.450000,-0.249718,0.449902,-0.257736,0.428212,-0.386659,0.372645,-0.501350,0.287118,-0.595839,0.178514,-0.662521,0.055560,-0.696043,0.000916,-0.695041,-0.011705,-0.700000,-0.500000,-0.700000,-0.500000,0.700000,-0.012368,0.700000,-0.000305,0.694960,
-0.000305,0.694960,$1*%
%AMFreePoly2*
4,1,5,0.950000,-0.550000,-0.950000,-0.550000,-0.950000,0.550000,0.950000,0.550000,0.950000,-0.550000,0.950000,-0.550000,$1*%
G04 Aperture macros list end*
%ADD10C,0.150000*%
%ADD11C,0.120000*%
%ADD12C,0.254000*%
%ADD13C,0.200000*%
%ADD14C,0.100000*%
%ADD15RoundRect,0.187500X0.250000X0.237500X-0.250000X0.237500X-0.250000X-0.237500X0.250000X-0.237500X0*%
%ADD16RoundRect,0.175000X-0.225000X-0.250000X0.225000X-0.250000X0.225000X0.250000X-0.225000X0.250000X0*%
%ADD17RoundRect,0.085000X0.135000X0.185000X-0.135000X0.185000X-0.135000X-0.185000X0.135000X-0.185000X0*%
%ADD18RoundRect,0.150000X0.275000X-0.200000X0.275000X0.200000X-0.275000X0.200000X-0.275000X-0.200000X0*%
%ADD19RoundRect,0.200000X-0.475000X0.250000X-0.475000X-0.250000X0.475000X-0.250000X0.475000X0.250000X0*%
%ADD20RoundRect,0.175000X-0.250000X0.225000X-0.250000X-0.225000X0.250000X-0.225000X0.250000X0.225000X0*%
%ADD21R,0.550000X1.460000*%
%ADD22RoundRect,0.168750X0.256250X-0.218750X0.256250X0.218750X-0.256250X0.218750X-0.256250X-0.218750X0*%
%ADD23R,1.460000X0.550000*%
%ADD24R,1.400000X1.900000*%
%ADD25R,3.700000X1.900000*%
%ADD26RoundRect,0.150000X-0.275000X0.200000X-0.275000X-0.200000X0.275000X-0.200000X0.275000X0.200000X0*%
%ADD27RoundRect,0.187500X-0.250000X-0.237500X0.250000X-0.237500X0.250000X0.237500X-0.250000X0.237500X0*%
%ADD28R,1.400000X1.400000*%
%ADD29RoundRect,0.100000X0.150000X-0.512500X0.150000X0.512500X-0.150000X0.512500X-0.150000X-0.512500X0*%
%ADD30RoundRect,0.150000X0.200000X0.275000X-0.200000X0.275000X-0.200000X-0.275000X0.200000X-0.275000X0*%
%ADD31RoundRect,0.168750X0.218750X0.256250X-0.218750X0.256250X-0.218750X-0.256250X0.218750X-0.256250X0*%
%ADD32RoundRect,0.085000X-0.135000X-0.185000X0.135000X-0.185000X0.135000X0.185000X-0.135000X0.185000X0*%
%ADD33RoundRect,0.150000X-0.200000X-0.275000X0.200000X-0.275000X0.200000X0.275000X-0.200000X0.275000X0*%
%ADD34RoundRect,0.200000X0.475000X-0.250000X0.475000X0.250000X-0.475000X0.250000X-0.475000X-0.250000X0*%
%ADD35RoundRect,0.175000X0.250000X-0.225000X0.250000X0.225000X-0.250000X0.225000X-0.250000X-0.225000X0*%
%ADD36RoundRect,0.187500X0.237500X-0.300000X0.237500X0.300000X-0.237500X0.300000X-0.237500X-0.300000X0*%
%ADD37RoundRect,0.175000X0.225000X0.250000X-0.225000X0.250000X-0.225000X-0.250000X0.225000X-0.250000X0*%
%ADD38C,1.600000*%
%ADD39R,1.600000X1.600000*%
%ADD40O,1.600000X1.600000*%
%ADD41RoundRect,0.187500X-0.237500X0.250000X-0.237500X-0.250000X0.237500X-0.250000X0.237500X0.250000X0*%
%ADD42C,3.500000*%
%ADD43C,5.500000*%
%ADD44C,1.300000*%
%ADD45R,1.300000X1.300000*%
%ADD46C,3.350000*%
%ADD47R,0.800000X0.800000*%
%ADD48R,1.400000X0.800000*%
%ADD49R,0.800000X1.400000*%
%ADD50RoundRect,0.100000X0.587500X0.150000X-0.587500X0.150000X-0.587500X-0.150000X0.587500X-0.150000X0*%
%ADD51R,0.750000X1.000000*%
%ADD52R,0.650000X1.000000*%
%ADD53R,1.100000X0.900000*%
%ADD54R,1.800000X1.250000*%
%ADD55R,1.070000X1.700000*%
%ADD56R,1.450000X1.250000*%
%ADD57RoundRect,0.100000X-0.150000X0.825000X-0.150000X-0.825000X0.150000X-0.825000X0.150000X0.825000X0*%
%ADD58FreePoly0,180.000000*%
%ADD59R,0.900000X1.400000*%
%ADD60FreePoly1,180.000000*%
%ADD61RoundRect,0.200000X0.250000X0.475000X-0.250000X0.475000X-0.250000X-0.475000X0.250000X-0.475000X0*%
%ADD62RoundRect,0.200000X-0.250000X-0.475000X0.250000X-0.475000X0.250000X0.475000X-0.250000X0.475000X0*%
%ADD63RoundRect,0.168750X0.218750X0.381250X-0.218750X0.381250X-0.218750X-0.381250X0.218750X-0.381250X0*%
%ADD64RoundRect,0.100000X0.825000X0.150000X-0.825000X0.150000X-0.825000X-0.150000X0.825000X-0.150000X0*%
%ADD65RoundRect,0.187500X-0.300000X-0.237500X0.300000X-0.237500X0.300000X0.237500X-0.300000X0.237500X0*%
%ADD66R,0.600000X0.900000*%
%ADD67R,0.900000X0.600000*%
%ADD68C,3.900000*%
%ADD69FreePoly2,270.000000*%
%ADD70O,1.100000X1.100000*%
G04 APERTURE END LIST*
D10*
X108300000Y-50350000D02*
X127700000Y-50350000D01*
X127700000Y-50350000D02*
X127700000Y-63800000D01*
X127700000Y-63800000D02*
X108300000Y-63800000D01*
X108300000Y-63800000D02*
X108300000Y-50350000D01*
G36*
X108300000Y-50350000D02*
G01*
X127700000Y-50350000D01*
X127700000Y-63800000D01*
X108300000Y-63800000D01*
X108300000Y-50350000D01*
G37*
X65450000Y-89921428D02*
X65592857Y-90064285D01*
X65450000Y-90207142D01*
X65307142Y-90064285D01*
X65450000Y-89921428D01*
X65450000Y-90207142D01*
X91300000Y-70921428D02*
X91442857Y-71064285D01*
X91300000Y-71207142D01*
X91157142Y-71064285D01*
X91300000Y-70921428D01*
X91300000Y-71207142D01*
X97250000Y-57221428D02*
X97392857Y-57364285D01*
X97250000Y-57507142D01*
X97107142Y-57364285D01*
X97250000Y-57221428D01*
X97250000Y-57507142D01*
X70450000Y-58471428D02*
X70592857Y-58614285D01*
X70450000Y-58757142D01*
X70307142Y-58614285D01*
X70450000Y-58471428D01*
X70450000Y-58757142D01*
X94600000Y-80921428D02*
X94742857Y-81064285D01*
X94600000Y-81207142D01*
X94457142Y-81064285D01*
X94600000Y-80921428D01*
X94600000Y-81207142D01*
X107500000Y-91421428D02*
X107642857Y-91564285D01*
X107500000Y-91707142D01*
X107357142Y-91564285D01*
X107500000Y-91421428D01*
X107500000Y-91707142D01*
X123500000Y-85671428D02*
X123642857Y-85814285D01*
X123500000Y-85957142D01*
X123357142Y-85814285D01*
X123500000Y-85671428D01*
X123500000Y-85957142D01*
X125450000Y-77021428D02*
X125592857Y-77164285D01*
X125450000Y-77307142D01*
X125307142Y-77164285D01*
X125450000Y-77021428D01*
X125450000Y-77307142D01*
X63450000Y-77071428D02*
X63592857Y-77214285D01*
X63450000Y-77357142D01*
X63307142Y-77214285D01*
X63450000Y-77071428D01*
X63450000Y-77357142D01*
X117000000Y-87871428D02*
X117142857Y-88014285D01*
X117000000Y-88157142D01*
X116857142Y-88014285D01*
X117000000Y-87871428D01*
X117000000Y-88157142D01*
X102250000Y-93771428D02*
X102392857Y-93914285D01*
X102250000Y-94057142D01*
X102107142Y-93914285D01*
X102250000Y-93771428D01*
X102250000Y-94057142D01*
X90650000Y-94271428D02*
X90792857Y-94414285D01*
X90650000Y-94557142D01*
X90507142Y-94414285D01*
X90650000Y-94271428D01*
X90650000Y-94557142D01*
X69850000Y-57771428D02*
X69992857Y-57914285D01*
X69850000Y-58057142D01*
X69707142Y-57914285D01*
X69850000Y-57771428D01*
X69850000Y-58057142D01*
X113700000Y-78421428D02*
X113842857Y-78564285D01*
X113700000Y-78707142D01*
X113557142Y-78564285D01*
X113700000Y-78421428D01*
X113700000Y-78707142D01*
X69900000Y-59271428D02*
X70042857Y-59414285D01*
X69900000Y-59557142D01*
X69757142Y-59414285D01*
X69900000Y-59271428D01*
X69900000Y-59557142D01*
X115700000Y-78271428D02*
X115842857Y-78414285D01*
X115700000Y-78557142D01*
X115557142Y-78414285D01*
X115700000Y-78271428D01*
X115700000Y-78557142D01*
X129250000Y-77321428D02*
X129392857Y-77464285D01*
X129250000Y-77607142D01*
X129107142Y-77464285D01*
X129250000Y-77321428D01*
X129250000Y-77607142D01*
X67850000Y-57621428D02*
X67992857Y-57764285D01*
X67850000Y-57907142D01*
X67707142Y-57764285D01*
X67850000Y-57621428D01*
X67850000Y-57907142D01*
%TO.C,R37*%
X85157142Y-79552380D02*
X84823809Y-79076190D01*
X84585714Y-79552380D02*
X84585714Y-78552380D01*
X84966666Y-78552380D01*
X85061904Y-78600000D01*
X85109523Y-78647619D01*
X85157142Y-78742857D01*
X85157142Y-78885714D01*
X85109523Y-78980952D01*
X85061904Y-79028571D01*
X84966666Y-79076190D01*
X84585714Y-79076190D01*
X85490476Y-78552380D02*
X86109523Y-78552380D01*
X85776190Y-78933333D01*
X85919047Y-78933333D01*
X86014285Y-78980952D01*
X86061904Y-79028571D01*
X86109523Y-79123809D01*
X86109523Y-79361904D01*
X86061904Y-79457142D01*
X86014285Y-79504761D01*
X85919047Y-79552380D01*
X85633333Y-79552380D01*
X85538095Y-79504761D01*
X85490476Y-79457142D01*
X86442857Y-78552380D02*
X87109523Y-78552380D01*
X86680952Y-79552380D01*
%TO.C,C29*%
X81057142Y-94257142D02*
X81009523Y-94304761D01*
X80866666Y-94352380D01*
X80771428Y-94352380D01*
X80628571Y-94304761D01*
X80533333Y-94209523D01*
X80485714Y-94114285D01*
X80438095Y-93923809D01*
X80438095Y-93780952D01*
X80485714Y-93590476D01*
X80533333Y-93495238D01*
X80628571Y-93400000D01*
X80771428Y-93352380D01*
X80866666Y-93352380D01*
X81009523Y-93400000D01*
X81057142Y-93447619D01*
X81438095Y-93447619D02*
X81485714Y-93400000D01*
X81580952Y-93352380D01*
X81819047Y-93352380D01*
X81914285Y-93400000D01*
X81961904Y-93447619D01*
X82009523Y-93542857D01*
X82009523Y-93638095D01*
X81961904Y-93780952D01*
X81390476Y-94352380D01*
X82009523Y-94352380D01*
X82485714Y-94352380D02*
X82676190Y-94352380D01*
X82771428Y-94304761D01*
X82819047Y-94257142D01*
X82914285Y-94114285D01*
X82961904Y-93923809D01*
X82961904Y-93542857D01*
X82914285Y-93447619D01*
X82866666Y-93400000D01*
X82771428Y-93352380D01*
X82580952Y-93352380D01*
X82485714Y-93400000D01*
X82438095Y-93447619D01*
X82390476Y-93542857D01*
X82390476Y-93780952D01*
X82438095Y-93876190D01*
X82485714Y-93923809D01*
X82580952Y-93971428D01*
X82771428Y-93971428D01*
X82866666Y-93923809D01*
X82914285Y-93876190D01*
X82961904Y-93780952D01*
%TO.C,R8*%
X118502380Y-73666666D02*
X118026190Y-74000000D01*
X118502380Y-74238095D02*
X117502380Y-74238095D01*
X117502380Y-73857142D01*
X117550000Y-73761904D01*
X117597619Y-73714285D01*
X117692857Y-73666666D01*
X117835714Y-73666666D01*
X117930952Y-73714285D01*
X117978571Y-73761904D01*
X118026190Y-73857142D01*
X118026190Y-74238095D01*
X117930952Y-73095238D02*
X117883333Y-73190476D01*
X117835714Y-73238095D01*
X117740476Y-73285714D01*
X117692857Y-73285714D01*
X117597619Y-73238095D01*
X117550000Y-73190476D01*
X117502380Y-73095238D01*
X117502380Y-72904761D01*
X117550000Y-72809523D01*
X117597619Y-72761904D01*
X117692857Y-72714285D01*
X117740476Y-72714285D01*
X117835714Y-72761904D01*
X117883333Y-72809523D01*
X117930952Y-72904761D01*
X117930952Y-73095238D01*
X117978571Y-73190476D01*
X118026190Y-73238095D01*
X118121428Y-73285714D01*
X118311904Y-73285714D01*
X118407142Y-73238095D01*
X118454761Y-73190476D01*
X118502380Y-73095238D01*
X118502380Y-72904761D01*
X118454761Y-72809523D01*
X118407142Y-72761904D01*
X118311904Y-72714285D01*
X118121428Y-72714285D01*
X118026190Y-72761904D01*
X117978571Y-72809523D01*
X117930952Y-72904761D01*
%TO.C,C7*%
X82263333Y-99307142D02*
X82215714Y-99354761D01*
X82072857Y-99402380D01*
X81977619Y-99402380D01*
X81834761Y-99354761D01*
X81739523Y-99259523D01*
X81691904Y-99164285D01*
X81644285Y-98973809D01*
X81644285Y-98830952D01*
X81691904Y-98640476D01*
X81739523Y-98545238D01*
X81834761Y-98450000D01*
X81977619Y-98402380D01*
X82072857Y-98402380D01*
X82215714Y-98450000D01*
X82263333Y-98497619D01*
X82596666Y-98402380D02*
X83263333Y-98402380D01*
X82834761Y-99402380D01*
%TO.C,R15*%
X81207142Y-95852380D02*
X80873809Y-95376190D01*
X80635714Y-95852380D02*
X80635714Y-94852380D01*
X81016666Y-94852380D01*
X81111904Y-94900000D01*
X81159523Y-94947619D01*
X81207142Y-95042857D01*
X81207142Y-95185714D01*
X81159523Y-95280952D01*
X81111904Y-95328571D01*
X81016666Y-95376190D01*
X80635714Y-95376190D01*
X82159523Y-95852380D02*
X81588095Y-95852380D01*
X81873809Y-95852380D02*
X81873809Y-94852380D01*
X81778571Y-94995238D01*
X81683333Y-95090476D01*
X81588095Y-95138095D01*
X83064285Y-94852380D02*
X82588095Y-94852380D01*
X82540476Y-95328571D01*
X82588095Y-95280952D01*
X82683333Y-95233333D01*
X82921428Y-95233333D01*
X83016666Y-95280952D01*
X83064285Y-95328571D01*
X83111904Y-95423809D01*
X83111904Y-95661904D01*
X83064285Y-95757142D01*
X83016666Y-95804761D01*
X82921428Y-95852380D01*
X82683333Y-95852380D01*
X82588095Y-95804761D01*
X82540476Y-95757142D01*
%TO.C,C13*%
X108257142Y-89757142D02*
X108209523Y-89804761D01*
X108066666Y-89852380D01*
X107971428Y-89852380D01*
X107828571Y-89804761D01*
X107733333Y-89709523D01*
X107685714Y-89614285D01*
X107638095Y-89423809D01*
X107638095Y-89280952D01*
X107685714Y-89090476D01*
X107733333Y-88995238D01*
X107828571Y-88900000D01*
X107971428Y-88852380D01*
X108066666Y-88852380D01*
X108209523Y-88900000D01*
X108257142Y-88947619D01*
X109209523Y-89852380D02*
X108638095Y-89852380D01*
X108923809Y-89852380D02*
X108923809Y-88852380D01*
X108828571Y-88995238D01*
X108733333Y-89090476D01*
X108638095Y-89138095D01*
X109542857Y-88852380D02*
X110161904Y-88852380D01*
X109828571Y-89233333D01*
X109971428Y-89233333D01*
X110066666Y-89280952D01*
X110114285Y-89328571D01*
X110161904Y-89423809D01*
X110161904Y-89661904D01*
X110114285Y-89757142D01*
X110066666Y-89804761D01*
X109971428Y-89852380D01*
X109685714Y-89852380D01*
X109590476Y-89804761D01*
X109542857Y-89757142D01*
%TO.C,U12*%
X121461904Y-84452380D02*
X121461904Y-85261904D01*
X121509523Y-85357142D01*
X121557142Y-85404761D01*
X121652380Y-85452380D01*
X121842857Y-85452380D01*
X121938095Y-85404761D01*
X121985714Y-85357142D01*
X122033333Y-85261904D01*
X122033333Y-84452380D01*
X123033333Y-85452380D02*
X122461904Y-85452380D01*
X122747619Y-85452380D02*
X122747619Y-84452380D01*
X122652380Y-84595238D01*
X122557142Y-84690476D01*
X122461904Y-84738095D01*
X123414285Y-84547619D02*
X123461904Y-84500000D01*
X123557142Y-84452380D01*
X123795238Y-84452380D01*
X123890476Y-84500000D01*
X123938095Y-84547619D01*
X123985714Y-84642857D01*
X123985714Y-84738095D01*
X123938095Y-84880952D01*
X123366666Y-85452380D01*
X123985714Y-85452380D01*
%TO.C,D1*%
X56802380Y-92988095D02*
X55802380Y-92988095D01*
X55802380Y-92750000D01*
X55850000Y-92607142D01*
X55945238Y-92511904D01*
X56040476Y-92464285D01*
X56230952Y-92416666D01*
X56373809Y-92416666D01*
X56564285Y-92464285D01*
X56659523Y-92511904D01*
X56754761Y-92607142D01*
X56802380Y-92750000D01*
X56802380Y-92988095D01*
X56802380Y-91464285D02*
X56802380Y-92035714D01*
X56802380Y-91750000D02*
X55802380Y-91750000D01*
X55945238Y-91845238D01*
X56040476Y-91940476D01*
X56088095Y-92035714D01*
%TO.C,U1*%
X65438095Y-90702380D02*
X65438095Y-91511904D01*
X65485714Y-91607142D01*
X65533333Y-91654761D01*
X65628571Y-91702380D01*
X65819047Y-91702380D01*
X65914285Y-91654761D01*
X65961904Y-91607142D01*
X66009523Y-91511904D01*
X66009523Y-90702380D01*
X67009523Y-91702380D02*
X66438095Y-91702380D01*
X66723809Y-91702380D02*
X66723809Y-90702380D01*
X66628571Y-90845238D01*
X66533333Y-90940476D01*
X66438095Y-90988095D01*
%TO.C,R10*%
X125907142Y-73802380D02*
X125573809Y-73326190D01*
X125335714Y-73802380D02*
X125335714Y-72802380D01*
X125716666Y-72802380D01*
X125811904Y-72850000D01*
X125859523Y-72897619D01*
X125907142Y-72992857D01*
X125907142Y-73135714D01*
X125859523Y-73230952D01*
X125811904Y-73278571D01*
X125716666Y-73326190D01*
X125335714Y-73326190D01*
X126859523Y-73802380D02*
X126288095Y-73802380D01*
X126573809Y-73802380D02*
X126573809Y-72802380D01*
X126478571Y-72945238D01*
X126383333Y-73040476D01*
X126288095Y-73088095D01*
X127478571Y-72802380D02*
X127573809Y-72802380D01*
X127669047Y-72850000D01*
X127716666Y-72897619D01*
X127764285Y-72992857D01*
X127811904Y-73183333D01*
X127811904Y-73421428D01*
X127764285Y-73611904D01*
X127716666Y-73707142D01*
X127669047Y-73754761D01*
X127573809Y-73802380D01*
X127478571Y-73802380D01*
X127383333Y-73754761D01*
X127335714Y-73707142D01*
X127288095Y-73611904D01*
X127240476Y-73421428D01*
X127240476Y-73183333D01*
X127288095Y-72992857D01*
X127335714Y-72897619D01*
X127383333Y-72850000D01*
X127478571Y-72802380D01*
%TO.C,R16*%
X61607142Y-67642380D02*
X61273809Y-67166190D01*
X61035714Y-67642380D02*
X61035714Y-66642380D01*
X61416666Y-66642380D01*
X61511904Y-66690000D01*
X61559523Y-66737619D01*
X61607142Y-66832857D01*
X61607142Y-66975714D01*
X61559523Y-67070952D01*
X61511904Y-67118571D01*
X61416666Y-67166190D01*
X61035714Y-67166190D01*
X62559523Y-67642380D02*
X61988095Y-67642380D01*
X62273809Y-67642380D02*
X62273809Y-66642380D01*
X62178571Y-66785238D01*
X62083333Y-66880476D01*
X61988095Y-66928095D01*
X63416666Y-66642380D02*
X63226190Y-66642380D01*
X63130952Y-66690000D01*
X63083333Y-66737619D01*
X62988095Y-66880476D01*
X62940476Y-67070952D01*
X62940476Y-67451904D01*
X62988095Y-67547142D01*
X63035714Y-67594761D01*
X63130952Y-67642380D01*
X63321428Y-67642380D01*
X63416666Y-67594761D01*
X63464285Y-67547142D01*
X63511904Y-67451904D01*
X63511904Y-67213809D01*
X63464285Y-67118571D01*
X63416666Y-67070952D01*
X63321428Y-67023333D01*
X63130952Y-67023333D01*
X63035714Y-67070952D01*
X62988095Y-67118571D01*
X62940476Y-67213809D01*
%TO.C,TP6*%
X114088095Y-91402380D02*
X114659523Y-91402380D01*
X114373809Y-92402380D02*
X114373809Y-91402380D01*
X114992857Y-92402380D02*
X114992857Y-91402380D01*
X115373809Y-91402380D01*
X115469047Y-91450000D01*
X115516666Y-91497619D01*
X115564285Y-91592857D01*
X115564285Y-91735714D01*
X115516666Y-91830952D01*
X115469047Y-91878571D01*
X115373809Y-91926190D01*
X114992857Y-91926190D01*
X116421428Y-91402380D02*
X116230952Y-91402380D01*
X116135714Y-91450000D01*
X116088095Y-91497619D01*
X115992857Y-91640476D01*
X115945238Y-91830952D01*
X115945238Y-92211904D01*
X115992857Y-92307142D01*
X116040476Y-92354761D01*
X116135714Y-92402380D01*
X116326190Y-92402380D01*
X116421428Y-92354761D01*
X116469047Y-92307142D01*
X116516666Y-92211904D01*
X116516666Y-91973809D01*
X116469047Y-91878571D01*
X116421428Y-91830952D01*
X116326190Y-91783333D01*
X116135714Y-91783333D01*
X116040476Y-91830952D01*
X115992857Y-91878571D01*
X115945238Y-91973809D01*
%TO.C,R18*%
X61607142Y-63152380D02*
X61273809Y-62676190D01*
X61035714Y-63152380D02*
X61035714Y-62152380D01*
X61416666Y-62152380D01*
X61511904Y-62200000D01*
X61559523Y-62247619D01*
X61607142Y-62342857D01*
X61607142Y-62485714D01*
X61559523Y-62580952D01*
X61511904Y-62628571D01*
X61416666Y-62676190D01*
X61035714Y-62676190D01*
X62559523Y-63152380D02*
X61988095Y-63152380D01*
X62273809Y-63152380D02*
X62273809Y-62152380D01*
X62178571Y-62295238D01*
X62083333Y-62390476D01*
X61988095Y-62438095D01*
X63130952Y-62580952D02*
X63035714Y-62533333D01*
X62988095Y-62485714D01*
X62940476Y-62390476D01*
X62940476Y-62342857D01*
X62988095Y-62247619D01*
X63035714Y-62200000D01*
X63130952Y-62152380D01*
X63321428Y-62152380D01*
X63416666Y-62200000D01*
X63464285Y-62247619D01*
X63511904Y-62342857D01*
X63511904Y-62390476D01*
X63464285Y-62485714D01*
X63416666Y-62533333D01*
X63321428Y-62580952D01*
X63130952Y-62580952D01*
X63035714Y-62628571D01*
X62988095Y-62676190D01*
X62940476Y-62771428D01*
X62940476Y-62961904D01*
X62988095Y-63057142D01*
X63035714Y-63104761D01*
X63130952Y-63152380D01*
X63321428Y-63152380D01*
X63416666Y-63104761D01*
X63464285Y-63057142D01*
X63511904Y-62961904D01*
X63511904Y-62771428D01*
X63464285Y-62676190D01*
X63416666Y-62628571D01*
X63321428Y-62580952D01*
D11*
%TO.C,U11*%
X123759523Y-77661904D02*
X123759523Y-78309523D01*
X123797619Y-78385714D01*
X123835714Y-78423809D01*
X123911904Y-78461904D01*
X124064285Y-78461904D01*
X124140476Y-78423809D01*
X124178571Y-78385714D01*
X124216666Y-78309523D01*
X124216666Y-77661904D01*
X125016666Y-78461904D02*
X124559523Y-78461904D01*
X124788095Y-78461904D02*
X124788095Y-77661904D01*
X124711904Y-77776190D01*
X124635714Y-77852380D01*
X124559523Y-77890476D01*
X125778571Y-78461904D02*
X125321428Y-78461904D01*
X125550000Y-78461904D02*
X125550000Y-77661904D01*
X125473809Y-77776190D01*
X125397619Y-77852380D01*
X125321428Y-77890476D01*
D10*
%TO.C,U2*%
X62638095Y-77402380D02*
X62638095Y-78211904D01*
X62685714Y-78307142D01*
X62733333Y-78354761D01*
X62828571Y-78402380D01*
X63019047Y-78402380D01*
X63114285Y-78354761D01*
X63161904Y-78307142D01*
X63209523Y-78211904D01*
X63209523Y-77402380D01*
X63638095Y-77497619D02*
X63685714Y-77450000D01*
X63780952Y-77402380D01*
X64019047Y-77402380D01*
X64114285Y-77450000D01*
X64161904Y-77497619D01*
X64209523Y-77592857D01*
X64209523Y-77688095D01*
X64161904Y-77830952D01*
X63590476Y-78402380D01*
X64209523Y-78402380D01*
%TO.C,TP7*%
X126528095Y-86687380D02*
X127099523Y-86687380D01*
X126813809Y-87687380D02*
X126813809Y-86687380D01*
X127432857Y-87687380D02*
X127432857Y-86687380D01*
X127813809Y-86687380D01*
X127909047Y-86735000D01*
X127956666Y-86782619D01*
X128004285Y-86877857D01*
X128004285Y-87020714D01*
X127956666Y-87115952D01*
X127909047Y-87163571D01*
X127813809Y-87211190D01*
X127432857Y-87211190D01*
X128337619Y-86687380D02*
X129004285Y-86687380D01*
X128575714Y-87687380D01*
%TO.C,L1*%
X87452380Y-100816666D02*
X87452380Y-101292857D01*
X86452380Y-101292857D01*
X87452380Y-99959523D02*
X87452380Y-100530952D01*
X87452380Y-100245238D02*
X86452380Y-100245238D01*
X86595238Y-100340476D01*
X86690476Y-100435714D01*
X86738095Y-100530952D01*
%TO.C,D3*%
X78211904Y-80352380D02*
X78211904Y-79352380D01*
X78450000Y-79352380D01*
X78592857Y-79400000D01*
X78688095Y-79495238D01*
X78735714Y-79590476D01*
X78783333Y-79780952D01*
X78783333Y-79923809D01*
X78735714Y-80114285D01*
X78688095Y-80209523D01*
X78592857Y-80304761D01*
X78450000Y-80352380D01*
X78211904Y-80352380D01*
X79116666Y-79352380D02*
X79735714Y-79352380D01*
X79402380Y-79733333D01*
X79545238Y-79733333D01*
X79640476Y-79780952D01*
X79688095Y-79828571D01*
X79735714Y-79923809D01*
X79735714Y-80161904D01*
X79688095Y-80257142D01*
X79640476Y-80304761D01*
X79545238Y-80352380D01*
X79259523Y-80352380D01*
X79164285Y-80304761D01*
X79116666Y-80257142D01*
%TO.C,C33*%
X91857142Y-56007142D02*
X91809523Y-56054761D01*
X91666666Y-56102380D01*
X91571428Y-56102380D01*
X91428571Y-56054761D01*
X91333333Y-55959523D01*
X91285714Y-55864285D01*
X91238095Y-55673809D01*
X91238095Y-55530952D01*
X91285714Y-55340476D01*
X91333333Y-55245238D01*
X91428571Y-55150000D01*
X91571428Y-55102380D01*
X91666666Y-55102380D01*
X91809523Y-55150000D01*
X91857142Y-55197619D01*
X92190476Y-55102380D02*
X92809523Y-55102380D01*
X92476190Y-55483333D01*
X92619047Y-55483333D01*
X92714285Y-55530952D01*
X92761904Y-55578571D01*
X92809523Y-55673809D01*
X92809523Y-55911904D01*
X92761904Y-56007142D01*
X92714285Y-56054761D01*
X92619047Y-56102380D01*
X92333333Y-56102380D01*
X92238095Y-56054761D01*
X92190476Y-56007142D01*
X93142857Y-55102380D02*
X93761904Y-55102380D01*
X93428571Y-55483333D01*
X93571428Y-55483333D01*
X93666666Y-55530952D01*
X93714285Y-55578571D01*
X93761904Y-55673809D01*
X93761904Y-55911904D01*
X93714285Y-56007142D01*
X93666666Y-56054761D01*
X93571428Y-56102380D01*
X93285714Y-56102380D01*
X93190476Y-56054761D01*
X93142857Y-56007142D01*
%TO.C,R33*%
X56812380Y-90292857D02*
X56336190Y-90626190D01*
X56812380Y-90864285D02*
X55812380Y-90864285D01*
X55812380Y-90483333D01*
X55860000Y-90388095D01*
X55907619Y-90340476D01*
X56002857Y-90292857D01*
X56145714Y-90292857D01*
X56240952Y-90340476D01*
X56288571Y-90388095D01*
X56336190Y-90483333D01*
X56336190Y-90864285D01*
X55812380Y-89959523D02*
X55812380Y-89340476D01*
X56193333Y-89673809D01*
X56193333Y-89530952D01*
X56240952Y-89435714D01*
X56288571Y-89388095D01*
X56383809Y-89340476D01*
X56621904Y-89340476D01*
X56717142Y-89388095D01*
X56764761Y-89435714D01*
X56812380Y-89530952D01*
X56812380Y-89816666D01*
X56764761Y-89911904D01*
X56717142Y-89959523D01*
X55812380Y-89007142D02*
X55812380Y-88388095D01*
X56193333Y-88721428D01*
X56193333Y-88578571D01*
X56240952Y-88483333D01*
X56288571Y-88435714D01*
X56383809Y-88388095D01*
X56621904Y-88388095D01*
X56717142Y-88435714D01*
X56764761Y-88483333D01*
X56812380Y-88578571D01*
X56812380Y-88864285D01*
X56764761Y-88959523D01*
X56717142Y-89007142D01*
%TO.C,TP4*%
X96048095Y-85114380D02*
X96619523Y-85114380D01*
X96333809Y-86114380D02*
X96333809Y-85114380D01*
X96952857Y-86114380D02*
X96952857Y-85114380D01*
X97333809Y-85114380D01*
X97429047Y-85162000D01*
X97476666Y-85209619D01*
X97524285Y-85304857D01*
X97524285Y-85447714D01*
X97476666Y-85542952D01*
X97429047Y-85590571D01*
X97333809Y-85638190D01*
X96952857Y-85638190D01*
X98381428Y-85447714D02*
X98381428Y-86114380D01*
X98143333Y-85066761D02*
X97905238Y-85781047D01*
X98524285Y-85781047D01*
%TO.C,R35*%
X69857142Y-80402380D02*
X69523809Y-79926190D01*
X69285714Y-80402380D02*
X69285714Y-79402380D01*
X69666666Y-79402380D01*
X69761904Y-79450000D01*
X69809523Y-79497619D01*
X69857142Y-79592857D01*
X69857142Y-79735714D01*
X69809523Y-79830952D01*
X69761904Y-79878571D01*
X69666666Y-79926190D01*
X69285714Y-79926190D01*
X70190476Y-79402380D02*
X70809523Y-79402380D01*
X70476190Y-79783333D01*
X70619047Y-79783333D01*
X70714285Y-79830952D01*
X70761904Y-79878571D01*
X70809523Y-79973809D01*
X70809523Y-80211904D01*
X70761904Y-80307142D01*
X70714285Y-80354761D01*
X70619047Y-80402380D01*
X70333333Y-80402380D01*
X70238095Y-80354761D01*
X70190476Y-80307142D01*
X71714285Y-79402380D02*
X71238095Y-79402380D01*
X71190476Y-79878571D01*
X71238095Y-79830952D01*
X71333333Y-79783333D01*
X71571428Y-79783333D01*
X71666666Y-79830952D01*
X71714285Y-79878571D01*
X71761904Y-79973809D01*
X71761904Y-80211904D01*
X71714285Y-80307142D01*
X71666666Y-80354761D01*
X71571428Y-80402380D01*
X71333333Y-80402380D01*
X71238095Y-80354761D01*
X71190476Y-80307142D01*
%TO.C,C16*%
X104257142Y-102692857D02*
X104304761Y-102740476D01*
X104352380Y-102883333D01*
X104352380Y-102978571D01*
X104304761Y-103121428D01*
X104209523Y-103216666D01*
X104114285Y-103264285D01*
X103923809Y-103311904D01*
X103780952Y-103311904D01*
X103590476Y-103264285D01*
X103495238Y-103216666D01*
X103400000Y-103121428D01*
X103352380Y-102978571D01*
X103352380Y-102883333D01*
X103400000Y-102740476D01*
X103447619Y-102692857D01*
X104352380Y-101740476D02*
X104352380Y-102311904D01*
X104352380Y-102026190D02*
X103352380Y-102026190D01*
X103495238Y-102121428D01*
X103590476Y-102216666D01*
X103638095Y-102311904D01*
X103352380Y-100883333D02*
X103352380Y-101073809D01*
X103400000Y-101169047D01*
X103447619Y-101216666D01*
X103590476Y-101311904D01*
X103780952Y-101359523D01*
X104161904Y-101359523D01*
X104257142Y-101311904D01*
X104304761Y-101264285D01*
X104352380Y-101169047D01*
X104352380Y-100978571D01*
X104304761Y-100883333D01*
X104257142Y-100835714D01*
X104161904Y-100788095D01*
X103923809Y-100788095D01*
X103828571Y-100835714D01*
X103780952Y-100883333D01*
X103733333Y-100978571D01*
X103733333Y-101169047D01*
X103780952Y-101264285D01*
X103828571Y-101311904D01*
X103923809Y-101359523D01*
%TO.C,R34*%
X52362380Y-90192857D02*
X51886190Y-90526190D01*
X52362380Y-90764285D02*
X51362380Y-90764285D01*
X51362380Y-90383333D01*
X51410000Y-90288095D01*
X51457619Y-90240476D01*
X51552857Y-90192857D01*
X51695714Y-90192857D01*
X51790952Y-90240476D01*
X51838571Y-90288095D01*
X51886190Y-90383333D01*
X51886190Y-90764285D01*
X51362380Y-89859523D02*
X51362380Y-89240476D01*
X51743333Y-89573809D01*
X51743333Y-89430952D01*
X51790952Y-89335714D01*
X51838571Y-89288095D01*
X51933809Y-89240476D01*
X52171904Y-89240476D01*
X52267142Y-89288095D01*
X52314761Y-89335714D01*
X52362380Y-89430952D01*
X52362380Y-89716666D01*
X52314761Y-89811904D01*
X52267142Y-89859523D01*
X51695714Y-88383333D02*
X52362380Y-88383333D01*
X51314761Y-88621428D02*
X52029047Y-88859523D01*
X52029047Y-88240476D01*
%TO.C,C31*%
X64857142Y-57392857D02*
X64904761Y-57440476D01*
X64952380Y-57583333D01*
X64952380Y-57678571D01*
X64904761Y-57821428D01*
X64809523Y-57916666D01*
X64714285Y-57964285D01*
X64523809Y-58011904D01*
X64380952Y-58011904D01*
X64190476Y-57964285D01*
X64095238Y-57916666D01*
X64000000Y-57821428D01*
X63952380Y-57678571D01*
X63952380Y-57583333D01*
X64000000Y-57440476D01*
X64047619Y-57392857D01*
X63952380Y-57059523D02*
X63952380Y-56440476D01*
X64333333Y-56773809D01*
X64333333Y-56630952D01*
X64380952Y-56535714D01*
X64428571Y-56488095D01*
X64523809Y-56440476D01*
X64761904Y-56440476D01*
X64857142Y-56488095D01*
X64904761Y-56535714D01*
X64952380Y-56630952D01*
X64952380Y-56916666D01*
X64904761Y-57011904D01*
X64857142Y-57059523D01*
X64952380Y-55488095D02*
X64952380Y-56059523D01*
X64952380Y-55773809D02*
X63952380Y-55773809D01*
X64095238Y-55869047D01*
X64190476Y-55964285D01*
X64238095Y-56059523D01*
D11*
%TO.C,C23*%
X123185714Y-70164285D02*
X123223809Y-70202380D01*
X123261904Y-70316666D01*
X123261904Y-70392857D01*
X123223809Y-70507142D01*
X123147619Y-70583333D01*
X123071428Y-70621428D01*
X122919047Y-70659523D01*
X122804761Y-70659523D01*
X122652380Y-70621428D01*
X122576190Y-70583333D01*
X122500000Y-70507142D01*
X122461904Y-70392857D01*
X122461904Y-70316666D01*
X122500000Y-70202380D01*
X122538095Y-70164285D01*
X122538095Y-69859523D02*
X122500000Y-69821428D01*
X122461904Y-69745238D01*
X122461904Y-69554761D01*
X122500000Y-69478571D01*
X122538095Y-69440476D01*
X122614285Y-69402380D01*
X122690476Y-69402380D01*
X122804761Y-69440476D01*
X123261904Y-69897619D01*
X123261904Y-69402380D01*
X122461904Y-69135714D02*
X122461904Y-68640476D01*
X122766666Y-68907142D01*
X122766666Y-68792857D01*
X122804761Y-68716666D01*
X122842857Y-68678571D01*
X122919047Y-68640476D01*
X123109523Y-68640476D01*
X123185714Y-68678571D01*
X123223809Y-68716666D01*
X123261904Y-68792857D01*
X123261904Y-69021428D01*
X123223809Y-69097619D01*
X123185714Y-69135714D01*
D10*
%TO.C,C35*%
X52627142Y-67592857D02*
X52674761Y-67640476D01*
X52722380Y-67783333D01*
X52722380Y-67878571D01*
X52674761Y-68021428D01*
X52579523Y-68116666D01*
X52484285Y-68164285D01*
X52293809Y-68211904D01*
X52150952Y-68211904D01*
X51960476Y-68164285D01*
X51865238Y-68116666D01*
X51770000Y-68021428D01*
X51722380Y-67878571D01*
X51722380Y-67783333D01*
X51770000Y-67640476D01*
X51817619Y-67592857D01*
X51722380Y-67259523D02*
X51722380Y-66640476D01*
X52103333Y-66973809D01*
X52103333Y-66830952D01*
X52150952Y-66735714D01*
X52198571Y-66688095D01*
X52293809Y-66640476D01*
X52531904Y-66640476D01*
X52627142Y-66688095D01*
X52674761Y-66735714D01*
X52722380Y-66830952D01*
X52722380Y-67116666D01*
X52674761Y-67211904D01*
X52627142Y-67259523D01*
X51722380Y-65735714D02*
X51722380Y-66211904D01*
X52198571Y-66259523D01*
X52150952Y-66211904D01*
X52103333Y-66116666D01*
X52103333Y-65878571D01*
X52150952Y-65783333D01*
X52198571Y-65735714D01*
X52293809Y-65688095D01*
X52531904Y-65688095D01*
X52627142Y-65735714D01*
X52674761Y-65783333D01*
X52722380Y-65878571D01*
X52722380Y-66116666D01*
X52674761Y-66211904D01*
X52627142Y-66259523D01*
%TO.C,TP1*%
X60238095Y-102152380D02*
X60809523Y-102152380D01*
X60523809Y-103152380D02*
X60523809Y-102152380D01*
X61142857Y-103152380D02*
X61142857Y-102152380D01*
X61523809Y-102152380D01*
X61619047Y-102200000D01*
X61666666Y-102247619D01*
X61714285Y-102342857D01*
X61714285Y-102485714D01*
X61666666Y-102580952D01*
X61619047Y-102628571D01*
X61523809Y-102676190D01*
X61142857Y-102676190D01*
X62666666Y-103152380D02*
X62095238Y-103152380D01*
X62380952Y-103152380D02*
X62380952Y-102152380D01*
X62285714Y-102295238D01*
X62190476Y-102390476D01*
X62095238Y-102438095D01*
%TO.C,TP5*%
X111638095Y-72752380D02*
X112209523Y-72752380D01*
X111923809Y-73752380D02*
X111923809Y-72752380D01*
X112542857Y-73752380D02*
X112542857Y-72752380D01*
X112923809Y-72752380D01*
X113019047Y-72800000D01*
X113066666Y-72847619D01*
X113114285Y-72942857D01*
X113114285Y-73085714D01*
X113066666Y-73180952D01*
X113019047Y-73228571D01*
X112923809Y-73276190D01*
X112542857Y-73276190D01*
X114019047Y-72752380D02*
X113542857Y-72752380D01*
X113495238Y-73228571D01*
X113542857Y-73180952D01*
X113638095Y-73133333D01*
X113876190Y-73133333D01*
X113971428Y-73180952D01*
X114019047Y-73228571D01*
X114066666Y-73323809D01*
X114066666Y-73561904D01*
X114019047Y-73657142D01*
X113971428Y-73704761D01*
X113876190Y-73752380D01*
X113638095Y-73752380D01*
X113542857Y-73704761D01*
X113495238Y-73657142D01*
%TO.C,R13*%
X117757142Y-84952380D02*
X117423809Y-84476190D01*
X117185714Y-84952380D02*
X117185714Y-83952380D01*
X117566666Y-83952380D01*
X117661904Y-84000000D01*
X117709523Y-84047619D01*
X117757142Y-84142857D01*
X117757142Y-84285714D01*
X117709523Y-84380952D01*
X117661904Y-84428571D01*
X117566666Y-84476190D01*
X117185714Y-84476190D01*
X118709523Y-84952380D02*
X118138095Y-84952380D01*
X118423809Y-84952380D02*
X118423809Y-83952380D01*
X118328571Y-84095238D01*
X118233333Y-84190476D01*
X118138095Y-84238095D01*
X119042857Y-83952380D02*
X119661904Y-83952380D01*
X119328571Y-84333333D01*
X119471428Y-84333333D01*
X119566666Y-84380952D01*
X119614285Y-84428571D01*
X119661904Y-84523809D01*
X119661904Y-84761904D01*
X119614285Y-84857142D01*
X119566666Y-84904761D01*
X119471428Y-84952380D01*
X119185714Y-84952380D01*
X119090476Y-84904761D01*
X119042857Y-84857142D01*
%TO.C,C24*%
X121442142Y-80152142D02*
X121394523Y-80199761D01*
X121251666Y-80247380D01*
X121156428Y-80247380D01*
X121013571Y-80199761D01*
X120918333Y-80104523D01*
X120870714Y-80009285D01*
X120823095Y-79818809D01*
X120823095Y-79675952D01*
X120870714Y-79485476D01*
X120918333Y-79390238D01*
X121013571Y-79295000D01*
X121156428Y-79247380D01*
X121251666Y-79247380D01*
X121394523Y-79295000D01*
X121442142Y-79342619D01*
X121823095Y-79342619D02*
X121870714Y-79295000D01*
X121965952Y-79247380D01*
X122204047Y-79247380D01*
X122299285Y-79295000D01*
X122346904Y-79342619D01*
X122394523Y-79437857D01*
X122394523Y-79533095D01*
X122346904Y-79675952D01*
X121775476Y-80247380D01*
X122394523Y-80247380D01*
X123251666Y-79580714D02*
X123251666Y-80247380D01*
X123013571Y-79199761D02*
X122775476Y-79914047D01*
X123394523Y-79914047D01*
%TO.C,J3*%
X93216666Y-75652380D02*
X93216666Y-76366666D01*
X93169047Y-76509523D01*
X93073809Y-76604761D01*
X92930952Y-76652380D01*
X92835714Y-76652380D01*
X93597619Y-75652380D02*
X94216666Y-75652380D01*
X93883333Y-76033333D01*
X94026190Y-76033333D01*
X94121428Y-76080952D01*
X94169047Y-76128571D01*
X94216666Y-76223809D01*
X94216666Y-76461904D01*
X94169047Y-76557142D01*
X94121428Y-76604761D01*
X94026190Y-76652380D01*
X93740476Y-76652380D01*
X93645238Y-76604761D01*
X93597619Y-76557142D01*
%TO.C,TP9*%
X109038095Y-65604380D02*
X109609523Y-65604380D01*
X109323809Y-66604380D02*
X109323809Y-65604380D01*
X109942857Y-66604380D02*
X109942857Y-65604380D01*
X110323809Y-65604380D01*
X110419047Y-65652000D01*
X110466666Y-65699619D01*
X110514285Y-65794857D01*
X110514285Y-65937714D01*
X110466666Y-66032952D01*
X110419047Y-66080571D01*
X110323809Y-66128190D01*
X109942857Y-66128190D01*
X110990476Y-66604380D02*
X111180952Y-66604380D01*
X111276190Y-66556761D01*
X111323809Y-66509142D01*
X111419047Y-66366285D01*
X111466666Y-66175809D01*
X111466666Y-65794857D01*
X111419047Y-65699619D01*
X111371428Y-65652000D01*
X111276190Y-65604380D01*
X111085714Y-65604380D01*
X110990476Y-65652000D01*
X110942857Y-65699619D01*
X110895238Y-65794857D01*
X110895238Y-66032952D01*
X110942857Y-66128190D01*
X110990476Y-66175809D01*
X111085714Y-66223428D01*
X111276190Y-66223428D01*
X111371428Y-66175809D01*
X111419047Y-66128190D01*
X111466666Y-66032952D01*
%TO.C,R39*%
X65382380Y-70592857D02*
X64906190Y-70926190D01*
X65382380Y-71164285D02*
X64382380Y-71164285D01*
X64382380Y-70783333D01*
X64430000Y-70688095D01*
X64477619Y-70640476D01*
X64572857Y-70592857D01*
X64715714Y-70592857D01*
X64810952Y-70640476D01*
X64858571Y-70688095D01*
X64906190Y-70783333D01*
X64906190Y-71164285D01*
X64382380Y-70259523D02*
X64382380Y-69640476D01*
X64763333Y-69973809D01*
X64763333Y-69830952D01*
X64810952Y-69735714D01*
X64858571Y-69688095D01*
X64953809Y-69640476D01*
X65191904Y-69640476D01*
X65287142Y-69688095D01*
X65334761Y-69735714D01*
X65382380Y-69830952D01*
X65382380Y-70116666D01*
X65334761Y-70211904D01*
X65287142Y-70259523D01*
X65382380Y-69164285D02*
X65382380Y-68973809D01*
X65334761Y-68878571D01*
X65287142Y-68830952D01*
X65144285Y-68735714D01*
X64953809Y-68688095D01*
X64572857Y-68688095D01*
X64477619Y-68735714D01*
X64430000Y-68783333D01*
X64382380Y-68878571D01*
X64382380Y-69069047D01*
X64430000Y-69164285D01*
X64477619Y-69211904D01*
X64572857Y-69259523D01*
X64810952Y-69259523D01*
X64906190Y-69211904D01*
X64953809Y-69164285D01*
X65001428Y-69069047D01*
X65001428Y-68878571D01*
X64953809Y-68783333D01*
X64906190Y-68735714D01*
X64810952Y-68688095D01*
%TO.C,L2*%
X78033333Y-99832380D02*
X77557142Y-99832380D01*
X77557142Y-98832380D01*
X78319047Y-98927619D02*
X78366666Y-98880000D01*
X78461904Y-98832380D01*
X78700000Y-98832380D01*
X78795238Y-98880000D01*
X78842857Y-98927619D01*
X78890476Y-99022857D01*
X78890476Y-99118095D01*
X78842857Y-99260952D01*
X78271428Y-99832380D01*
X78890476Y-99832380D01*
%TO.C,C6*%
X85033333Y-94857142D02*
X84985714Y-94904761D01*
X84842857Y-94952380D01*
X84747619Y-94952380D01*
X84604761Y-94904761D01*
X84509523Y-94809523D01*
X84461904Y-94714285D01*
X84414285Y-94523809D01*
X84414285Y-94380952D01*
X84461904Y-94190476D01*
X84509523Y-94095238D01*
X84604761Y-94000000D01*
X84747619Y-93952380D01*
X84842857Y-93952380D01*
X84985714Y-94000000D01*
X85033333Y-94047619D01*
X85890476Y-93952380D02*
X85700000Y-93952380D01*
X85604761Y-94000000D01*
X85557142Y-94047619D01*
X85461904Y-94190476D01*
X85414285Y-94380952D01*
X85414285Y-94761904D01*
X85461904Y-94857142D01*
X85509523Y-94904761D01*
X85604761Y-94952380D01*
X85795238Y-94952380D01*
X85890476Y-94904761D01*
X85938095Y-94857142D01*
X85985714Y-94761904D01*
X85985714Y-94523809D01*
X85938095Y-94428571D01*
X85890476Y-94380952D01*
X85795238Y-94333333D01*
X85604761Y-94333333D01*
X85509523Y-94380952D01*
X85461904Y-94428571D01*
X85414285Y-94523809D01*
%TO.C,C19*%
X86977142Y-93552857D02*
X87024761Y-93600476D01*
X87072380Y-93743333D01*
X87072380Y-93838571D01*
X87024761Y-93981428D01*
X86929523Y-94076666D01*
X86834285Y-94124285D01*
X86643809Y-94171904D01*
X86500952Y-94171904D01*
X86310476Y-94124285D01*
X86215238Y-94076666D01*
X86120000Y-93981428D01*
X86072380Y-93838571D01*
X86072380Y-93743333D01*
X86120000Y-93600476D01*
X86167619Y-93552857D01*
X87072380Y-92600476D02*
X87072380Y-93171904D01*
X87072380Y-92886190D02*
X86072380Y-92886190D01*
X86215238Y-92981428D01*
X86310476Y-93076666D01*
X86358095Y-93171904D01*
X87072380Y-92124285D02*
X87072380Y-91933809D01*
X87024761Y-91838571D01*
X86977142Y-91790952D01*
X86834285Y-91695714D01*
X86643809Y-91648095D01*
X86262857Y-91648095D01*
X86167619Y-91695714D01*
X86120000Y-91743333D01*
X86072380Y-91838571D01*
X86072380Y-92029047D01*
X86120000Y-92124285D01*
X86167619Y-92171904D01*
X86262857Y-92219523D01*
X86500952Y-92219523D01*
X86596190Y-92171904D01*
X86643809Y-92124285D01*
X86691428Y-92029047D01*
X86691428Y-91838571D01*
X86643809Y-91743333D01*
X86596190Y-91695714D01*
X86500952Y-91648095D01*
%TO.C,C10*%
X96107142Y-96592857D02*
X96154761Y-96640476D01*
X96202380Y-96783333D01*
X96202380Y-96878571D01*
X96154761Y-97021428D01*
X96059523Y-97116666D01*
X95964285Y-97164285D01*
X95773809Y-97211904D01*
X95630952Y-97211904D01*
X95440476Y-97164285D01*
X95345238Y-97116666D01*
X95250000Y-97021428D01*
X95202380Y-96878571D01*
X95202380Y-96783333D01*
X95250000Y-96640476D01*
X95297619Y-96592857D01*
X96202380Y-95640476D02*
X96202380Y-96211904D01*
X96202380Y-95926190D02*
X95202380Y-95926190D01*
X95345238Y-96021428D01*
X95440476Y-96116666D01*
X95488095Y-96211904D01*
X95202380Y-95021428D02*
X95202380Y-94926190D01*
X95250000Y-94830952D01*
X95297619Y-94783333D01*
X95392857Y-94735714D01*
X95583333Y-94688095D01*
X95821428Y-94688095D01*
X96011904Y-94735714D01*
X96107142Y-94783333D01*
X96154761Y-94830952D01*
X96202380Y-94926190D01*
X96202380Y-95021428D01*
X96154761Y-95116666D01*
X96107142Y-95164285D01*
X96011904Y-95211904D01*
X95821428Y-95259523D01*
X95583333Y-95259523D01*
X95392857Y-95211904D01*
X95297619Y-95164285D01*
X95250000Y-95116666D01*
X95202380Y-95021428D01*
%TO.C,C3*%
X90957142Y-100166666D02*
X91004761Y-100214285D01*
X91052380Y-100357142D01*
X91052380Y-100452380D01*
X91004761Y-100595238D01*
X90909523Y-100690476D01*
X90814285Y-100738095D01*
X90623809Y-100785714D01*
X90480952Y-100785714D01*
X90290476Y-100738095D01*
X90195238Y-100690476D01*
X90100000Y-100595238D01*
X90052380Y-100452380D01*
X90052380Y-100357142D01*
X90100000Y-100214285D01*
X90147619Y-100166666D01*
X90052380Y-99833333D02*
X90052380Y-99214285D01*
X90433333Y-99547619D01*
X90433333Y-99404761D01*
X90480952Y-99309523D01*
X90528571Y-99261904D01*
X90623809Y-99214285D01*
X90861904Y-99214285D01*
X90957142Y-99261904D01*
X91004761Y-99309523D01*
X91052380Y-99404761D01*
X91052380Y-99690476D01*
X91004761Y-99785714D01*
X90957142Y-99833333D01*
%TO.C,C8*%
X73633333Y-99207142D02*
X73585714Y-99254761D01*
X73442857Y-99302380D01*
X73347619Y-99302380D01*
X73204761Y-99254761D01*
X73109523Y-99159523D01*
X73061904Y-99064285D01*
X73014285Y-98873809D01*
X73014285Y-98730952D01*
X73061904Y-98540476D01*
X73109523Y-98445238D01*
X73204761Y-98350000D01*
X73347619Y-98302380D01*
X73442857Y-98302380D01*
X73585714Y-98350000D01*
X73633333Y-98397619D01*
X74204761Y-98730952D02*
X74109523Y-98683333D01*
X74061904Y-98635714D01*
X74014285Y-98540476D01*
X74014285Y-98492857D01*
X74061904Y-98397619D01*
X74109523Y-98350000D01*
X74204761Y-98302380D01*
X74395238Y-98302380D01*
X74490476Y-98350000D01*
X74538095Y-98397619D01*
X74585714Y-98492857D01*
X74585714Y-98540476D01*
X74538095Y-98635714D01*
X74490476Y-98683333D01*
X74395238Y-98730952D01*
X74204761Y-98730952D01*
X74109523Y-98778571D01*
X74061904Y-98826190D01*
X74014285Y-98921428D01*
X74014285Y-99111904D01*
X74061904Y-99207142D01*
X74109523Y-99254761D01*
X74204761Y-99302380D01*
X74395238Y-99302380D01*
X74490476Y-99254761D01*
X74538095Y-99207142D01*
X74585714Y-99111904D01*
X74585714Y-98921428D01*
X74538095Y-98826190D01*
X74490476Y-98778571D01*
X74395238Y-98730952D01*
%TO.C,H3*%
X130238095Y-101452380D02*
X130238095Y-100452380D01*
X130238095Y-100928571D02*
X130809523Y-100928571D01*
X130809523Y-101452380D02*
X130809523Y-100452380D01*
X131190476Y-100452380D02*
X131809523Y-100452380D01*
X131476190Y-100833333D01*
X131619047Y-100833333D01*
X131714285Y-100880952D01*
X131761904Y-100928571D01*
X131809523Y-101023809D01*
X131809523Y-101261904D01*
X131761904Y-101357142D01*
X131714285Y-101404761D01*
X131619047Y-101452380D01*
X131333333Y-101452380D01*
X131238095Y-101404761D01*
X131190476Y-101357142D01*
%TO.C,C32*%
X66857142Y-57392857D02*
X66904761Y-57440476D01*
X66952380Y-57583333D01*
X66952380Y-57678571D01*
X66904761Y-57821428D01*
X66809523Y-57916666D01*
X66714285Y-57964285D01*
X66523809Y-58011904D01*
X66380952Y-58011904D01*
X66190476Y-57964285D01*
X66095238Y-57916666D01*
X66000000Y-57821428D01*
X65952380Y-57678571D01*
X65952380Y-57583333D01*
X66000000Y-57440476D01*
X66047619Y-57392857D01*
X65952380Y-57059523D02*
X65952380Y-56440476D01*
X66333333Y-56773809D01*
X66333333Y-56630952D01*
X66380952Y-56535714D01*
X66428571Y-56488095D01*
X66523809Y-56440476D01*
X66761904Y-56440476D01*
X66857142Y-56488095D01*
X66904761Y-56535714D01*
X66952380Y-56630952D01*
X66952380Y-56916666D01*
X66904761Y-57011904D01*
X66857142Y-57059523D01*
X66047619Y-56059523D02*
X66000000Y-56011904D01*
X65952380Y-55916666D01*
X65952380Y-55678571D01*
X66000000Y-55583333D01*
X66047619Y-55535714D01*
X66142857Y-55488095D01*
X66238095Y-55488095D01*
X66380952Y-55535714D01*
X66952380Y-56107142D01*
X66952380Y-55488095D01*
%TO.C,R6*%
X120402380Y-73366666D02*
X119926190Y-73700000D01*
X120402380Y-73938095D02*
X119402380Y-73938095D01*
X119402380Y-73557142D01*
X119450000Y-73461904D01*
X119497619Y-73414285D01*
X119592857Y-73366666D01*
X119735714Y-73366666D01*
X119830952Y-73414285D01*
X119878571Y-73461904D01*
X119926190Y-73557142D01*
X119926190Y-73938095D01*
X119402380Y-72509523D02*
X119402380Y-72700000D01*
X119450000Y-72795238D01*
X119497619Y-72842857D01*
X119640476Y-72938095D01*
X119830952Y-72985714D01*
X120211904Y-72985714D01*
X120307142Y-72938095D01*
X120354761Y-72890476D01*
X120402380Y-72795238D01*
X120402380Y-72604761D01*
X120354761Y-72509523D01*
X120307142Y-72461904D01*
X120211904Y-72414285D01*
X119973809Y-72414285D01*
X119878571Y-72461904D01*
X119830952Y-72509523D01*
X119783333Y-72604761D01*
X119783333Y-72795238D01*
X119830952Y-72890476D01*
X119878571Y-72938095D01*
X119973809Y-72985714D01*
%TO.C,C15*%
X103057142Y-78357142D02*
X103009523Y-78404761D01*
X102866666Y-78452380D01*
X102771428Y-78452380D01*
X102628571Y-78404761D01*
X102533333Y-78309523D01*
X102485714Y-78214285D01*
X102438095Y-78023809D01*
X102438095Y-77880952D01*
X102485714Y-77690476D01*
X102533333Y-77595238D01*
X102628571Y-77500000D01*
X102771428Y-77452380D01*
X102866666Y-77452380D01*
X103009523Y-77500000D01*
X103057142Y-77547619D01*
X104009523Y-78452380D02*
X103438095Y-78452380D01*
X103723809Y-78452380D02*
X103723809Y-77452380D01*
X103628571Y-77595238D01*
X103533333Y-77690476D01*
X103438095Y-77738095D01*
X104914285Y-77452380D02*
X104438095Y-77452380D01*
X104390476Y-77928571D01*
X104438095Y-77880952D01*
X104533333Y-77833333D01*
X104771428Y-77833333D01*
X104866666Y-77880952D01*
X104914285Y-77928571D01*
X104961904Y-78023809D01*
X104961904Y-78261904D01*
X104914285Y-78357142D01*
X104866666Y-78404761D01*
X104771428Y-78452380D01*
X104533333Y-78452380D01*
X104438095Y-78404761D01*
X104390476Y-78357142D01*
D12*
%TO.C,J1*%
X58026666Y-84454523D02*
X58026666Y-85361666D01*
X57966190Y-85543095D01*
X57845238Y-85664047D01*
X57663809Y-85724523D01*
X57542857Y-85724523D01*
X59296666Y-85724523D02*
X58570952Y-85724523D01*
X58933809Y-85724523D02*
X58933809Y-84454523D01*
X58812857Y-84635952D01*
X58691904Y-84756904D01*
X58570952Y-84817380D01*
D10*
%TO.C,U14*%
X87761904Y-55852380D02*
X87761904Y-56661904D01*
X87809523Y-56757142D01*
X87857142Y-56804761D01*
X87952380Y-56852380D01*
X88142857Y-56852380D01*
X88238095Y-56804761D01*
X88285714Y-56757142D01*
X88333333Y-56661904D01*
X88333333Y-55852380D01*
X89333333Y-56852380D02*
X88761904Y-56852380D01*
X89047619Y-56852380D02*
X89047619Y-55852380D01*
X88952380Y-55995238D01*
X88857142Y-56090476D01*
X88761904Y-56138095D01*
X90190476Y-56185714D02*
X90190476Y-56852380D01*
X89952380Y-55804761D02*
X89714285Y-56519047D01*
X90333333Y-56519047D01*
X72538095Y-54736666D02*
X73014285Y-54736666D01*
X72442857Y-55022380D02*
X72776190Y-54022380D01*
X73109523Y-55022380D01*
X73442857Y-54355714D02*
X73442857Y-55022380D01*
X73442857Y-54450952D02*
X73490476Y-54403333D01*
X73585714Y-54355714D01*
X73728571Y-54355714D01*
X73823809Y-54403333D01*
X73871428Y-54498571D01*
X73871428Y-55022380D01*
X74204761Y-54355714D02*
X74585714Y-54355714D01*
X74347619Y-54022380D02*
X74347619Y-54879523D01*
X74395238Y-54974761D01*
X74490476Y-55022380D01*
X74585714Y-55022380D01*
X75300000Y-54974761D02*
X75204761Y-55022380D01*
X75014285Y-55022380D01*
X74919047Y-54974761D01*
X74871428Y-54879523D01*
X74871428Y-54498571D01*
X74919047Y-54403333D01*
X75014285Y-54355714D01*
X75204761Y-54355714D01*
X75300000Y-54403333D01*
X75347619Y-54498571D01*
X75347619Y-54593809D01*
X74871428Y-54689047D01*
X75776190Y-54355714D02*
X75776190Y-55022380D01*
X75776190Y-54450952D02*
X75823809Y-54403333D01*
X75919047Y-54355714D01*
X76061904Y-54355714D01*
X76157142Y-54403333D01*
X76204761Y-54498571D01*
X76204761Y-55022380D01*
X76680952Y-54355714D02*
X76680952Y-55022380D01*
X76680952Y-54450952D02*
X76728571Y-54403333D01*
X76823809Y-54355714D01*
X76966666Y-54355714D01*
X77061904Y-54403333D01*
X77109523Y-54498571D01*
X77109523Y-55022380D01*
X78014285Y-55022380D02*
X78014285Y-54498571D01*
X77966666Y-54403333D01*
X77871428Y-54355714D01*
X77680952Y-54355714D01*
X77585714Y-54403333D01*
X78014285Y-54974761D02*
X77919047Y-55022380D01*
X77680952Y-55022380D01*
X77585714Y-54974761D01*
X77538095Y-54879523D01*
X77538095Y-54784285D01*
X77585714Y-54689047D01*
X77680952Y-54641428D01*
X77919047Y-54641428D01*
X78014285Y-54593809D01*
X79204761Y-54736666D02*
X79680952Y-54736666D01*
X79109523Y-55022380D02*
X79442857Y-54022380D01*
X79776190Y-55022380D01*
X80109523Y-55022380D02*
X80109523Y-54355714D01*
X80109523Y-54546190D02*
X80157142Y-54450952D01*
X80204761Y-54403333D01*
X80300000Y-54355714D01*
X80395238Y-54355714D01*
X81109523Y-54974761D02*
X81014285Y-55022380D01*
X80823809Y-55022380D01*
X80728571Y-54974761D01*
X80680952Y-54879523D01*
X80680952Y-54498571D01*
X80728571Y-54403333D01*
X80823809Y-54355714D01*
X81014285Y-54355714D01*
X81109523Y-54403333D01*
X81157142Y-54498571D01*
X81157142Y-54593809D01*
X80680952Y-54689047D01*
X82014285Y-55022380D02*
X82014285Y-54498571D01*
X81966666Y-54403333D01*
X81871428Y-54355714D01*
X81680952Y-54355714D01*
X81585714Y-54403333D01*
X82014285Y-54974761D02*
X81919047Y-55022380D01*
X81680952Y-55022380D01*
X81585714Y-54974761D01*
X81538095Y-54879523D01*
X81538095Y-54784285D01*
X81585714Y-54689047D01*
X81680952Y-54641428D01*
X81919047Y-54641428D01*
X82014285Y-54593809D01*
%TO.C,U6*%
X90702380Y-96411904D02*
X91511904Y-96411904D01*
X91607142Y-96364285D01*
X91654761Y-96316666D01*
X91702380Y-96221428D01*
X91702380Y-96030952D01*
X91654761Y-95935714D01*
X91607142Y-95888095D01*
X91511904Y-95840476D01*
X90702380Y-95840476D01*
X90702380Y-94935714D02*
X90702380Y-95126190D01*
X90750000Y-95221428D01*
X90797619Y-95269047D01*
X90940476Y-95364285D01*
X91130952Y-95411904D01*
X91511904Y-95411904D01*
X91607142Y-95364285D01*
X91654761Y-95316666D01*
X91702380Y-95221428D01*
X91702380Y-95030952D01*
X91654761Y-94935714D01*
X91607142Y-94888095D01*
X91511904Y-94840476D01*
X91273809Y-94840476D01*
X91178571Y-94888095D01*
X91130952Y-94935714D01*
X91083333Y-95030952D01*
X91083333Y-95221428D01*
X91130952Y-95316666D01*
X91178571Y-95364285D01*
X91273809Y-95411904D01*
%TO.C,R7*%
X124967380Y-69876666D02*
X124491190Y-70210000D01*
X124967380Y-70448095D02*
X123967380Y-70448095D01*
X123967380Y-70067142D01*
X124015000Y-69971904D01*
X124062619Y-69924285D01*
X124157857Y-69876666D01*
X124300714Y-69876666D01*
X124395952Y-69924285D01*
X124443571Y-69971904D01*
X124491190Y-70067142D01*
X124491190Y-70448095D01*
X123967380Y-69543333D02*
X123967380Y-68876666D01*
X124967380Y-69305238D01*
%TO.C,C21*%
X111407142Y-77307142D02*
X111359523Y-77354761D01*
X111216666Y-77402380D01*
X111121428Y-77402380D01*
X110978571Y-77354761D01*
X110883333Y-77259523D01*
X110835714Y-77164285D01*
X110788095Y-76973809D01*
X110788095Y-76830952D01*
X110835714Y-76640476D01*
X110883333Y-76545238D01*
X110978571Y-76450000D01*
X111121428Y-76402380D01*
X111216666Y-76402380D01*
X111359523Y-76450000D01*
X111407142Y-76497619D01*
X111788095Y-76497619D02*
X111835714Y-76450000D01*
X111930952Y-76402380D01*
X112169047Y-76402380D01*
X112264285Y-76450000D01*
X112311904Y-76497619D01*
X112359523Y-76592857D01*
X112359523Y-76688095D01*
X112311904Y-76830952D01*
X111740476Y-77402380D01*
X112359523Y-77402380D01*
X113311904Y-77402380D02*
X112740476Y-77402380D01*
X113026190Y-77402380D02*
X113026190Y-76402380D01*
X112930952Y-76545238D01*
X112835714Y-76640476D01*
X112740476Y-76688095D01*
%TO.C,R3*%
X107302380Y-96316666D02*
X106826190Y-96650000D01*
X107302380Y-96888095D02*
X106302380Y-96888095D01*
X106302380Y-96507142D01*
X106350000Y-96411904D01*
X106397619Y-96364285D01*
X106492857Y-96316666D01*
X106635714Y-96316666D01*
X106730952Y-96364285D01*
X106778571Y-96411904D01*
X106826190Y-96507142D01*
X106826190Y-96888095D01*
X106302380Y-95983333D02*
X106302380Y-95364285D01*
X106683333Y-95697619D01*
X106683333Y-95554761D01*
X106730952Y-95459523D01*
X106778571Y-95411904D01*
X106873809Y-95364285D01*
X107111904Y-95364285D01*
X107207142Y-95411904D01*
X107254761Y-95459523D01*
X107302380Y-95554761D01*
X107302380Y-95840476D01*
X107254761Y-95935714D01*
X107207142Y-95983333D01*
%TO.C,C2*%
X66433333Y-99607142D02*
X66385714Y-99654761D01*
X66242857Y-99702380D01*
X66147619Y-99702380D01*
X66004761Y-99654761D01*
X65909523Y-99559523D01*
X65861904Y-99464285D01*
X65814285Y-99273809D01*
X65814285Y-99130952D01*
X65861904Y-98940476D01*
X65909523Y-98845238D01*
X66004761Y-98750000D01*
X66147619Y-98702380D01*
X66242857Y-98702380D01*
X66385714Y-98750000D01*
X66433333Y-98797619D01*
X66814285Y-98797619D02*
X66861904Y-98750000D01*
X66957142Y-98702380D01*
X67195238Y-98702380D01*
X67290476Y-98750000D01*
X67338095Y-98797619D01*
X67385714Y-98892857D01*
X67385714Y-98988095D01*
X67338095Y-99130952D01*
X66766666Y-99702380D01*
X67385714Y-99702380D01*
%TO.C,U13*%
X111311904Y-88752380D02*
X111311904Y-89561904D01*
X111359523Y-89657142D01*
X111407142Y-89704761D01*
X111502380Y-89752380D01*
X111692857Y-89752380D01*
X111788095Y-89704761D01*
X111835714Y-89657142D01*
X111883333Y-89561904D01*
X111883333Y-88752380D01*
X112883333Y-89752380D02*
X112311904Y-89752380D01*
X112597619Y-89752380D02*
X112597619Y-88752380D01*
X112502380Y-88895238D01*
X112407142Y-88990476D01*
X112311904Y-89038095D01*
X113216666Y-88752380D02*
X113835714Y-88752380D01*
X113502380Y-89133333D01*
X113645238Y-89133333D01*
X113740476Y-89180952D01*
X113788095Y-89228571D01*
X113835714Y-89323809D01*
X113835714Y-89561904D01*
X113788095Y-89657142D01*
X113740476Y-89704761D01*
X113645238Y-89752380D01*
X113359523Y-89752380D01*
X113264285Y-89704761D01*
X113216666Y-89657142D01*
%TO.C,J4*%
X92266666Y-68952380D02*
X92266666Y-69666666D01*
X92219047Y-69809523D01*
X92123809Y-69904761D01*
X91980952Y-69952380D01*
X91885714Y-69952380D01*
X93171428Y-69285714D02*
X93171428Y-69952380D01*
X92933333Y-68904761D02*
X92695238Y-69619047D01*
X93314285Y-69619047D01*
%TO.C,C17*%
X104557142Y-93742857D02*
X104604761Y-93790476D01*
X104652380Y-93933333D01*
X104652380Y-94028571D01*
X104604761Y-94171428D01*
X104509523Y-94266666D01*
X104414285Y-94314285D01*
X104223809Y-94361904D01*
X104080952Y-94361904D01*
X103890476Y-94314285D01*
X103795238Y-94266666D01*
X103700000Y-94171428D01*
X103652380Y-94028571D01*
X103652380Y-93933333D01*
X103700000Y-93790476D01*
X103747619Y-93742857D01*
X104652380Y-92790476D02*
X104652380Y-93361904D01*
X104652380Y-93076190D02*
X103652380Y-93076190D01*
X103795238Y-93171428D01*
X103890476Y-93266666D01*
X103938095Y-93361904D01*
X103652380Y-92457142D02*
X103652380Y-91790476D01*
X104652380Y-92219047D01*
%TO.C,R4*%
X90502380Y-95566666D02*
X90026190Y-95900000D01*
X90502380Y-96138095D02*
X89502380Y-96138095D01*
X89502380Y-95757142D01*
X89550000Y-95661904D01*
X89597619Y-95614285D01*
X89692857Y-95566666D01*
X89835714Y-95566666D01*
X89930952Y-95614285D01*
X89978571Y-95661904D01*
X90026190Y-95757142D01*
X90026190Y-96138095D01*
X89835714Y-94709523D02*
X90502380Y-94709523D01*
X89454761Y-94947619D02*
X90169047Y-95185714D01*
X90169047Y-94566666D01*
%TO.C,TP8*%
X64988095Y-85904380D02*
X65559523Y-85904380D01*
X65273809Y-86904380D02*
X65273809Y-85904380D01*
X65892857Y-86904380D02*
X65892857Y-85904380D01*
X66273809Y-85904380D01*
X66369047Y-85952000D01*
X66416666Y-85999619D01*
X66464285Y-86094857D01*
X66464285Y-86237714D01*
X66416666Y-86332952D01*
X66369047Y-86380571D01*
X66273809Y-86428190D01*
X65892857Y-86428190D01*
X67035714Y-86332952D02*
X66940476Y-86285333D01*
X66892857Y-86237714D01*
X66845238Y-86142476D01*
X66845238Y-86094857D01*
X66892857Y-85999619D01*
X66940476Y-85952000D01*
X67035714Y-85904380D01*
X67226190Y-85904380D01*
X67321428Y-85952000D01*
X67369047Y-85999619D01*
X67416666Y-86094857D01*
X67416666Y-86142476D01*
X67369047Y-86237714D01*
X67321428Y-86285333D01*
X67226190Y-86332952D01*
X67035714Y-86332952D01*
X66940476Y-86380571D01*
X66892857Y-86428190D01*
X66845238Y-86523428D01*
X66845238Y-86713904D01*
X66892857Y-86809142D01*
X66940476Y-86856761D01*
X67035714Y-86904380D01*
X67226190Y-86904380D01*
X67321428Y-86856761D01*
X67369047Y-86809142D01*
X67416666Y-86713904D01*
X67416666Y-86523428D01*
X67369047Y-86428190D01*
X67321428Y-86380571D01*
X67226190Y-86332952D01*
%TO.C,C5*%
X90457142Y-97341666D02*
X90504761Y-97389285D01*
X90552380Y-97532142D01*
X90552380Y-97627380D01*
X90504761Y-97770238D01*
X90409523Y-97865476D01*
X90314285Y-97913095D01*
X90123809Y-97960714D01*
X89980952Y-97960714D01*
X89790476Y-97913095D01*
X89695238Y-97865476D01*
X89600000Y-97770238D01*
X89552380Y-97627380D01*
X89552380Y-97532142D01*
X89600000Y-97389285D01*
X89647619Y-97341666D01*
X89552380Y-96436904D02*
X89552380Y-96913095D01*
X90028571Y-96960714D01*
X89980952Y-96913095D01*
X89933333Y-96817857D01*
X89933333Y-96579761D01*
X89980952Y-96484523D01*
X90028571Y-96436904D01*
X90123809Y-96389285D01*
X90361904Y-96389285D01*
X90457142Y-96436904D01*
X90504761Y-96484523D01*
X90552380Y-96579761D01*
X90552380Y-96817857D01*
X90504761Y-96913095D01*
X90457142Y-96960714D01*
%TO.C,D4*%
X65161904Y-83882380D02*
X65161904Y-82882380D01*
X65400000Y-82882380D01*
X65542857Y-82930000D01*
X65638095Y-83025238D01*
X65685714Y-83120476D01*
X65733333Y-83310952D01*
X65733333Y-83453809D01*
X65685714Y-83644285D01*
X65638095Y-83739523D01*
X65542857Y-83834761D01*
X65400000Y-83882380D01*
X65161904Y-83882380D01*
X66590476Y-83215714D02*
X66590476Y-83882380D01*
X66352380Y-82834761D02*
X66114285Y-83549047D01*
X66733333Y-83549047D01*
%TO.C,U8*%
X113688095Y-83552380D02*
X113688095Y-84361904D01*
X113735714Y-84457142D01*
X113783333Y-84504761D01*
X113878571Y-84552380D01*
X114069047Y-84552380D01*
X114164285Y-84504761D01*
X114211904Y-84457142D01*
X114259523Y-84361904D01*
X114259523Y-83552380D01*
X114878571Y-83980952D02*
X114783333Y-83933333D01*
X114735714Y-83885714D01*
X114688095Y-83790476D01*
X114688095Y-83742857D01*
X114735714Y-83647619D01*
X114783333Y-83600000D01*
X114878571Y-83552380D01*
X115069047Y-83552380D01*
X115164285Y-83600000D01*
X115211904Y-83647619D01*
X115259523Y-83742857D01*
X115259523Y-83790476D01*
X115211904Y-83885714D01*
X115164285Y-83933333D01*
X115069047Y-83980952D01*
X114878571Y-83980952D01*
X114783333Y-84028571D01*
X114735714Y-84076190D01*
X114688095Y-84171428D01*
X114688095Y-84361904D01*
X114735714Y-84457142D01*
X114783333Y-84504761D01*
X114878571Y-84552380D01*
X115069047Y-84552380D01*
X115164285Y-84504761D01*
X115211904Y-84457142D01*
X115259523Y-84361904D01*
X115259523Y-84171428D01*
X115211904Y-84076190D01*
X115164285Y-84028571D01*
X115069047Y-83980952D01*
%TO.C,TP2*%
X84938095Y-89402380D02*
X85509523Y-89402380D01*
X85223809Y-90402380D02*
X85223809Y-89402380D01*
X85842857Y-90402380D02*
X85842857Y-89402380D01*
X86223809Y-89402380D01*
X86319047Y-89450000D01*
X86366666Y-89497619D01*
X86414285Y-89592857D01*
X86414285Y-89735714D01*
X86366666Y-89830952D01*
X86319047Y-89878571D01*
X86223809Y-89926190D01*
X85842857Y-89926190D01*
X86795238Y-89497619D02*
X86842857Y-89450000D01*
X86938095Y-89402380D01*
X87176190Y-89402380D01*
X87271428Y-89450000D01*
X87319047Y-89497619D01*
X87366666Y-89592857D01*
X87366666Y-89688095D01*
X87319047Y-89830952D01*
X86747619Y-90402380D01*
X87366666Y-90402380D01*
%TO.C,JP2*%
X121485714Y-82952380D02*
X120914285Y-82952380D01*
X121200000Y-82952380D02*
X121200000Y-81952380D01*
X121104761Y-82095238D01*
X121009523Y-82190476D01*
X120914285Y-82238095D01*
X115666666Y-81952380D02*
X116285714Y-81952380D01*
X115952380Y-82333333D01*
X116095238Y-82333333D01*
X116190476Y-82380952D01*
X116238095Y-82428571D01*
X116285714Y-82523809D01*
X116285714Y-82761904D01*
X116238095Y-82857142D01*
X116190476Y-82904761D01*
X116095238Y-82952380D01*
X115809523Y-82952380D01*
X115714285Y-82904761D01*
X115666666Y-82857142D01*
%TO.C,R14*%
X68657142Y-95702380D02*
X68323809Y-95226190D01*
X68085714Y-95702380D02*
X68085714Y-94702380D01*
X68466666Y-94702380D01*
X68561904Y-94750000D01*
X68609523Y-94797619D01*
X68657142Y-94892857D01*
X68657142Y-95035714D01*
X68609523Y-95130952D01*
X68561904Y-95178571D01*
X68466666Y-95226190D01*
X68085714Y-95226190D01*
X69609523Y-95702380D02*
X69038095Y-95702380D01*
X69323809Y-95702380D02*
X69323809Y-94702380D01*
X69228571Y-94845238D01*
X69133333Y-94940476D01*
X69038095Y-94988095D01*
X70466666Y-95035714D02*
X70466666Y-95702380D01*
X70228571Y-94654761D02*
X69990476Y-95369047D01*
X70609523Y-95369047D01*
%TO.C,U4*%
X101438095Y-92952380D02*
X101438095Y-93761904D01*
X101485714Y-93857142D01*
X101533333Y-93904761D01*
X101628571Y-93952380D01*
X101819047Y-93952380D01*
X101914285Y-93904761D01*
X101961904Y-93857142D01*
X102009523Y-93761904D01*
X102009523Y-92952380D01*
X102914285Y-93285714D02*
X102914285Y-93952380D01*
X102676190Y-92904761D02*
X102438095Y-93619047D01*
X103057142Y-93619047D01*
%TO.C,R19*%
X61607142Y-64652380D02*
X61273809Y-64176190D01*
X61035714Y-64652380D02*
X61035714Y-63652380D01*
X61416666Y-63652380D01*
X61511904Y-63700000D01*
X61559523Y-63747619D01*
X61607142Y-63842857D01*
X61607142Y-63985714D01*
X61559523Y-64080952D01*
X61511904Y-64128571D01*
X61416666Y-64176190D01*
X61035714Y-64176190D01*
X62559523Y-64652380D02*
X61988095Y-64652380D01*
X62273809Y-64652380D02*
X62273809Y-63652380D01*
X62178571Y-63795238D01*
X62083333Y-63890476D01*
X61988095Y-63938095D01*
X63035714Y-64652380D02*
X63226190Y-64652380D01*
X63321428Y-64604761D01*
X63369047Y-64557142D01*
X63464285Y-64414285D01*
X63511904Y-64223809D01*
X63511904Y-63842857D01*
X63464285Y-63747619D01*
X63416666Y-63700000D01*
X63321428Y-63652380D01*
X63130952Y-63652380D01*
X63035714Y-63700000D01*
X62988095Y-63747619D01*
X62940476Y-63842857D01*
X62940476Y-64080952D01*
X62988095Y-64176190D01*
X63035714Y-64223809D01*
X63130952Y-64271428D01*
X63321428Y-64271428D01*
X63416666Y-64223809D01*
X63464285Y-64176190D01*
X63511904Y-64080952D01*
%TO.C,C20*%
X108557142Y-73707142D02*
X108509523Y-73754761D01*
X108366666Y-73802380D01*
X108271428Y-73802380D01*
X108128571Y-73754761D01*
X108033333Y-73659523D01*
X107985714Y-73564285D01*
X107938095Y-73373809D01*
X107938095Y-73230952D01*
X107985714Y-73040476D01*
X108033333Y-72945238D01*
X108128571Y-72850000D01*
X108271428Y-72802380D01*
X108366666Y-72802380D01*
X108509523Y-72850000D01*
X108557142Y-72897619D01*
X108938095Y-72897619D02*
X108985714Y-72850000D01*
X109080952Y-72802380D01*
X109319047Y-72802380D01*
X109414285Y-72850000D01*
X109461904Y-72897619D01*
X109509523Y-72992857D01*
X109509523Y-73088095D01*
X109461904Y-73230952D01*
X108890476Y-73802380D01*
X109509523Y-73802380D01*
X110128571Y-72802380D02*
X110223809Y-72802380D01*
X110319047Y-72850000D01*
X110366666Y-72897619D01*
X110414285Y-72992857D01*
X110461904Y-73183333D01*
X110461904Y-73421428D01*
X110414285Y-73611904D01*
X110366666Y-73707142D01*
X110319047Y-73754761D01*
X110223809Y-73802380D01*
X110128571Y-73802380D01*
X110033333Y-73754761D01*
X109985714Y-73707142D01*
X109938095Y-73611904D01*
X109890476Y-73421428D01*
X109890476Y-73183333D01*
X109938095Y-72992857D01*
X109985714Y-72897619D01*
X110033333Y-72850000D01*
X110128571Y-72802380D01*
%TO.C,H2*%
X130138095Y-54402380D02*
X130138095Y-53402380D01*
X130138095Y-53878571D02*
X130709523Y-53878571D01*
X130709523Y-54402380D02*
X130709523Y-53402380D01*
X131138095Y-53497619D02*
X131185714Y-53450000D01*
X131280952Y-53402380D01*
X131519047Y-53402380D01*
X131614285Y-53450000D01*
X131661904Y-53497619D01*
X131709523Y-53592857D01*
X131709523Y-53688095D01*
X131661904Y-53830952D01*
X131090476Y-54402380D01*
X131709523Y-54402380D01*
%TO.C,C1*%
X62533333Y-89207142D02*
X62485714Y-89254761D01*
X62342857Y-89302380D01*
X62247619Y-89302380D01*
X62104761Y-89254761D01*
X62009523Y-89159523D01*
X61961904Y-89064285D01*
X61914285Y-88873809D01*
X61914285Y-88730952D01*
X61961904Y-88540476D01*
X62009523Y-88445238D01*
X62104761Y-88350000D01*
X62247619Y-88302380D01*
X62342857Y-88302380D01*
X62485714Y-88350000D01*
X62533333Y-88397619D01*
X63485714Y-89302380D02*
X62914285Y-89302380D01*
X63200000Y-89302380D02*
X63200000Y-88302380D01*
X63104761Y-88445238D01*
X63009523Y-88540476D01*
X62914285Y-88588095D01*
%TO.C,R38*%
X65407142Y-79002380D02*
X65073809Y-78526190D01*
X64835714Y-79002380D02*
X64835714Y-78002380D01*
X65216666Y-78002380D01*
X65311904Y-78050000D01*
X65359523Y-78097619D01*
X65407142Y-78192857D01*
X65407142Y-78335714D01*
X65359523Y-78430952D01*
X65311904Y-78478571D01*
X65216666Y-78526190D01*
X64835714Y-78526190D01*
X65740476Y-78002380D02*
X66359523Y-78002380D01*
X66026190Y-78383333D01*
X66169047Y-78383333D01*
X66264285Y-78430952D01*
X66311904Y-78478571D01*
X66359523Y-78573809D01*
X66359523Y-78811904D01*
X66311904Y-78907142D01*
X66264285Y-78954761D01*
X66169047Y-79002380D01*
X65883333Y-79002380D01*
X65788095Y-78954761D01*
X65740476Y-78907142D01*
X66930952Y-78430952D02*
X66835714Y-78383333D01*
X66788095Y-78335714D01*
X66740476Y-78240476D01*
X66740476Y-78192857D01*
X66788095Y-78097619D01*
X66835714Y-78050000D01*
X66930952Y-78002380D01*
X67121428Y-78002380D01*
X67216666Y-78050000D01*
X67264285Y-78097619D01*
X67311904Y-78192857D01*
X67311904Y-78240476D01*
X67264285Y-78335714D01*
X67216666Y-78383333D01*
X67121428Y-78430952D01*
X66930952Y-78430952D01*
X66835714Y-78478571D01*
X66788095Y-78526190D01*
X66740476Y-78621428D01*
X66740476Y-78811904D01*
X66788095Y-78907142D01*
X66835714Y-78954761D01*
X66930952Y-79002380D01*
X67121428Y-79002380D01*
X67216666Y-78954761D01*
X67264285Y-78907142D01*
X67311904Y-78811904D01*
X67311904Y-78621428D01*
X67264285Y-78526190D01*
X67216666Y-78478571D01*
X67121428Y-78430952D01*
%TO.C,RG1*%
X114233333Y-72502380D02*
X113900000Y-72026190D01*
X113661904Y-72502380D02*
X113661904Y-71502380D01*
X114042857Y-71502380D01*
X114138095Y-71550000D01*
X114185714Y-71597619D01*
X114233333Y-71692857D01*
X114233333Y-71835714D01*
X114185714Y-71930952D01*
X114138095Y-71978571D01*
X114042857Y-72026190D01*
X113661904Y-72026190D01*
X115185714Y-71550000D02*
X115090476Y-71502380D01*
X114947619Y-71502380D01*
X114804761Y-71550000D01*
X114709523Y-71645238D01*
X114661904Y-71740476D01*
X114614285Y-71930952D01*
X114614285Y-72073809D01*
X114661904Y-72264285D01*
X114709523Y-72359523D01*
X114804761Y-72454761D01*
X114947619Y-72502380D01*
X115042857Y-72502380D01*
X115185714Y-72454761D01*
X115233333Y-72407142D01*
X115233333Y-72073809D01*
X115042857Y-72073809D01*
X116185714Y-72502380D02*
X115614285Y-72502380D01*
X115900000Y-72502380D02*
X115900000Y-71502380D01*
X115804761Y-71645238D01*
X115709523Y-71740476D01*
X115614285Y-71788095D01*
%TO.C,R5*%
X132183333Y-74452380D02*
X131850000Y-73976190D01*
X131611904Y-74452380D02*
X131611904Y-73452380D01*
X131992857Y-73452380D01*
X132088095Y-73500000D01*
X132135714Y-73547619D01*
X132183333Y-73642857D01*
X132183333Y-73785714D01*
X132135714Y-73880952D01*
X132088095Y-73928571D01*
X131992857Y-73976190D01*
X131611904Y-73976190D01*
X133088095Y-73452380D02*
X132611904Y-73452380D01*
X132564285Y-73928571D01*
X132611904Y-73880952D01*
X132707142Y-73833333D01*
X132945238Y-73833333D01*
X133040476Y-73880952D01*
X133088095Y-73928571D01*
X133135714Y-74023809D01*
X133135714Y-74261904D01*
X133088095Y-74357142D01*
X133040476Y-74404761D01*
X132945238Y-74452380D01*
X132707142Y-74452380D01*
X132611904Y-74404761D01*
X132564285Y-74357142D01*
%TO.C,H4*%
X53238095Y-101252380D02*
X53238095Y-100252380D01*
X53238095Y-100728571D02*
X53809523Y-100728571D01*
X53809523Y-101252380D02*
X53809523Y-100252380D01*
X54714285Y-100585714D02*
X54714285Y-101252380D01*
X54476190Y-100204761D02*
X54238095Y-100919047D01*
X54857142Y-100919047D01*
%TO.C,R2*%
X96792380Y-89901666D02*
X96316190Y-90235000D01*
X96792380Y-90473095D02*
X95792380Y-90473095D01*
X95792380Y-90092142D01*
X95840000Y-89996904D01*
X95887619Y-89949285D01*
X95982857Y-89901666D01*
X96125714Y-89901666D01*
X96220952Y-89949285D01*
X96268571Y-89996904D01*
X96316190Y-90092142D01*
X96316190Y-90473095D01*
X95887619Y-89520714D02*
X95840000Y-89473095D01*
X95792380Y-89377857D01*
X95792380Y-89139761D01*
X95840000Y-89044523D01*
X95887619Y-88996904D01*
X95982857Y-88949285D01*
X96078095Y-88949285D01*
X96220952Y-88996904D01*
X96792380Y-89568333D01*
X96792380Y-88949285D01*
%TO.C,C18*%
X93367142Y-86262142D02*
X93319523Y-86309761D01*
X93176666Y-86357380D01*
X93081428Y-86357380D01*
X92938571Y-86309761D01*
X92843333Y-86214523D01*
X92795714Y-86119285D01*
X92748095Y-85928809D01*
X92748095Y-85785952D01*
X92795714Y-85595476D01*
X92843333Y-85500238D01*
X92938571Y-85405000D01*
X93081428Y-85357380D01*
X93176666Y-85357380D01*
X93319523Y-85405000D01*
X93367142Y-85452619D01*
X94319523Y-86357380D02*
X93748095Y-86357380D01*
X94033809Y-86357380D02*
X94033809Y-85357380D01*
X93938571Y-85500238D01*
X93843333Y-85595476D01*
X93748095Y-85643095D01*
X94890952Y-85785952D02*
X94795714Y-85738333D01*
X94748095Y-85690714D01*
X94700476Y-85595476D01*
X94700476Y-85547857D01*
X94748095Y-85452619D01*
X94795714Y-85405000D01*
X94890952Y-85357380D01*
X95081428Y-85357380D01*
X95176666Y-85405000D01*
X95224285Y-85452619D01*
X95271904Y-85547857D01*
X95271904Y-85595476D01*
X95224285Y-85690714D01*
X95176666Y-85738333D01*
X95081428Y-85785952D01*
X94890952Y-85785952D01*
X94795714Y-85833571D01*
X94748095Y-85881190D01*
X94700476Y-85976428D01*
X94700476Y-86166904D01*
X94748095Y-86262142D01*
X94795714Y-86309761D01*
X94890952Y-86357380D01*
X95081428Y-86357380D01*
X95176666Y-86309761D01*
X95224285Y-86262142D01*
X95271904Y-86166904D01*
X95271904Y-85976428D01*
X95224285Y-85881190D01*
X95176666Y-85833571D01*
X95081428Y-85785952D01*
%TO.C,FB1*%
X52116666Y-86978571D02*
X51783333Y-86978571D01*
X51783333Y-87502380D02*
X51783333Y-86502380D01*
X52259523Y-86502380D01*
X52973809Y-86978571D02*
X53116666Y-87026190D01*
X53164285Y-87073809D01*
X53211904Y-87169047D01*
X53211904Y-87311904D01*
X53164285Y-87407142D01*
X53116666Y-87454761D01*
X53021428Y-87502380D01*
X52640476Y-87502380D01*
X52640476Y-86502380D01*
X52973809Y-86502380D01*
X53069047Y-86550000D01*
X53116666Y-86597619D01*
X53164285Y-86692857D01*
X53164285Y-86788095D01*
X53116666Y-86883333D01*
X53069047Y-86930952D01*
X52973809Y-86978571D01*
X52640476Y-86978571D01*
X54164285Y-87502380D02*
X53592857Y-87502380D01*
X53878571Y-87502380D02*
X53878571Y-86502380D01*
X53783333Y-86645238D01*
X53688095Y-86740476D01*
X53592857Y-86788095D01*
%TO.C,R1*%
X107402380Y-99216666D02*
X106926190Y-99550000D01*
X107402380Y-99788095D02*
X106402380Y-99788095D01*
X106402380Y-99407142D01*
X106450000Y-99311904D01*
X106497619Y-99264285D01*
X106592857Y-99216666D01*
X106735714Y-99216666D01*
X106830952Y-99264285D01*
X106878571Y-99311904D01*
X106926190Y-99407142D01*
X106926190Y-99788095D01*
X107402380Y-98264285D02*
X107402380Y-98835714D01*
X107402380Y-98550000D02*
X106402380Y-98550000D01*
X106545238Y-98645238D01*
X106640476Y-98740476D01*
X106688095Y-98835714D01*
%TO.C,U5*%
X107488095Y-90252380D02*
X107488095Y-91061904D01*
X107535714Y-91157142D01*
X107583333Y-91204761D01*
X107678571Y-91252380D01*
X107869047Y-91252380D01*
X107964285Y-91204761D01*
X108011904Y-91157142D01*
X108059523Y-91061904D01*
X108059523Y-90252380D01*
X109011904Y-90252380D02*
X108535714Y-90252380D01*
X108488095Y-90728571D01*
X108535714Y-90680952D01*
X108630952Y-90633333D01*
X108869047Y-90633333D01*
X108964285Y-90680952D01*
X109011904Y-90728571D01*
X109059523Y-90823809D01*
X109059523Y-91061904D01*
X109011904Y-91157142D01*
X108964285Y-91204761D01*
X108869047Y-91252380D01*
X108630952Y-91252380D01*
X108535714Y-91204761D01*
X108488095Y-91157142D01*
%TO.C,C12*%
X112057142Y-87742857D02*
X112104761Y-87790476D01*
X112152380Y-87933333D01*
X112152380Y-88028571D01*
X112104761Y-88171428D01*
X112009523Y-88266666D01*
X111914285Y-88314285D01*
X111723809Y-88361904D01*
X111580952Y-88361904D01*
X111390476Y-88314285D01*
X111295238Y-88266666D01*
X111200000Y-88171428D01*
X111152380Y-88028571D01*
X111152380Y-87933333D01*
X111200000Y-87790476D01*
X111247619Y-87742857D01*
X112152380Y-86790476D02*
X112152380Y-87361904D01*
X112152380Y-87076190D02*
X111152380Y-87076190D01*
X111295238Y-87171428D01*
X111390476Y-87266666D01*
X111438095Y-87361904D01*
X111247619Y-86409523D02*
X111200000Y-86361904D01*
X111152380Y-86266666D01*
X111152380Y-86028571D01*
X111200000Y-85933333D01*
X111247619Y-85885714D01*
X111342857Y-85838095D01*
X111438095Y-85838095D01*
X111580952Y-85885714D01*
X112152380Y-86457142D01*
X112152380Y-85838095D01*
%TO.C,C28*%
X68057142Y-94207142D02*
X68009523Y-94254761D01*
X67866666Y-94302380D01*
X67771428Y-94302380D01*
X67628571Y-94254761D01*
X67533333Y-94159523D01*
X67485714Y-94064285D01*
X67438095Y-93873809D01*
X67438095Y-93730952D01*
X67485714Y-93540476D01*
X67533333Y-93445238D01*
X67628571Y-93350000D01*
X67771428Y-93302380D01*
X67866666Y-93302380D01*
X68009523Y-93350000D01*
X68057142Y-93397619D01*
X68438095Y-93397619D02*
X68485714Y-93350000D01*
X68580952Y-93302380D01*
X68819047Y-93302380D01*
X68914285Y-93350000D01*
X68961904Y-93397619D01*
X69009523Y-93492857D01*
X69009523Y-93588095D01*
X68961904Y-93730952D01*
X68390476Y-94302380D01*
X69009523Y-94302380D01*
X69580952Y-93730952D02*
X69485714Y-93683333D01*
X69438095Y-93635714D01*
X69390476Y-93540476D01*
X69390476Y-93492857D01*
X69438095Y-93397619D01*
X69485714Y-93350000D01*
X69580952Y-93302380D01*
X69771428Y-93302380D01*
X69866666Y-93350000D01*
X69914285Y-93397619D01*
X69961904Y-93492857D01*
X69961904Y-93540476D01*
X69914285Y-93635714D01*
X69866666Y-93683333D01*
X69771428Y-93730952D01*
X69580952Y-93730952D01*
X69485714Y-93778571D01*
X69438095Y-93826190D01*
X69390476Y-93921428D01*
X69390476Y-94111904D01*
X69438095Y-94207142D01*
X69485714Y-94254761D01*
X69580952Y-94302380D01*
X69771428Y-94302380D01*
X69866666Y-94254761D01*
X69914285Y-94207142D01*
X69961904Y-94111904D01*
X69961904Y-93921428D01*
X69914285Y-93826190D01*
X69866666Y-93778571D01*
X69771428Y-93730952D01*
%TO.C,C26*%
X121707142Y-93157142D02*
X121659523Y-93204761D01*
X121516666Y-93252380D01*
X121421428Y-93252380D01*
X121278571Y-93204761D01*
X121183333Y-93109523D01*
X121135714Y-93014285D01*
X121088095Y-92823809D01*
X121088095Y-92680952D01*
X121135714Y-92490476D01*
X121183333Y-92395238D01*
X121278571Y-92300000D01*
X121421428Y-92252380D01*
X121516666Y-92252380D01*
X121659523Y-92300000D01*
X121707142Y-92347619D01*
X122088095Y-92347619D02*
X122135714Y-92300000D01*
X122230952Y-92252380D01*
X122469047Y-92252380D01*
X122564285Y-92300000D01*
X122611904Y-92347619D01*
X122659523Y-92442857D01*
X122659523Y-92538095D01*
X122611904Y-92680952D01*
X122040476Y-93252380D01*
X122659523Y-93252380D01*
X123516666Y-92252380D02*
X123326190Y-92252380D01*
X123230952Y-92300000D01*
X123183333Y-92347619D01*
X123088095Y-92490476D01*
X123040476Y-92680952D01*
X123040476Y-93061904D01*
X123088095Y-93157142D01*
X123135714Y-93204761D01*
X123230952Y-93252380D01*
X123421428Y-93252380D01*
X123516666Y-93204761D01*
X123564285Y-93157142D01*
X123611904Y-93061904D01*
X123611904Y-92823809D01*
X123564285Y-92728571D01*
X123516666Y-92680952D01*
X123421428Y-92633333D01*
X123230952Y-92633333D01*
X123135714Y-92680952D01*
X123088095Y-92728571D01*
X123040476Y-92823809D01*
%TO.C,TP10*%
X119511904Y-95004380D02*
X120083333Y-95004380D01*
X119797619Y-96004380D02*
X119797619Y-95004380D01*
X120416666Y-96004380D02*
X120416666Y-95004380D01*
X120797619Y-95004380D01*
X120892857Y-95052000D01*
X120940476Y-95099619D01*
X120988095Y-95194857D01*
X120988095Y-95337714D01*
X120940476Y-95432952D01*
X120892857Y-95480571D01*
X120797619Y-95528190D01*
X120416666Y-95528190D01*
X121940476Y-96004380D02*
X121369047Y-96004380D01*
X121654761Y-96004380D02*
X121654761Y-95004380D01*
X121559523Y-95147238D01*
X121464285Y-95242476D01*
X121369047Y-95290095D01*
X122559523Y-95004380D02*
X122654761Y-95004380D01*
X122750000Y-95052000D01*
X122797619Y-95099619D01*
X122845238Y-95194857D01*
X122892857Y-95385333D01*
X122892857Y-95623428D01*
X122845238Y-95813904D01*
X122797619Y-95909142D01*
X122750000Y-95956761D01*
X122654761Y-96004380D01*
X122559523Y-96004380D01*
X122464285Y-95956761D01*
X122416666Y-95909142D01*
X122369047Y-95813904D01*
X122321428Y-95623428D01*
X122321428Y-95385333D01*
X122369047Y-95194857D01*
X122416666Y-95099619D01*
X122464285Y-95052000D01*
X122559523Y-95004380D01*
D12*
%TO.C,SW1*%
X72914047Y-89893333D02*
X72974523Y-89711904D01*
X72974523Y-89409523D01*
X72914047Y-89288571D01*
X72853571Y-89228095D01*
X72732619Y-89167619D01*
X72611666Y-89167619D01*
X72490714Y-89228095D01*
X72430238Y-89288571D01*
X72369761Y-89409523D01*
X72309285Y-89651428D01*
X72248809Y-89772380D01*
X72188333Y-89832857D01*
X72067380Y-89893333D01*
X71946428Y-89893333D01*
X71825476Y-89832857D01*
X71765000Y-89772380D01*
X71704523Y-89651428D01*
X71704523Y-89349047D01*
X71765000Y-89167619D01*
X71704523Y-88744285D02*
X72974523Y-88441904D01*
X72067380Y-88200000D01*
X72974523Y-87958095D01*
X71704523Y-87655714D01*
X72974523Y-86506666D02*
X72974523Y-87232380D01*
X72974523Y-86869523D02*
X71704523Y-86869523D01*
X71885952Y-86990476D01*
X72006904Y-87111428D01*
X72067380Y-87232380D01*
D10*
%TO.C,H1*%
X53188095Y-54352380D02*
X53188095Y-53352380D01*
X53188095Y-53828571D02*
X53759523Y-53828571D01*
X53759523Y-54352380D02*
X53759523Y-53352380D01*
X54759523Y-54352380D02*
X54188095Y-54352380D01*
X54473809Y-54352380D02*
X54473809Y-53352380D01*
X54378571Y-53495238D01*
X54283333Y-53590476D01*
X54188095Y-53638095D01*
%TO.C,R17*%
X61607142Y-66152380D02*
X61273809Y-65676190D01*
X61035714Y-66152380D02*
X61035714Y-65152380D01*
X61416666Y-65152380D01*
X61511904Y-65200000D01*
X61559523Y-65247619D01*
X61607142Y-65342857D01*
X61607142Y-65485714D01*
X61559523Y-65580952D01*
X61511904Y-65628571D01*
X61416666Y-65676190D01*
X61035714Y-65676190D01*
X62559523Y-66152380D02*
X61988095Y-66152380D01*
X62273809Y-66152380D02*
X62273809Y-65152380D01*
X62178571Y-65295238D01*
X62083333Y-65390476D01*
X61988095Y-65438095D01*
X62892857Y-65152380D02*
X63559523Y-65152380D01*
X63130952Y-66152380D01*
%TO.C,Q1*%
X130304761Y-78397619D02*
X130209523Y-78350000D01*
X130114285Y-78254761D01*
X129971428Y-78111904D01*
X129876190Y-78064285D01*
X129780952Y-78064285D01*
X129828571Y-78302380D02*
X129733333Y-78254761D01*
X129638095Y-78159523D01*
X129590476Y-77969047D01*
X129590476Y-77635714D01*
X129638095Y-77445238D01*
X129733333Y-77350000D01*
X129828571Y-77302380D01*
X130019047Y-77302380D01*
X130114285Y-77350000D01*
X130209523Y-77445238D01*
X130257142Y-77635714D01*
X130257142Y-77969047D01*
X130209523Y-78159523D01*
X130114285Y-78254761D01*
X130019047Y-78302380D01*
X129828571Y-78302380D01*
X131209523Y-78302380D02*
X130638095Y-78302380D01*
X130923809Y-78302380D02*
X130923809Y-77302380D01*
X130828571Y-77445238D01*
X130733333Y-77540476D01*
X130638095Y-77588095D01*
D12*
%TO.C,SW2*%
X80214047Y-89943333D02*
X80274523Y-89761904D01*
X80274523Y-89459523D01*
X80214047Y-89338571D01*
X80153571Y-89278095D01*
X80032619Y-89217619D01*
X79911666Y-89217619D01*
X79790714Y-89278095D01*
X79730238Y-89338571D01*
X79669761Y-89459523D01*
X79609285Y-89701428D01*
X79548809Y-89822380D01*
X79488333Y-89882857D01*
X79367380Y-89943333D01*
X79246428Y-89943333D01*
X79125476Y-89882857D01*
X79065000Y-89822380D01*
X79004523Y-89701428D01*
X79004523Y-89399047D01*
X79065000Y-89217619D01*
X79004523Y-88794285D02*
X80274523Y-88491904D01*
X79367380Y-88250000D01*
X80274523Y-88008095D01*
X79004523Y-87705714D01*
X79125476Y-87282380D02*
X79065000Y-87221904D01*
X79004523Y-87100952D01*
X79004523Y-86798571D01*
X79065000Y-86677619D01*
X79125476Y-86617142D01*
X79246428Y-86556666D01*
X79367380Y-86556666D01*
X79548809Y-86617142D01*
X80274523Y-87342857D01*
X80274523Y-86556666D01*
%TO.C,SW3*%
X55306666Y-61864047D02*
X55488095Y-61924523D01*
X55790476Y-61924523D01*
X55911428Y-61864047D01*
X55971904Y-61803571D01*
X56032380Y-61682619D01*
X56032380Y-61561666D01*
X55971904Y-61440714D01*
X55911428Y-61380238D01*
X55790476Y-61319761D01*
X55548571Y-61259285D01*
X55427619Y-61198809D01*
X55367142Y-61138333D01*
X55306666Y-61017380D01*
X55306666Y-60896428D01*
X55367142Y-60775476D01*
X55427619Y-60715000D01*
X55548571Y-60654523D01*
X55850952Y-60654523D01*
X56032380Y-60715000D01*
X56455714Y-60654523D02*
X56758095Y-61924523D01*
X57000000Y-61017380D01*
X57241904Y-61924523D01*
X57544285Y-60654523D01*
X57907142Y-60654523D02*
X58693333Y-60654523D01*
X58270000Y-61138333D01*
X58451428Y-61138333D01*
X58572380Y-61198809D01*
X58632857Y-61259285D01*
X58693333Y-61380238D01*
X58693333Y-61682619D01*
X58632857Y-61803571D01*
X58572380Y-61864047D01*
X58451428Y-61924523D01*
X58088571Y-61924523D01*
X57967619Y-61864047D01*
X57907142Y-61803571D01*
D10*
%TO.C,C4*%
X84507142Y-100366666D02*
X84554761Y-100414285D01*
X84602380Y-100557142D01*
X84602380Y-100652380D01*
X84554761Y-100795238D01*
X84459523Y-100890476D01*
X84364285Y-100938095D01*
X84173809Y-100985714D01*
X84030952Y-100985714D01*
X83840476Y-100938095D01*
X83745238Y-100890476D01*
X83650000Y-100795238D01*
X83602380Y-100652380D01*
X83602380Y-100557142D01*
X83650000Y-100414285D01*
X83697619Y-100366666D01*
X83935714Y-99509523D02*
X84602380Y-99509523D01*
X83554761Y-99747619D02*
X84269047Y-99985714D01*
X84269047Y-99366666D01*
%TO.C,R11*%
X117817142Y-92247380D02*
X117483809Y-91771190D01*
X117245714Y-92247380D02*
X117245714Y-91247380D01*
X117626666Y-91247380D01*
X117721904Y-91295000D01*
X117769523Y-91342619D01*
X117817142Y-91437857D01*
X117817142Y-91580714D01*
X117769523Y-91675952D01*
X117721904Y-91723571D01*
X117626666Y-91771190D01*
X117245714Y-91771190D01*
X118769523Y-92247380D02*
X118198095Y-92247380D01*
X118483809Y-92247380D02*
X118483809Y-91247380D01*
X118388571Y-91390238D01*
X118293333Y-91485476D01*
X118198095Y-91533095D01*
X119721904Y-92247380D02*
X119150476Y-92247380D01*
X119436190Y-92247380D02*
X119436190Y-91247380D01*
X119340952Y-91390238D01*
X119245714Y-91485476D01*
X119150476Y-91533095D01*
%TO.C,C14*%
X90457142Y-87907142D02*
X90409523Y-87954761D01*
X90266666Y-88002380D01*
X90171428Y-88002380D01*
X90028571Y-87954761D01*
X89933333Y-87859523D01*
X89885714Y-87764285D01*
X89838095Y-87573809D01*
X89838095Y-87430952D01*
X89885714Y-87240476D01*
X89933333Y-87145238D01*
X90028571Y-87050000D01*
X90171428Y-87002380D01*
X90266666Y-87002380D01*
X90409523Y-87050000D01*
X90457142Y-87097619D01*
X91409523Y-88002380D02*
X90838095Y-88002380D01*
X91123809Y-88002380D02*
X91123809Y-87002380D01*
X91028571Y-87145238D01*
X90933333Y-87240476D01*
X90838095Y-87288095D01*
X92266666Y-87335714D02*
X92266666Y-88002380D01*
X92028571Y-86954761D02*
X91790476Y-87669047D01*
X92409523Y-87669047D01*
%TO.C,R36*%
X85157142Y-83832380D02*
X84823809Y-83356190D01*
X84585714Y-83832380D02*
X84585714Y-82832380D01*
X84966666Y-82832380D01*
X85061904Y-82880000D01*
X85109523Y-82927619D01*
X85157142Y-83022857D01*
X85157142Y-83165714D01*
X85109523Y-83260952D01*
X85061904Y-83308571D01*
X84966666Y-83356190D01*
X84585714Y-83356190D01*
X85490476Y-82832380D02*
X86109523Y-82832380D01*
X85776190Y-83213333D01*
X85919047Y-83213333D01*
X86014285Y-83260952D01*
X86061904Y-83308571D01*
X86109523Y-83403809D01*
X86109523Y-83641904D01*
X86061904Y-83737142D01*
X86014285Y-83784761D01*
X85919047Y-83832380D01*
X85633333Y-83832380D01*
X85538095Y-83784761D01*
X85490476Y-83737142D01*
X86966666Y-82832380D02*
X86776190Y-82832380D01*
X86680952Y-82880000D01*
X86633333Y-82927619D01*
X86538095Y-83070476D01*
X86490476Y-83260952D01*
X86490476Y-83641904D01*
X86538095Y-83737142D01*
X86585714Y-83784761D01*
X86680952Y-83832380D01*
X86871428Y-83832380D01*
X86966666Y-83784761D01*
X87014285Y-83737142D01*
X87061904Y-83641904D01*
X87061904Y-83403809D01*
X87014285Y-83308571D01*
X86966666Y-83260952D01*
X86871428Y-83213333D01*
X86680952Y-83213333D01*
X86585714Y-83260952D01*
X86538095Y-83308571D01*
X86490476Y-83403809D01*
%TO.C,D2*%
X52262380Y-92988095D02*
X51262380Y-92988095D01*
X51262380Y-92750000D01*
X51310000Y-92607142D01*
X51405238Y-92511904D01*
X51500476Y-92464285D01*
X51690952Y-92416666D01*
X51833809Y-92416666D01*
X52024285Y-92464285D01*
X52119523Y-92511904D01*
X52214761Y-92607142D01*
X52262380Y-92750000D01*
X52262380Y-92988095D01*
X51357619Y-92035714D02*
X51310000Y-91988095D01*
X51262380Y-91892857D01*
X51262380Y-91654761D01*
X51310000Y-91559523D01*
X51357619Y-91511904D01*
X51452857Y-91464285D01*
X51548095Y-91464285D01*
X51690952Y-91511904D01*
X52262380Y-92083333D01*
X52262380Y-91464285D01*
%TO.C,TP3*%
X107988095Y-92702380D02*
X108559523Y-92702380D01*
X108273809Y-93702380D02*
X108273809Y-92702380D01*
X108892857Y-93702380D02*
X108892857Y-92702380D01*
X109273809Y-92702380D01*
X109369047Y-92750000D01*
X109416666Y-92797619D01*
X109464285Y-92892857D01*
X109464285Y-93035714D01*
X109416666Y-93130952D01*
X109369047Y-93178571D01*
X109273809Y-93226190D01*
X108892857Y-93226190D01*
X109797619Y-92702380D02*
X110416666Y-92702380D01*
X110083333Y-93083333D01*
X110226190Y-93083333D01*
X110321428Y-93130952D01*
X110369047Y-93178571D01*
X110416666Y-93273809D01*
X110416666Y-93511904D01*
X110369047Y-93607142D01*
X110321428Y-93654761D01*
X110226190Y-93702380D01*
X109940476Y-93702380D01*
X109845238Y-93654761D01*
X109797619Y-93607142D01*
%TO.C,C11*%
X100657142Y-101707142D02*
X100609523Y-101754761D01*
X100466666Y-101802380D01*
X100371428Y-101802380D01*
X100228571Y-101754761D01*
X100133333Y-101659523D01*
X100085714Y-101564285D01*
X100038095Y-101373809D01*
X100038095Y-101230952D01*
X100085714Y-101040476D01*
X100133333Y-100945238D01*
X100228571Y-100850000D01*
X100371428Y-100802380D01*
X100466666Y-100802380D01*
X100609523Y-100850000D01*
X100657142Y-100897619D01*
X101609523Y-101802380D02*
X101038095Y-101802380D01*
X101323809Y-101802380D02*
X101323809Y-100802380D01*
X101228571Y-100945238D01*
X101133333Y-101040476D01*
X101038095Y-101088095D01*
X102561904Y-101802380D02*
X101990476Y-101802380D01*
X102276190Y-101802380D02*
X102276190Y-100802380D01*
X102180952Y-100945238D01*
X102085714Y-101040476D01*
X101990476Y-101088095D01*
%TO.C,U9*%
X131065228Y-69142809D02*
X130997885Y-69008122D01*
X130829526Y-68839763D01*
X130728511Y-68806091D01*
X130661167Y-68806091D01*
X130560152Y-68839763D01*
X130492809Y-68907106D01*
X130459137Y-69008122D01*
X130459137Y-69075465D01*
X130492809Y-69176480D01*
X130593824Y-69344839D01*
X130627496Y-69445854D01*
X130627496Y-69513198D01*
X130593824Y-69614213D01*
X130526480Y-69681557D01*
X130425465Y-69715228D01*
X130358122Y-69715228D01*
X130257106Y-69681557D01*
X130088748Y-69513198D01*
X130021404Y-69378511D01*
X130021404Y-68772419D02*
X129785702Y-68536717D01*
X130055076Y-68065312D02*
X130391793Y-68402030D01*
X129684687Y-69109137D01*
X129347969Y-68772419D01*
X129752030Y-67762267D02*
X129044923Y-68469374D01*
X129347969Y-67358206D01*
X128640862Y-68065312D01*
X129011251Y-67088832D02*
X128943908Y-66954145D01*
X128775549Y-66785786D01*
X128674534Y-66752114D01*
X128607190Y-66752114D01*
X128506175Y-66785786D01*
X128438832Y-66853129D01*
X128405160Y-66954145D01*
X128405160Y-67021488D01*
X128438832Y-67122503D01*
X128539847Y-67290862D01*
X128573519Y-67391877D01*
X128573519Y-67459221D01*
X128539847Y-67560236D01*
X128472503Y-67627580D01*
X128371488Y-67661251D01*
X128304145Y-67661251D01*
X128203129Y-67627580D01*
X128034771Y-67459221D01*
X127967427Y-67324534D01*
X126173942Y-82034179D02*
X126072927Y-82606599D01*
X126578003Y-82438240D02*
X125870896Y-83145347D01*
X125601522Y-82875973D01*
X125567851Y-82774957D01*
X125567851Y-82707614D01*
X125601522Y-82606599D01*
X125702538Y-82505583D01*
X125803553Y-82471912D01*
X125870896Y-82471912D01*
X125971912Y-82505583D01*
X126241286Y-82774957D01*
X125500507Y-82101522D02*
X125264805Y-81865820D01*
X125534179Y-81394416D02*
X125870896Y-81731133D01*
X125163790Y-82438240D01*
X124827072Y-82101522D01*
X124625042Y-81226057D02*
X124860744Y-81461759D01*
X125231133Y-81091370D02*
X124524026Y-81798477D01*
X124187309Y-81461759D01*
X121364213Y-69309137D02*
X121431557Y-69309137D01*
X121566244Y-69376480D01*
X121633587Y-69443824D01*
X121700931Y-69578511D01*
X121700931Y-69713198D01*
X121667259Y-69814213D01*
X121566244Y-69982572D01*
X121465228Y-70083587D01*
X121296870Y-70184602D01*
X121195854Y-70218274D01*
X121061167Y-70218274D01*
X120926480Y-70150931D01*
X120859137Y-70083587D01*
X120791793Y-69948900D01*
X120791793Y-69881557D01*
X120286717Y-69511167D02*
X120152030Y-69376480D01*
X120118358Y-69275465D01*
X120118358Y-69140778D01*
X120219374Y-68972419D01*
X120455076Y-68736717D01*
X120623435Y-68635702D01*
X120758122Y-68635702D01*
X120859137Y-68669374D01*
X120993824Y-68804061D01*
X121027496Y-68905076D01*
X121027496Y-69039763D01*
X120926480Y-69208122D01*
X120690778Y-69443824D01*
X120522419Y-69544839D01*
X120387732Y-69544839D01*
X120286717Y-69511167D01*
X119680625Y-68905076D02*
X120253045Y-68332656D01*
X120286717Y-68231641D01*
X120286717Y-68164297D01*
X120253045Y-68063282D01*
X120118358Y-67928595D01*
X120017343Y-67894923D01*
X119950000Y-67894923D01*
X119848984Y-67928595D01*
X119276564Y-68501015D01*
X119646954Y-67457190D02*
X118939847Y-68164297D01*
X119242893Y-67053129D01*
X118535786Y-67760236D01*
X118300084Y-67524534D02*
X117896023Y-67120473D01*
X118805160Y-66615397D02*
X118098053Y-67322503D01*
D11*
%TO.C,R37*%
X86054724Y-79887500D02*
X85545276Y-79887500D01*
X86054724Y-80932500D02*
X85545276Y-80932500D01*
%TO.C,C29*%
X78559420Y-93390000D02*
X78840580Y-93390000D01*
X78559420Y-94410000D02*
X78840580Y-94410000D01*
%TO.C,R28*%
X88863641Y-66980000D02*
X88556359Y-66980000D01*
X88863641Y-66220000D02*
X88556359Y-66220000D01*
%TO.C,R8*%
X118707500Y-76202258D02*
X118707500Y-75727742D01*
X117662500Y-76202258D02*
X117662500Y-75727742D01*
%TO.C,C7*%
X80015000Y-98688748D02*
X80015000Y-99211252D01*
X81485000Y-98688748D02*
X81485000Y-99211252D01*
%TO.C,R15*%
X78954724Y-94977500D02*
X78445276Y-94977500D01*
X78954724Y-96022500D02*
X78445276Y-96022500D01*
%TO.C,C13*%
X107600000Y-87069420D02*
X107600000Y-87350580D01*
X108620000Y-87069420D02*
X108620000Y-87350580D01*
%TO.C,U12*%
X120150000Y-87165000D02*
X120150000Y-88965000D01*
X123370000Y-88965000D02*
X123370000Y-86515000D01*
%TO.C,D1*%
X54115000Y-91850000D02*
X54115000Y-94135000D01*
X54115000Y-94135000D02*
X55585000Y-94135000D01*
X55585000Y-94135000D02*
X55585000Y-91850000D01*
%TO.C,U10*%
X117285000Y-80975000D02*
X119085000Y-80975000D01*
X119085000Y-77755000D02*
X116635000Y-77755000D01*
%TO.C,kibuzzard-6406E441*%
G36*
X55586594Y-94186406D02*
G01*
X55586594Y-95813594D01*
X54213406Y-95813594D01*
X54213406Y-95690563D01*
X54312625Y-95690563D01*
X54928575Y-95706438D01*
X54928575Y-95560388D01*
X54880950Y-95505222D01*
X54865075Y-95444500D01*
X54919844Y-95350838D01*
X54993067Y-95328216D01*
X55103200Y-95320675D01*
X55219286Y-95331391D01*
X55294494Y-95363538D01*
X55335570Y-95419100D01*
X55349263Y-95500062D01*
X55334181Y-95606028D01*
X55288938Y-95714375D01*
X55439750Y-95714375D01*
X55475469Y-95605234D01*
X55487375Y-95487363D01*
X55477497Y-95378531D01*
X55447864Y-95291218D01*
X55398475Y-95225425D01*
X55326156Y-95179564D01*
X55227731Y-95152047D01*
X55103200Y-95142875D01*
X54968898Y-95153035D01*
X54864440Y-95183515D01*
X54789827Y-95234315D01*
X54745060Y-95305435D01*
X54730137Y-95396875D01*
X54740059Y-95472281D01*
X54769825Y-95536575D01*
X54769825Y-95539750D01*
X54449150Y-95528638D01*
X54449150Y-95174625D01*
X54312625Y-95174625D01*
X54312625Y-95690563D01*
X54213406Y-95690563D01*
X54213406Y-95007938D01*
X54312625Y-95007938D01*
X55471500Y-94750762D01*
X55471500Y-94544387D01*
X54312625Y-94285625D01*
X54312625Y-94461837D01*
X55312750Y-94642812D01*
X55312750Y-94644400D01*
X54312625Y-94825375D01*
X54312625Y-95007938D01*
X54213406Y-95007938D01*
X54213406Y-94186406D01*
X55586594Y-94186406D01*
G37*
%TO.C,U1*%
X64910000Y-96510000D02*
X63650000Y-96510000D01*
X58090000Y-92750000D02*
X58090000Y-96510000D01*
X58090000Y-96510000D02*
X59350000Y-96510000D01*
X64910000Y-90500000D02*
X64910000Y-96510000D01*
%TO.C,R10*%
X125962500Y-75327742D02*
X125962500Y-75802258D01*
X127007500Y-75327742D02*
X127007500Y-75802258D01*
%TO.C,R16*%
X65145276Y-67712500D02*
X65654724Y-67712500D01*
X65145276Y-66667500D02*
X65654724Y-66667500D01*
%TO.C,TP6*%
X116410000Y-88815000D02*
X116410000Y-90715000D01*
X114510000Y-90715000D02*
X114510000Y-88815000D01*
X116410000Y-90715000D02*
X114510000Y-90715000D01*
X114510000Y-88815000D02*
X116410000Y-88815000D01*
%TO.C,R18*%
X65145276Y-62177500D02*
X65654724Y-62177500D01*
X65145276Y-63222500D02*
X65654724Y-63222500D01*
%TO.C,U11*%
X123885000Y-74055000D02*
X122085000Y-74055000D01*
X122085000Y-77275000D02*
X124535000Y-77275000D01*
%TO.C,U2*%
X66060000Y-74837500D02*
X66060000Y-75637500D01*
X62940000Y-74837500D02*
X62940000Y-74037500D01*
X66060000Y-74837500D02*
X66060000Y-74037500D01*
X62940000Y-74837500D02*
X62940000Y-76637500D01*
%TO.C,R12*%
X118697258Y-87887500D02*
X118222742Y-87887500D01*
X118697258Y-86842500D02*
X118222742Y-86842500D01*
%TO.C,TP7*%
X124250000Y-86200000D02*
X126150000Y-86200000D01*
X124250000Y-88100000D02*
X124250000Y-86200000D01*
X126150000Y-86200000D02*
X126150000Y-88100000D01*
X126150000Y-88100000D02*
X124250000Y-88100000D01*
%TO.C,L1*%
X87560000Y-98387779D02*
X87560000Y-98062221D01*
X86540000Y-98387779D02*
X86540000Y-98062221D01*
%TO.C,D3*%
X77985000Y-79215000D02*
X75700000Y-79215000D01*
X77985000Y-80685000D02*
X77985000Y-79215000D01*
X75700000Y-80685000D02*
X77985000Y-80685000D01*
%TO.C,R23*%
X90746359Y-61220000D02*
X91053641Y-61220000D01*
X90746359Y-61980000D02*
X91053641Y-61980000D01*
%TO.C,C33*%
X93235000Y-57788748D02*
X93235000Y-58311252D01*
X91765000Y-57788748D02*
X91765000Y-58311252D01*
%TO.C,R22*%
X90746359Y-59920000D02*
X91053641Y-59920000D01*
X90746359Y-60680000D02*
X91053641Y-60680000D01*
%TO.C,R33*%
X54347500Y-89362742D02*
X54347500Y-89837258D01*
X55392500Y-89362742D02*
X55392500Y-89837258D01*
%TO.C,kibuzzard-6406DEDF*%
G36*
X69451994Y-81560603D02*
G01*
X69571850Y-81635612D01*
X69643287Y-81764597D01*
X69667100Y-81951525D01*
X69641700Y-82146787D01*
X69565500Y-82275375D01*
X69428975Y-82346812D01*
X69222600Y-82370625D01*
X69098775Y-82370625D01*
X69098775Y-81561000D01*
X69282925Y-81535600D01*
X69451994Y-81560603D01*
G37*
G36*
X68544738Y-81060937D02*
G01*
X76555262Y-81060937D01*
X76555262Y-83839063D01*
X68544738Y-83839063D01*
X68544738Y-83608875D01*
X68743175Y-83608875D01*
X69098775Y-83608875D01*
X69098775Y-82646850D01*
X69222600Y-82646850D01*
X69414687Y-82708763D01*
X69475409Y-82798059D01*
X69527400Y-82942125D01*
X69711550Y-83608875D01*
X70076675Y-83608875D01*
X70394175Y-83608875D01*
X71505425Y-83608875D01*
X71505425Y-83332650D01*
X70749775Y-83332650D01*
X70749775Y-82497625D01*
X71473675Y-82497625D01*
X71473675Y-82227750D01*
X70749775Y-82227750D01*
X70749775Y-81862625D01*
X71927700Y-81862625D01*
X71960641Y-82088050D01*
X72059462Y-82275375D01*
X72168647Y-82385442D01*
X72320518Y-82491275D01*
X72515075Y-82592875D01*
X72651203Y-82674631D01*
X72742088Y-82767500D01*
X72793284Y-82880213D01*
X72810350Y-83021500D01*
X72788125Y-83169534D01*
X72721450Y-83277088D01*
X72615088Y-83342572D01*
X72473800Y-83364400D01*
X72287886Y-83341469D01*
X72111144Y-83272678D01*
X71943575Y-83158025D01*
X71943575Y-83488225D01*
X72106558Y-83572892D01*
X72286475Y-83623692D01*
X72483325Y-83640625D01*
X72729070Y-83615225D01*
X72744998Y-83608875D01*
X73569175Y-83608875D01*
X74680425Y-83608875D01*
X74680425Y-83332650D01*
X73924775Y-83332650D01*
X73924775Y-82497625D01*
X74648675Y-82497625D01*
X74648675Y-82227750D01*
X73924775Y-82227750D01*
X73924775Y-81567350D01*
X74680425Y-81567350D01*
X75055075Y-81567350D01*
X75528150Y-81567350D01*
X75528150Y-83608875D01*
X75883750Y-83608875D01*
X75883750Y-81567350D01*
X76356825Y-81567350D01*
X76356825Y-81291125D01*
X75055075Y-81291125D01*
X75055075Y-81567350D01*
X74680425Y-81567350D01*
X74680425Y-81291125D01*
X73569175Y-81291125D01*
X73569175Y-83608875D01*
X72744998Y-83608875D01*
X72920205Y-83539025D01*
X73056730Y-83412025D01*
X73138645Y-83234225D01*
X73165950Y-83005625D01*
X73131819Y-82760356D01*
X73029425Y-82564300D01*
X72913361Y-82451058D01*
X72747203Y-82339933D01*
X72530950Y-82230925D01*
X72389839Y-82136028D01*
X72305172Y-82007969D01*
X72276950Y-81846750D01*
X72299175Y-81716575D01*
X72365850Y-81618150D01*
X72471419Y-81556237D01*
X72610325Y-81535600D01*
X72857181Y-81569731D01*
X73102450Y-81672125D01*
X73102450Y-81354625D01*
X72931706Y-81301708D01*
X72753906Y-81269958D01*
X72569050Y-81259375D01*
X72379432Y-81277014D01*
X72221211Y-81329931D01*
X72094387Y-81418125D01*
X71969372Y-81608625D01*
X71927700Y-81862625D01*
X70749775Y-81862625D01*
X70749775Y-81567350D01*
X71505425Y-81567350D01*
X71505425Y-81291125D01*
X70394175Y-81291125D01*
X70394175Y-83608875D01*
X70076675Y-83608875D01*
X69879825Y-82961175D01*
X69778225Y-82711938D01*
X69657575Y-82554775D01*
X69657575Y-82548425D01*
X69813150Y-82457541D01*
X69924275Y-82327762D01*
X69990950Y-82159091D01*
X70013175Y-81951525D01*
X69993596Y-81733685D01*
X69934858Y-81558531D01*
X69836962Y-81426062D01*
X69697086Y-81333458D01*
X69512407Y-81277896D01*
X69282925Y-81259375D01*
X69100186Y-81266431D01*
X68920269Y-81287597D01*
X68743175Y-81322875D01*
X68743175Y-83608875D01*
X68544738Y-83608875D01*
X68544738Y-81060937D01*
G37*
%TO.C,TP4*%
X98260000Y-86360000D02*
X98260000Y-88260000D01*
X96360000Y-88260000D02*
X96360000Y-86360000D01*
X98260000Y-88260000D02*
X96360000Y-88260000D01*
X96360000Y-86360000D02*
X98260000Y-86360000D01*
%TO.C,R35*%
X73212742Y-80472500D02*
X73687258Y-80472500D01*
X73212742Y-79427500D02*
X73687258Y-79427500D01*
%TO.C,C16*%
X104470000Y-99019420D02*
X104470000Y-99300580D01*
X103450000Y-99019420D02*
X103450000Y-99300580D01*
%TO.C,R27*%
X88863641Y-65780000D02*
X88556359Y-65780000D01*
X88863641Y-65020000D02*
X88556359Y-65020000D01*
%TO.C,R34*%
X52787500Y-89362742D02*
X52787500Y-89837258D01*
X53832500Y-89362742D02*
X53832500Y-89837258D01*
%TO.C,C31*%
X65135000Y-60061252D02*
X65135000Y-59538748D01*
X63665000Y-60061252D02*
X63665000Y-59538748D01*
%TO.C,C23*%
X122290000Y-72440580D02*
X122290000Y-72159420D01*
X123310000Y-72440580D02*
X123310000Y-72159420D01*
%TO.C,C35*%
X53190000Y-67096267D02*
X53190000Y-66803733D01*
X54210000Y-67096267D02*
X54210000Y-66803733D01*
%TO.C,TP1*%
X62450000Y-101700000D02*
X60550000Y-101700000D01*
X60550000Y-101700000D02*
X60550000Y-99800000D01*
X62450000Y-99800000D02*
X62450000Y-101700000D01*
X60550000Y-99800000D02*
X62450000Y-99800000D01*
%TO.C,TP5*%
X112035000Y-76215000D02*
X112035000Y-74315000D01*
X112035000Y-74315000D02*
X113935000Y-74315000D01*
X113935000Y-76215000D02*
X112035000Y-76215000D01*
X113935000Y-74315000D02*
X113935000Y-76215000D01*
%TO.C,C9*%
X98000000Y-93069420D02*
X98000000Y-93350580D01*
X99020000Y-93069420D02*
X99020000Y-93350580D01*
%TO.C,C25*%
X120295000Y-75824420D02*
X120295000Y-76105580D01*
X119275000Y-75824420D02*
X119275000Y-76105580D01*
%TO.C,R13*%
X118697258Y-86387500D02*
X118222742Y-86387500D01*
X118697258Y-85342500D02*
X118222742Y-85342500D01*
%TO.C,R25*%
X90746359Y-64480000D02*
X91053641Y-64480000D01*
X90746359Y-63720000D02*
X91053641Y-63720000D01*
%TO.C,C24*%
X122225580Y-77855000D02*
X121944420Y-77855000D01*
X122225580Y-78875000D02*
X121944420Y-78875000D01*
%TO.C,R32*%
X88863641Y-63720000D02*
X88556359Y-63720000D01*
X88863641Y-64480000D02*
X88556359Y-64480000D01*
%TO.C,J3*%
X92670000Y-74880000D02*
X92670000Y-72220000D01*
X105430000Y-74880000D02*
X105430000Y-72220000D01*
X91400000Y-74880000D02*
X90070000Y-74880000D01*
X90070000Y-74880000D02*
X90070000Y-73550000D01*
X92670000Y-74880000D02*
X105430000Y-74880000D01*
X92670000Y-72220000D02*
X105430000Y-72220000D01*
%TO.C,TP9*%
X109350000Y-66850000D02*
X111250000Y-66850000D01*
X111250000Y-66850000D02*
X111250000Y-68750000D01*
X111250000Y-68750000D02*
X109350000Y-68750000D01*
X109350000Y-68750000D02*
X109350000Y-66850000D01*
%TO.C,R39*%
X62977500Y-69695276D02*
X62977500Y-70204724D01*
X64022500Y-69695276D02*
X64022500Y-70204724D01*
%TO.C,L2*%
X78362779Y-98460000D02*
X78037221Y-98460000D01*
X78362779Y-97440000D02*
X78037221Y-97440000D01*
%TO.C,C6*%
X84515000Y-96613748D02*
X84515000Y-97136252D01*
X85985000Y-96613748D02*
X85985000Y-97136252D01*
%TO.C,C19*%
X87540000Y-93050580D02*
X87540000Y-92769420D01*
X88560000Y-93050580D02*
X88560000Y-92769420D01*
%TO.C,C10*%
X97420000Y-93069420D02*
X97420000Y-93350580D01*
X96400000Y-93069420D02*
X96400000Y-93350580D01*
%TO.C,C3*%
X88115000Y-100086252D02*
X88115000Y-99563748D01*
X89585000Y-100086252D02*
X89585000Y-99563748D01*
%TO.C,R9*%
X114922500Y-81337258D02*
X114922500Y-80862742D01*
X113877500Y-81337258D02*
X113877500Y-80862742D01*
%TO.C,C8*%
X74915000Y-98688748D02*
X74915000Y-99211252D01*
X76385000Y-98688748D02*
X76385000Y-99211252D01*
%TO.C,C32*%
X65665000Y-60061252D02*
X65665000Y-59538748D01*
X67135000Y-60061252D02*
X67135000Y-59538748D01*
%TO.C,kibuzzard-6406DECD*%
G36*
X80881069Y-81584416D02*
G01*
X80992988Y-81730862D01*
X81040613Y-81897550D01*
X81069188Y-82137262D01*
X81078713Y-82450000D01*
X81069188Y-82762738D01*
X81040613Y-83002450D01*
X80992988Y-83169138D01*
X80881069Y-83315584D01*
X80716763Y-83364400D01*
X80552456Y-83315584D01*
X80440538Y-83169138D01*
X80392913Y-83002450D01*
X80364338Y-82762738D01*
X80354813Y-82450000D01*
X80364338Y-82137262D01*
X80392913Y-81897550D01*
X80440538Y-81730862D01*
X80552456Y-81584416D01*
X80716763Y-81535600D01*
X80881069Y-81584416D01*
G37*
G36*
X77629075Y-82523819D02*
G01*
X77764012Y-82602400D01*
X77842594Y-82738131D01*
X77868787Y-82935775D01*
X77844578Y-83130641D01*
X77771950Y-83264388D01*
X77650109Y-83341778D01*
X77478262Y-83367575D01*
X77300462Y-83342175D01*
X77300462Y-82497625D01*
X77433812Y-82497625D01*
X77629075Y-82523819D01*
G37*
G36*
X79293569Y-81584416D02*
G01*
X79405487Y-81730862D01*
X79453112Y-81897550D01*
X79481687Y-82137262D01*
X79491212Y-82450000D01*
X79481687Y-82762738D01*
X79453112Y-83002450D01*
X79405487Y-83169138D01*
X79293569Y-83315584D01*
X79129262Y-83364400D01*
X78964956Y-83315584D01*
X78853037Y-83169138D01*
X78805412Y-83002450D01*
X78776837Y-82762738D01*
X78767312Y-82450000D01*
X78776837Y-82137262D01*
X78805412Y-81897550D01*
X78853037Y-81730862D01*
X78964956Y-81584416D01*
X79129262Y-81535600D01*
X79293569Y-81584416D01*
G37*
G36*
X76746425Y-81060937D02*
G01*
X83153575Y-81060937D01*
X83153575Y-83839063D01*
X76746425Y-83839063D01*
X76746425Y-81322875D01*
X76944862Y-81322875D01*
X76944862Y-83577125D01*
X77119840Y-83612403D01*
X77297640Y-83633569D01*
X77478262Y-83640625D01*
X77703335Y-83621222D01*
X77887485Y-83563014D01*
X78030712Y-83466000D01*
X78133018Y-83330181D01*
X78194401Y-83155556D01*
X78214862Y-82942125D01*
X78184303Y-82729400D01*
X78092625Y-82548425D01*
X77990369Y-82450000D01*
X78430762Y-82450000D01*
X78439406Y-82727989D01*
X78465335Y-82965056D01*
X78508550Y-83161200D01*
X78604197Y-83385831D01*
X78735562Y-83532675D01*
X78908600Y-83613638D01*
X79129262Y-83640625D01*
X79349925Y-83613638D01*
X79522962Y-83532675D01*
X79654328Y-83385831D01*
X79749975Y-83161200D01*
X79793190Y-82965056D01*
X79819119Y-82727989D01*
X79827762Y-82450000D01*
X80018263Y-82450000D01*
X80026906Y-82727989D01*
X80052835Y-82965056D01*
X80096050Y-83161200D01*
X80191697Y-83385831D01*
X80323063Y-83532675D01*
X80496100Y-83613638D01*
X80716763Y-83640625D01*
X80937425Y-83613638D01*
X81110463Y-83532675D01*
X81241828Y-83385831D01*
X81337475Y-83161200D01*
X81380690Y-82965056D01*
X81406619Y-82727989D01*
X81415263Y-82450000D01*
X81406619Y-82172011D01*
X81380690Y-81934944D01*
X81337475Y-81738800D01*
X81264472Y-81567350D01*
X81653388Y-81567350D01*
X82126463Y-81567350D01*
X82126463Y-83608875D01*
X82482063Y-83608875D01*
X82482063Y-81567350D01*
X82955138Y-81567350D01*
X82955138Y-81291125D01*
X81653388Y-81291125D01*
X81653388Y-81567350D01*
X81264472Y-81567350D01*
X81241828Y-81514169D01*
X81110463Y-81367325D01*
X80937425Y-81286362D01*
X80716763Y-81259375D01*
X80496100Y-81286362D01*
X80323063Y-81367325D01*
X80191697Y-81514169D01*
X80096050Y-81738800D01*
X80052835Y-81934944D01*
X80026906Y-82172011D01*
X80018263Y-82450000D01*
X79827762Y-82450000D01*
X79819119Y-82172011D01*
X79793190Y-81934944D01*
X79749975Y-81738800D01*
X79654328Y-81514169D01*
X79522962Y-81367325D01*
X79349925Y-81286362D01*
X79129262Y-81259375D01*
X78908600Y-81286362D01*
X78735562Y-81367325D01*
X78604197Y-81514169D01*
X78508550Y-81738800D01*
X78465335Y-81934944D01*
X78439406Y-82172011D01*
X78430762Y-82450000D01*
X77990369Y-82450000D01*
X77954909Y-82415869D01*
X77786237Y-82348400D01*
X77786237Y-82345225D01*
X77935066Y-82280137D01*
X78051350Y-82167425D01*
X78126359Y-82016612D01*
X78151362Y-81837225D01*
X78123676Y-81629199D01*
X78040618Y-81467401D01*
X77902188Y-81351831D01*
X77708386Y-81282489D01*
X77459212Y-81259375D01*
X77197275Y-81275250D01*
X76944862Y-81322875D01*
X76746425Y-81322875D01*
X76746425Y-81060937D01*
G37*
G36*
X77655004Y-81568761D02*
G01*
X77772479Y-81677769D01*
X77811637Y-81859450D01*
X77786237Y-82026534D01*
X77710037Y-82140437D01*
X77579862Y-82205922D01*
X77392537Y-82227750D01*
X77300462Y-82227750D01*
X77300462Y-81557825D01*
X77459212Y-81532425D01*
X77655004Y-81568761D01*
G37*
%TO.C,RG2*%
X115647742Y-75722500D02*
X116122258Y-75722500D01*
X115647742Y-74677500D02*
X116122258Y-74677500D01*
%TO.C,kibuzzard-640843E2*%
G36*
X102265049Y-81936780D02*
G01*
X102163918Y-81921779D01*
X102064745Y-81896937D01*
X101968484Y-81862495D01*
X101876063Y-81818783D01*
X101793266Y-81769156D01*
X102466381Y-81769156D01*
X102733081Y-81769156D01*
X102823569Y-81311956D01*
X103230762Y-81311956D01*
X103321250Y-81769156D01*
X103597475Y-81769156D01*
X103591832Y-81745344D01*
X103752256Y-81745344D01*
X103931445Y-81781063D01*
X104126112Y-81792969D01*
X104323756Y-81772430D01*
X104478537Y-81710816D01*
X104596112Y-81598599D01*
X104682134Y-81426256D01*
X104721160Y-81275179D01*
X104744576Y-81091823D01*
X104752381Y-80876187D01*
X104926213Y-80876187D01*
X104935626Y-81091058D01*
X104963866Y-81277279D01*
X105010933Y-81434851D01*
X105076827Y-81563773D01*
X105161547Y-81664046D01*
X105265094Y-81735670D01*
X105387468Y-81778644D01*
X105528669Y-81792969D01*
X105687617Y-81778086D01*
X105716312Y-81769156D01*
X106176369Y-81769156D01*
X107033619Y-81769156D01*
X107033619Y-81561988D01*
X106452594Y-81561988D01*
X106452594Y-81557225D01*
X106592269Y-81390835D01*
X106711257Y-81234566D01*
X106809558Y-81088416D01*
X106887172Y-80952388D01*
X106961917Y-80782525D01*
X107006764Y-80622187D01*
X107021713Y-80471375D01*
X106994626Y-80270457D01*
X106913366Y-80124903D01*
X106780909Y-80036499D01*
X106600231Y-80007031D01*
X106449419Y-80020790D01*
X106308131Y-80062065D01*
X106176369Y-80130856D01*
X106176369Y-80354694D01*
X106310513Y-80276642D01*
X106433544Y-80229810D01*
X106545463Y-80214200D01*
X106701434Y-80278494D01*
X106739832Y-80361837D01*
X106752631Y-80483281D01*
X106740871Y-80613764D01*
X106705589Y-80752120D01*
X106646787Y-80898348D01*
X106564464Y-81052449D01*
X106458620Y-81214422D01*
X106329255Y-81384268D01*
X106176369Y-81561988D01*
X106176369Y-81769156D01*
X105716312Y-81769156D01*
X105831088Y-81733438D01*
X105831088Y-81514363D01*
X105695356Y-81569727D01*
X105569150Y-81588181D01*
X105452733Y-81568404D01*
X105357483Y-81509071D01*
X105283400Y-81410183D01*
X105230483Y-81271740D01*
X105198733Y-81093741D01*
X105188150Y-80876187D01*
X105197741Y-80674641D01*
X105226515Y-80509740D01*
X105274470Y-80381483D01*
X105341608Y-80289871D01*
X105427929Y-80234904D01*
X105533431Y-80216581D01*
X105588200Y-80226106D01*
X105588200Y-80597581D01*
X105842994Y-80597581D01*
X105842994Y-80059419D01*
X105691189Y-80020128D01*
X105521525Y-80007031D01*
X105381999Y-80020612D01*
X105261076Y-80061354D01*
X105158756Y-80129256D01*
X105075041Y-80224320D01*
X105009928Y-80346545D01*
X104963420Y-80495932D01*
X104935514Y-80672479D01*
X104926213Y-80876187D01*
X104752381Y-80876187D01*
X104743228Y-80653615D01*
X104715770Y-80466910D01*
X104670005Y-80316073D01*
X104605934Y-80201103D01*
X104487533Y-80093285D01*
X104327593Y-80028595D01*
X104126112Y-80007031D01*
X103938589Y-80018937D01*
X103752256Y-80054656D01*
X103752256Y-81745344D01*
X103591832Y-81745344D01*
X103185519Y-80030844D01*
X102875956Y-80030844D01*
X102466381Y-81769156D01*
X101793266Y-81769156D01*
X101788371Y-81766222D01*
X101706254Y-81705320D01*
X101630501Y-81636662D01*
X101561843Y-81560909D01*
X101500940Y-81478791D01*
X101448380Y-81391100D01*
X101404668Y-81298678D01*
X101370225Y-81202418D01*
X101345383Y-81103244D01*
X101330382Y-81002114D01*
X101325366Y-80900000D01*
X101330382Y-80797886D01*
X101345383Y-80696756D01*
X101370225Y-80597582D01*
X101404668Y-80501322D01*
X101448380Y-80408900D01*
X101500940Y-80321209D01*
X101561843Y-80239091D01*
X101630501Y-80163338D01*
X101706254Y-80094680D01*
X101788371Y-80033778D01*
X101876063Y-79981217D01*
X101968484Y-79937505D01*
X102064745Y-79903063D01*
X102163918Y-79878221D01*
X102265049Y-79863220D01*
X102367162Y-79858203D01*
X107132838Y-79858203D01*
X107234951Y-79863220D01*
X107336082Y-79878221D01*
X107435255Y-79903063D01*
X107531516Y-79937505D01*
X107623937Y-79981217D01*
X107711629Y-80033778D01*
X107793746Y-80094680D01*
X107869499Y-80163338D01*
X107938157Y-80239091D01*
X107999060Y-80321209D01*
X108051620Y-80408900D01*
X108095332Y-80501322D01*
X108129775Y-80597582D01*
X108154617Y-80696756D01*
X108169618Y-80797886D01*
X108174634Y-80900000D01*
X108169618Y-81002114D01*
X108154617Y-81103244D01*
X108129775Y-81202418D01*
X108095332Y-81298678D01*
X108051620Y-81391100D01*
X107999060Y-81478791D01*
X107938157Y-81560909D01*
X107869499Y-81636662D01*
X107793746Y-81705320D01*
X107711629Y-81766222D01*
X107623937Y-81818783D01*
X107531516Y-81862495D01*
X107435255Y-81896937D01*
X107336082Y-81921779D01*
X107234951Y-81936780D01*
X107132838Y-81941797D01*
X102367162Y-81941797D01*
X102265049Y-81936780D01*
G37*
G36*
X104291014Y-80251109D02*
G01*
X104404719Y-80361837D01*
X104453667Y-80484604D01*
X104483035Y-80656054D01*
X104492825Y-80876187D01*
X104483168Y-81119340D01*
X104454196Y-81305871D01*
X104405909Y-81435781D01*
X104292502Y-81550081D01*
X104126112Y-81588181D01*
X104018956Y-81566750D01*
X104018956Y-80235631D01*
X104126112Y-80214200D01*
X104291014Y-80251109D01*
G37*
G36*
X103190281Y-81109550D02*
G01*
X102864050Y-81109550D01*
X103025975Y-80292781D01*
X103028356Y-80292781D01*
X103190281Y-81109550D01*
G37*
%TO.C,C27*%
X118600580Y-88355000D02*
X118319420Y-88355000D01*
X118600580Y-89375000D02*
X118319420Y-89375000D01*
%TO.C,R6*%
X120727500Y-72062742D02*
X120727500Y-72537258D01*
X121772500Y-72062742D02*
X121772500Y-72537258D01*
%TO.C,R30*%
X88863641Y-61970000D02*
X88556359Y-61970000D01*
X88863641Y-61210000D02*
X88556359Y-61210000D01*
%TO.C,C15*%
X105215000Y-77034420D02*
X105215000Y-77315580D01*
X106235000Y-77034420D02*
X106235000Y-77315580D01*
D13*
%TO.C,J1*%
X56250000Y-69700000D02*
X56250000Y-79600000D01*
X62000000Y-71300000D02*
X62000000Y-71300000D01*
X61370000Y-68550000D02*
X60010000Y-68550000D01*
X60010000Y-81050000D02*
X61370000Y-81050000D01*
X62000000Y-71300000D02*
X62000000Y-71300000D01*
X61900000Y-71300000D02*
X61900000Y-71300000D01*
X61370000Y-81050000D02*
X61370000Y-68550000D01*
X62000000Y-71300000D02*
G75*
G03*
X61900000Y-71300000I-50000J0D01*
G01*
X61900000Y-71300000D02*
G75*
G03*
X62000000Y-71300000I50000J0D01*
G01*
X62000000Y-71300000D02*
G75*
G03*
X61900000Y-71300000I-50000J0D01*
G01*
D11*
%TO.C,U14*%
X68300000Y-51570000D02*
X68300000Y-58320000D01*
X86300000Y-77070000D02*
X85300000Y-77070000D01*
X68300000Y-77070000D02*
X69300000Y-77070000D01*
X86300000Y-76320000D02*
X86300000Y-77070000D01*
X68300000Y-51570000D02*
X86300000Y-51570000D01*
X86300000Y-51570000D02*
X86300000Y-58320000D01*
X86300000Y-57510000D02*
X68300000Y-57510000D01*
X68300000Y-76320000D02*
X68300000Y-77070000D01*
%TO.C,U6*%
X90700000Y-91335000D02*
X90700000Y-93785000D01*
X93920000Y-93135000D02*
X93920000Y-91335000D01*
%TO.C,R7*%
X123827500Y-72537258D02*
X123827500Y-72062742D01*
X124872500Y-72537258D02*
X124872500Y-72062742D01*
%TO.C,C21*%
X109144420Y-77275000D02*
X109425580Y-77275000D01*
X109144420Y-76255000D02*
X109425580Y-76255000D01*
%TO.C,R3*%
X104937500Y-95822742D02*
X104937500Y-96297258D01*
X105982500Y-95822742D02*
X105982500Y-96297258D01*
%TO.C,C2*%
X67335000Y-97011252D02*
X67335000Y-96488748D01*
X65865000Y-97011252D02*
X65865000Y-96488748D01*
%TO.C,U13*%
X114960000Y-85105000D02*
X114310000Y-85105000D01*
X114960000Y-88225000D02*
X116635000Y-88225000D01*
X114960000Y-85105000D02*
X115610000Y-85105000D01*
X114960000Y-88225000D02*
X114310000Y-88225000D01*
%TO.C,J4*%
X94330000Y-65700000D02*
X94330000Y-68000000D01*
X106510000Y-70120000D02*
X106510000Y-60300000D01*
X105280000Y-70120000D02*
X106510000Y-70120000D01*
X95810000Y-58480000D02*
X96670000Y-58480000D01*
X94330000Y-59850000D02*
X94330000Y-64300000D01*
X94330000Y-69400000D02*
X94330000Y-70120000D01*
X99310000Y-70120000D02*
X102980000Y-70120000D01*
X94330000Y-70120000D02*
X97010000Y-70120000D01*
%TO.C,C17*%
X103450000Y-95944420D02*
X103450000Y-96225580D01*
X104470000Y-95944420D02*
X104470000Y-96225580D01*
%TO.C,R4*%
X89087500Y-93147258D02*
X89087500Y-92672742D01*
X90132500Y-93147258D02*
X90132500Y-92672742D01*
%TO.C,R29*%
X88863641Y-60680000D02*
X88556359Y-60680000D01*
X88863641Y-59920000D02*
X88556359Y-59920000D01*
%TO.C,TP8*%
X67200000Y-87150000D02*
X67200000Y-89050000D01*
X67200000Y-89050000D02*
X65300000Y-89050000D01*
X65300000Y-87150000D02*
X67200000Y-87150000D01*
X65300000Y-89050000D02*
X65300000Y-87150000D01*
%TO.C,C5*%
X89160000Y-96690580D02*
X89160000Y-96409420D01*
X88140000Y-96690580D02*
X88140000Y-96409420D01*
%TO.C,D4*%
X65100000Y-82735000D02*
X67385000Y-82735000D01*
X67385000Y-82735000D02*
X67385000Y-81265000D01*
X67385000Y-81265000D02*
X65100000Y-81265000D01*
%TO.C,U8*%
X108225000Y-81265000D02*
X108225000Y-79315000D01*
X113345000Y-81265000D02*
X113345000Y-77815000D01*
X108225000Y-81265000D02*
X108225000Y-83215000D01*
X113345000Y-81265000D02*
X113345000Y-83215000D01*
%TO.C,TP2*%
X87935000Y-90665000D02*
X87935000Y-88765000D01*
X89835000Y-90665000D02*
X87935000Y-90665000D01*
X89835000Y-88765000D02*
X89835000Y-90665000D01*
X87935000Y-88765000D02*
X89835000Y-88765000D01*
%TO.C,JP2*%
X116550000Y-82800000D02*
X116550000Y-82200000D01*
X120650000Y-82200000D02*
X120650000Y-82800000D01*
X120000000Y-83500000D02*
X117200000Y-83500000D01*
X117200000Y-81500000D02*
X120000000Y-81500000D01*
X120650000Y-82200000D02*
G75*
G03*
X119950000Y-81500000I-699999J1D01*
G01*
X119950000Y-83500000D02*
G75*
G03*
X120650000Y-82800000I1J699999D01*
G01*
X117250000Y-81500000D02*
G75*
G03*
X116550000Y-82200000I0J-700000D01*
G01*
X116550000Y-82800000D02*
G75*
G03*
X117250000Y-83500000I700000J0D01*
G01*
%TO.C,R14*%
X72045276Y-94827500D02*
X72554724Y-94827500D01*
X72045276Y-95872500D02*
X72554724Y-95872500D01*
%TO.C,U4*%
X99650000Y-95660000D02*
X99650000Y-97460000D01*
X102870000Y-97460000D02*
X102870000Y-95010000D01*
%TO.C,R19*%
X65145276Y-64722500D02*
X65654724Y-64722500D01*
X65145276Y-63677500D02*
X65654724Y-63677500D01*
%TO.C,C20*%
X109446252Y-74230000D02*
X108923748Y-74230000D01*
X109446252Y-75700000D02*
X108923748Y-75700000D01*
%TO.C,C1*%
X59838748Y-89685000D02*
X60361252Y-89685000D01*
X59838748Y-88215000D02*
X60361252Y-88215000D01*
%TO.C,R38*%
X66137258Y-80472500D02*
X65662742Y-80472500D01*
X66137258Y-79427500D02*
X65662742Y-79427500D01*
%TO.C,RG1*%
X115647742Y-74172500D02*
X116122258Y-74172500D01*
X115647742Y-73127500D02*
X116122258Y-73127500D01*
%TO.C,R31*%
X88863641Y-63180000D02*
X88556359Y-63180000D01*
X88863641Y-62420000D02*
X88556359Y-62420000D01*
%TO.C,R5*%
X132707500Y-76502258D02*
X132707500Y-76027742D01*
X131662500Y-76502258D02*
X131662500Y-76027742D01*
%TO.C,R2*%
X95432500Y-89497742D02*
X95432500Y-89972258D01*
X94387500Y-89497742D02*
X94387500Y-89972258D01*
%TO.C,C18*%
X93869420Y-87845000D02*
X94150580Y-87845000D01*
X93869420Y-86825000D02*
X94150580Y-86825000D01*
%TO.C,FB1*%
X56449622Y-87610000D02*
X55650378Y-87610000D01*
X56449622Y-86490000D02*
X55650378Y-86490000D01*
%TO.C,R1*%
X105982500Y-99397258D02*
X105982500Y-98922742D01*
X104937500Y-99397258D02*
X104937500Y-98922742D01*
%TO.C,R20*%
X90746359Y-65020000D02*
X91053641Y-65020000D01*
X90746359Y-65780000D02*
X91053641Y-65780000D01*
%TO.C,U5*%
X103610000Y-91370000D02*
X107060000Y-91370000D01*
X103610000Y-86250000D02*
X105560000Y-86250000D01*
X103610000Y-86250000D02*
X101660000Y-86250000D01*
X103610000Y-91370000D02*
X101660000Y-91370000D01*
%TO.C,C12*%
X109175000Y-87271252D02*
X109175000Y-86748748D01*
X110645000Y-87271252D02*
X110645000Y-86748748D01*
%TO.C,kibuzzard-640733B2*%
G36*
X104659688Y-52659494D02*
G01*
X104685088Y-52733114D01*
X104694613Y-52844437D01*
X104412038Y-52844437D01*
X104425531Y-52730137D01*
X104453313Y-52657112D01*
X104497366Y-52617822D01*
X104559675Y-52604725D01*
X104659688Y-52659494D01*
G37*
G36*
X107006608Y-52625164D02*
G01*
X107054431Y-52672194D01*
X107081220Y-52762483D01*
X107090150Y-52907938D01*
X107081220Y-53053392D01*
X107054431Y-53143681D01*
X107006608Y-53190711D01*
X106934575Y-53206388D01*
X106862542Y-53190711D01*
X106814719Y-53143681D01*
X106787930Y-53053392D01*
X106779000Y-52907938D01*
X106787930Y-52762483D01*
X106814719Y-52672194D01*
X106862542Y-52625164D01*
X106934575Y-52609487D01*
X107006608Y-52625164D01*
G37*
G36*
X99917825Y-52619012D02*
G01*
X99917825Y-53123838D01*
X99798762Y-53160350D01*
X99732782Y-53143086D01*
X99685653Y-53091294D01*
X99657376Y-53004973D01*
X99647950Y-52884125D01*
X99658864Y-52755537D01*
X99691606Y-52671400D01*
X99748161Y-52624966D01*
X99830512Y-52609487D01*
X99917825Y-52619012D01*
G37*
G36*
X99045097Y-52296552D02*
G01*
X99105025Y-52334056D01*
X99140744Y-52398548D01*
X99152650Y-52492012D01*
X99139950Y-52589644D01*
X99101850Y-52653937D01*
X99033587Y-52689656D01*
X98930400Y-52701562D01*
X98868487Y-52701562D01*
X98868487Y-52296750D01*
X98960562Y-52284050D01*
X99045097Y-52296552D01*
G37*
G36*
X98591469Y-53785031D02*
G01*
X98591469Y-53320688D01*
X98690687Y-53320688D01*
X98868487Y-53320688D01*
X98868487Y-52839675D01*
X98930400Y-52839675D01*
X99026444Y-52870631D01*
X99056805Y-52915280D01*
X99082800Y-52987313D01*
X99174875Y-53320688D01*
X99357437Y-53320688D01*
X99259012Y-52996838D01*
X99213065Y-52884125D01*
X99473325Y-52884125D01*
X99481792Y-53007818D01*
X99507192Y-53109021D01*
X99549525Y-53187734D01*
X99608792Y-53243958D01*
X99684992Y-53277693D01*
X99778125Y-53288938D01*
X99850356Y-53281000D01*
X99917825Y-53257188D01*
X99917825Y-53281000D01*
X99895798Y-53395300D01*
X99829719Y-53481025D01*
X99762426Y-53520713D01*
X99678024Y-53544525D01*
X99576512Y-53552463D01*
X99576512Y-53685813D01*
X99691954Y-53678669D01*
X99793802Y-53657238D01*
X99882057Y-53621519D01*
X99956719Y-53571513D01*
X100032125Y-53485788D01*
X100077369Y-53381013D01*
X100092450Y-53257188D01*
X100092450Y-53069863D01*
X100275012Y-53069863D01*
X100296245Y-53182575D01*
X100359944Y-53266713D01*
X100424414Y-53305518D01*
X100504583Y-53328801D01*
X100600450Y-53336563D01*
X100696935Y-53330918D01*
X100789539Y-53313985D01*
X100878262Y-53285763D01*
X100878262Y-52793637D01*
X100871472Y-52682512D01*
X100851099Y-52598904D01*
X100817144Y-52542812D01*
X100727648Y-52495187D01*
X101132262Y-52495187D01*
X101132262Y-52623775D01*
X101343400Y-52623775D01*
X101343400Y-53320688D01*
X101521200Y-53320688D01*
X101870450Y-53320688D01*
X102045075Y-53320688D01*
X102045075Y-52644412D01*
X102153025Y-52609487D01*
X102270500Y-52641237D01*
X102302250Y-52757125D01*
X102302250Y-53320688D01*
X102473700Y-53320688D01*
X102473700Y-52765062D01*
X102467205Y-52709500D01*
X103469063Y-52709500D01*
X103484938Y-52800980D01*
X103532563Y-52872219D01*
X103617891Y-52927583D01*
X103746875Y-52971438D01*
X103851650Y-53019063D01*
X103880225Y-53098438D01*
X103843713Y-53181781D01*
X103723063Y-53207975D01*
X103603603Y-53192497D01*
X103477000Y-53146063D01*
X103477000Y-53285763D01*
X103561667Y-53313985D01*
X103652683Y-53330918D01*
X103750050Y-53336563D01*
X103879630Y-53321084D01*
X103976269Y-53274650D01*
X104036395Y-53199641D01*
X104056438Y-53098438D01*
X104041158Y-52996838D01*
X103995319Y-52923813D01*
X103969464Y-52907938D01*
X104231063Y-52907938D01*
X104241205Y-53038906D01*
X104271632Y-53146063D01*
X104322344Y-53229406D01*
X104393340Y-53288938D01*
X104484622Y-53324656D01*
X104596188Y-53336563D01*
X104706916Y-53326641D01*
X104730172Y-53320688D01*
X105045450Y-53320688D01*
X105220075Y-53320688D01*
X105220075Y-52644412D01*
X105328025Y-52609487D01*
X105445500Y-52641237D01*
X105477250Y-52757125D01*
X105477250Y-53320688D01*
X105648700Y-53320688D01*
X105648700Y-52765062D01*
X105642205Y-52709500D01*
X105850313Y-52709500D01*
X105866188Y-52800980D01*
X105913813Y-52872219D01*
X105999141Y-52927583D01*
X106128125Y-52971438D01*
X106232900Y-53019063D01*
X106261475Y-53098438D01*
X106224963Y-53181781D01*
X106104313Y-53207975D01*
X105984853Y-53192497D01*
X105858250Y-53146063D01*
X105858250Y-53285763D01*
X105942917Y-53313985D01*
X106033933Y-53330918D01*
X106131300Y-53336563D01*
X106260880Y-53321084D01*
X106357519Y-53274650D01*
X106417645Y-53199641D01*
X106437688Y-53098438D01*
X106422408Y-52996838D01*
X106376569Y-52923813D01*
X106350714Y-52907938D01*
X106601200Y-52907938D01*
X106610372Y-53044463D01*
X106637889Y-53153471D01*
X106683750Y-53234963D01*
X106748308Y-53291407D01*
X106831917Y-53325274D01*
X106934575Y-53336563D01*
X107037233Y-53325274D01*
X107048555Y-53320688D01*
X107485438Y-53320688D01*
X107660063Y-53320688D01*
X107658475Y-52657112D01*
X107770835Y-52631536D01*
X107887781Y-52616190D01*
X108009313Y-52611075D01*
X108009313Y-52479312D01*
X107900982Y-52482614D01*
X107794429Y-52492520D01*
X107689654Y-52509030D01*
X107586657Y-52532144D01*
X107485438Y-52561862D01*
X107485438Y-53320688D01*
X107048555Y-53320688D01*
X107120842Y-53291407D01*
X107185400Y-53234963D01*
X107231261Y-53153471D01*
X107258778Y-53044463D01*
X107267950Y-52907938D01*
X107258778Y-52771412D01*
X107231261Y-52662404D01*
X107185400Y-52580912D01*
X107120842Y-52524468D01*
X107037233Y-52490601D01*
X106934575Y-52479312D01*
X106831917Y-52490601D01*
X106748308Y-52524468D01*
X106683750Y-52580912D01*
X106637889Y-52662404D01*
X106610372Y-52771412D01*
X106601200Y-52907938D01*
X106350714Y-52907938D01*
X106288661Y-52869837D01*
X106147175Y-52825387D01*
X106052719Y-52780937D01*
X106024938Y-52709500D01*
X106059466Y-52632109D01*
X106163050Y-52606312D01*
X106283700Y-52616234D01*
X106410700Y-52646000D01*
X106410700Y-52514237D01*
X106327797Y-52494835D01*
X106239956Y-52483193D01*
X106147175Y-52479312D01*
X106017794Y-52494195D01*
X105924925Y-52538844D01*
X105868966Y-52611273D01*
X105850313Y-52709500D01*
X105642205Y-52709500D01*
X105632230Y-52624172D01*
X105582819Y-52538050D01*
X105524699Y-52505418D01*
X105438180Y-52485839D01*
X105323263Y-52479312D01*
X105221133Y-52486721D01*
X105128529Y-52508946D01*
X105045450Y-52545987D01*
X105045450Y-53320688D01*
X104730172Y-53320688D01*
X104823200Y-53296875D01*
X104823200Y-53165113D01*
X104714456Y-53197259D01*
X104616825Y-53207975D01*
X104531695Y-53194283D01*
X104469981Y-53153206D01*
X104430492Y-53079586D01*
X104412038Y-52968263D01*
X104862888Y-52968263D01*
X104866063Y-52904763D01*
X104857772Y-52769208D01*
X104832901Y-52660993D01*
X104791450Y-52580119D01*
X104733065Y-52524115D01*
X104657394Y-52490513D01*
X104564438Y-52479312D01*
X104462573Y-52491219D01*
X104379229Y-52526937D01*
X104314406Y-52586469D01*
X104268104Y-52669812D01*
X104240323Y-52776969D01*
X104231063Y-52907938D01*
X103969464Y-52907938D01*
X103907411Y-52869837D01*
X103765925Y-52825387D01*
X103671469Y-52780937D01*
X103643688Y-52709500D01*
X103678216Y-52632109D01*
X103781800Y-52606312D01*
X103902450Y-52616234D01*
X104029450Y-52646000D01*
X104029450Y-52514237D01*
X103946547Y-52494835D01*
X103858706Y-52483193D01*
X103765925Y-52479312D01*
X103636544Y-52494195D01*
X103543675Y-52538844D01*
X103487716Y-52611273D01*
X103469063Y-52709500D01*
X102467205Y-52709500D01*
X102457230Y-52624172D01*
X102407819Y-52538050D01*
X102349699Y-52505418D01*
X102263180Y-52485839D01*
X102148262Y-52479312D01*
X102046133Y-52486721D01*
X101953529Y-52508946D01*
X101870450Y-52545987D01*
X101870450Y-53320688D01*
X101521200Y-53320688D01*
X101521200Y-52495187D01*
X101132262Y-52495187D01*
X100727648Y-52495187D01*
X100581400Y-52479312D01*
X100496028Y-52484957D01*
X100407128Y-52501890D01*
X100314700Y-52530112D01*
X100314700Y-52666637D01*
X100406775Y-52634887D01*
X100492500Y-52615837D01*
X100571875Y-52609487D01*
X100680619Y-52638856D01*
X100705225Y-52761887D01*
X100705225Y-52788875D01*
X100660775Y-52788875D01*
X100542506Y-52796901D01*
X100445933Y-52820978D01*
X100371056Y-52861106D01*
X100299023Y-52949411D01*
X100275012Y-53069863D01*
X100092450Y-53069863D01*
X100092450Y-52514237D01*
X99971800Y-52488044D01*
X99838450Y-52479312D01*
X99721328Y-52489719D01*
X99628194Y-52520940D01*
X99559050Y-52572975D01*
X99511425Y-52649175D01*
X99482850Y-52752892D01*
X99473325Y-52884125D01*
X99213065Y-52884125D01*
X99208212Y-52872219D01*
X99147887Y-52793637D01*
X99147887Y-52790462D01*
X99225675Y-52745020D01*
X99281237Y-52680131D01*
X99314575Y-52595795D01*
X99325688Y-52492012D01*
X99315898Y-52383092D01*
X99292267Y-52312625D01*
X101311650Y-52312625D01*
X101521200Y-52312625D01*
X101521200Y-52114187D01*
X101311650Y-52114187D01*
X101311650Y-52312625D01*
X99292267Y-52312625D01*
X99286529Y-52295515D01*
X99237581Y-52229281D01*
X99167643Y-52182979D01*
X99075303Y-52155198D01*
X98960562Y-52145937D01*
X98869193Y-52149465D01*
X98779235Y-52160049D01*
X98690687Y-52177687D01*
X98690687Y-53320688D01*
X98591469Y-53320688D01*
X98591469Y-52014969D01*
X108108531Y-52014969D01*
X108108531Y-53785031D01*
X98591469Y-53785031D01*
G37*
G36*
X100705225Y-53192100D02*
G01*
X100600450Y-53212738D01*
X100484562Y-53175431D01*
X100443287Y-53069863D01*
X100456186Y-52998028D01*
X100494881Y-52947625D01*
X100562152Y-52917859D01*
X100660775Y-52907938D01*
X100705225Y-52907938D01*
X100705225Y-53192100D01*
G37*
%TO.C,C28*%
X72153733Y-93290000D02*
X72446267Y-93290000D01*
X72153733Y-94310000D02*
X72446267Y-94310000D01*
%TO.C,C22*%
X115744420Y-76240000D02*
X116025580Y-76240000D01*
X115744420Y-77260000D02*
X116025580Y-77260000D01*
%TO.C,C26*%
X122319420Y-91775000D02*
X122600580Y-91775000D01*
X122319420Y-90755000D02*
X122600580Y-90755000D01*
%TO.C,R21*%
X90746359Y-66220000D02*
X91053641Y-66220000D01*
X90746359Y-66980000D02*
X91053641Y-66980000D01*
%TO.C,TP10*%
X120300000Y-96250000D02*
X122200000Y-96250000D01*
X122200000Y-96250000D02*
X122200000Y-98150000D01*
X120300000Y-98150000D02*
X120300000Y-96250000D01*
X122200000Y-98150000D02*
X120300000Y-98150000D01*
D13*
%TO.C,SW1*%
X74300000Y-84450000D02*
X74300000Y-84450000D01*
D14*
X75000000Y-91050000D02*
X74800000Y-91050000D01*
X71100000Y-85850000D02*
X73700000Y-85850000D01*
X70000000Y-85850000D02*
X69800000Y-85850000D01*
X69800000Y-91050000D02*
X70000000Y-91050000D01*
X74800000Y-85850000D02*
X75000000Y-85850000D01*
D13*
X74300000Y-84650000D02*
X74300000Y-84650000D01*
D14*
X71100000Y-91050000D02*
X73700000Y-91050000D01*
X69800000Y-85850000D02*
X69800000Y-91050000D01*
X75000000Y-85850000D02*
X75000000Y-91050000D01*
D13*
X74300000Y-84650000D02*
G75*
G03*
X74300000Y-84450000I0J100000D01*
G01*
X74300000Y-84450000D02*
G75*
G03*
X74300000Y-84650000I0J-100000D01*
G01*
%TO.C,kibuzzard-640843D3*%
G36*
X105800417Y-83363220D02*
G01*
X105901548Y-83378221D01*
X106000721Y-83403063D01*
X106096982Y-83437505D01*
X106189403Y-83481217D01*
X106277094Y-83533778D01*
X106359212Y-83594680D01*
X106434965Y-83663338D01*
X106503623Y-83739091D01*
X106564526Y-83821209D01*
X106617086Y-83908900D01*
X106660798Y-84001322D01*
X106695241Y-84097582D01*
X106720082Y-84196756D01*
X106735083Y-84297886D01*
X106740100Y-84400000D01*
X106735083Y-84502114D01*
X106720082Y-84603244D01*
X106695241Y-84702418D01*
X106660798Y-84798678D01*
X106617086Y-84891100D01*
X106564526Y-84978791D01*
X106503623Y-85060909D01*
X106434965Y-85136662D01*
X106359212Y-85205320D01*
X106277094Y-85266222D01*
X106189403Y-85318783D01*
X106096982Y-85362495D01*
X106000721Y-85396937D01*
X105901548Y-85421779D01*
X105800417Y-85436780D01*
X105698303Y-85441797D01*
X101101697Y-85441797D01*
X100999583Y-85436780D01*
X100898452Y-85421779D01*
X100799279Y-85396937D01*
X100703018Y-85362495D01*
X100610597Y-85318783D01*
X100527801Y-85269156D01*
X101200916Y-85269156D01*
X101467616Y-85269156D01*
X101558103Y-84811956D01*
X101965297Y-84811956D01*
X102055784Y-85269156D01*
X102332009Y-85269156D01*
X102326366Y-85245344D01*
X102486791Y-85245344D01*
X102665980Y-85281063D01*
X102860647Y-85292969D01*
X103058291Y-85272430D01*
X103213072Y-85210816D01*
X103330646Y-85098599D01*
X103416669Y-84926256D01*
X103455695Y-84775179D01*
X103479110Y-84591823D01*
X103486916Y-84376187D01*
X103660747Y-84376187D01*
X103670160Y-84591058D01*
X103698400Y-84777279D01*
X103745467Y-84934851D01*
X103811361Y-85063773D01*
X103896081Y-85164046D01*
X103999629Y-85235670D01*
X104122002Y-85278644D01*
X104263203Y-85292969D01*
X104422152Y-85278086D01*
X104565622Y-85233438D01*
X104565622Y-85014363D01*
X104429891Y-85069727D01*
X104303684Y-85088181D01*
X104187268Y-85068404D01*
X104092018Y-85009071D01*
X104017934Y-84910183D01*
X103965018Y-84771740D01*
X103933268Y-84593741D01*
X103922684Y-84376187D01*
X103932276Y-84174641D01*
X103961049Y-84009740D01*
X104009005Y-83881483D01*
X104076143Y-83789871D01*
X104162463Y-83734904D01*
X104267966Y-83716581D01*
X104322734Y-83726106D01*
X104322734Y-84097581D01*
X104577528Y-84097581D01*
X104577528Y-84007094D01*
X104918047Y-84007094D01*
X105327622Y-83778494D01*
X105332384Y-83780875D01*
X105332384Y-85269156D01*
X105599084Y-85269156D01*
X105599084Y-83530844D01*
X105334766Y-83530844D01*
X104918047Y-83773731D01*
X104918047Y-84007094D01*
X104577528Y-84007094D01*
X104577528Y-83559419D01*
X104425723Y-83520128D01*
X104256059Y-83507031D01*
X104116533Y-83520612D01*
X103995610Y-83561354D01*
X103893291Y-83629256D01*
X103809575Y-83724320D01*
X103744463Y-83846545D01*
X103697954Y-83995932D01*
X103670049Y-84172479D01*
X103660747Y-84376187D01*
X103486916Y-84376187D01*
X103477763Y-84153615D01*
X103450304Y-83966910D01*
X103404539Y-83816073D01*
X103340469Y-83701103D01*
X103222068Y-83593285D01*
X103062127Y-83528595D01*
X102860647Y-83507031D01*
X102673123Y-83518937D01*
X102486791Y-83554656D01*
X102486791Y-85245344D01*
X102326366Y-85245344D01*
X101920053Y-83530844D01*
X101610491Y-83530844D01*
X101200916Y-85269156D01*
X100527801Y-85269156D01*
X100522906Y-85266222D01*
X100440788Y-85205320D01*
X100365035Y-85136662D01*
X100296377Y-85060909D01*
X100235474Y-84978791D01*
X100182914Y-84891100D01*
X100139202Y-84798678D01*
X100104759Y-84702418D01*
X100079918Y-84603244D01*
X100064917Y-84502114D01*
X100059900Y-84400000D01*
X100064917Y-84297886D01*
X100079918Y-84196756D01*
X100104759Y-84097582D01*
X100139202Y-84001322D01*
X100182914Y-83908900D01*
X100235474Y-83821209D01*
X100296377Y-83739091D01*
X100365035Y-83663338D01*
X100440788Y-83594680D01*
X100522906Y-83533778D01*
X100610597Y-83481217D01*
X100703018Y-83437505D01*
X100799279Y-83403063D01*
X100898452Y-83378221D01*
X100999583Y-83363220D01*
X101101697Y-83358203D01*
X105698303Y-83358203D01*
X105800417Y-83363220D01*
G37*
G36*
X103025548Y-83751109D02*
G01*
X103139253Y-83861837D01*
X103188201Y-83984604D01*
X103217570Y-84156054D01*
X103227359Y-84376187D01*
X103217702Y-84619340D01*
X103188730Y-84805871D01*
X103140444Y-84935781D01*
X103027037Y-85050081D01*
X102860647Y-85088181D01*
X102753491Y-85066750D01*
X102753491Y-83735631D01*
X102860647Y-83714200D01*
X103025548Y-83751109D01*
G37*
G36*
X101924816Y-84609550D02*
G01*
X101598584Y-84609550D01*
X101760509Y-83792781D01*
X101762891Y-83792781D01*
X101924816Y-84609550D01*
G37*
D11*
%TO.C,R17*%
X65145276Y-65177500D02*
X65654724Y-65177500D01*
X65145276Y-66222500D02*
X65654724Y-66222500D01*
%TO.C,kibuzzard-6406E44E*%
G36*
X52555469Y-96548563D02*
G01*
X52555469Y-96160419D01*
X52654687Y-96160419D01*
X52660861Y-96246497D01*
X52679382Y-96335397D01*
X52710250Y-96427119D01*
X52857887Y-96427119D01*
X52807881Y-96304088D01*
X52791212Y-96192169D01*
X52808146Y-96100447D01*
X52858946Y-96045413D01*
X52943612Y-96027069D01*
X53032909Y-96041356D01*
X53094425Y-96084219D01*
X53130144Y-96159228D01*
X53142050Y-96269956D01*
X53142050Y-96301706D01*
X53281750Y-96301706D01*
X53281750Y-96269956D01*
X53293855Y-96150894D01*
X53330169Y-96073106D01*
X53393867Y-96030244D01*
X53488125Y-96015956D01*
X53583970Y-96028458D01*
X53652431Y-96065963D01*
X53693508Y-96128470D01*
X53707200Y-96215981D01*
X53690928Y-96333853D01*
X53642113Y-96449344D01*
X53794513Y-96449344D01*
X53832613Y-96324725D01*
X53845313Y-96195344D01*
X53835611Y-96086203D01*
X53806507Y-95996906D01*
X53758000Y-95927453D01*
X53690090Y-95877844D01*
X53602778Y-95848078D01*
X53496063Y-95838156D01*
X53384541Y-95851055D01*
X53299213Y-95889750D01*
X53240078Y-95954242D01*
X53207137Y-96044531D01*
X53205550Y-96044531D01*
X53165168Y-95961188D01*
X53104347Y-95901656D01*
X53023087Y-95865938D01*
X52921387Y-95854031D01*
X52809667Y-95873875D01*
X52725331Y-95933406D01*
X52672348Y-96029847D01*
X52654687Y-96160419D01*
X52555469Y-96160419D01*
X52555469Y-94988844D01*
X52670562Y-94988844D01*
X52670562Y-95165056D01*
X53670688Y-95346031D01*
X53670688Y-95347619D01*
X52670562Y-95528594D01*
X52670562Y-95711156D01*
X53829438Y-95453981D01*
X53829438Y-95247606D01*
X52670562Y-94988844D01*
X52555469Y-94988844D01*
X52555469Y-94572919D01*
X52654687Y-94572919D01*
X52660861Y-94658997D01*
X52679382Y-94747897D01*
X52710250Y-94839619D01*
X52857887Y-94839619D01*
X52807881Y-94716587D01*
X52791212Y-94604669D01*
X52808146Y-94512947D01*
X52858946Y-94457913D01*
X52943612Y-94439569D01*
X53032909Y-94453856D01*
X53094425Y-94496719D01*
X53130144Y-94571728D01*
X53142050Y-94682456D01*
X53142050Y-94714206D01*
X53281750Y-94714206D01*
X53281750Y-94682456D01*
X53293855Y-94563394D01*
X53330169Y-94485606D01*
X53393867Y-94442744D01*
X53488125Y-94428456D01*
X53583970Y-94440958D01*
X53652431Y-94478462D01*
X53693508Y-94540970D01*
X53707200Y-94628481D01*
X53690928Y-94746353D01*
X53642113Y-94861844D01*
X53794513Y-94861844D01*
X53832613Y-94737225D01*
X53845313Y-94607844D01*
X53835611Y-94498703D01*
X53806507Y-94409406D01*
X53758000Y-94339953D01*
X53690090Y-94290344D01*
X53602778Y-94260578D01*
X53496063Y-94250656D01*
X53384541Y-94263555D01*
X53299213Y-94302250D01*
X53240078Y-94366742D01*
X53207137Y-94457031D01*
X53205550Y-94457031D01*
X53165168Y-94373687D01*
X53104347Y-94314156D01*
X53023087Y-94278437D01*
X52921387Y-94266531D01*
X52809667Y-94286375D01*
X52725331Y-94345906D01*
X52672348Y-94442347D01*
X52654687Y-94572919D01*
X52555469Y-94572919D01*
X52555469Y-94151437D01*
X53944531Y-94151437D01*
X53944531Y-96548563D01*
X52555469Y-96548563D01*
G37*
%TO.C,Q1*%
X129385000Y-73905000D02*
X130035000Y-73905000D01*
X129385000Y-77025000D02*
X128735000Y-77025000D01*
X129385000Y-73905000D02*
X128735000Y-73905000D01*
X129385000Y-77025000D02*
X131060000Y-77025000D01*
D14*
%TO.C,SW2*%
X78400000Y-85900000D02*
X81000000Y-85900000D01*
X82300000Y-85900000D02*
X82300000Y-91100000D01*
D13*
X81600000Y-84500000D02*
X81600000Y-84500000D01*
D14*
X78400000Y-91100000D02*
X81000000Y-91100000D01*
X82300000Y-91100000D02*
X82100000Y-91100000D01*
D13*
X81600000Y-84700000D02*
X81600000Y-84700000D01*
D14*
X77300000Y-85900000D02*
X77100000Y-85900000D01*
X77100000Y-85900000D02*
X77100000Y-91100000D01*
X77100000Y-91100000D02*
X77300000Y-91100000D01*
X82100000Y-85900000D02*
X82300000Y-85900000D01*
D13*
X81600000Y-84700000D02*
G75*
G03*
X81600000Y-84500000I0J100000D01*
G01*
X81600000Y-84500000D02*
G75*
G03*
X81600000Y-84700000I0J-100000D01*
G01*
D14*
%TO.C,SW3*%
X59350000Y-60050000D02*
X59350000Y-62650000D01*
X59350000Y-58750000D02*
X54150000Y-58750000D01*
D13*
X60550000Y-63250000D02*
X60550000Y-63250000D01*
D14*
X54150000Y-63950000D02*
X54150000Y-63750000D01*
X59350000Y-63950000D02*
X54150000Y-63950000D01*
D13*
X60750000Y-63250000D02*
X60750000Y-63250000D01*
D14*
X59350000Y-63750000D02*
X59350000Y-63950000D01*
X59350000Y-58950000D02*
X59350000Y-58750000D01*
X54150000Y-60050000D02*
X54150000Y-62650000D01*
X54150000Y-58750000D02*
X54150000Y-58950000D01*
D13*
X60550000Y-63250000D02*
G75*
G03*
X60750000Y-63250000I100000J0D01*
G01*
X60750000Y-63250000D02*
G75*
G03*
X60550000Y-63250000I-100000J0D01*
G01*
D11*
%TO.C,C4*%
X86010000Y-99984420D02*
X86010000Y-100265580D01*
X84990000Y-99984420D02*
X84990000Y-100265580D01*
%TO.C,R26*%
X90746359Y-67520000D02*
X91053641Y-67520000D01*
X90746359Y-68280000D02*
X91053641Y-68280000D01*
%TO.C,R11*%
X118697258Y-90887500D02*
X118222742Y-90887500D01*
X118697258Y-89842500D02*
X118222742Y-89842500D01*
%TO.C,R24*%
X90746359Y-63180000D02*
X91053641Y-63180000D01*
X90746359Y-62420000D02*
X91053641Y-62420000D01*
%TO.C,C14*%
X92350580Y-89445000D02*
X92069420Y-89445000D01*
X92350580Y-88425000D02*
X92069420Y-88425000D01*
%TO.C,R36*%
X86054724Y-82472500D02*
X85545276Y-82472500D01*
X86054724Y-81427500D02*
X85545276Y-81427500D01*
%TO.C,D2*%
X52565000Y-91850000D02*
X52565000Y-94135000D01*
X52565000Y-94135000D02*
X54035000Y-94135000D01*
X54035000Y-94135000D02*
X54035000Y-91850000D01*
%TO.C,TP3*%
X107500000Y-92200000D02*
X107500000Y-94100000D01*
X105600000Y-92200000D02*
X107500000Y-92200000D01*
X105600000Y-94100000D02*
X105600000Y-92200000D01*
X107500000Y-94100000D02*
X105600000Y-94100000D01*
%TO.C,C11*%
X101194420Y-100370000D02*
X101475580Y-100370000D01*
X101194420Y-99350000D02*
X101475580Y-99350000D01*
%TD*%
%LPC*%
D10*
X73775000Y-78250000D02*
X74400000Y-78250000D01*
X74400000Y-78250000D02*
X74400000Y-78675000D01*
X74400000Y-78675000D02*
X73775000Y-78675000D01*
X73775000Y-78675000D02*
X73775000Y-78250000D01*
G36*
X73775000Y-78250000D02*
G01*
X74400000Y-78250000D01*
X74400000Y-78675000D01*
X73775000Y-78675000D01*
X73775000Y-78250000D01*
G37*
X69900000Y-78275000D02*
X72050000Y-78275000D01*
X72050000Y-78275000D02*
X72050000Y-78950000D01*
X72050000Y-78950000D02*
X69900000Y-78950000D01*
X69900000Y-78950000D02*
X69900000Y-78275000D01*
G36*
X69900000Y-78275000D02*
G01*
X72050000Y-78275000D01*
X72050000Y-78950000D01*
X69900000Y-78950000D01*
X69900000Y-78275000D01*
G37*
X79675000Y-78750000D02*
X76200000Y-78750000D01*
X76200000Y-78750000D02*
X76200000Y-78200000D01*
X76200000Y-78200000D02*
X79675000Y-78200000D01*
X79675000Y-78200000D02*
X79675000Y-78750000D01*
G36*
X79675000Y-78750000D02*
G01*
X76200000Y-78750000D01*
X76200000Y-78200000D01*
X79675000Y-78200000D01*
X79675000Y-78750000D01*
G37*
X66225000Y-70100000D02*
X67050000Y-70100000D01*
X67050000Y-70100000D02*
X67050000Y-72525000D01*
X67050000Y-72525000D02*
X66225000Y-72525000D01*
X66225000Y-72525000D02*
X66225000Y-70100000D01*
G36*
X66225000Y-70100000D02*
G01*
X67050000Y-70100000D01*
X67050000Y-72525000D01*
X66225000Y-72525000D01*
X66225000Y-70100000D01*
G37*
X89225000Y-68850000D02*
X88125000Y-68850000D01*
X88125000Y-68850000D02*
X88125000Y-74750000D01*
X88125000Y-74750000D02*
X89225000Y-74750000D01*
X89225000Y-74750000D02*
X89225000Y-68850000D01*
G36*
X89225000Y-68850000D02*
G01*
X88125000Y-68850000D01*
X88125000Y-74750000D01*
X89225000Y-74750000D01*
X89225000Y-68850000D01*
G37*
D15*
%TO.C,R37*%
X86712500Y-80410000D03*
X84887500Y-80410000D03*
%TD*%
D16*
%TO.C,C29*%
X77925000Y-93900000D03*
X79475000Y-93900000D03*
%TD*%
D17*
%TO.C,R28*%
X89220000Y-66600000D03*
X88200000Y-66600000D03*
%TD*%
D18*
%TO.C,R8*%
X118185000Y-76790000D03*
X118185000Y-75140000D03*
%TD*%
D19*
%TO.C,C7*%
X80750000Y-98000000D03*
X80750000Y-99900000D03*
%TD*%
D15*
%TO.C,R15*%
X79612500Y-95500000D03*
X77787500Y-95500000D03*
%TD*%
D20*
%TO.C,C13*%
X108110000Y-86435000D03*
X108110000Y-87985000D03*
%TD*%
D21*
%TO.C,U12*%
X122710000Y-86715000D03*
X121760000Y-86715000D03*
X120810000Y-86715000D03*
X120810000Y-89415000D03*
X122710000Y-89415000D03*
%TD*%
D22*
%TO.C,D1*%
X54850000Y-93437500D03*
X54850000Y-91862500D03*
%TD*%
D23*
%TO.C,U10*%
X116835000Y-78415000D03*
X116835000Y-79365000D03*
X116835000Y-80315000D03*
X119535000Y-80315000D03*
X119535000Y-78415000D03*
%TD*%
D24*
%TO.C,U1*%
X63800000Y-91450000D03*
D25*
X61500000Y-97750000D03*
D24*
X61500000Y-91450000D03*
X59200000Y-91450000D03*
%TD*%
D26*
%TO.C,R10*%
X126485000Y-74740000D03*
X126485000Y-76390000D03*
%TD*%
D27*
%TO.C,R16*%
X64487500Y-67190000D03*
X66312500Y-67190000D03*
%TD*%
D28*
%TO.C,TP6*%
X115460000Y-89765000D03*
%TD*%
D27*
%TO.C,R18*%
X64487500Y-62700000D03*
X66312500Y-62700000D03*
%TD*%
D23*
%TO.C,U11*%
X124335000Y-76615000D03*
X124335000Y-75665000D03*
X124335000Y-74715000D03*
X121635000Y-74715000D03*
X121635000Y-76615000D03*
%TD*%
D29*
%TO.C,U2*%
X63550000Y-75975000D03*
X64500000Y-75975000D03*
X65450000Y-75975000D03*
X65450000Y-73700000D03*
X64500000Y-73700000D03*
X63550000Y-73700000D03*
%TD*%
D30*
%TO.C,R12*%
X119285000Y-87365000D03*
X117635000Y-87365000D03*
%TD*%
D28*
%TO.C,TP7*%
X125200000Y-87150000D03*
%TD*%
D22*
%TO.C,L1*%
X87050000Y-99012500D03*
X87050000Y-97437500D03*
%TD*%
D31*
%TO.C,D3*%
X77287500Y-79950000D03*
X75712500Y-79950000D03*
%TD*%
D32*
%TO.C,R23*%
X90390000Y-61600000D03*
X91410000Y-61600000D03*
%TD*%
D19*
%TO.C,C33*%
X92500000Y-57100000D03*
X92500000Y-59000000D03*
%TD*%
D32*
%TO.C,R22*%
X90390000Y-60300000D03*
X91410000Y-60300000D03*
%TD*%
D26*
%TO.C,R33*%
X54870000Y-88775000D03*
X54870000Y-90425000D03*
%TD*%
D28*
%TO.C,TP4*%
X97310000Y-87310000D03*
%TD*%
D33*
%TO.C,R35*%
X72625000Y-79950000D03*
X74275000Y-79950000D03*
%TD*%
D20*
%TO.C,C16*%
X103960000Y-98385000D03*
X103960000Y-99935000D03*
%TD*%
D17*
%TO.C,R27*%
X89220000Y-65400000D03*
X88200000Y-65400000D03*
%TD*%
D26*
%TO.C,R34*%
X53310000Y-88775000D03*
X53310000Y-90425000D03*
%TD*%
D34*
%TO.C,C31*%
X64400000Y-60750000D03*
X64400000Y-58850000D03*
%TD*%
D35*
%TO.C,C23*%
X122800000Y-73075000D03*
X122800000Y-71525000D03*
%TD*%
D36*
%TO.C,C35*%
X53700000Y-67812500D03*
X53700000Y-66087500D03*
%TD*%
D28*
%TO.C,TP1*%
X61500000Y-100750000D03*
%TD*%
%TO.C,TP5*%
X112985000Y-75265000D03*
%TD*%
D20*
%TO.C,C9*%
X98510000Y-92435000D03*
X98510000Y-93985000D03*
%TD*%
%TO.C,C25*%
X119785000Y-75190000D03*
X119785000Y-76740000D03*
%TD*%
D30*
%TO.C,R13*%
X119285000Y-85865000D03*
X117635000Y-85865000D03*
%TD*%
D32*
%TO.C,R25*%
X90390000Y-64100000D03*
X91410000Y-64100000D03*
%TD*%
D37*
%TO.C,C24*%
X122860000Y-78365000D03*
X121310000Y-78365000D03*
%TD*%
D17*
%TO.C,R32*%
X89220000Y-64100000D03*
X88200000Y-64100000D03*
%TD*%
D38*
%TO.C,J3*%
X91400000Y-73550000D03*
D39*
X93940000Y-73550000D03*
D40*
X96480000Y-73550000D03*
X99020000Y-73550000D03*
D39*
X101560000Y-73550000D03*
D40*
X104100000Y-73550000D03*
%TD*%
D28*
%TO.C,TP9*%
X110300000Y-67800000D03*
%TD*%
D41*
%TO.C,R39*%
X63500000Y-69037500D03*
X63500000Y-70862500D03*
%TD*%
D31*
%TO.C,L2*%
X78987500Y-97950000D03*
X77412500Y-97950000D03*
%TD*%
D19*
%TO.C,C6*%
X85250000Y-95925000D03*
X85250000Y-97825000D03*
%TD*%
D35*
%TO.C,C19*%
X88050000Y-93685000D03*
X88050000Y-92135000D03*
%TD*%
D20*
%TO.C,C10*%
X96910000Y-92435000D03*
X96910000Y-93985000D03*
%TD*%
D34*
%TO.C,C3*%
X88850000Y-100775000D03*
X88850000Y-98875000D03*
%TD*%
D18*
%TO.C,R9*%
X114400000Y-81925000D03*
X114400000Y-80275000D03*
%TD*%
D19*
%TO.C,C8*%
X75650000Y-98000000D03*
X75650000Y-99900000D03*
%TD*%
D42*
%TO.C,H3*%
X131000000Y-101000000D03*
D43*
X131000000Y-101000000D03*
%TD*%
D34*
%TO.C,C32*%
X66400000Y-60750000D03*
X66400000Y-58850000D03*
%TD*%
D33*
%TO.C,RG2*%
X115060000Y-75200000D03*
X116710000Y-75200000D03*
%TD*%
D37*
%TO.C,C27*%
X119235000Y-88865000D03*
X117685000Y-88865000D03*
%TD*%
D26*
%TO.C,R6*%
X121250000Y-71475000D03*
X121250000Y-73125000D03*
%TD*%
D17*
%TO.C,R30*%
X89220000Y-61590000D03*
X88200000Y-61590000D03*
%TD*%
D20*
%TO.C,C15*%
X105725000Y-76400000D03*
X105725000Y-77950000D03*
%TD*%
D44*
%TO.C,J1*%
X60300000Y-71300000D03*
X60300000Y-73800000D03*
X60300000Y-75800000D03*
D45*
X60300000Y-78300000D03*
D46*
X57900000Y-68230000D03*
X57900000Y-81370000D03*
%TD*%
D47*
%TO.C,U14*%
X77200000Y-65380000D03*
X77200000Y-66780000D03*
X74400000Y-68180000D03*
X74400000Y-66780000D03*
X75800000Y-68180000D03*
X74400000Y-65380000D03*
X77200000Y-68180000D03*
X75800000Y-66780000D03*
X75800000Y-65380000D03*
D48*
X86050000Y-59060000D03*
X86050000Y-60330000D03*
X86050000Y-61600000D03*
X86050000Y-62870000D03*
X86050000Y-64140000D03*
X86050000Y-65410000D03*
X86050000Y-66680000D03*
X86050000Y-67950000D03*
X86050000Y-69220000D03*
X86050000Y-70490000D03*
X86050000Y-71760000D03*
X86050000Y-73030000D03*
X86050000Y-74300000D03*
X86050000Y-75570000D03*
D49*
X84285000Y-76820000D03*
X83015000Y-76820000D03*
X81745000Y-76820000D03*
X80475000Y-76820000D03*
X79205000Y-76820000D03*
X77935000Y-76820000D03*
X76665000Y-76820000D03*
X75395000Y-76820000D03*
X74125000Y-76820000D03*
X72855000Y-76820000D03*
X71585000Y-76820000D03*
X70315000Y-76820000D03*
D48*
X68550000Y-75570000D03*
X68550000Y-74300000D03*
X68550000Y-73030000D03*
X68550000Y-71760000D03*
X68550000Y-70490000D03*
X68550000Y-69220000D03*
X68550000Y-67950000D03*
X68550000Y-66680000D03*
X68550000Y-65410000D03*
X68550000Y-64140000D03*
X68550000Y-62870000D03*
X68550000Y-61600000D03*
X68550000Y-60330000D03*
X68550000Y-59060000D03*
%TD*%
D21*
%TO.C,U6*%
X91360000Y-93585000D03*
X92310000Y-93585000D03*
X93260000Y-93585000D03*
X93260000Y-90885000D03*
X91360000Y-90885000D03*
%TD*%
D18*
%TO.C,R7*%
X124350000Y-73125000D03*
X124350000Y-71475000D03*
%TD*%
D16*
%TO.C,C21*%
X108510000Y-76765000D03*
X110060000Y-76765000D03*
%TD*%
D26*
%TO.C,R3*%
X105460000Y-95235000D03*
X105460000Y-96885000D03*
%TD*%
D34*
%TO.C,C2*%
X66600000Y-97700000D03*
X66600000Y-95800000D03*
%TD*%
D50*
%TO.C,U13*%
X115897500Y-87615000D03*
X115897500Y-85715000D03*
X114022500Y-86665000D03*
%TD*%
D51*
%TO.C,J4*%
X97295000Y-58850000D03*
X98395000Y-58850000D03*
X99495000Y-58850000D03*
X100595000Y-58850000D03*
X101695000Y-58850000D03*
X102795000Y-58850000D03*
X103895000Y-58850000D03*
D52*
X104945000Y-58850000D03*
D53*
X94660000Y-65000000D03*
X94660000Y-68700000D03*
D54*
X98160000Y-69675000D03*
D55*
X106155000Y-59200000D03*
D56*
X94835000Y-58975000D03*
D54*
X104130000Y-69675000D03*
%TD*%
D20*
%TO.C,C17*%
X103960000Y-95310000D03*
X103960000Y-96860000D03*
%TD*%
D18*
%TO.C,R4*%
X89610000Y-93735000D03*
X89610000Y-92085000D03*
%TD*%
D17*
%TO.C,R29*%
X89220000Y-60300000D03*
X88200000Y-60300000D03*
%TD*%
D28*
%TO.C,TP8*%
X66250000Y-88100000D03*
%TD*%
D35*
%TO.C,C5*%
X88650000Y-97325000D03*
X88650000Y-95775000D03*
%TD*%
D31*
%TO.C,D4*%
X66687500Y-82000000D03*
X65112500Y-82000000D03*
%TD*%
D57*
%TO.C,U8*%
X112690000Y-78790000D03*
X111420000Y-78790000D03*
X110150000Y-78790000D03*
X108880000Y-78790000D03*
X108880000Y-83740000D03*
X110150000Y-83740000D03*
X111420000Y-83740000D03*
X112690000Y-83740000D03*
%TD*%
D28*
%TO.C,TP2*%
X88885000Y-89715000D03*
%TD*%
D58*
%TO.C,JP2*%
X119900000Y-82500000D03*
D59*
X118600000Y-82500000D03*
D60*
X117300000Y-82500000D03*
%TD*%
D27*
%TO.C,R14*%
X71387500Y-95350000D03*
X73212500Y-95350000D03*
%TD*%
D21*
%TO.C,U4*%
X102210000Y-95210000D03*
X101260000Y-95210000D03*
X100310000Y-95210000D03*
X100310000Y-97910000D03*
X102210000Y-97910000D03*
%TD*%
D27*
%TO.C,R19*%
X64487500Y-64200000D03*
X66312500Y-64200000D03*
%TD*%
D61*
%TO.C,C20*%
X110135000Y-74965000D03*
X108235000Y-74965000D03*
%TD*%
D43*
%TO.C,H2*%
X131000000Y-54000000D03*
D42*
X131000000Y-54000000D03*
%TD*%
D62*
%TO.C,C1*%
X59150000Y-88950000D03*
X61050000Y-88950000D03*
%TD*%
D30*
%TO.C,R38*%
X66725000Y-79950000D03*
X65075000Y-79950000D03*
%TD*%
D33*
%TO.C,RG1*%
X115060000Y-73650000D03*
X116710000Y-73650000D03*
%TD*%
D17*
%TO.C,R31*%
X89220000Y-62800000D03*
X88200000Y-62800000D03*
%TD*%
D18*
%TO.C,R5*%
X132185000Y-77090000D03*
X132185000Y-75440000D03*
%TD*%
D43*
%TO.C,H4*%
X54000000Y-101000000D03*
D42*
X54000000Y-101000000D03*
%TD*%
D26*
%TO.C,R2*%
X94910000Y-88910000D03*
X94910000Y-90560000D03*
%TD*%
D16*
%TO.C,C18*%
X93235000Y-87335000D03*
X94785000Y-87335000D03*
%TD*%
D63*
%TO.C,FB1*%
X57112500Y-87050000D03*
X54987500Y-87050000D03*
%TD*%
D18*
%TO.C,R1*%
X105460000Y-99985000D03*
X105460000Y-98335000D03*
%TD*%
D32*
%TO.C,R20*%
X90390000Y-65400000D03*
X91410000Y-65400000D03*
%TD*%
D64*
%TO.C,U5*%
X106085000Y-90715000D03*
X106085000Y-89445000D03*
X106085000Y-88175000D03*
X106085000Y-86905000D03*
X101135000Y-86905000D03*
X101135000Y-88175000D03*
X101135000Y-89445000D03*
X101135000Y-90715000D03*
%TD*%
D34*
%TO.C,C12*%
X109910000Y-87960000D03*
X109910000Y-86060000D03*
%TD*%
D65*
%TO.C,C28*%
X71437500Y-93800000D03*
X73162500Y-93800000D03*
%TD*%
D16*
%TO.C,C22*%
X115110000Y-76750000D03*
X116660000Y-76750000D03*
%TD*%
%TO.C,C26*%
X121685000Y-91265000D03*
X123235000Y-91265000D03*
%TD*%
D32*
%TO.C,R21*%
X90390000Y-66600000D03*
X91410000Y-66600000D03*
%TD*%
D28*
%TO.C,TP10*%
X121250000Y-97200000D03*
%TD*%
D66*
%TO.C,SW1*%
X74250000Y-91450000D03*
X74250000Y-85450000D03*
X70550000Y-85450000D03*
X70550000Y-91450000D03*
%TD*%
D43*
%TO.C,H1*%
X54000000Y-54000000D03*
D42*
X54000000Y-54000000D03*
%TD*%
D27*
%TO.C,R17*%
X64487500Y-65700000D03*
X66312500Y-65700000D03*
%TD*%
D50*
%TO.C,Q1*%
X130322500Y-76415000D03*
X130322500Y-74515000D03*
X128447500Y-75465000D03*
%TD*%
D66*
%TO.C,SW2*%
X81550000Y-85500000D03*
X81550000Y-91500000D03*
X77850000Y-91500000D03*
X77850000Y-85500000D03*
%TD*%
D67*
%TO.C,SW3*%
X59750000Y-63200000D03*
X53750000Y-63200000D03*
X59750000Y-59500000D03*
X53750000Y-59500000D03*
%TD*%
D20*
%TO.C,C4*%
X85500000Y-99350000D03*
X85500000Y-100900000D03*
%TD*%
D32*
%TO.C,R26*%
X90390000Y-67900000D03*
X91410000Y-67900000D03*
%TD*%
D30*
%TO.C,R11*%
X119285000Y-90365000D03*
X117635000Y-90365000D03*
%TD*%
D32*
%TO.C,R24*%
X90390000Y-62800000D03*
X91410000Y-62800000D03*
%TD*%
D37*
%TO.C,C14*%
X92985000Y-88935000D03*
X91435000Y-88935000D03*
%TD*%
D15*
%TO.C,R36*%
X86712500Y-81950000D03*
X84887500Y-81950000D03*
%TD*%
D22*
%TO.C,D2*%
X53300000Y-93437500D03*
X53300000Y-91862500D03*
%TD*%
D28*
%TO.C,TP3*%
X106550000Y-93150000D03*
%TD*%
D16*
%TO.C,C11*%
X100560000Y-99860000D03*
X102110000Y-99860000D03*
%TD*%
D68*
%TO.C,U9*%
X127557971Y-79937971D03*
X127557971Y-70392029D03*
X118012029Y-70392029D03*
%TD*%
D38*
%TO.C,J2*%
X92425000Y-81125000D03*
D40*
X89885000Y-81125000D03*
D39*
X92425000Y-83665000D03*
D40*
X89885000Y-83665000D03*
%TD*%
D69*
%TO.C,U3*%
X97785000Y-90420000D03*
D70*
X100325000Y-92960000D03*
X97785000Y-95500000D03*
X95245000Y-92960000D03*
%TD*%
M02*
