%TF.GenerationSoftware,KiCad,Pcbnew,(6.0.9)*%
%TF.CreationDate,2023-03-08T15:18:45+02:00*%
%TF.ProjectId,GMWPY,474d5750-592e-46b6-9963-61645f706362,rev?*%
%TF.SameCoordinates,Original*%
%TF.FileFunction,Soldermask,Top*%
%TF.FilePolarity,Negative*%
%FSLAX46Y46*%
G04 Gerber Fmt 4.6, Leading zero omitted, Abs format (unit mm)*
G04 Created by KiCad (PCBNEW (6.0.9)) date 2023-03-08 15:18:45*
%MOMM*%
%LPD*%
G01*
G04 APERTURE LIST*
G04 Aperture macros list*
%AMRoundRect*
0 Rectangle with rounded corners*
0 $1 Rounding radius*
0 $2 $3 $4 $5 $6 $7 $8 $9 X,Y pos of 4 corners*
0 Add a 4 corners polygon primitive as box body*
4,1,4,$2,$3,$4,$5,$6,$7,$8,$9,$2,$3,0*
0 Add four circle primitives for the rounded corners*
1,1,$1+$1,$2,$3*
1,1,$1+$1,$4,$5*
1,1,$1+$1,$6,$7*
1,1,$1+$1,$8,$9*
0 Add four rect primitives between the rounded corners*
20,1,$1+$1,$2,$3,$4,$5,0*
20,1,$1+$1,$4,$5,$6,$7,0*
20,1,$1+$1,$6,$7,$8,$9,0*
20,1,$1+$1,$8,$9,$2,$3,0*%
%AMFreePoly0*
4,1,22,0.500000,-0.700000,0.012584,-0.700000,0.000916,-0.695041,-0.071867,-0.693707,-0.193510,-0.655704,-0.299600,-0.585084,-0.381604,-0.487528,-0.432932,-0.370876,-0.449586,-0.243517,-0.450000,-0.242798,-0.450000,0.247982,-0.449164,0.250000,-0.449502,0.255197,-0.429848,0.381420,-0.375688,0.496779,-0.291323,0.592304,-0.183541,0.660310,-0.061003,0.695331,-0.000306,0.694960,0.012075,0.700000,
0.500000,0.700000,0.500000,-0.700000,0.500000,-0.700000,$1*%
%AMFreePoly1*
4,1,20,-0.000305,0.694960,0.066438,0.694553,0.188542,0.658036,0.295483,0.588720,0.378674,0.492172,0.431423,0.376157,0.450000,0.246438,0.450000,-0.249718,0.449902,-0.257736,0.428212,-0.386659,0.372645,-0.501350,0.287118,-0.595839,0.178514,-0.662521,0.055560,-0.696043,0.000916,-0.695041,-0.011705,-0.700000,-0.500000,-0.700000,-0.500000,0.700000,-0.012368,0.700000,-0.000305,0.694960,
-0.000305,0.694960,$1*%
G04 Aperture macros list end*
%ADD10R,0.900000X0.600000*%
%ADD11RoundRect,0.187500X-0.237500X0.250000X-0.237500X-0.250000X0.237500X-0.250000X0.237500X0.250000X0*%
%ADD12RoundRect,0.187500X0.237500X-0.300000X0.237500X0.300000X-0.237500X0.300000X-0.237500X-0.300000X0*%
%ADD13RoundRect,0.187500X0.250000X0.237500X-0.250000X0.237500X-0.250000X-0.237500X0.250000X-0.237500X0*%
%ADD14RoundRect,0.175000X-0.225000X-0.250000X0.225000X-0.250000X0.225000X0.250000X-0.225000X0.250000X0*%
%ADD15RoundRect,0.085000X0.135000X0.185000X-0.135000X0.185000X-0.135000X-0.185000X0.135000X-0.185000X0*%
%ADD16RoundRect,0.150000X0.275000X-0.200000X0.275000X0.200000X-0.275000X0.200000X-0.275000X-0.200000X0*%
%ADD17RoundRect,0.200000X-0.475000X0.250000X-0.475000X-0.250000X0.475000X-0.250000X0.475000X0.250000X0*%
%ADD18RoundRect,0.175000X-0.250000X0.225000X-0.250000X-0.225000X0.250000X-0.225000X0.250000X0.225000X0*%
%ADD19R,0.550000X1.460000*%
%ADD20RoundRect,0.168750X0.256250X-0.218750X0.256250X0.218750X-0.256250X0.218750X-0.256250X-0.218750X0*%
%ADD21R,1.460000X0.550000*%
%ADD22R,1.400000X1.900000*%
%ADD23R,3.700000X1.900000*%
%ADD24RoundRect,0.150000X-0.275000X0.200000X-0.275000X-0.200000X0.275000X-0.200000X0.275000X0.200000X0*%
%ADD25RoundRect,0.187500X-0.250000X-0.237500X0.250000X-0.237500X0.250000X0.237500X-0.250000X0.237500X0*%
%ADD26R,1.400000X1.400000*%
%ADD27RoundRect,0.100000X0.150000X-0.512500X0.150000X0.512500X-0.150000X0.512500X-0.150000X-0.512500X0*%
%ADD28RoundRect,0.150000X0.200000X0.275000X-0.200000X0.275000X-0.200000X-0.275000X0.200000X-0.275000X0*%
%ADD29RoundRect,0.168750X0.218750X0.256250X-0.218750X0.256250X-0.218750X-0.256250X0.218750X-0.256250X0*%
%ADD30RoundRect,0.085000X-0.135000X-0.185000X0.135000X-0.185000X0.135000X0.185000X-0.135000X0.185000X0*%
%ADD31RoundRect,0.150000X-0.200000X-0.275000X0.200000X-0.275000X0.200000X0.275000X-0.200000X0.275000X0*%
%ADD32RoundRect,0.200000X0.475000X-0.250000X0.475000X0.250000X-0.475000X0.250000X-0.475000X-0.250000X0*%
%ADD33RoundRect,0.175000X0.250000X-0.225000X0.250000X0.225000X-0.250000X0.225000X-0.250000X-0.225000X0*%
%ADD34RoundRect,0.175000X0.225000X0.250000X-0.225000X0.250000X-0.225000X-0.250000X0.225000X-0.250000X0*%
%ADD35R,1.600000X1.600000*%
%ADD36O,1.600000X1.600000*%
%ADD37C,3.500000*%
%ADD38C,5.500000*%
%ADD39C,1.300000*%
%ADD40C,3.350000*%
%ADD41R,1.400000X0.800000*%
%ADD42R,0.800000X1.400000*%
%ADD43R,0.800000X0.800000*%
%ADD44RoundRect,0.100000X0.587500X0.150000X-0.587500X0.150000X-0.587500X-0.150000X0.587500X-0.150000X0*%
%ADD45R,0.750000X1.000000*%
%ADD46R,0.650000X1.000000*%
%ADD47R,1.100000X0.900000*%
%ADD48R,1.800000X1.250000*%
%ADD49R,1.070000X1.700000*%
%ADD50R,1.450000X1.250000*%
%ADD51RoundRect,0.100000X-0.150000X0.825000X-0.150000X-0.825000X0.150000X-0.825000X0.150000X0.825000X0*%
%ADD52FreePoly0,180.000000*%
%ADD53R,0.900000X1.400000*%
%ADD54FreePoly1,180.000000*%
%ADD55RoundRect,0.200000X0.250000X0.475000X-0.250000X0.475000X-0.250000X-0.475000X0.250000X-0.475000X0*%
%ADD56RoundRect,0.200000X-0.250000X-0.475000X0.250000X-0.475000X0.250000X0.475000X-0.250000X0.475000X0*%
%ADD57RoundRect,0.168750X0.218750X0.381250X-0.218750X0.381250X-0.218750X-0.381250X0.218750X-0.381250X0*%
%ADD58RoundRect,0.100000X0.825000X0.150000X-0.825000X0.150000X-0.825000X-0.150000X0.825000X-0.150000X0*%
%ADD59RoundRect,0.187500X-0.300000X-0.237500X0.300000X-0.237500X0.300000X0.237500X-0.300000X0.237500X0*%
%ADD60R,0.600000X0.900000*%
%ADD61C,3.900000*%
%ADD62O,1.100000X1.900000*%
%ADD63O,1.100000X1.100000*%
G04 APERTURE END LIST*
D10*
%TO.C,SW3*%
X53750000Y-63200000D03*
X59750000Y-63200000D03*
X59750000Y-59500000D03*
X53750000Y-59500000D03*
%TD*%
D11*
%TO.C,R39*%
X63500000Y-70862500D03*
X63500000Y-69037500D03*
%TD*%
D12*
%TO.C,C35*%
X53700000Y-67812500D03*
X53700000Y-66087500D03*
%TD*%
D13*
%TO.C,R37*%
X86712500Y-80410000D03*
X84887500Y-80410000D03*
%TD*%
D14*
%TO.C,C29*%
X77925000Y-93900000D03*
X79475000Y-93900000D03*
%TD*%
D15*
%TO.C,R28*%
X89220000Y-66600000D03*
X88200000Y-66600000D03*
%TD*%
D16*
%TO.C,R8*%
X118185000Y-76790000D03*
X118185000Y-75140000D03*
%TD*%
D17*
%TO.C,C7*%
X80750000Y-98000000D03*
X80750000Y-99900000D03*
%TD*%
D13*
%TO.C,R15*%
X79612500Y-95500000D03*
X77787500Y-95500000D03*
%TD*%
D18*
%TO.C,C13*%
X108110000Y-86435000D03*
X108110000Y-87985000D03*
%TD*%
D19*
%TO.C,U12*%
X122710000Y-86715000D03*
X121760000Y-86715000D03*
X120810000Y-86715000D03*
X120810000Y-89415000D03*
X122710000Y-89415000D03*
%TD*%
D20*
%TO.C,D1*%
X54850000Y-93437500D03*
X54850000Y-91862500D03*
%TD*%
D21*
%TO.C,U10*%
X116835000Y-78415000D03*
X116835000Y-79365000D03*
X116835000Y-80315000D03*
X119535000Y-80315000D03*
X119535000Y-78415000D03*
%TD*%
D22*
%TO.C,U1*%
X63800000Y-91450000D03*
D23*
X61500000Y-97750000D03*
D22*
X61500000Y-91450000D03*
X59200000Y-91450000D03*
%TD*%
D24*
%TO.C,R10*%
X126485000Y-74740000D03*
X126485000Y-76390000D03*
%TD*%
D25*
%TO.C,R16*%
X64487500Y-67190000D03*
X66312500Y-67190000D03*
%TD*%
D26*
%TO.C,TP6*%
X115460000Y-89765000D03*
%TD*%
D25*
%TO.C,R18*%
X64487500Y-62700000D03*
X66312500Y-62700000D03*
%TD*%
D21*
%TO.C,U11*%
X124335000Y-76615000D03*
X124335000Y-75665000D03*
X124335000Y-74715000D03*
X121635000Y-74715000D03*
X121635000Y-76615000D03*
%TD*%
D27*
%TO.C,U2*%
X63550000Y-75975000D03*
X64500000Y-75975000D03*
X65450000Y-75975000D03*
X65450000Y-73700000D03*
X64500000Y-73700000D03*
X63550000Y-73700000D03*
%TD*%
D28*
%TO.C,R12*%
X119285000Y-87365000D03*
X117635000Y-87365000D03*
%TD*%
D26*
%TO.C,TP7*%
X125200000Y-87150000D03*
%TD*%
D20*
%TO.C,L1*%
X87050000Y-99012500D03*
X87050000Y-97437500D03*
%TD*%
D29*
%TO.C,D3*%
X77287500Y-79950000D03*
X75712500Y-79950000D03*
%TD*%
D30*
%TO.C,R23*%
X90390000Y-61600000D03*
X91410000Y-61600000D03*
%TD*%
D17*
%TO.C,C33*%
X92500000Y-57100000D03*
X92500000Y-59000000D03*
%TD*%
D30*
%TO.C,R22*%
X90390000Y-60300000D03*
X91410000Y-60300000D03*
%TD*%
D24*
%TO.C,R33*%
X54870000Y-88775000D03*
X54870000Y-90425000D03*
%TD*%
D26*
%TO.C,TP4*%
X97310000Y-87310000D03*
%TD*%
D31*
%TO.C,R35*%
X72625000Y-79950000D03*
X74275000Y-79950000D03*
%TD*%
D18*
%TO.C,C16*%
X103960000Y-98385000D03*
X103960000Y-99935000D03*
%TD*%
D15*
%TO.C,R27*%
X89220000Y-65400000D03*
X88200000Y-65400000D03*
%TD*%
D24*
%TO.C,R34*%
X53310000Y-88775000D03*
X53310000Y-90425000D03*
%TD*%
D32*
%TO.C,C31*%
X64400000Y-60750000D03*
X64400000Y-58850000D03*
%TD*%
D33*
%TO.C,C23*%
X122800000Y-73075000D03*
X122800000Y-71525000D03*
%TD*%
D26*
%TO.C,TP1*%
X61500000Y-100750000D03*
%TD*%
%TO.C,TP5*%
X112985000Y-75265000D03*
%TD*%
D18*
%TO.C,C9*%
X98510000Y-92435000D03*
X98510000Y-93985000D03*
%TD*%
%TO.C,C25*%
X119785000Y-75190000D03*
X119785000Y-76740000D03*
%TD*%
D28*
%TO.C,R13*%
X119285000Y-85865000D03*
X117635000Y-85865000D03*
%TD*%
D30*
%TO.C,R25*%
X90390000Y-64100000D03*
X91410000Y-64100000D03*
%TD*%
D34*
%TO.C,C24*%
X122860000Y-78365000D03*
X121310000Y-78365000D03*
%TD*%
D15*
%TO.C,R32*%
X89220000Y-64100000D03*
X88200000Y-64100000D03*
%TD*%
D35*
%TO.C,J3*%
X91400000Y-73550000D03*
D36*
X93940000Y-73550000D03*
X96480000Y-73550000D03*
X99020000Y-73550000D03*
X101560000Y-73550000D03*
X104100000Y-73550000D03*
%TD*%
D26*
%TO.C,TP9*%
X110300000Y-67800000D03*
%TD*%
D29*
%TO.C,L2*%
X78987500Y-97950000D03*
X77412500Y-97950000D03*
%TD*%
D17*
%TO.C,C6*%
X85250000Y-95925000D03*
X85250000Y-97825000D03*
%TD*%
D33*
%TO.C,C19*%
X88050000Y-93685000D03*
X88050000Y-92135000D03*
%TD*%
D18*
%TO.C,C10*%
X96910000Y-92435000D03*
X96910000Y-93985000D03*
%TD*%
D32*
%TO.C,C3*%
X88850000Y-100775000D03*
X88850000Y-98875000D03*
%TD*%
D16*
%TO.C,R9*%
X114400000Y-81925000D03*
X114400000Y-80275000D03*
%TD*%
D17*
%TO.C,C8*%
X75650000Y-98000000D03*
X75650000Y-99900000D03*
%TD*%
D37*
%TO.C,H3*%
X131000000Y-101000000D03*
D38*
X131000000Y-101000000D03*
%TD*%
D32*
%TO.C,C32*%
X66400000Y-60750000D03*
X66400000Y-58850000D03*
%TD*%
D31*
%TO.C,RG2*%
X115060000Y-75200000D03*
X116710000Y-75200000D03*
%TD*%
D34*
%TO.C,C27*%
X119235000Y-88865000D03*
X117685000Y-88865000D03*
%TD*%
D24*
%TO.C,R6*%
X121250000Y-71475000D03*
X121250000Y-73125000D03*
%TD*%
D15*
%TO.C,R30*%
X89220000Y-61590000D03*
X88200000Y-61590000D03*
%TD*%
D18*
%TO.C,C15*%
X105725000Y-76400000D03*
X105725000Y-77950000D03*
%TD*%
D39*
%TO.C,J1*%
X60300000Y-71300000D03*
X60300000Y-73800000D03*
X60300000Y-75800000D03*
X60300000Y-78300000D03*
D40*
X57900000Y-68230000D03*
X57900000Y-81370000D03*
%TD*%
D41*
%TO.C,U14*%
X68550000Y-59060000D03*
X68550000Y-60330000D03*
X68550000Y-61600000D03*
X68550000Y-62870000D03*
X68550000Y-64140000D03*
X68550000Y-65410000D03*
X68550000Y-66680000D03*
X68550000Y-67950000D03*
X68550000Y-69220000D03*
X68550000Y-70490000D03*
X68550000Y-71760000D03*
X68550000Y-73030000D03*
X68550000Y-74300000D03*
X68550000Y-75570000D03*
D42*
X70315000Y-76820000D03*
X71585000Y-76820000D03*
X72855000Y-76820000D03*
X74125000Y-76820000D03*
X75395000Y-76820000D03*
X76665000Y-76820000D03*
X77935000Y-76820000D03*
X79205000Y-76820000D03*
X80475000Y-76820000D03*
X81745000Y-76820000D03*
X83015000Y-76820000D03*
X84285000Y-76820000D03*
D41*
X86050000Y-75570000D03*
X86050000Y-74300000D03*
X86050000Y-73030000D03*
X86050000Y-71760000D03*
X86050000Y-70490000D03*
X86050000Y-69220000D03*
X86050000Y-67950000D03*
X86050000Y-66680000D03*
X86050000Y-65410000D03*
X86050000Y-64140000D03*
X86050000Y-62870000D03*
X86050000Y-61600000D03*
X86050000Y-60330000D03*
X86050000Y-59060000D03*
D43*
X75800000Y-65380000D03*
X75800000Y-66780000D03*
X77200000Y-68180000D03*
X74400000Y-65380000D03*
X75800000Y-68180000D03*
X74400000Y-66780000D03*
X74400000Y-68180000D03*
X77200000Y-66780000D03*
X77200000Y-65380000D03*
%TD*%
D19*
%TO.C,U6*%
X91360000Y-93585000D03*
X92310000Y-93585000D03*
X93260000Y-93585000D03*
X93260000Y-90885000D03*
X91360000Y-90885000D03*
%TD*%
D16*
%TO.C,R7*%
X124350000Y-73125000D03*
X124350000Y-71475000D03*
%TD*%
D14*
%TO.C,C21*%
X108510000Y-76765000D03*
X110060000Y-76765000D03*
%TD*%
D24*
%TO.C,R3*%
X105460000Y-95235000D03*
X105460000Y-96885000D03*
%TD*%
D32*
%TO.C,C2*%
X66600000Y-97700000D03*
X66600000Y-95800000D03*
%TD*%
D44*
%TO.C,U13*%
X115897500Y-87615000D03*
X115897500Y-85715000D03*
X114022500Y-86665000D03*
%TD*%
D45*
%TO.C,J4*%
X97295000Y-58850000D03*
X98395000Y-58850000D03*
X99495000Y-58850000D03*
X100595000Y-58850000D03*
X101695000Y-58850000D03*
X102795000Y-58850000D03*
X103895000Y-58850000D03*
D46*
X104945000Y-58850000D03*
D47*
X94660000Y-65000000D03*
X94660000Y-68700000D03*
D48*
X98160000Y-69675000D03*
D49*
X106155000Y-59200000D03*
D50*
X94835000Y-58975000D03*
D48*
X104130000Y-69675000D03*
%TD*%
D18*
%TO.C,C17*%
X103960000Y-95310000D03*
X103960000Y-96860000D03*
%TD*%
D16*
%TO.C,R4*%
X89610000Y-93735000D03*
X89610000Y-92085000D03*
%TD*%
D15*
%TO.C,R29*%
X89220000Y-60300000D03*
X88200000Y-60300000D03*
%TD*%
D26*
%TO.C,TP8*%
X66250000Y-88100000D03*
%TD*%
D33*
%TO.C,C5*%
X88650000Y-97325000D03*
X88650000Y-95775000D03*
%TD*%
D29*
%TO.C,D4*%
X66687500Y-82000000D03*
X65112500Y-82000000D03*
%TD*%
D51*
%TO.C,U8*%
X112690000Y-78790000D03*
X111420000Y-78790000D03*
X110150000Y-78790000D03*
X108880000Y-78790000D03*
X108880000Y-83740000D03*
X110150000Y-83740000D03*
X111420000Y-83740000D03*
X112690000Y-83740000D03*
%TD*%
D26*
%TO.C,TP2*%
X88885000Y-89715000D03*
%TD*%
D52*
%TO.C,JP2*%
X119900000Y-82500000D03*
D53*
X118600000Y-82500000D03*
D54*
X117300000Y-82500000D03*
%TD*%
D25*
%TO.C,R14*%
X71387500Y-95350000D03*
X73212500Y-95350000D03*
%TD*%
D19*
%TO.C,U4*%
X102210000Y-95210000D03*
X101260000Y-95210000D03*
X100310000Y-95210000D03*
X100310000Y-97910000D03*
X102210000Y-97910000D03*
%TD*%
D25*
%TO.C,R19*%
X64487500Y-64200000D03*
X66312500Y-64200000D03*
%TD*%
D55*
%TO.C,C20*%
X110135000Y-74965000D03*
X108235000Y-74965000D03*
%TD*%
D38*
%TO.C,H2*%
X131000000Y-54000000D03*
D37*
X131000000Y-54000000D03*
%TD*%
D56*
%TO.C,C1*%
X59150000Y-88950000D03*
X61050000Y-88950000D03*
%TD*%
D28*
%TO.C,R38*%
X66725000Y-79950000D03*
X65075000Y-79950000D03*
%TD*%
D31*
%TO.C,RG1*%
X115060000Y-73650000D03*
X116710000Y-73650000D03*
%TD*%
D15*
%TO.C,R31*%
X89220000Y-62800000D03*
X88200000Y-62800000D03*
%TD*%
D16*
%TO.C,R5*%
X132185000Y-77090000D03*
X132185000Y-75440000D03*
%TD*%
D38*
%TO.C,H4*%
X54000000Y-101000000D03*
D37*
X54000000Y-101000000D03*
%TD*%
D24*
%TO.C,R2*%
X94910000Y-88910000D03*
X94910000Y-90560000D03*
%TD*%
D14*
%TO.C,C18*%
X93235000Y-87335000D03*
X94785000Y-87335000D03*
%TD*%
D57*
%TO.C,FB1*%
X57112500Y-87050000D03*
X54987500Y-87050000D03*
%TD*%
D16*
%TO.C,R1*%
X105460000Y-99985000D03*
X105460000Y-98335000D03*
%TD*%
D30*
%TO.C,R20*%
X90390000Y-65400000D03*
X91410000Y-65400000D03*
%TD*%
D58*
%TO.C,U5*%
X106085000Y-90715000D03*
X106085000Y-89445000D03*
X106085000Y-88175000D03*
X106085000Y-86905000D03*
X101135000Y-86905000D03*
X101135000Y-88175000D03*
X101135000Y-89445000D03*
X101135000Y-90715000D03*
%TD*%
D32*
%TO.C,C12*%
X109910000Y-87960000D03*
X109910000Y-86060000D03*
%TD*%
D59*
%TO.C,C28*%
X71437500Y-93800000D03*
X73162500Y-93800000D03*
%TD*%
D14*
%TO.C,C22*%
X115110000Y-76750000D03*
X116660000Y-76750000D03*
%TD*%
%TO.C,C26*%
X121685000Y-91265000D03*
X123235000Y-91265000D03*
%TD*%
D30*
%TO.C,R21*%
X90390000Y-66600000D03*
X91410000Y-66600000D03*
%TD*%
D26*
%TO.C,TP10*%
X121250000Y-97200000D03*
%TD*%
D60*
%TO.C,SW1*%
X74250000Y-91450000D03*
X74250000Y-85450000D03*
X70550000Y-85450000D03*
X70550000Y-91450000D03*
%TD*%
D38*
%TO.C,H1*%
X54000000Y-54000000D03*
D37*
X54000000Y-54000000D03*
%TD*%
D25*
%TO.C,R17*%
X64487500Y-65700000D03*
X66312500Y-65700000D03*
%TD*%
D44*
%TO.C,Q1*%
X130322500Y-76415000D03*
X130322500Y-74515000D03*
X128447500Y-75465000D03*
%TD*%
D60*
%TO.C,SW2*%
X81550000Y-85500000D03*
X81550000Y-91500000D03*
X77850000Y-91500000D03*
X77850000Y-85500000D03*
%TD*%
D18*
%TO.C,C4*%
X85500000Y-99350000D03*
X85500000Y-100900000D03*
%TD*%
D30*
%TO.C,R26*%
X90390000Y-67900000D03*
X91410000Y-67900000D03*
%TD*%
D28*
%TO.C,R11*%
X119285000Y-90365000D03*
X117635000Y-90365000D03*
%TD*%
D30*
%TO.C,R24*%
X90390000Y-62800000D03*
X91410000Y-62800000D03*
%TD*%
D34*
%TO.C,C14*%
X92985000Y-88935000D03*
X91435000Y-88935000D03*
%TD*%
D13*
%TO.C,R36*%
X86712500Y-81950000D03*
X84887500Y-81950000D03*
%TD*%
D20*
%TO.C,D2*%
X53300000Y-93437500D03*
X53300000Y-91862500D03*
%TD*%
D26*
%TO.C,TP3*%
X106550000Y-93150000D03*
%TD*%
D14*
%TO.C,C11*%
X100560000Y-99860000D03*
X102110000Y-99860000D03*
%TD*%
D61*
%TO.C,U9*%
X127557971Y-79937971D03*
X127557971Y-70392029D03*
X118012029Y-70392029D03*
%TD*%
D35*
%TO.C,J2*%
X92425000Y-81125000D03*
D36*
X89885000Y-81125000D03*
X92425000Y-83665000D03*
X89885000Y-83665000D03*
%TD*%
D62*
%TO.C,U3*%
X97785000Y-90420000D03*
D63*
X100325000Y-92960000D03*
X97785000Y-95500000D03*
X95245000Y-92960000D03*
%TD*%
M02*
