%TF.GenerationSoftware,KiCad,Pcbnew,(6.0.9)*%
%TF.CreationDate,2023-03-07T14:59:43+02:00*%
%TF.ProjectId,GMWPY,474d5750-592e-46b6-9963-61645f706362,rev?*%
%TF.SameCoordinates,Original*%
%TF.FileFunction,Copper,L4,Bot*%
%TF.FilePolarity,Positive*%
%FSLAX46Y46*%
G04 Gerber Fmt 4.6, Leading zero omitted, Abs format (unit mm)*
G04 Created by KiCad (PCBNEW (6.0.9)) date 2023-03-07 14:59:43*
%MOMM*%
%LPD*%
G01*
G04 APERTURE LIST*
G04 Aperture macros list*
%AMRoundRect*
0 Rectangle with rounded corners*
0 $1 Rounding radius*
0 $2 $3 $4 $5 $6 $7 $8 $9 X,Y pos of 4 corners*
0 Add a 4 corners polygon primitive as box body*
4,1,4,$2,$3,$4,$5,$6,$7,$8,$9,$2,$3,0*
0 Add four circle primitives for the rounded corners*
1,1,$1+$1,$2,$3*
1,1,$1+$1,$4,$5*
1,1,$1+$1,$6,$7*
1,1,$1+$1,$8,$9*
0 Add four rect primitives between the rounded corners*
20,1,$1+$1,$2,$3,$4,$5,0*
20,1,$1+$1,$4,$5,$6,$7,0*
20,1,$1+$1,$6,$7,$8,$9,0*
20,1,$1+$1,$8,$9,$2,$3,0*%
%AMFreePoly0*
4,1,22,0.550000,-0.750000,0.000000,-0.750000,0.000000,-0.745033,-0.079941,-0.743568,-0.215256,-0.701293,-0.333266,-0.622738,-0.424486,-0.514219,-0.481581,-0.384460,-0.499164,-0.250000,-0.500000,-0.250000,-0.500000,0.250000,-0.499164,0.250000,-0.499963,0.256109,-0.478152,0.396186,-0.417904,0.524511,-0.324060,0.630769,-0.204165,0.706417,-0.067858,0.745374,0.000000,0.744959,0.000000,0.750000,
0.550000,0.750000,0.550000,-0.750000,0.550000,-0.750000,$1*%
%AMFreePoly1*
4,1,20,0.000000,0.744959,0.073905,0.744508,0.209726,0.703889,0.328688,0.626782,0.421226,0.519385,0.479903,0.390333,0.500000,0.250000,0.500000,-0.250000,0.499851,-0.262216,0.476331,-0.402017,0.414519,-0.529596,0.319384,-0.634700,0.198574,-0.708877,0.061801,-0.746166,0.000000,-0.745033,0.000000,-0.750000,-0.550000,-0.750000,-0.550000,0.750000,0.000000,0.750000,0.000000,0.744959,
0.000000,0.744959,$1*%
G04 Aperture macros list end*
%TA.AperFunction,ComponentPad*%
%ADD10C,4.000000*%
%TD*%
%TA.AperFunction,ComponentPad*%
%ADD11R,1.700000X1.700000*%
%TD*%
%TA.AperFunction,ComponentPad*%
%ADD12O,1.700000X1.700000*%
%TD*%
%TA.AperFunction,ComponentPad*%
%ADD13C,3.600000*%
%TD*%
%TA.AperFunction,ConnectorPad*%
%ADD14C,5.600000*%
%TD*%
%TA.AperFunction,ComponentPad*%
%ADD15C,1.400000*%
%TD*%
%TA.AperFunction,ComponentPad*%
%ADD16C,3.450000*%
%TD*%
%TA.AperFunction,SMDPad,CuDef*%
%ADD17RoundRect,0.237500X-0.300000X-0.237500X0.300000X-0.237500X0.300000X0.237500X-0.300000X0.237500X0*%
%TD*%
%TA.AperFunction,SMDPad,CuDef*%
%ADD18RoundRect,0.250000X0.475000X-0.250000X0.475000X0.250000X-0.475000X0.250000X-0.475000X-0.250000X0*%
%TD*%
%TA.AperFunction,SMDPad,CuDef*%
%ADD19R,0.500000X0.350000*%
%TD*%
%TA.AperFunction,SMDPad,CuDef*%
%ADD20FreePoly0,90.000000*%
%TD*%
%TA.AperFunction,SMDPad,CuDef*%
%ADD21R,1.500000X1.000000*%
%TD*%
%TA.AperFunction,SMDPad,CuDef*%
%ADD22FreePoly1,90.000000*%
%TD*%
%TA.AperFunction,ComponentPad*%
%ADD23O,1.200000X2.000000*%
%TD*%
%TA.AperFunction,ComponentPad*%
%ADD24O,1.200000X1.200000*%
%TD*%
%TA.AperFunction,ViaPad*%
%ADD25C,0.600000*%
%TD*%
%TA.AperFunction,Conductor*%
%ADD26C,0.293300*%
%TD*%
%TA.AperFunction,Conductor*%
%ADD27C,0.200000*%
%TD*%
%TA.AperFunction,Conductor*%
%ADD28C,0.500000*%
%TD*%
G04 APERTURE END LIST*
%TO.C,JP1*%
G36*
X109600000Y-78600000D02*
G01*
X109000000Y-78600000D01*
X109000000Y-78100000D01*
X109600000Y-78100000D01*
X109600000Y-78600000D01*
G37*
%TD*%
D10*
%TO.P,U9,1,REFERENCE*%
%TO.N,/GAS_Measurements/H2_reference*%
X127557971Y-79937971D03*
%TO.P,U9,2,SENSING*%
%TO.N,/GAS_Measurements/H2_sensing*%
X127557971Y-70392029D03*
%TO.P,U9,3,COUNTER*%
%TO.N,/GAS_Measurements/H2_counter*%
X118012029Y-70392029D03*
%TD*%
D11*
%TO.P,J3,1,Pin_1*%
%TO.N,VBUS*%
X91400000Y-73550000D03*
D12*
%TO.P,J3,2,Pin_2*%
%TO.N,GND*%
X93940000Y-73550000D03*
%TO.P,J3,3,Pin_3*%
%TO.N,GPIO_6*%
X96480000Y-73550000D03*
%TO.P,J3,4,Pin_4*%
%TO.N,GPIO_5*%
X99020000Y-73550000D03*
%TO.P,J3,5,Pin_5*%
%TO.N,GND*%
X101560000Y-73550000D03*
%TO.P,J3,6,Pin_6*%
%TO.N,+3V3*%
X104100000Y-73550000D03*
%TD*%
D13*
%TO.P,H3,1,1*%
%TO.N,GND*%
X131000000Y-101000000D03*
D14*
X131000000Y-101000000D03*
%TD*%
D15*
%TO.P,J1,1,VBUS*%
%TO.N,VBUS*%
X60300000Y-71300000D03*
%TO.P,J1,2,D-*%
%TO.N,D-*%
X60300000Y-73800000D03*
%TO.P,J1,3,D+*%
%TO.N,D+*%
X60300000Y-75800000D03*
%TO.P,J1,4,GND*%
%TO.N,GND*%
X60300000Y-78300000D03*
D16*
%TO.P,J1,MH1*%
%TO.N,N/C*%
X57900000Y-68230000D03*
%TO.P,J1,MH2*%
X57900000Y-81370000D03*
%TD*%
D13*
%TO.P,H2,1,1*%
%TO.N,GND*%
X131000000Y-54000000D03*
D14*
X131000000Y-54000000D03*
%TD*%
D13*
%TO.P,H4,1,1*%
%TO.N,GND*%
X54000000Y-101000000D03*
D14*
X54000000Y-101000000D03*
%TD*%
D13*
%TO.P,H1,1,1*%
%TO.N,GND*%
X54000000Y-54000000D03*
D14*
X54000000Y-54000000D03*
%TD*%
D17*
%TO.P,C34,1*%
%TO.N,+3V3*%
X100837500Y-58800000D03*
%TO.P,C34,2*%
%TO.N,GND*%
X102562500Y-58800000D03*
%TD*%
D18*
%TO.P,C30,1*%
%TO.N,+3V3*%
X68500000Y-60750000D03*
%TO.P,C30,2*%
%TO.N,GND*%
X68500000Y-58850000D03*
%TD*%
D19*
%TO.P,U7,1,GND*%
%TO.N,GND*%
X104650000Y-77400000D03*
%TO.P,U7,2,CSB*%
%TO.N,+3.3VA*%
X104650000Y-78050000D03*
%TO.P,U7,3,SDI*%
%TO.N,GPIO_6*%
X104650000Y-78700000D03*
%TO.P,U7,4,SCK*%
%TO.N,GPIO_5*%
X104650000Y-79350000D03*
%TO.P,U7,5,SDO*%
%TO.N,/GAS_Measurements/ADRESS_BME280*%
X106700000Y-79350000D03*
%TO.P,U7,6,VDDIO*%
%TO.N,+3.3VA*%
X106700000Y-78700000D03*
%TO.P,U7,7,GND*%
%TO.N,GND*%
X106700000Y-78050000D03*
%TO.P,U7,8,VDD*%
%TO.N,+3.3VA*%
X106700000Y-77400000D03*
%TD*%
D20*
%TO.P,JP1,1,A*%
%TO.N,GND*%
X109300000Y-79000000D03*
D21*
%TO.P,JP1,2,C*%
%TO.N,/GAS_Measurements/ADRESS_BME280*%
X109300000Y-77700000D03*
D22*
%TO.P,JP1,3,B*%
%TO.N,+3.3VA*%
X109300000Y-76400000D03*
%TD*%
D11*
%TO.P,J2,1,Pin_1*%
%TO.N,GPIO_5*%
X92425000Y-81125000D03*
D12*
%TO.P,J2,2,Pin_2*%
%TO.N,+3V3*%
X89885000Y-81125000D03*
%TO.P,J2,3,Pin_3*%
%TO.N,GND*%
X92425000Y-83665000D03*
%TO.P,J2,4,Pin_4*%
%TO.N,GPIO_6*%
X89885000Y-83665000D03*
%TD*%
D23*
%TO.P,U3,1,GND*%
%TO.N,GND*%
X97785000Y-90420000D03*
D24*
%TO.P,U3,2,REF*%
%TO.N,/GAS_Measurements/CH4_Ref*%
X100325000Y-92960000D03*
%TO.P,U3,3,V+*%
%TO.N,+5V*%
X97785000Y-95500000D03*
%TO.P,U3,4,GAS*%
%TO.N,/GAS_Measurements/CH4_Gas*%
X95245000Y-92960000D03*
%TD*%
D25*
%TO.N,GND*%
X103600000Y-65950000D03*
X92750000Y-66200000D03*
X97250000Y-60800000D03*
X98400000Y-61900000D03*
X99850000Y-63200000D03*
X132100000Y-96510000D03*
X132100000Y-93510000D03*
X132100000Y-90510000D03*
X132100000Y-87510000D03*
X132100000Y-84510000D03*
X132100000Y-81510000D03*
X132100000Y-72510000D03*
X132100000Y-69510000D03*
X132100000Y-66510000D03*
X132100000Y-63510000D03*
X132100000Y-60510000D03*
X129100000Y-96510000D03*
X129100000Y-93510000D03*
X129100000Y-90510000D03*
X129100000Y-87510000D03*
X129100000Y-84510000D03*
X129100000Y-66510000D03*
X129100000Y-63510000D03*
X129100000Y-60510000D03*
X129100000Y-57510000D03*
X126100000Y-102510000D03*
X126100000Y-99510000D03*
X126100000Y-96510000D03*
X126100000Y-93510000D03*
X126100000Y-66510000D03*
X126100000Y-63510000D03*
X126100000Y-60510000D03*
X126100000Y-57510000D03*
X126100000Y-54510000D03*
X126100000Y-51510000D03*
X123100000Y-102510000D03*
X123100000Y-99510000D03*
X123100000Y-96510000D03*
X123100000Y-66510000D03*
X123100000Y-63510000D03*
X123100000Y-60510000D03*
X123100000Y-57510000D03*
X123100000Y-54510000D03*
X123100000Y-51510000D03*
X120100000Y-102510000D03*
X120100000Y-99510000D03*
X120100000Y-66510000D03*
X120100000Y-63510000D03*
X120100000Y-60510000D03*
X120100000Y-57510000D03*
X120100000Y-54510000D03*
X120100000Y-51510000D03*
X117100000Y-102510000D03*
X117100000Y-99510000D03*
X117100000Y-93510000D03*
X117100000Y-66510000D03*
X117100000Y-63510000D03*
X117100000Y-60510000D03*
X117100000Y-57510000D03*
X117100000Y-54510000D03*
X117100000Y-51510000D03*
X114100000Y-102510000D03*
X114100000Y-96510000D03*
X114100000Y-93510000D03*
X114100000Y-69510000D03*
X114100000Y-66510000D03*
X114100000Y-63510000D03*
X114100000Y-60510000D03*
X114100000Y-57510000D03*
X114100000Y-54510000D03*
X114100000Y-51510000D03*
X111100000Y-102510000D03*
X111100000Y-99510000D03*
X111100000Y-96510000D03*
X111100000Y-93510000D03*
X111100000Y-90510000D03*
X111100000Y-72510000D03*
X111100000Y-69510000D03*
X111100000Y-63510000D03*
X111100000Y-60510000D03*
X111100000Y-57510000D03*
X111100000Y-54510000D03*
X111100000Y-51510000D03*
X108100000Y-102510000D03*
X108100000Y-99510000D03*
X108100000Y-96510000D03*
X108100000Y-90510000D03*
X108100000Y-72510000D03*
X108100000Y-69510000D03*
X108100000Y-66510000D03*
X108100000Y-63510000D03*
X108100000Y-60510000D03*
X108100000Y-57510000D03*
X108100000Y-54510000D03*
X108100000Y-51510000D03*
X105100000Y-102510000D03*
X105100000Y-54510000D03*
X105100000Y-51510000D03*
X102100000Y-102510000D03*
X102100000Y-81510000D03*
X102100000Y-78510000D03*
X102100000Y-69510000D03*
X102100000Y-54510000D03*
X102100000Y-51510000D03*
X99100000Y-102510000D03*
X99100000Y-75510000D03*
X99100000Y-54510000D03*
X96100000Y-102510000D03*
X96100000Y-99510000D03*
X96100000Y-84510000D03*
X96100000Y-69510000D03*
X96100000Y-54510000D03*
X93100000Y-102510000D03*
X93100000Y-99510000D03*
X90100000Y-102510000D03*
X90100000Y-69510000D03*
X87100000Y-102510000D03*
X87100000Y-84510000D03*
X87100000Y-81510000D03*
X84100000Y-102510000D03*
X84100000Y-93510000D03*
X84100000Y-87510000D03*
X84100000Y-84510000D03*
X84100000Y-69510000D03*
X84100000Y-66510000D03*
X84100000Y-63510000D03*
X84100000Y-60510000D03*
X81100000Y-102510000D03*
X81100000Y-78510000D03*
X81100000Y-66510000D03*
X81100000Y-63510000D03*
X78100000Y-102510000D03*
X78100000Y-81510000D03*
X78100000Y-72510000D03*
X78100000Y-63510000D03*
X75100000Y-81510000D03*
X75100000Y-78510000D03*
X75100000Y-63510000D03*
X72100000Y-90510000D03*
X72100000Y-87510000D03*
X72100000Y-81510000D03*
X72100000Y-72510000D03*
X72100000Y-66510000D03*
X66100000Y-87510000D03*
X66100000Y-81510000D03*
X66100000Y-78510000D03*
X63100000Y-84510000D03*
X63100000Y-81510000D03*
X63100000Y-78510000D03*
X63100000Y-69510000D03*
X63100000Y-66510000D03*
X63100000Y-63510000D03*
X60100000Y-84510000D03*
X60100000Y-63510000D03*
X60100000Y-60510000D03*
X57100000Y-84510000D03*
X57100000Y-78510000D03*
X57100000Y-75510000D03*
X57100000Y-63510000D03*
X57100000Y-60510000D03*
X54100000Y-72510000D03*
X54100000Y-69510000D03*
X54100000Y-66510000D03*
X54100000Y-63510000D03*
X54100000Y-60510000D03*
X51100000Y-90510000D03*
X51100000Y-87510000D03*
X51100000Y-84510000D03*
X51100000Y-81510000D03*
X51100000Y-78510000D03*
X51100000Y-75510000D03*
X51100000Y-72510000D03*
X51100000Y-69510000D03*
X51100000Y-66510000D03*
X51100000Y-63510000D03*
X51100000Y-60510000D03*
X51100000Y-57510000D03*
X117300000Y-83800000D03*
X67150000Y-68000000D03*
X119100000Y-74250000D03*
X124400000Y-84250000D03*
X123400000Y-83250000D03*
X107700000Y-79800000D03*
X112600000Y-87900000D03*
X64750000Y-68450000D03*
X63000000Y-61650000D03*
X89800000Y-67300000D03*
X89800000Y-66000000D03*
X89850000Y-64750000D03*
X89799999Y-63442031D03*
X89800000Y-62196150D03*
X89850000Y-60950000D03*
X89350000Y-59400000D03*
X91850000Y-75200000D03*
X93650000Y-77200000D03*
X76750000Y-79400000D03*
X52150000Y-93500000D03*
X62000000Y-87950000D03*
X62200000Y-88850000D03*
X60950000Y-87600000D03*
X67200000Y-94600000D03*
X65950000Y-94600000D03*
X75050000Y-66050000D03*
X76450000Y-66050000D03*
X76450000Y-67450000D03*
X75100000Y-67450000D03*
%TO.N,/GAS_Measurements/H2_sensing*%
X119112132Y-73287868D03*
%TO.N,Net-(C1-Pad1)*%
X87050000Y-100900000D03*
X58500000Y-90050000D03*
%TO.N,+3.3VA*%
X111600000Y-87900000D03*
X110600000Y-80450000D03*
X103050000Y-88250000D03*
X90850000Y-86650000D03*
%TO.N,VBUS*%
X74000000Y-71350000D03*
X66000000Y-71350000D03*
%TO.N,+5V*%
X124075000Y-82675000D03*
X124963556Y-83563556D03*
%TO.N,GND*%
X100927970Y-96330910D03*
X104710000Y-89410000D03*
X84700000Y-59100000D03*
X99810000Y-90710000D03*
X85750000Y-98587500D03*
X69700000Y-58800000D03*
X65100000Y-91500000D03*
X65100000Y-92600000D03*
X93700000Y-59400000D03*
X120310000Y-88115000D03*
X125585000Y-75665000D03*
X108810000Y-85910000D03*
X64900000Y-90100000D03*
X77000000Y-99900000D03*
X109404894Y-80252635D03*
X92910000Y-88110000D03*
X98200000Y-68600000D03*
X120760000Y-91265000D03*
X64550000Y-77150000D03*
X87400000Y-59000000D03*
X131285000Y-77365000D03*
X122885000Y-77465000D03*
X79500000Y-99950000D03*
X93600000Y-58200000D03*
X99710000Y-88210000D03*
X86100000Y-58100000D03*
X115485000Y-79365000D03*
X88050000Y-98087500D03*
X107500000Y-78039500D03*
X102800000Y-59800000D03*
X106100000Y-60700000D03*
X101210000Y-99210000D03*
X67500000Y-58200000D03*
X92310000Y-94910000D03*
X102600000Y-57900000D03*
X113485000Y-83665000D03*
X104725000Y-76775000D03*
X95800000Y-65000000D03*
X110185000Y-82365000D03*
X116960000Y-86065000D03*
X70300000Y-93700000D03*
X107685000Y-76265000D03*
X120685000Y-75565000D03*
X104100000Y-68500000D03*
X103310000Y-97910000D03*
X68500000Y-57800000D03*
X77000000Y-93900000D03*
%TO.N,+3V3*%
X100600000Y-59900000D03*
X100595000Y-57895000D03*
X63200000Y-60800000D03*
X69900000Y-60300000D03*
X68200000Y-78800000D03*
%TO.N,/MCU/DATA_2*%
X93300000Y-60300000D03*
X90300000Y-59600000D03*
%TO.N,/MCU/DATA_3*%
X92600000Y-61600000D03*
X90710500Y-61091962D03*
%TO.N,/MCU/CMD*%
X90700000Y-62400000D03*
X93300000Y-62900000D03*
%TO.N,/MCU/CLK*%
X90710500Y-63591962D03*
X92600000Y-64100000D03*
%TO.N,/MCU/DATA_0*%
X90700000Y-65000000D03*
X93300000Y-65400000D03*
%TO.N,/MCU/DATA_1*%
X90710500Y-66173977D03*
X92600000Y-67100000D03*
%TO.N,GPIO_40*%
X92800000Y-68250000D03*
X90710500Y-67350000D03*
%TO.N,+3.3VA*%
X110950000Y-75500000D03*
X105725000Y-78450498D03*
%TO.N,/MCU/ESP_EN*%
X70200000Y-61600000D03*
X73400000Y-84600000D03*
%TO.N,/MCU/ESP_BOOT*%
X81600000Y-84200000D03*
X86025000Y-78175000D03*
%TO.N,GPIO_5*%
X65300000Y-69100000D03*
X101000000Y-85750000D03*
X93875000Y-78225000D03*
X108100000Y-83800000D03*
%TO.N,GPIO_6*%
X66300000Y-68503850D03*
X107800000Y-80750000D03*
X91150000Y-76400000D03*
%TD*%
D26*
%TO.N,/MCU/DATA_2*%
X91000000Y-60300000D02*
X93300000Y-60300000D01*
X90300000Y-59600000D02*
X91000000Y-60300000D01*
D27*
%TO.N,/GAS_Measurements/ADRESS_BME280*%
X108450000Y-77700000D02*
X109300000Y-77700000D01*
X108200000Y-77950000D02*
X108450000Y-77700000D01*
X107200000Y-79350000D02*
X108200000Y-78350000D01*
X106700000Y-79350000D02*
X107200000Y-79350000D01*
X108200000Y-78350000D02*
X108200000Y-77950000D01*
D26*
%TO.N,/GAS_Measurements/H2_sensing*%
X119112132Y-73287868D02*
X122007971Y-70392029D01*
X122007971Y-70392029D02*
X127557971Y-70392029D01*
D28*
%TO.N,+5V*%
X124963556Y-83563556D02*
X124075000Y-82675000D01*
%TO.N,+3V3*%
X65100000Y-62700000D02*
X63200000Y-60800000D01*
X70000000Y-77000000D02*
X70000000Y-64500000D01*
X70000000Y-64500000D02*
X68200000Y-62700000D01*
X68200000Y-62700000D02*
X65100000Y-62700000D01*
X68200000Y-78800000D02*
X70000000Y-77000000D01*
%TO.N,Net-(C1-Pad1)*%
X67100000Y-93350000D02*
X61800000Y-93350000D01*
X61800000Y-93350000D02*
X58500000Y-90050000D01*
X84900000Y-100900000D02*
X83000000Y-99000000D01*
X83000000Y-99000000D02*
X72750000Y-99000000D01*
X87050000Y-100900000D02*
X84900000Y-100900000D01*
X72750000Y-99000000D02*
X67100000Y-93350000D01*
D26*
%TO.N,/MCU/ESP_BOOT*%
X81600000Y-82600000D02*
X81600000Y-84200000D01*
X86025000Y-78175000D02*
X81600000Y-82600000D01*
D28*
%TO.N,+3.3VA*%
X110600000Y-80450000D02*
X111600000Y-81450000D01*
X111600000Y-81450000D02*
X111600000Y-87900000D01*
D27*
%TO.N,GND*%
X109300000Y-80147741D02*
X109300000Y-79000000D01*
X109404894Y-80252635D02*
X109300000Y-80147741D01*
D26*
%TO.N,GPIO_6*%
X105000000Y-78700000D02*
X104650000Y-78700000D01*
X107800000Y-80750000D02*
X107050000Y-80750000D01*
X107050000Y-80750000D02*
X105000000Y-78700000D01*
D28*
%TO.N,+3.3VA*%
X101200000Y-88250000D02*
X103050000Y-88250000D01*
X99600000Y-86650000D02*
X101200000Y-88250000D01*
X90850000Y-86650000D02*
X99600000Y-86650000D01*
D26*
%TO.N,VBUS*%
X91400000Y-72350000D02*
X91400000Y-73550000D01*
X90400000Y-71350000D02*
X91400000Y-72350000D01*
X74000000Y-71350000D02*
X90400000Y-71350000D01*
D28*
%TO.N,GND*%
X68500000Y-58850000D02*
X68500000Y-57800000D01*
D27*
X104725000Y-76775000D02*
X104725000Y-77325000D01*
X104725000Y-77325000D02*
X104650000Y-77400000D01*
D28*
X68500000Y-58850000D02*
X69650000Y-58850000D01*
D27*
X107489500Y-78050000D02*
X106700000Y-78050000D01*
X107500000Y-78039500D02*
X107489500Y-78050000D01*
D26*
X102562500Y-58800000D02*
X102562500Y-57937500D01*
X102562500Y-57937500D02*
X102600000Y-57900000D01*
D28*
X69650000Y-58850000D02*
X69700000Y-58800000D01*
%TO.N,+3V3*%
X91300000Y-79200000D02*
X99150000Y-79200000D01*
X68950000Y-60300000D02*
X68500000Y-60750000D01*
X89885000Y-81125000D02*
X89885000Y-80615000D01*
X89885000Y-80615000D02*
X91300000Y-79200000D01*
X99150000Y-79200000D02*
X104100000Y-74250000D01*
D26*
X100837500Y-58137500D02*
X100595000Y-57895000D01*
D28*
X104100000Y-74250000D02*
X104100000Y-73550000D01*
D26*
X100837500Y-58800000D02*
X100837500Y-58137500D01*
D28*
X69900000Y-60300000D02*
X68950000Y-60300000D01*
D26*
%TO.N,/MCU/DATA_3*%
X92600000Y-61600000D02*
X91218538Y-61600000D01*
X91218538Y-61600000D02*
X90710500Y-61091962D01*
%TO.N,/MCU/CMD*%
X93300000Y-62900000D02*
X91200000Y-62900000D01*
X91200000Y-62900000D02*
X90700000Y-62400000D01*
%TO.N,/MCU/CLK*%
X92600000Y-64100000D02*
X91218538Y-64100000D01*
X91218538Y-64100000D02*
X90710500Y-63591962D01*
%TO.N,/MCU/DATA_0*%
X91100000Y-65400000D02*
X90700000Y-65000000D01*
X93300000Y-65400000D02*
X91100000Y-65400000D01*
%TO.N,/MCU/DATA_1*%
X92600000Y-67100000D02*
X91636523Y-67100000D01*
X91636523Y-67100000D02*
X90710500Y-66173977D01*
%TO.N,GPIO_40*%
X91610500Y-68250000D02*
X92800000Y-68250000D01*
X90710500Y-67350000D02*
X91610500Y-68250000D01*
D27*
%TO.N,+3.3VA*%
X105725000Y-78450498D02*
X105974502Y-78700000D01*
X105725000Y-78450498D02*
X105324502Y-78050000D01*
X110200000Y-75500000D02*
X109300000Y-76400000D01*
X105725000Y-78175000D02*
X106500000Y-77400000D01*
X105974502Y-78700000D02*
X106700000Y-78700000D01*
X106500000Y-77400000D02*
X106700000Y-77400000D01*
X105725000Y-78450498D02*
X105725000Y-78175000D01*
X105324502Y-78050000D02*
X104650000Y-78050000D01*
X110950000Y-75500000D02*
X110200000Y-75500000D01*
D26*
%TO.N,/MCU/ESP_EN*%
X73400000Y-84600000D02*
X73400000Y-64800000D01*
X73400000Y-64800000D02*
X70200000Y-61600000D01*
%TO.N,GPIO_5*%
X104750000Y-79350000D02*
X107200000Y-81800000D01*
X104650000Y-79350000D02*
X104750000Y-79350000D01*
X108100000Y-82700000D02*
X108100000Y-83800000D01*
X107200000Y-81800000D02*
X108100000Y-82700000D01*
X101000000Y-85750000D02*
X106150000Y-85750000D01*
X106150000Y-85750000D02*
X108100000Y-83800000D01*
%TD*%
%TA.AperFunction,Conductor*%
%TO.N,+3V3*%
G36*
X101959191Y-55718907D02*
G01*
X101995155Y-55768407D01*
X102000000Y-55799000D01*
X102000000Y-57850353D01*
X101999153Y-57863275D01*
X101995224Y-57893122D01*
X101994318Y-57900000D01*
X101994656Y-57902567D01*
X101976258Y-57959191D01*
X101926758Y-57995155D01*
X101896165Y-58000000D01*
X101656597Y-58000000D01*
X101597821Y-57979589D01*
X101597699Y-57979787D01*
X101596807Y-57979237D01*
X101595237Y-57978692D01*
X101592799Y-57976767D01*
X101456198Y-57892564D01*
X101445844Y-57887736D01*
X101293205Y-57837108D01*
X101282694Y-57834855D01*
X101228100Y-57829261D01*
X101215059Y-57832069D01*
X101213350Y-57833977D01*
X101212500Y-57838001D01*
X101212500Y-58000000D01*
X101100000Y-58000000D01*
X101100000Y-62301000D01*
X101081093Y-62359191D01*
X101031593Y-62395155D01*
X101001000Y-62400000D01*
X100199000Y-62400000D01*
X100140809Y-62381093D01*
X100104845Y-62331593D01*
X100100000Y-62301000D01*
X100100000Y-59806565D01*
X100118907Y-59748374D01*
X100168407Y-59712410D01*
X100230167Y-59712599D01*
X100381795Y-59762892D01*
X100392306Y-59765145D01*
X100446900Y-59770739D01*
X100459941Y-59767931D01*
X100461650Y-59766023D01*
X100462500Y-59761999D01*
X100462500Y-57843378D01*
X100458378Y-57830693D01*
X100456334Y-57829207D01*
X100452184Y-57828768D01*
X100391041Y-57835111D01*
X100380518Y-57837385D01*
X100227981Y-57888275D01*
X100217632Y-57893122D01*
X100081179Y-57977562D01*
X100079889Y-57978585D01*
X100079060Y-57978874D01*
X100076285Y-57980591D01*
X100075903Y-57979973D01*
X100018394Y-58000000D01*
X96699000Y-58000000D01*
X96640809Y-57981093D01*
X96604845Y-57931593D01*
X96600000Y-57901000D01*
X96600000Y-55799000D01*
X96618907Y-55740809D01*
X96668407Y-55704845D01*
X96699000Y-55700000D01*
X101901000Y-55700000D01*
X101959191Y-55718907D01*
G37*
%TD.AperFunction*%
%TD*%
%TA.AperFunction,Conductor*%
%TO.N,+3V3*%
G36*
X67602533Y-59718907D02*
G01*
X67638497Y-59768407D01*
X67638497Y-59829593D01*
X67602533Y-59879093D01*
X67596437Y-59883185D01*
X67560857Y-59905202D01*
X67551906Y-59912297D01*
X67436473Y-60027931D01*
X67429394Y-60036895D01*
X67343659Y-60175983D01*
X67338831Y-60186337D01*
X67287285Y-60341742D01*
X67285032Y-60352255D01*
X67284300Y-60359399D01*
X67287107Y-60372442D01*
X67289014Y-60374149D01*
X67293043Y-60375000D01*
X69701521Y-60375000D01*
X69714206Y-60370878D01*
X69715691Y-60368834D01*
X69716131Y-60364682D01*
X69714708Y-60350973D01*
X69712435Y-60340445D01*
X69660619Y-60185135D01*
X69655776Y-60174798D01*
X69569797Y-60035857D01*
X69562703Y-60026906D01*
X69447069Y-59911473D01*
X69438099Y-59904389D01*
X69403845Y-59883275D01*
X69364230Y-59836646D01*
X69359589Y-59775637D01*
X69391695Y-59723552D01*
X69448284Y-59700285D01*
X69455793Y-59700000D01*
X70701000Y-59700000D01*
X70759191Y-59718907D01*
X70795155Y-59768407D01*
X70800000Y-59799000D01*
X70800000Y-60901000D01*
X70781093Y-60959191D01*
X70731593Y-60995155D01*
X70701000Y-61000000D01*
X70249647Y-61000000D01*
X70236726Y-60999153D01*
X70200000Y-60994318D01*
X70163274Y-60999153D01*
X70150353Y-61000000D01*
X67600000Y-61000000D01*
X67457143Y-61125000D01*
X67298479Y-61125000D01*
X67285794Y-61129122D01*
X67284309Y-61131166D01*
X67283869Y-61135318D01*
X67285292Y-61149027D01*
X67287565Y-61159554D01*
X67296118Y-61185189D01*
X67296599Y-61246372D01*
X67267399Y-61291026D01*
X67120931Y-61419186D01*
X66827994Y-61675505D01*
X66771750Y-61699595D01*
X66762802Y-61700000D01*
X63699085Y-61700000D01*
X63640894Y-61681093D01*
X63604930Y-61631593D01*
X63600932Y-61613922D01*
X63585891Y-61499674D01*
X63585044Y-61493238D01*
X63524536Y-61347159D01*
X63428282Y-61221718D01*
X63302841Y-61125464D01*
X63156762Y-61064956D01*
X63000000Y-61044318D01*
X62843238Y-61064956D01*
X62697159Y-61125464D01*
X62571718Y-61221718D01*
X62568530Y-61225872D01*
X62514487Y-61253408D01*
X62454055Y-61243837D01*
X62410790Y-61200572D01*
X62400000Y-61155627D01*
X62400000Y-59799000D01*
X62418907Y-59740809D01*
X62468407Y-59704845D01*
X62499000Y-59700000D01*
X67544342Y-59700000D01*
X67602533Y-59718907D01*
G37*
%TD.AperFunction*%
%TD*%
M02*
