%TF.GenerationSoftware,KiCad,Pcbnew,(6.0.9)*%
%TF.CreationDate,2023-03-08T15:18:45+02:00*%
%TF.ProjectId,GMWPY,474d5750-592e-46b6-9963-61645f706362,rev?*%
%TF.SameCoordinates,Original*%
%TF.FileFunction,Paste,Top*%
%TF.FilePolarity,Positive*%
%FSLAX46Y46*%
G04 Gerber Fmt 4.6, Leading zero omitted, Abs format (unit mm)*
G04 Created by KiCad (PCBNEW (6.0.9)) date 2023-03-08 15:18:45*
%MOMM*%
%LPD*%
G01*
G04 APERTURE LIST*
G04 Aperture macros list*
%AMRoundRect*
0 Rectangle with rounded corners*
0 $1 Rounding radius*
0 $2 $3 $4 $5 $6 $7 $8 $9 X,Y pos of 4 corners*
0 Add a 4 corners polygon primitive as box body*
4,1,4,$2,$3,$4,$5,$6,$7,$8,$9,$2,$3,0*
0 Add four circle primitives for the rounded corners*
1,1,$1+$1,$2,$3*
1,1,$1+$1,$4,$5*
1,1,$1+$1,$6,$7*
1,1,$1+$1,$8,$9*
0 Add four rect primitives between the rounded corners*
20,1,$1+$1,$2,$3,$4,$5,0*
20,1,$1+$1,$4,$5,$6,$7,0*
20,1,$1+$1,$6,$7,$8,$9,0*
20,1,$1+$1,$8,$9,$2,$3,0*%
G04 Aperture macros list end*
%ADD10R,0.900000X0.630000*%
%ADD11RoundRect,0.188750X-0.238750X0.250000X-0.238750X-0.250000X0.238750X-0.250000X0.238750X0.250000X0*%
%ADD12RoundRect,0.183750X0.243750X-0.300000X0.243750X0.300000X-0.243750X0.300000X-0.243750X-0.300000X0*%
%ADD13RoundRect,0.188750X0.250000X0.238750X-0.250000X0.238750X-0.250000X-0.238750X0.250000X-0.238750X0*%
%ADD14RoundRect,0.180000X-0.225000X-0.247500X0.225000X-0.247500X0.225000X0.247500X-0.225000X0.247500X0*%
%ADD15RoundRect,0.108000X0.135000X0.180000X-0.135000X0.180000X-0.135000X-0.180000X0.135000X-0.180000X0*%
%ADD16RoundRect,0.160000X0.267500X-0.200000X0.267500X0.200000X-0.267500X0.200000X-0.267500X-0.200000X0*%
%ADD17RoundRect,0.200000X-0.452500X0.250000X-0.452500X-0.250000X0.452500X-0.250000X0.452500X0.250000X0*%
%ADD18RoundRect,0.180000X-0.247500X0.225000X-0.247500X-0.225000X0.247500X-0.225000X0.247500X0.225000X0*%
%ADD19R,0.585000X1.404000*%
%ADD20RoundRect,0.175000X0.252500X-0.218750X0.252500X0.218750X-0.252500X0.218750X-0.252500X-0.218750X0*%
%ADD21R,1.404000X0.585000*%
%ADD22R,1.350000X1.800000*%
%ADD23R,3.420000X1.800000*%
%ADD24RoundRect,0.160000X-0.267500X0.200000X-0.267500X-0.200000X0.267500X-0.200000X0.267500X0.200000X0*%
%ADD25RoundRect,0.188750X-0.250000X-0.238750X0.250000X-0.238750X0.250000X0.238750X-0.250000X0.238750X0*%
%ADD26RoundRect,0.083750X0.186250X-0.512500X0.186250X0.512500X-0.186250X0.512500X-0.186250X-0.512500X0*%
%ADD27RoundRect,0.160000X0.200000X0.267500X-0.200000X0.267500X-0.200000X-0.267500X0.200000X-0.267500X0*%
%ADD28RoundRect,0.175000X0.218750X0.252500X-0.218750X0.252500X-0.218750X-0.252500X0.218750X-0.252500X0*%
%ADD29RoundRect,0.108000X-0.135000X-0.180000X0.135000X-0.180000X0.135000X0.180000X-0.135000X0.180000X0*%
%ADD30RoundRect,0.160000X-0.200000X-0.267500X0.200000X-0.267500X0.200000X0.267500X-0.200000X0.267500X0*%
%ADD31RoundRect,0.200000X0.452500X-0.250000X0.452500X0.250000X-0.452500X0.250000X-0.452500X-0.250000X0*%
%ADD32RoundRect,0.180000X0.247500X-0.225000X0.247500X0.225000X-0.247500X0.225000X-0.247500X-0.225000X0*%
%ADD33RoundRect,0.180000X0.225000X0.247500X-0.225000X0.247500X-0.225000X-0.247500X0.225000X-0.247500X0*%
%ADD34R,1.350000X0.810000*%
%ADD35R,0.810000X1.350000*%
%ADD36R,0.810000X0.810000*%
%ADD37RoundRect,0.076250X0.587500X0.193750X-0.587500X0.193750X-0.587500X-0.193750X0.587500X-0.193750X0*%
%ADD38R,0.765000X0.990000*%
%ADD39R,0.675000X0.990000*%
%ADD40R,1.080000X0.900000*%
%ADD41R,1.710000X1.215000*%
%ADD42R,1.053000X1.620000*%
%ADD43R,1.395000X1.215000*%
%ADD44RoundRect,0.052500X-0.217500X0.825000X-0.217500X-0.825000X0.217500X-0.825000X0.217500X0.825000X0*%
%ADD45RoundRect,0.200000X0.250000X0.452500X-0.250000X0.452500X-0.250000X-0.452500X0.250000X-0.452500X0*%
%ADD46RoundRect,0.200000X-0.250000X-0.452500X0.250000X-0.452500X0.250000X0.452500X-0.250000X0.452500X0*%
%ADD47RoundRect,0.175000X0.218750X0.365000X-0.218750X0.365000X-0.218750X-0.365000X0.218750X-0.365000X0*%
%ADD48RoundRect,0.052500X0.825000X0.217500X-0.825000X0.217500X-0.825000X-0.217500X0.825000X-0.217500X0*%
%ADD49RoundRect,0.183750X-0.300000X-0.243750X0.300000X-0.243750X0.300000X0.243750X-0.300000X0.243750X0*%
%ADD50R,0.630000X0.900000*%
G04 APERTURE END LIST*
D10*
%TO.C,SW3*%
X53750000Y-63200000D03*
X59750000Y-63200000D03*
X59750000Y-59500000D03*
X53750000Y-59500000D03*
%TD*%
D11*
%TO.C,R39*%
X63500000Y-70862500D03*
X63500000Y-69037500D03*
%TD*%
D12*
%TO.C,C35*%
X53700000Y-67812500D03*
X53700000Y-66087500D03*
%TD*%
D13*
%TO.C,R37*%
X86712500Y-80410000D03*
X84887500Y-80410000D03*
%TD*%
D14*
%TO.C,C29*%
X77925000Y-93900000D03*
X79475000Y-93900000D03*
%TD*%
D15*
%TO.C,R28*%
X89220000Y-66600000D03*
X88200000Y-66600000D03*
%TD*%
D16*
%TO.C,R8*%
X118185000Y-76790000D03*
X118185000Y-75140000D03*
%TD*%
D17*
%TO.C,C7*%
X80750000Y-98000000D03*
X80750000Y-99900000D03*
%TD*%
D13*
%TO.C,R15*%
X79612500Y-95500000D03*
X77787500Y-95500000D03*
%TD*%
D18*
%TO.C,C13*%
X108110000Y-86435000D03*
X108110000Y-87985000D03*
%TD*%
D19*
%TO.C,U12*%
X122710000Y-86715000D03*
X121760000Y-86715000D03*
X120810000Y-86715000D03*
X120810000Y-89415000D03*
X122710000Y-89415000D03*
%TD*%
D20*
%TO.C,D1*%
X54850000Y-93437500D03*
X54850000Y-91862500D03*
%TD*%
D21*
%TO.C,U10*%
X116835000Y-78415000D03*
X116835000Y-79365000D03*
X116835000Y-80315000D03*
X119535000Y-80315000D03*
X119535000Y-78415000D03*
%TD*%
D22*
%TO.C,U1*%
X63800000Y-91450000D03*
D23*
X61500000Y-97750000D03*
D22*
X61500000Y-91450000D03*
X59200000Y-91450000D03*
%TD*%
D24*
%TO.C,R10*%
X126485000Y-74740000D03*
X126485000Y-76390000D03*
%TD*%
D25*
%TO.C,R16*%
X64487500Y-67190000D03*
X66312500Y-67190000D03*
%TD*%
%TO.C,R18*%
X64487500Y-62700000D03*
X66312500Y-62700000D03*
%TD*%
D21*
%TO.C,U11*%
X124335000Y-76615000D03*
X124335000Y-75665000D03*
X124335000Y-74715000D03*
X121635000Y-74715000D03*
X121635000Y-76615000D03*
%TD*%
D26*
%TO.C,U2*%
X63550000Y-75975000D03*
X64500000Y-75975000D03*
X65450000Y-75975000D03*
X65450000Y-73700000D03*
X64500000Y-73700000D03*
X63550000Y-73700000D03*
%TD*%
D27*
%TO.C,R12*%
X119285000Y-87365000D03*
X117635000Y-87365000D03*
%TD*%
D20*
%TO.C,L1*%
X87050000Y-99012500D03*
X87050000Y-97437500D03*
%TD*%
D28*
%TO.C,D3*%
X77287500Y-79950000D03*
X75712500Y-79950000D03*
%TD*%
D29*
%TO.C,R23*%
X90390000Y-61600000D03*
X91410000Y-61600000D03*
%TD*%
D17*
%TO.C,C33*%
X92500000Y-57100000D03*
X92500000Y-59000000D03*
%TD*%
D29*
%TO.C,R22*%
X90390000Y-60300000D03*
X91410000Y-60300000D03*
%TD*%
D24*
%TO.C,R33*%
X54870000Y-88775000D03*
X54870000Y-90425000D03*
%TD*%
D30*
%TO.C,R35*%
X72625000Y-79950000D03*
X74275000Y-79950000D03*
%TD*%
D18*
%TO.C,C16*%
X103960000Y-98385000D03*
X103960000Y-99935000D03*
%TD*%
D15*
%TO.C,R27*%
X89220000Y-65400000D03*
X88200000Y-65400000D03*
%TD*%
D24*
%TO.C,R34*%
X53310000Y-88775000D03*
X53310000Y-90425000D03*
%TD*%
D31*
%TO.C,C31*%
X64400000Y-60750000D03*
X64400000Y-58850000D03*
%TD*%
D32*
%TO.C,C23*%
X122800000Y-73075000D03*
X122800000Y-71525000D03*
%TD*%
D18*
%TO.C,C9*%
X98510000Y-92435000D03*
X98510000Y-93985000D03*
%TD*%
%TO.C,C25*%
X119785000Y-75190000D03*
X119785000Y-76740000D03*
%TD*%
D27*
%TO.C,R13*%
X119285000Y-85865000D03*
X117635000Y-85865000D03*
%TD*%
D29*
%TO.C,R25*%
X90390000Y-64100000D03*
X91410000Y-64100000D03*
%TD*%
D33*
%TO.C,C24*%
X122860000Y-78365000D03*
X121310000Y-78365000D03*
%TD*%
D15*
%TO.C,R32*%
X89220000Y-64100000D03*
X88200000Y-64100000D03*
%TD*%
D28*
%TO.C,L2*%
X78987500Y-97950000D03*
X77412500Y-97950000D03*
%TD*%
D17*
%TO.C,C6*%
X85250000Y-95925000D03*
X85250000Y-97825000D03*
%TD*%
D32*
%TO.C,C19*%
X88050000Y-93685000D03*
X88050000Y-92135000D03*
%TD*%
D18*
%TO.C,C10*%
X96910000Y-92435000D03*
X96910000Y-93985000D03*
%TD*%
D31*
%TO.C,C3*%
X88850000Y-100775000D03*
X88850000Y-98875000D03*
%TD*%
D16*
%TO.C,R9*%
X114400000Y-81925000D03*
X114400000Y-80275000D03*
%TD*%
D17*
%TO.C,C8*%
X75650000Y-98000000D03*
X75650000Y-99900000D03*
%TD*%
D31*
%TO.C,C32*%
X66400000Y-60750000D03*
X66400000Y-58850000D03*
%TD*%
D30*
%TO.C,RG2*%
X115060000Y-75200000D03*
X116710000Y-75200000D03*
%TD*%
D33*
%TO.C,C27*%
X119235000Y-88865000D03*
X117685000Y-88865000D03*
%TD*%
D24*
%TO.C,R6*%
X121250000Y-71475000D03*
X121250000Y-73125000D03*
%TD*%
D15*
%TO.C,R30*%
X89220000Y-61590000D03*
X88200000Y-61590000D03*
%TD*%
D18*
%TO.C,C15*%
X105725000Y-76400000D03*
X105725000Y-77950000D03*
%TD*%
D34*
%TO.C,U14*%
X68550000Y-59060000D03*
X68550000Y-60330000D03*
X68550000Y-61600000D03*
X68550000Y-62870000D03*
X68550000Y-64140000D03*
X68550000Y-65410000D03*
X68550000Y-66680000D03*
X68550000Y-67950000D03*
X68550000Y-69220000D03*
X68550000Y-70490000D03*
X68550000Y-71760000D03*
X68550000Y-73030000D03*
X68550000Y-74300000D03*
X68550000Y-75570000D03*
D35*
X70315000Y-76820000D03*
X71585000Y-76820000D03*
X72855000Y-76820000D03*
X74125000Y-76820000D03*
X75395000Y-76820000D03*
X76665000Y-76820000D03*
X77935000Y-76820000D03*
X79205000Y-76820000D03*
X80475000Y-76820000D03*
X81745000Y-76820000D03*
X83015000Y-76820000D03*
X84285000Y-76820000D03*
D34*
X86050000Y-75570000D03*
X86050000Y-74300000D03*
X86050000Y-73030000D03*
X86050000Y-71760000D03*
X86050000Y-70490000D03*
X86050000Y-69220000D03*
X86050000Y-67950000D03*
X86050000Y-66680000D03*
X86050000Y-65410000D03*
X86050000Y-64140000D03*
X86050000Y-62870000D03*
X86050000Y-61600000D03*
X86050000Y-60330000D03*
X86050000Y-59060000D03*
D36*
X75800000Y-65380000D03*
X75800000Y-66780000D03*
X77200000Y-68180000D03*
X74400000Y-65380000D03*
X75800000Y-68180000D03*
X74400000Y-66780000D03*
X74400000Y-68180000D03*
X77200000Y-66780000D03*
X77200000Y-65380000D03*
%TD*%
D19*
%TO.C,U6*%
X91360000Y-93585000D03*
X92310000Y-93585000D03*
X93260000Y-93585000D03*
X93260000Y-90885000D03*
X91360000Y-90885000D03*
%TD*%
D16*
%TO.C,R7*%
X124350000Y-73125000D03*
X124350000Y-71475000D03*
%TD*%
D14*
%TO.C,C21*%
X108510000Y-76765000D03*
X110060000Y-76765000D03*
%TD*%
D24*
%TO.C,R3*%
X105460000Y-95235000D03*
X105460000Y-96885000D03*
%TD*%
D31*
%TO.C,C2*%
X66600000Y-97700000D03*
X66600000Y-95800000D03*
%TD*%
D37*
%TO.C,U13*%
X115897500Y-87615000D03*
X115897500Y-85715000D03*
X114022500Y-86665000D03*
%TD*%
D38*
%TO.C,J4*%
X97295000Y-58850000D03*
X98395000Y-58850000D03*
X99495000Y-58850000D03*
X100595000Y-58850000D03*
X101695000Y-58850000D03*
X102795000Y-58850000D03*
X103895000Y-58850000D03*
D39*
X104945000Y-58850000D03*
D40*
X94660000Y-65000000D03*
X94660000Y-68700000D03*
D41*
X98160000Y-69675000D03*
D42*
X106155000Y-59200000D03*
D43*
X94835000Y-58975000D03*
D41*
X104130000Y-69675000D03*
%TD*%
D18*
%TO.C,C17*%
X103960000Y-95310000D03*
X103960000Y-96860000D03*
%TD*%
D16*
%TO.C,R4*%
X89610000Y-93735000D03*
X89610000Y-92085000D03*
%TD*%
D15*
%TO.C,R29*%
X89220000Y-60300000D03*
X88200000Y-60300000D03*
%TD*%
D32*
%TO.C,C5*%
X88650000Y-97325000D03*
X88650000Y-95775000D03*
%TD*%
D28*
%TO.C,D4*%
X66687500Y-82000000D03*
X65112500Y-82000000D03*
%TD*%
D44*
%TO.C,U8*%
X112690000Y-78790000D03*
X111420000Y-78790000D03*
X110150000Y-78790000D03*
X108880000Y-78790000D03*
X108880000Y-83740000D03*
X110150000Y-83740000D03*
X111420000Y-83740000D03*
X112690000Y-83740000D03*
%TD*%
D25*
%TO.C,R14*%
X71387500Y-95350000D03*
X73212500Y-95350000D03*
%TD*%
D19*
%TO.C,U4*%
X102210000Y-95210000D03*
X101260000Y-95210000D03*
X100310000Y-95210000D03*
X100310000Y-97910000D03*
X102210000Y-97910000D03*
%TD*%
D25*
%TO.C,R19*%
X64487500Y-64200000D03*
X66312500Y-64200000D03*
%TD*%
D45*
%TO.C,C20*%
X110135000Y-74965000D03*
X108235000Y-74965000D03*
%TD*%
D46*
%TO.C,C1*%
X59150000Y-88950000D03*
X61050000Y-88950000D03*
%TD*%
D27*
%TO.C,R38*%
X66725000Y-79950000D03*
X65075000Y-79950000D03*
%TD*%
D30*
%TO.C,RG1*%
X115060000Y-73650000D03*
X116710000Y-73650000D03*
%TD*%
D15*
%TO.C,R31*%
X89220000Y-62800000D03*
X88200000Y-62800000D03*
%TD*%
D16*
%TO.C,R5*%
X132185000Y-77090000D03*
X132185000Y-75440000D03*
%TD*%
D24*
%TO.C,R2*%
X94910000Y-88910000D03*
X94910000Y-90560000D03*
%TD*%
D14*
%TO.C,C18*%
X93235000Y-87335000D03*
X94785000Y-87335000D03*
%TD*%
D47*
%TO.C,FB1*%
X57112500Y-87050000D03*
X54987500Y-87050000D03*
%TD*%
D16*
%TO.C,R1*%
X105460000Y-99985000D03*
X105460000Y-98335000D03*
%TD*%
D29*
%TO.C,R20*%
X90390000Y-65400000D03*
X91410000Y-65400000D03*
%TD*%
D48*
%TO.C,U5*%
X106085000Y-90715000D03*
X106085000Y-89445000D03*
X106085000Y-88175000D03*
X106085000Y-86905000D03*
X101135000Y-86905000D03*
X101135000Y-88175000D03*
X101135000Y-89445000D03*
X101135000Y-90715000D03*
%TD*%
D31*
%TO.C,C12*%
X109910000Y-87960000D03*
X109910000Y-86060000D03*
%TD*%
D49*
%TO.C,C28*%
X71437500Y-93800000D03*
X73162500Y-93800000D03*
%TD*%
D14*
%TO.C,C22*%
X115110000Y-76750000D03*
X116660000Y-76750000D03*
%TD*%
%TO.C,C26*%
X121685000Y-91265000D03*
X123235000Y-91265000D03*
%TD*%
D29*
%TO.C,R21*%
X90390000Y-66600000D03*
X91410000Y-66600000D03*
%TD*%
D50*
%TO.C,SW1*%
X74250000Y-91450000D03*
X74250000Y-85450000D03*
X70550000Y-85450000D03*
X70550000Y-91450000D03*
%TD*%
D25*
%TO.C,R17*%
X64487500Y-65700000D03*
X66312500Y-65700000D03*
%TD*%
D37*
%TO.C,Q1*%
X130322500Y-76415000D03*
X130322500Y-74515000D03*
X128447500Y-75465000D03*
%TD*%
D50*
%TO.C,SW2*%
X81550000Y-85500000D03*
X81550000Y-91500000D03*
X77850000Y-91500000D03*
X77850000Y-85500000D03*
%TD*%
D18*
%TO.C,C4*%
X85500000Y-99350000D03*
X85500000Y-100900000D03*
%TD*%
D29*
%TO.C,R26*%
X90390000Y-67900000D03*
X91410000Y-67900000D03*
%TD*%
D27*
%TO.C,R11*%
X119285000Y-90365000D03*
X117635000Y-90365000D03*
%TD*%
D29*
%TO.C,R24*%
X90390000Y-62800000D03*
X91410000Y-62800000D03*
%TD*%
D33*
%TO.C,C14*%
X92985000Y-88935000D03*
X91435000Y-88935000D03*
%TD*%
D13*
%TO.C,R36*%
X86712500Y-81950000D03*
X84887500Y-81950000D03*
%TD*%
D20*
%TO.C,D2*%
X53300000Y-93437500D03*
X53300000Y-91862500D03*
%TD*%
D14*
%TO.C,C11*%
X100560000Y-99860000D03*
X102110000Y-99860000D03*
%TD*%
M02*
