M48
; DRILL file {KiCad (6.0.9)} date Wed Mar  8 12:20:50 2023
; FORMAT={-:-/ absolute / inch / decimal}
; #@! TF.CreationDate,2023-03-08T12:20:50+02:00
; #@! TF.GenerationSoftware,Kicad,Pcbnew,(6.0.9)
; #@! TF.FileFunction,Plated,1,4,PTH
FMAT,2
INCH
; #@! TA.AperFunction,Plated,PTH,ViaDrill
T1C0.0118
; #@! TA.AperFunction,Plated,PTH,ComponentDrill
T2C0.0276
; #@! TA.AperFunction,Plated,PTH,ComponentDrill
T3C0.0354
; #@! TA.AperFunction,Plated,PTH,ComponentDrill
T4C0.0394
; #@! TA.AperFunction,Plated,PTH,ComponentDrill
T5C0.0906
; #@! TA.AperFunction,Plated,PTH,ComponentDrill
T6C0.1024
; #@! TA.AperFunction,Plated,PTH,ComponentDrill
T7C0.1260
%
G90
G05
T1
X2.0118Y-2.2642
X2.0118Y-2.3823
X2.0118Y-2.5004
X2.0118Y-2.6185
X2.0118Y-2.7366
X2.0118Y-2.8547
X2.0118Y-2.9728
X2.0118Y-3.0909
X2.0118Y-3.2091
X2.0118Y-3.3272
X2.0118Y-3.4453
X2.0118Y-3.5634
X2.0531Y-3.6811
X2.1299Y-2.3823
X2.1299Y-2.5004
X2.1299Y-2.6185
X2.1299Y-2.7366
X2.1299Y-2.8547
X2.248Y-2.3823
X2.248Y-2.5004
X2.248Y-2.9728
X2.248Y-3.0909
X2.248Y-3.3272
X2.3031Y-3.5453
X2.3661Y-2.3823
X2.3661Y-2.5004
X2.3661Y-3.3272
X2.3996Y-3.4488
X2.4409Y-3.4626
X2.4488Y-3.498
X2.4803Y-2.4272
X2.4843Y-2.5004
X2.4843Y-2.6185
X2.4843Y-2.7366
X2.4843Y-3.0909
X2.4843Y-3.2091
X2.4843Y-3.3272
X2.4882Y-2.3937
X2.5413Y-3.0374
X2.5492Y-2.6949
X2.5551Y-3.5472
X2.563Y-3.6024
X2.563Y-3.6457
X2.5709Y-2.7205
X2.5965Y-3.7244
X2.5984Y-2.8091
X2.6024Y-3.0909
X2.6024Y-3.2091
X2.6102Y-2.697
X2.6161Y-3.3268
X2.6437Y-2.6772
X2.6457Y-3.7244
X2.6555Y-3.1496
X2.6575Y-2.2913
X2.685Y-3.1024
X2.6969Y-2.2756
X2.7441Y-2.315
X2.752Y-2.374
X2.7638Y-2.4252
X2.7677Y-3.689
X2.8012Y-2.9528
X2.8386Y-2.6185
X2.8386Y-2.8547
X2.8386Y-3.2091
X2.8386Y-3.4453
X2.8386Y-3.5634
X2.8465Y-2.3169
X2.8898Y-3.3307
X2.9134Y-2.8091
X2.9547Y-2.6004
X2.9567Y-2.5004
X2.9567Y-2.6555
X2.9567Y-3.0909
X2.9567Y-3.2091
X2.9646Y-2.9193
X2.9724Y-2.3169
X3.0098Y-2.6004
X3.0098Y-2.6555
X3.0217Y-3.126
X3.0315Y-3.6969
X3.0315Y-3.9331
X3.0748Y-2.5004
X3.0748Y-2.8547
X3.0748Y-3.2091
X3.0748Y-4.0358
X3.0886Y-2.3189
X3.1299Y-3.935
X3.1358Y-3.3484
X3.1516Y-2.9291
X3.1929Y-2.5004
X3.1929Y-2.6185
X3.1929Y-4.0358
X3.2008Y-2.311
X3.2126Y-3.315
X3.311Y-2.3823
X3.311Y-2.5004
X3.311Y-2.6185
X3.311Y-2.7366
X3.311Y-3.3272
X3.311Y-3.4453
X3.311Y-3.6815
X3.311Y-4.0358
X3.3346Y-2.3268
X3.376Y-3.8814
X3.3868Y-3.0778
X3.3898Y-2.2874
X3.4272Y-3.9724
X3.4291Y-3.3272
X3.4291Y-4.0358
X3.4409Y-2.3228
X3.4665Y-3.8617
X3.5177Y-2.3386
X3.5354Y-2.4977
X3.5354Y-2.4487
X3.5354Y-2.5984
X3.5354Y-2.6496
X3.5374Y-2.3996
X3.5374Y-2.5492
X3.5472Y-2.7366
X3.5472Y-4.0358
X3.5551Y-2.3465
X3.5709Y-2.4567
X3.5709Y-2.5591
X3.5713Y-2.4052
X3.5713Y-2.5036
X3.5713Y-2.6053
X3.5713Y-2.6516
X3.5768Y-3.4114
X3.5886Y-3.0079
X3.6161Y-2.9606
X3.6343Y-3.7366
X3.6457Y-2.4252
X3.6457Y-2.5236
X3.6457Y-2.6417
X3.6516Y-2.6063
X3.6535Y-2.687
X3.6579Y-3.4689
X3.6654Y-3.9177
X3.6654Y-4.0358
X3.6732Y-2.374
X3.6732Y-2.4764
X3.6732Y-2.5748
X3.685Y-2.2913
X3.687Y-3.0394
X3.689Y-2.3386
X3.6959Y-3.0797
X3.7697Y-3.2165
X3.7717Y-2.5591
X3.7835Y-2.1461
X3.7835Y-2.7366
X3.7835Y-3.3272
X3.7835Y-3.9177
X3.7835Y-4.0358
X3.8287Y-2.3937
X3.8661Y-2.7008
X3.874Y-2.437
X3.9016Y-2.1461
X3.9016Y-2.9728
X3.9016Y-4.0358
X3.9232Y-3.1634
X3.9256Y-3.4728
X3.9295Y-3.5713
X3.9311Y-2.4882
X3.9604Y-2.2793
X3.9606Y-2.3583
X3.9735Y-3.7926
X3.9764Y-3.376
X3.9846Y-3.9059
X4.0197Y-2.028
X4.0197Y-2.1461
X4.0197Y-2.7366
X4.0197Y-3.0909
X4.0197Y-3.2091
X4.0197Y-4.0358
X4.0394Y-2.2795
X4.0472Y-2.3543
X4.0571Y-3.4744
X4.0673Y-3.8547
X4.0787Y-2.5965
X4.0984Y-2.6969
X4.1224Y-3.5201
X4.123Y-3.0226
X4.1378Y-2.028
X4.1378Y-2.1461
X4.1378Y-3.252
X4.1378Y-4.0358
X4.1624Y-3.0886
X4.1772Y-2.3898
X4.2323Y-3.0724
X4.2396Y-3.0026
X4.2402Y-3.1417
X4.2441Y-3.1791
X4.2559Y-2.028
X4.2559Y-2.1461
X4.2559Y-2.2642
X4.2559Y-2.3823
X4.2559Y-2.5004
X4.2559Y-2.6185
X4.2559Y-2.7366
X4.2559Y-2.8547
X4.2559Y-3.2992
X4.2559Y-3.5634
X4.2559Y-3.7996
X4.2559Y-3.9177
X4.2559Y-4.0358
X4.2839Y-3.3823
X4.3073Y-3.1596
X4.338Y-3.2427
X4.3543Y-3.1673
X4.3681Y-2.9724
X4.374Y-2.028
X4.374Y-2.1461
X4.374Y-2.2642
X4.374Y-2.3823
X4.374Y-2.5004
X4.374Y-2.7366
X4.374Y-2.8547
X4.374Y-3.5634
X4.374Y-3.6815
X4.374Y-3.7996
X4.374Y-3.9177
X4.374Y-4.0358
X4.3937Y-3.4606
X4.4331Y-3.4606
X4.4679Y-3.2939
X4.4921Y-2.028
X4.4921Y-2.1461
X4.4921Y-2.2642
X4.4921Y-2.3823
X4.4921Y-2.5004
X4.4921Y-2.6185
X4.4921Y-2.7366
X4.4921Y-3.6815
X4.4921Y-3.7996
X4.4921Y-4.0358
X4.5467Y-3.1246
X4.6047Y-3.3884
X4.6102Y-2.028
X4.6102Y-2.1461
X4.6102Y-2.2642
X4.6102Y-2.3823
X4.6102Y-2.5004
X4.6102Y-2.6185
X4.6102Y-3.6815
X4.6102Y-3.9177
X4.6102Y-4.0358
X4.6181Y-3.2992
X4.689Y-2.9232
X4.6895Y-2.8853
X4.7283Y-2.028
X4.7283Y-2.1461
X4.7283Y-2.2642
X4.7283Y-2.3823
X4.7283Y-2.5004
X4.7283Y-2.6185
X4.7283Y-3.9177
X4.7283Y-4.0358
X4.7366Y-3.4691
X4.7514Y-2.975
X4.7543Y-3.5931
X4.838Y-3.0498
X4.8465Y-2.028
X4.8465Y-2.1461
X4.8465Y-2.2642
X4.8465Y-2.3823
X4.8465Y-2.5004
X4.8465Y-2.6185
X4.8465Y-3.7996
X4.8465Y-3.9177
X4.8465Y-4.0358
X4.8583Y-3.2776
X4.8848Y-3.2549
X4.8976Y-3.3169
X4.9198Y-3.2899
X4.9443Y-2.9789
X4.9646Y-2.028
X4.9646Y-2.1461
X4.9646Y-2.2642
X4.9646Y-2.3823
X4.9646Y-2.5004
X4.9646Y-2.6185
X4.9646Y-3.6815
X4.9646Y-3.7996
X4.9646Y-3.9177
X4.9646Y-4.0358
X5.0827Y-2.2642
X5.0827Y-2.3823
X5.0827Y-2.5004
X5.0827Y-2.6185
X5.0827Y-3.3272
X5.0827Y-3.4453
X5.0827Y-3.5634
X5.0827Y-3.6815
X5.0827Y-3.7996
X5.1687Y-3.0459
X5.2008Y-2.3823
X5.2008Y-2.5004
X5.2008Y-2.6185
X5.2008Y-2.7366
X5.2008Y-2.8547
X5.2008Y-3.2091
X5.2008Y-3.3272
X5.2008Y-3.4453
X5.2008Y-3.5634
X5.2008Y-3.6815
X5.2008Y-3.7996
T2
X3.7498Y-3.6598
X3.8498Y-3.5598
X3.8498Y-3.7598
X3.9498Y-3.6598
T3
X2.374Y-2.8071
X2.374Y-2.9055
X2.374Y-2.9843
X2.374Y-3.0827
T4
X3.5388Y-3.1939
X3.5388Y-3.2939
X3.5984Y-2.8957
X3.6388Y-3.1939
X3.6388Y-3.2939
X3.6984Y-2.8957
X3.7984Y-2.8957
X3.8984Y-2.8957
X3.9984Y-2.8957
X4.0984Y-2.8957
T5
X2.2795Y-2.6862
X2.2795Y-3.2035
T6
X4.6461Y-2.7713
X5.022Y-2.7713
X5.022Y-3.1472
T7
X2.126Y-2.126
X2.126Y-3.9764
X5.1575Y-2.126
X5.1575Y-3.9764
T0
M30
