%TF.GenerationSoftware,KiCad,Pcbnew,(6.0.9)*%
%TF.CreationDate,2023-03-07T14:59:43+02:00*%
%TF.ProjectId,GMWPY,474d5750-592e-46b6-9963-61645f706362,rev?*%
%TF.SameCoordinates,Original*%
%TF.FileFunction,Copper,L2,Inr*%
%TF.FilePolarity,Positive*%
%FSLAX46Y46*%
G04 Gerber Fmt 4.6, Leading zero omitted, Abs format (unit mm)*
G04 Created by KiCad (PCBNEW (6.0.9)) date 2023-03-07 14:59:43*
%MOMM*%
%LPD*%
G01*
G04 APERTURE LIST*
%TA.AperFunction,ComponentPad*%
%ADD10C,4.000000*%
%TD*%
%TA.AperFunction,ComponentPad*%
%ADD11R,1.700000X1.700000*%
%TD*%
%TA.AperFunction,ComponentPad*%
%ADD12O,1.700000X1.700000*%
%TD*%
%TA.AperFunction,ComponentPad*%
%ADD13C,3.600000*%
%TD*%
%TA.AperFunction,ComponentPad*%
%ADD14C,1.400000*%
%TD*%
%TA.AperFunction,ComponentPad*%
%ADD15C,3.450000*%
%TD*%
%TA.AperFunction,ComponentPad*%
%ADD16O,1.200000X2.000000*%
%TD*%
%TA.AperFunction,ComponentPad*%
%ADD17O,1.200000X1.200000*%
%TD*%
%TA.AperFunction,ViaPad*%
%ADD18C,0.600000*%
%TD*%
G04 APERTURE END LIST*
D10*
%TO.N,/GAS_Measurements/H2_reference*%
%TO.C,U9*%
X127557971Y-79937971D03*
%TO.N,/GAS_Measurements/H2_sensing*%
X127557971Y-70392029D03*
%TO.N,/GAS_Measurements/H2_counter*%
X118012029Y-70392029D03*
%TD*%
D11*
%TO.N,VBUS*%
%TO.C,J3*%
X91400000Y-73550000D03*
D12*
%TO.N,GND*%
X93940000Y-73550000D03*
%TO.N,GPIO_6*%
X96480000Y-73550000D03*
%TO.N,GPIO_5*%
X99020000Y-73550000D03*
%TO.N,GND*%
X101560000Y-73550000D03*
%TO.N,+3V3*%
X104100000Y-73550000D03*
%TD*%
D13*
%TO.N,GND*%
%TO.C,H3*%
X131000000Y-101000000D03*
%TD*%
D14*
%TO.N,VBUS*%
%TO.C,J1*%
X60300000Y-71300000D03*
%TO.N,D-*%
X60300000Y-73800000D03*
%TO.N,D+*%
X60300000Y-75800000D03*
%TO.N,GND*%
X60300000Y-78300000D03*
D15*
%TO.N,N/C*%
X57900000Y-68230000D03*
X57900000Y-81370000D03*
%TD*%
D13*
%TO.N,GND*%
%TO.C,H2*%
X131000000Y-54000000D03*
%TD*%
%TO.N,GND*%
%TO.C,H4*%
X54000000Y-101000000D03*
%TD*%
%TO.N,GND*%
%TO.C,H1*%
X54000000Y-54000000D03*
%TD*%
D11*
%TO.N,GPIO_5*%
%TO.C,J2*%
X92425000Y-81125000D03*
D12*
%TO.N,+3V3*%
X89885000Y-81125000D03*
%TO.N,GND*%
X92425000Y-83665000D03*
%TO.N,GPIO_6*%
X89885000Y-83665000D03*
%TD*%
D16*
%TO.N,GND*%
%TO.C,U3*%
X97785000Y-90420000D03*
D17*
%TO.N,/GAS_Measurements/CH4_Ref*%
X100325000Y-92960000D03*
%TO.N,+5V*%
X97785000Y-95500000D03*
%TO.N,/GAS_Measurements/CH4_Gas*%
X95245000Y-92960000D03*
%TD*%
D18*
%TO.N,GND*%
X103600000Y-65950000D03*
X92750000Y-66200000D03*
X97250000Y-60800000D03*
X98400000Y-61900000D03*
X99850000Y-63200000D03*
X132100000Y-96510000D03*
X132100000Y-93510000D03*
X132100000Y-90510000D03*
X132100000Y-87510000D03*
X132100000Y-84510000D03*
X132100000Y-81510000D03*
X132100000Y-72510000D03*
X132100000Y-69510000D03*
X132100000Y-66510000D03*
X132100000Y-63510000D03*
X132100000Y-60510000D03*
X129100000Y-96510000D03*
X129100000Y-93510000D03*
X129100000Y-90510000D03*
X129100000Y-87510000D03*
X129100000Y-84510000D03*
X129100000Y-66510000D03*
X129100000Y-63510000D03*
X129100000Y-60510000D03*
X129100000Y-57510000D03*
X126100000Y-102510000D03*
X126100000Y-99510000D03*
X126100000Y-96510000D03*
X126100000Y-93510000D03*
X126100000Y-66510000D03*
X126100000Y-63510000D03*
X126100000Y-60510000D03*
X126100000Y-57510000D03*
X126100000Y-54510000D03*
X126100000Y-51510000D03*
X123100000Y-102510000D03*
X123100000Y-99510000D03*
X123100000Y-96510000D03*
X123100000Y-66510000D03*
X123100000Y-63510000D03*
X123100000Y-60510000D03*
X123100000Y-57510000D03*
X123100000Y-54510000D03*
X123100000Y-51510000D03*
X120100000Y-102510000D03*
X120100000Y-99510000D03*
X120100000Y-66510000D03*
X120100000Y-63510000D03*
X120100000Y-60510000D03*
X120100000Y-57510000D03*
X120100000Y-54510000D03*
X120100000Y-51510000D03*
X117100000Y-102510000D03*
X117100000Y-99510000D03*
X117100000Y-93510000D03*
X117100000Y-66510000D03*
X117100000Y-63510000D03*
X117100000Y-60510000D03*
X117100000Y-57510000D03*
X117100000Y-54510000D03*
X117100000Y-51510000D03*
X114100000Y-102510000D03*
X114100000Y-96510000D03*
X114100000Y-93510000D03*
X114100000Y-69510000D03*
X114100000Y-66510000D03*
X114100000Y-63510000D03*
X114100000Y-60510000D03*
X114100000Y-57510000D03*
X114100000Y-54510000D03*
X114100000Y-51510000D03*
X111100000Y-102510000D03*
X111100000Y-99510000D03*
X111100000Y-96510000D03*
X111100000Y-93510000D03*
X111100000Y-90510000D03*
X111100000Y-72510000D03*
X111100000Y-69510000D03*
X111100000Y-63510000D03*
X111100000Y-60510000D03*
X111100000Y-57510000D03*
X111100000Y-54510000D03*
X111100000Y-51510000D03*
X108100000Y-102510000D03*
X108100000Y-99510000D03*
X108100000Y-96510000D03*
X108100000Y-90510000D03*
X108100000Y-72510000D03*
X108100000Y-69510000D03*
X108100000Y-66510000D03*
X108100000Y-63510000D03*
X108100000Y-60510000D03*
X108100000Y-57510000D03*
X108100000Y-54510000D03*
X108100000Y-51510000D03*
X105100000Y-102510000D03*
X105100000Y-54510000D03*
X105100000Y-51510000D03*
X102100000Y-102510000D03*
X102100000Y-81510000D03*
X102100000Y-78510000D03*
X102100000Y-69510000D03*
X102100000Y-54510000D03*
X102100000Y-51510000D03*
X99100000Y-102510000D03*
X99100000Y-75510000D03*
X99100000Y-54510000D03*
X96100000Y-102510000D03*
X96100000Y-99510000D03*
X96100000Y-84510000D03*
X96100000Y-69510000D03*
X96100000Y-54510000D03*
X93100000Y-102510000D03*
X93100000Y-99510000D03*
X90100000Y-102510000D03*
X90100000Y-69510000D03*
X87100000Y-102510000D03*
X87100000Y-84510000D03*
X87100000Y-81510000D03*
X84100000Y-102510000D03*
X84100000Y-93510000D03*
X84100000Y-87510000D03*
X84100000Y-84510000D03*
X84100000Y-69510000D03*
X84100000Y-66510000D03*
X84100000Y-63510000D03*
X84100000Y-60510000D03*
X81100000Y-102510000D03*
X81100000Y-78510000D03*
X81100000Y-66510000D03*
X81100000Y-63510000D03*
X78100000Y-102510000D03*
X78100000Y-81510000D03*
X78100000Y-72510000D03*
X78100000Y-63510000D03*
X75100000Y-81510000D03*
X75100000Y-78510000D03*
X75100000Y-63510000D03*
X72100000Y-90510000D03*
X72100000Y-87510000D03*
X72100000Y-81510000D03*
X72100000Y-72510000D03*
X72100000Y-66510000D03*
X66100000Y-87510000D03*
X66100000Y-81510000D03*
X66100000Y-78510000D03*
X63100000Y-84510000D03*
X63100000Y-81510000D03*
X63100000Y-78510000D03*
X63100000Y-69510000D03*
X63100000Y-66510000D03*
X63100000Y-63510000D03*
X60100000Y-84510000D03*
X60100000Y-63510000D03*
X60100000Y-60510000D03*
X57100000Y-84510000D03*
X57100000Y-78510000D03*
X57100000Y-75510000D03*
X57100000Y-63510000D03*
X57100000Y-60510000D03*
X54100000Y-72510000D03*
X54100000Y-69510000D03*
X54100000Y-66510000D03*
X54100000Y-63510000D03*
X54100000Y-60510000D03*
X51100000Y-90510000D03*
X51100000Y-87510000D03*
X51100000Y-84510000D03*
X51100000Y-81510000D03*
X51100000Y-78510000D03*
X51100000Y-75510000D03*
X51100000Y-72510000D03*
X51100000Y-69510000D03*
X51100000Y-66510000D03*
X51100000Y-63510000D03*
X51100000Y-60510000D03*
X51100000Y-57510000D03*
X117300000Y-83800000D03*
X67150000Y-68000000D03*
X119100000Y-74250000D03*
X124400000Y-84250000D03*
X123400000Y-83250000D03*
X107700000Y-79800000D03*
X112600000Y-87900000D03*
X64750000Y-68450000D03*
X63000000Y-61650000D03*
X89800000Y-67300000D03*
X89800000Y-66000000D03*
X89850000Y-64750000D03*
X89799999Y-63442031D03*
X89800000Y-62196150D03*
X89850000Y-60950000D03*
X89350000Y-59400000D03*
X91850000Y-75200000D03*
X93650000Y-77200000D03*
X76750000Y-79400000D03*
X52150000Y-93500000D03*
X62000000Y-87950000D03*
X62200000Y-88850000D03*
X60950000Y-87600000D03*
X67200000Y-94600000D03*
X65950000Y-94600000D03*
X75050000Y-66050000D03*
X76450000Y-66050000D03*
X76450000Y-67450000D03*
X75100000Y-67450000D03*
%TO.N,/GAS_Measurements/H2_sensing*%
X119112132Y-73287868D03*
%TO.N,Net-(C1-Pad1)*%
X87050000Y-100900000D03*
X58500000Y-90050000D03*
%TO.N,+3.3VA*%
X111600000Y-87900000D03*
X110600000Y-80450000D03*
X103050000Y-88250000D03*
X90850000Y-86650000D03*
%TO.N,VBUS*%
X74000000Y-71350000D03*
X66000000Y-71350000D03*
%TO.N,+5V*%
X124075000Y-82675000D03*
X124963556Y-83563556D03*
%TO.N,GND*%
X100927970Y-96330910D03*
X104710000Y-89410000D03*
X84700000Y-59100000D03*
X99810000Y-90710000D03*
X85750000Y-98587500D03*
X69700000Y-58800000D03*
X65100000Y-91500000D03*
X65100000Y-92600000D03*
X93700000Y-59400000D03*
X120310000Y-88115000D03*
X125585000Y-75665000D03*
X108810000Y-85910000D03*
X64900000Y-90100000D03*
X77000000Y-99900000D03*
X109404894Y-80252635D03*
X92910000Y-88110000D03*
X98200000Y-68600000D03*
X120760000Y-91265000D03*
X64550000Y-77150000D03*
X87400000Y-59000000D03*
X131285000Y-77365000D03*
X122885000Y-77465000D03*
X79500000Y-99950000D03*
X93600000Y-58200000D03*
X99710000Y-88210000D03*
X86100000Y-58100000D03*
X115485000Y-79365000D03*
X88050000Y-98087500D03*
X107500000Y-78039500D03*
X102800000Y-59800000D03*
X106100000Y-60700000D03*
X101210000Y-99210000D03*
X67500000Y-58200000D03*
X92310000Y-94910000D03*
X102600000Y-57900000D03*
X113485000Y-83665000D03*
X104725000Y-76775000D03*
X95800000Y-65000000D03*
X110185000Y-82365000D03*
X116960000Y-86065000D03*
X70300000Y-93700000D03*
X107685000Y-76265000D03*
X120685000Y-75565000D03*
X104100000Y-68500000D03*
X103310000Y-97910000D03*
X68500000Y-57800000D03*
X77000000Y-93900000D03*
%TO.N,+3V3*%
X100600000Y-59900000D03*
X100595000Y-57895000D03*
X63200000Y-60800000D03*
X69900000Y-60300000D03*
X68200000Y-78800000D03*
%TO.N,/MCU/DATA_2*%
X93300000Y-60300000D03*
X90300000Y-59600000D03*
%TO.N,/MCU/DATA_3*%
X92600000Y-61600000D03*
X90710500Y-61091962D03*
%TO.N,/MCU/CMD*%
X90700000Y-62400000D03*
X93300000Y-62900000D03*
%TO.N,/MCU/CLK*%
X90710500Y-63591962D03*
X92600000Y-64100000D03*
%TO.N,/MCU/DATA_0*%
X90700000Y-65000000D03*
X93300000Y-65400000D03*
%TO.N,/MCU/DATA_1*%
X90710500Y-66173977D03*
X92600000Y-67100000D03*
%TO.N,GPIO_40*%
X92800000Y-68250000D03*
X90710500Y-67350000D03*
%TO.N,+3.3VA*%
X110950000Y-75500000D03*
X105725000Y-78450498D03*
%TO.N,/MCU/ESP_EN*%
X70200000Y-61600000D03*
X73400000Y-84600000D03*
%TO.N,/MCU/ESP_BOOT*%
X81600000Y-84200000D03*
X86025000Y-78175000D03*
%TO.N,GPIO_5*%
X65300000Y-69100000D03*
X101000000Y-85750000D03*
X93875000Y-78225000D03*
X108100000Y-83800000D03*
%TO.N,GPIO_6*%
X66300000Y-68503850D03*
X107800000Y-80750000D03*
X91150000Y-76400000D03*
%TD*%
%TA.AperFunction,Conductor*%
%TO.N,GND*%
G36*
X57092905Y-50519407D02*
G01*
X57128869Y-50568907D01*
X57133704Y-50598077D01*
X57229966Y-57304356D01*
X91500000Y-57050000D01*
X91500000Y-56300228D01*
X91518907Y-56242037D01*
X91540533Y-56220338D01*
X92212976Y-55728244D01*
X129807727Y-55728244D01*
X129813878Y-55734968D01*
X130002464Y-55853267D01*
X130008400Y-55856451D01*
X130263219Y-55971505D01*
X130269517Y-55973848D01*
X130537602Y-56053258D01*
X130544155Y-56054723D01*
X130820532Y-56097015D01*
X130827238Y-56097578D01*
X131106798Y-56101969D01*
X131113503Y-56101618D01*
X131391076Y-56068028D01*
X131397675Y-56066769D01*
X131668125Y-55995818D01*
X131674492Y-55993675D01*
X131932807Y-55886678D01*
X131938824Y-55883691D01*
X132180223Y-55742628D01*
X132185782Y-55738851D01*
X132186187Y-55738533D01*
X132193627Y-55727463D01*
X132193551Y-55725388D01*
X132190893Y-55721224D01*
X131011086Y-54541416D01*
X130999203Y-54535362D01*
X130994172Y-54536158D01*
X129813586Y-55716745D01*
X129807727Y-55728244D01*
X92212976Y-55728244D01*
X94600124Y-53981327D01*
X128895402Y-53981327D01*
X128911497Y-54260455D01*
X128912339Y-54267118D01*
X128966166Y-54541477D01*
X128967911Y-54547988D01*
X129058472Y-54812495D01*
X129061077Y-54818693D01*
X129186700Y-55068467D01*
X129190131Y-55074268D01*
X129264863Y-55183004D01*
X129275444Y-55191123D01*
X129275841Y-55191133D01*
X129282493Y-55187176D01*
X130458584Y-54011086D01*
X130463826Y-54000797D01*
X131535362Y-54000797D01*
X131536158Y-54005828D01*
X132715736Y-55185405D01*
X132727619Y-55191459D01*
X132728840Y-55191266D01*
X132733682Y-55187152D01*
X132775235Y-55130584D01*
X132778842Y-55124901D01*
X132912246Y-54879198D01*
X132915049Y-54873076D01*
X133013879Y-54611535D01*
X133015821Y-54605101D01*
X133078239Y-54332570D01*
X133079292Y-54325920D01*
X133104273Y-54046013D01*
X133104465Y-54042151D01*
X133104887Y-54001937D01*
X133104775Y-53998066D01*
X133085661Y-53717696D01*
X133084747Y-53711025D01*
X133028051Y-53437248D01*
X133026242Y-53430771D01*
X132932913Y-53167218D01*
X132930243Y-53161047D01*
X132802013Y-52912605D01*
X132798521Y-52906839D01*
X132735297Y-52816881D01*
X132724630Y-52808872D01*
X132723951Y-52808861D01*
X132717717Y-52812614D01*
X131541416Y-53988914D01*
X131535362Y-54000797D01*
X130463826Y-54000797D01*
X130464638Y-53999203D01*
X130463842Y-53994172D01*
X129284617Y-52814948D01*
X129272734Y-52808894D01*
X129271789Y-52809043D01*
X129266616Y-52813485D01*
X129213028Y-52888062D01*
X129209476Y-52893790D01*
X129078651Y-53140875D01*
X129075911Y-53147029D01*
X128979829Y-53409587D01*
X128977955Y-53416035D01*
X128918390Y-53689224D01*
X128917410Y-53695863D01*
X128895473Y-53974594D01*
X128895402Y-53981327D01*
X94600124Y-53981327D01*
X96936204Y-52271782D01*
X129805889Y-52271782D01*
X129810563Y-52280232D01*
X130988914Y-53458584D01*
X131000797Y-53464638D01*
X131005828Y-53463842D01*
X132187230Y-52282439D01*
X132193012Y-52271091D01*
X132186640Y-52264198D01*
X131978070Y-52136386D01*
X131972113Y-52133271D01*
X131716095Y-52020886D01*
X131709768Y-52018609D01*
X131440887Y-51942016D01*
X131434288Y-51940614D01*
X131157504Y-51901222D01*
X131150788Y-51900728D01*
X130871192Y-51899265D01*
X130864498Y-51899686D01*
X130587295Y-51936180D01*
X130580696Y-51937510D01*
X130311017Y-52011287D01*
X130304663Y-52013500D01*
X130047501Y-52123188D01*
X130041493Y-52126249D01*
X129814150Y-52262311D01*
X129805889Y-52271782D01*
X96936204Y-52271782D01*
X99330536Y-50519608D01*
X99389001Y-50500500D01*
X134400500Y-50500500D01*
X134458691Y-50519407D01*
X134494655Y-50568907D01*
X134499500Y-50599500D01*
X134499500Y-104400500D01*
X134480593Y-104458691D01*
X134431093Y-104494655D01*
X134400500Y-104499500D01*
X50599500Y-104499500D01*
X50541309Y-104480593D01*
X50505345Y-104431093D01*
X50500500Y-104400500D01*
X50500500Y-102728244D01*
X52807727Y-102728244D01*
X52813878Y-102734968D01*
X53002464Y-102853267D01*
X53008400Y-102856451D01*
X53263219Y-102971505D01*
X53269517Y-102973848D01*
X53537602Y-103053258D01*
X53544155Y-103054723D01*
X53820532Y-103097015D01*
X53827238Y-103097578D01*
X54106798Y-103101969D01*
X54113503Y-103101618D01*
X54391076Y-103068028D01*
X54397675Y-103066769D01*
X54668125Y-102995818D01*
X54674492Y-102993675D01*
X54932807Y-102886678D01*
X54938824Y-102883691D01*
X55180223Y-102742628D01*
X55185782Y-102738851D01*
X55186187Y-102738533D01*
X55193102Y-102728244D01*
X129807727Y-102728244D01*
X129813878Y-102734968D01*
X130002464Y-102853267D01*
X130008400Y-102856451D01*
X130263219Y-102971505D01*
X130269517Y-102973848D01*
X130537602Y-103053258D01*
X130544155Y-103054723D01*
X130820532Y-103097015D01*
X130827238Y-103097578D01*
X131106798Y-103101969D01*
X131113503Y-103101618D01*
X131391076Y-103068028D01*
X131397675Y-103066769D01*
X131668125Y-102995818D01*
X131674492Y-102993675D01*
X131932807Y-102886678D01*
X131938824Y-102883691D01*
X132180223Y-102742628D01*
X132185782Y-102738851D01*
X132186187Y-102738533D01*
X132193627Y-102727463D01*
X132193551Y-102725388D01*
X132190893Y-102721224D01*
X131011086Y-101541416D01*
X130999203Y-101535362D01*
X130994172Y-101536158D01*
X129813586Y-102716745D01*
X129807727Y-102728244D01*
X55193102Y-102728244D01*
X55193627Y-102727463D01*
X55193551Y-102725388D01*
X55190893Y-102721224D01*
X54011086Y-101541416D01*
X53999203Y-101535362D01*
X53994172Y-101536158D01*
X52813586Y-102716745D01*
X52807727Y-102728244D01*
X50500500Y-102728244D01*
X50500500Y-100981327D01*
X51895402Y-100981327D01*
X51911497Y-101260455D01*
X51912339Y-101267118D01*
X51966166Y-101541477D01*
X51967911Y-101547988D01*
X52058472Y-101812495D01*
X52061077Y-101818693D01*
X52186700Y-102068467D01*
X52190131Y-102074268D01*
X52264863Y-102183004D01*
X52275444Y-102191123D01*
X52275841Y-102191133D01*
X52282493Y-102187176D01*
X53458584Y-101011086D01*
X53463826Y-101000797D01*
X54535362Y-101000797D01*
X54536158Y-101005828D01*
X55715736Y-102185405D01*
X55727619Y-102191459D01*
X55728840Y-102191266D01*
X55733682Y-102187152D01*
X55775235Y-102130584D01*
X55778842Y-102124901D01*
X55912246Y-101879198D01*
X55915049Y-101873076D01*
X56013879Y-101611535D01*
X56015821Y-101605101D01*
X56078239Y-101332570D01*
X56079292Y-101325920D01*
X56104273Y-101046013D01*
X56104465Y-101042151D01*
X56104887Y-101001937D01*
X56104775Y-100998066D01*
X56098089Y-100900000D01*
X86494750Y-100900000D01*
X86495597Y-100906433D01*
X86508171Y-101001937D01*
X86513670Y-101043709D01*
X86569139Y-101177625D01*
X86657379Y-101292621D01*
X86772375Y-101380861D01*
X86906291Y-101436330D01*
X86912720Y-101437176D01*
X86912722Y-101437177D01*
X87043567Y-101454403D01*
X87050000Y-101455250D01*
X87056433Y-101454403D01*
X87187278Y-101437177D01*
X87187280Y-101437176D01*
X87193709Y-101436330D01*
X87327625Y-101380861D01*
X87442621Y-101292621D01*
X87530861Y-101177625D01*
X87586330Y-101043709D01*
X87591830Y-101001937D01*
X87594543Y-100981327D01*
X128895402Y-100981327D01*
X128911497Y-101260455D01*
X128912339Y-101267118D01*
X128966166Y-101541477D01*
X128967911Y-101547988D01*
X129058472Y-101812495D01*
X129061077Y-101818693D01*
X129186700Y-102068467D01*
X129190131Y-102074268D01*
X129264863Y-102183004D01*
X129275444Y-102191123D01*
X129275841Y-102191133D01*
X129282493Y-102187176D01*
X130458584Y-101011086D01*
X130463826Y-101000797D01*
X131535362Y-101000797D01*
X131536158Y-101005828D01*
X132715736Y-102185405D01*
X132727619Y-102191459D01*
X132728840Y-102191266D01*
X132733682Y-102187152D01*
X132775235Y-102130584D01*
X132778842Y-102124901D01*
X132912246Y-101879198D01*
X132915049Y-101873076D01*
X133013879Y-101611535D01*
X133015821Y-101605101D01*
X133078239Y-101332570D01*
X133079292Y-101325920D01*
X133104273Y-101046013D01*
X133104465Y-101042151D01*
X133104887Y-101001937D01*
X133104775Y-100998066D01*
X133085661Y-100717696D01*
X133084747Y-100711025D01*
X133028051Y-100437248D01*
X133026242Y-100430771D01*
X132932913Y-100167218D01*
X132930243Y-100161047D01*
X132802013Y-99912605D01*
X132798521Y-99906839D01*
X132735297Y-99816881D01*
X132724630Y-99808872D01*
X132723951Y-99808861D01*
X132717717Y-99812614D01*
X131541416Y-100988914D01*
X131535362Y-101000797D01*
X130463826Y-101000797D01*
X130464638Y-100999203D01*
X130463842Y-100994172D01*
X129284617Y-99814948D01*
X129272734Y-99808894D01*
X129271789Y-99809043D01*
X129266616Y-99813485D01*
X129213028Y-99888062D01*
X129209476Y-99893790D01*
X129078651Y-100140875D01*
X129075911Y-100147029D01*
X128979829Y-100409587D01*
X128977955Y-100416035D01*
X128918390Y-100689224D01*
X128917410Y-100695863D01*
X128895473Y-100974594D01*
X128895402Y-100981327D01*
X87594543Y-100981327D01*
X87604403Y-100906433D01*
X87605250Y-100900000D01*
X87586330Y-100756291D01*
X87530861Y-100622375D01*
X87442621Y-100507379D01*
X87327625Y-100419139D01*
X87193709Y-100363670D01*
X87187280Y-100362824D01*
X87187278Y-100362823D01*
X87056433Y-100345597D01*
X87050000Y-100344750D01*
X87043567Y-100345597D01*
X86912722Y-100362823D01*
X86912720Y-100362824D01*
X86906291Y-100363670D01*
X86772375Y-100419139D01*
X86657379Y-100507379D01*
X86569139Y-100622375D01*
X86513670Y-100756291D01*
X86494750Y-100900000D01*
X56098089Y-100900000D01*
X56085661Y-100717696D01*
X56084747Y-100711025D01*
X56028051Y-100437248D01*
X56026242Y-100430771D01*
X55932913Y-100167218D01*
X55930243Y-100161047D01*
X55802013Y-99912605D01*
X55798521Y-99906839D01*
X55735297Y-99816881D01*
X55724630Y-99808872D01*
X55723951Y-99808861D01*
X55717717Y-99812614D01*
X54541416Y-100988914D01*
X54535362Y-101000797D01*
X53463826Y-101000797D01*
X53464638Y-100999203D01*
X53463842Y-100994172D01*
X52284617Y-99814948D01*
X52272734Y-99808894D01*
X52271789Y-99809043D01*
X52266616Y-99813485D01*
X52213028Y-99888062D01*
X52209476Y-99893790D01*
X52078651Y-100140875D01*
X52075911Y-100147029D01*
X51979829Y-100409587D01*
X51977955Y-100416035D01*
X51918390Y-100689224D01*
X51917410Y-100695863D01*
X51895473Y-100974594D01*
X51895402Y-100981327D01*
X50500500Y-100981327D01*
X50500500Y-99271782D01*
X52805889Y-99271782D01*
X52810563Y-99280232D01*
X53988914Y-100458584D01*
X54000797Y-100464638D01*
X54005828Y-100463842D01*
X55187230Y-99282439D01*
X55192660Y-99271782D01*
X129805889Y-99271782D01*
X129810563Y-99280232D01*
X130988914Y-100458584D01*
X131000797Y-100464638D01*
X131005828Y-100463842D01*
X132187230Y-99282439D01*
X132193012Y-99271091D01*
X132186640Y-99264198D01*
X131978070Y-99136386D01*
X131972113Y-99133271D01*
X131716095Y-99020886D01*
X131709768Y-99018609D01*
X131440887Y-98942016D01*
X131434288Y-98940614D01*
X131157504Y-98901222D01*
X131150788Y-98900728D01*
X130871192Y-98899265D01*
X130864498Y-98899686D01*
X130587295Y-98936180D01*
X130580696Y-98937510D01*
X130311017Y-99011287D01*
X130304663Y-99013500D01*
X130047501Y-99123188D01*
X130041493Y-99126249D01*
X129814150Y-99262311D01*
X129805889Y-99271782D01*
X55192660Y-99271782D01*
X55193012Y-99271091D01*
X55186640Y-99264198D01*
X54978070Y-99136386D01*
X54972113Y-99133271D01*
X54716095Y-99020886D01*
X54709768Y-99018609D01*
X54440887Y-98942016D01*
X54434288Y-98940614D01*
X54157504Y-98901222D01*
X54150788Y-98900728D01*
X53871192Y-98899265D01*
X53864498Y-98899686D01*
X53587295Y-98936180D01*
X53580696Y-98937510D01*
X53311017Y-99011287D01*
X53304663Y-99013500D01*
X53047501Y-99123188D01*
X53041493Y-99126249D01*
X52814150Y-99262311D01*
X52805889Y-99271782D01*
X50500500Y-99271782D01*
X50500500Y-95500000D01*
X96929815Y-95500000D01*
X96948503Y-95677803D01*
X96950104Y-95682730D01*
X96950105Y-95682735D01*
X97002148Y-95842905D01*
X97003750Y-95847835D01*
X97093141Y-96002665D01*
X97212770Y-96135526D01*
X97357407Y-96240612D01*
X97439070Y-96276970D01*
X97515995Y-96311220D01*
X97515999Y-96311221D01*
X97520733Y-96313329D01*
X97525803Y-96314407D01*
X97525804Y-96314407D01*
X97559728Y-96321618D01*
X97695609Y-96350500D01*
X97874391Y-96350500D01*
X98010272Y-96321618D01*
X98044196Y-96314407D01*
X98044197Y-96314407D01*
X98049267Y-96313329D01*
X98054001Y-96311221D01*
X98054005Y-96311220D01*
X98130930Y-96276970D01*
X98212593Y-96240612D01*
X98357230Y-96135526D01*
X98476859Y-96002665D01*
X98566250Y-95847835D01*
X98567852Y-95842905D01*
X98619895Y-95682735D01*
X98619896Y-95682730D01*
X98621497Y-95677803D01*
X98640185Y-95500000D01*
X98621497Y-95322197D01*
X98619896Y-95317270D01*
X98619895Y-95317265D01*
X98567852Y-95157095D01*
X98567851Y-95157094D01*
X98566250Y-95152165D01*
X98476859Y-94997335D01*
X98357230Y-94864474D01*
X98212593Y-94759388D01*
X98130930Y-94723030D01*
X98054005Y-94688780D01*
X98054001Y-94688779D01*
X98049267Y-94686671D01*
X98044197Y-94685593D01*
X98044196Y-94685593D01*
X98010272Y-94678382D01*
X97874391Y-94649500D01*
X97695609Y-94649500D01*
X97559728Y-94678382D01*
X97525804Y-94685593D01*
X97525803Y-94685593D01*
X97520733Y-94686671D01*
X97515999Y-94688779D01*
X97515995Y-94688780D01*
X97362142Y-94757280D01*
X97362140Y-94757281D01*
X97357408Y-94759388D01*
X97212770Y-94864474D01*
X97209304Y-94868324D01*
X97209300Y-94868327D01*
X97101036Y-94988567D01*
X97093141Y-94997335D01*
X97003750Y-95152165D01*
X97002149Y-95157094D01*
X97002148Y-95157095D01*
X96950105Y-95317265D01*
X96950104Y-95317270D01*
X96948503Y-95322197D01*
X96929815Y-95500000D01*
X50500500Y-95500000D01*
X50500500Y-92960000D01*
X94389815Y-92960000D01*
X94408503Y-93137803D01*
X94410104Y-93142730D01*
X94410105Y-93142735D01*
X94462148Y-93302905D01*
X94463750Y-93307835D01*
X94553141Y-93462665D01*
X94672770Y-93595526D01*
X94817407Y-93700612D01*
X94899070Y-93736971D01*
X94975995Y-93771220D01*
X94975999Y-93771221D01*
X94980733Y-93773329D01*
X94985803Y-93774407D01*
X94985804Y-93774407D01*
X95019728Y-93781618D01*
X95155609Y-93810500D01*
X95334391Y-93810500D01*
X95470272Y-93781618D01*
X95504196Y-93774407D01*
X95504197Y-93774407D01*
X95509267Y-93773329D01*
X95514001Y-93771221D01*
X95514005Y-93771220D01*
X95590930Y-93736971D01*
X95672593Y-93700612D01*
X95817230Y-93595526D01*
X95936859Y-93462665D01*
X96026250Y-93307835D01*
X96027852Y-93302905D01*
X96079895Y-93142735D01*
X96079896Y-93142730D01*
X96081497Y-93137803D01*
X96100185Y-92960000D01*
X99469815Y-92960000D01*
X99488503Y-93137803D01*
X99490104Y-93142730D01*
X99490105Y-93142735D01*
X99542148Y-93302905D01*
X99543750Y-93307835D01*
X99633141Y-93462665D01*
X99752770Y-93595526D01*
X99897407Y-93700612D01*
X99979070Y-93736971D01*
X100055995Y-93771220D01*
X100055999Y-93771221D01*
X100060733Y-93773329D01*
X100065803Y-93774407D01*
X100065804Y-93774407D01*
X100099728Y-93781618D01*
X100235609Y-93810500D01*
X100414391Y-93810500D01*
X100550272Y-93781618D01*
X100584196Y-93774407D01*
X100584197Y-93774407D01*
X100589267Y-93773329D01*
X100594001Y-93771221D01*
X100594005Y-93771220D01*
X100670930Y-93736971D01*
X100752593Y-93700612D01*
X100897230Y-93595526D01*
X101016859Y-93462665D01*
X101106250Y-93307835D01*
X101107852Y-93302905D01*
X101159895Y-93142735D01*
X101159896Y-93142730D01*
X101161497Y-93137803D01*
X101180185Y-92960000D01*
X101161497Y-92782197D01*
X101159896Y-92777270D01*
X101159895Y-92777265D01*
X101107852Y-92617095D01*
X101107851Y-92617094D01*
X101106250Y-92612165D01*
X101016859Y-92457335D01*
X100897230Y-92324474D01*
X100752593Y-92219388D01*
X100670930Y-92183030D01*
X100594005Y-92148780D01*
X100594001Y-92148779D01*
X100589267Y-92146671D01*
X100584197Y-92145593D01*
X100584196Y-92145593D01*
X100550272Y-92138382D01*
X100414391Y-92109500D01*
X100235609Y-92109500D01*
X100099728Y-92138382D01*
X100065804Y-92145593D01*
X100065803Y-92145593D01*
X100060733Y-92146671D01*
X100055999Y-92148779D01*
X100055995Y-92148780D01*
X99902142Y-92217280D01*
X99902140Y-92217281D01*
X99897408Y-92219388D01*
X99752770Y-92324474D01*
X99749304Y-92328324D01*
X99749300Y-92328327D01*
X99641036Y-92448567D01*
X99633141Y-92457335D01*
X99543750Y-92612165D01*
X99542149Y-92617094D01*
X99542148Y-92617095D01*
X99490105Y-92777265D01*
X99490104Y-92777270D01*
X99488503Y-92782197D01*
X99469815Y-92960000D01*
X96100185Y-92960000D01*
X96081497Y-92782197D01*
X96079896Y-92777270D01*
X96079895Y-92777265D01*
X96027852Y-92617095D01*
X96027851Y-92617094D01*
X96026250Y-92612165D01*
X95936859Y-92457335D01*
X95817230Y-92324474D01*
X95672593Y-92219388D01*
X95590930Y-92183030D01*
X95514005Y-92148780D01*
X95514001Y-92148779D01*
X95509267Y-92146671D01*
X95504197Y-92145593D01*
X95504196Y-92145593D01*
X95470272Y-92138382D01*
X95334391Y-92109500D01*
X95155609Y-92109500D01*
X95019728Y-92138382D01*
X94985804Y-92145593D01*
X94985803Y-92145593D01*
X94980733Y-92146671D01*
X94975999Y-92148779D01*
X94975995Y-92148780D01*
X94822142Y-92217280D01*
X94822140Y-92217281D01*
X94817408Y-92219388D01*
X94672770Y-92324474D01*
X94669304Y-92328324D01*
X94669300Y-92328327D01*
X94561036Y-92448567D01*
X94553141Y-92457335D01*
X94463750Y-92612165D01*
X94462149Y-92617094D01*
X94462148Y-92617095D01*
X94410105Y-92777265D01*
X94410104Y-92777270D01*
X94408503Y-92782197D01*
X94389815Y-92960000D01*
X50500500Y-92960000D01*
X50500500Y-90864583D01*
X96885000Y-90864583D01*
X96885270Y-90869728D01*
X96899276Y-91002990D01*
X96901423Y-91013090D01*
X96956676Y-91183140D01*
X96960875Y-91192572D01*
X97050281Y-91347429D01*
X97056346Y-91355776D01*
X97175994Y-91488658D01*
X97183665Y-91495565D01*
X97328324Y-91600666D01*
X97337259Y-91605825D01*
X97395675Y-91631834D01*
X97407005Y-91633025D01*
X97410000Y-91626298D01*
X97410000Y-91622531D01*
X98160000Y-91622531D01*
X98163521Y-91633366D01*
X98170882Y-91633366D01*
X98232745Y-91605823D01*
X98241669Y-91600671D01*
X98386341Y-91495560D01*
X98394004Y-91488661D01*
X98513654Y-91355776D01*
X98519719Y-91347429D01*
X98609125Y-91192572D01*
X98613324Y-91183140D01*
X98668577Y-91013090D01*
X98670724Y-91002990D01*
X98684730Y-90869728D01*
X98685000Y-90864583D01*
X98685000Y-90810680D01*
X98680878Y-90797995D01*
X98676757Y-90795000D01*
X98175680Y-90795000D01*
X98162995Y-90799122D01*
X98160000Y-90803243D01*
X98160000Y-91622531D01*
X97410000Y-91622531D01*
X97410000Y-90810680D01*
X97405878Y-90797995D01*
X97401757Y-90795000D01*
X96900680Y-90795000D01*
X96887995Y-90799122D01*
X96885000Y-90803243D01*
X96885000Y-90864583D01*
X50500500Y-90864583D01*
X50500500Y-90050000D01*
X57944750Y-90050000D01*
X57963670Y-90193709D01*
X58019139Y-90327625D01*
X58107379Y-90442621D01*
X58222375Y-90530861D01*
X58356291Y-90586330D01*
X58362720Y-90587176D01*
X58362722Y-90587177D01*
X58493567Y-90604403D01*
X58500000Y-90605250D01*
X58506433Y-90604403D01*
X58637278Y-90587177D01*
X58637280Y-90587176D01*
X58643709Y-90586330D01*
X58777625Y-90530861D01*
X58892621Y-90442621D01*
X58980861Y-90327625D01*
X59036330Y-90193709D01*
X59055250Y-90050000D01*
X59052527Y-90029320D01*
X96885000Y-90029320D01*
X96889122Y-90042005D01*
X96893243Y-90045000D01*
X97394320Y-90045000D01*
X97407005Y-90040878D01*
X97410000Y-90036757D01*
X97410000Y-90029320D01*
X98160000Y-90029320D01*
X98164122Y-90042005D01*
X98168243Y-90045000D01*
X98669320Y-90045000D01*
X98682005Y-90040878D01*
X98685000Y-90036757D01*
X98685000Y-89975417D01*
X98684730Y-89970272D01*
X98670724Y-89837010D01*
X98668577Y-89826910D01*
X98613324Y-89656860D01*
X98609125Y-89647428D01*
X98519719Y-89492571D01*
X98513654Y-89484224D01*
X98394006Y-89351342D01*
X98386335Y-89344435D01*
X98241676Y-89239334D01*
X98232741Y-89234175D01*
X98174325Y-89208166D01*
X98162995Y-89206975D01*
X98160000Y-89213702D01*
X98160000Y-90029320D01*
X97410000Y-90029320D01*
X97410000Y-89217469D01*
X97406479Y-89206634D01*
X97399118Y-89206634D01*
X97337255Y-89234177D01*
X97328331Y-89239329D01*
X97183659Y-89344440D01*
X97175996Y-89351339D01*
X97056346Y-89484224D01*
X97050281Y-89492571D01*
X96960875Y-89647428D01*
X96956676Y-89656860D01*
X96901423Y-89826910D01*
X96899276Y-89837010D01*
X96885270Y-89970272D01*
X96885000Y-89975417D01*
X96885000Y-90029320D01*
X59052527Y-90029320D01*
X59045431Y-89975417D01*
X59037177Y-89912722D01*
X59037176Y-89912720D01*
X59036330Y-89906291D01*
X58980861Y-89772375D01*
X58892621Y-89657379D01*
X58777625Y-89569139D01*
X58643709Y-89513670D01*
X58637280Y-89512824D01*
X58637278Y-89512823D01*
X58506433Y-89495597D01*
X58500000Y-89494750D01*
X58493567Y-89495597D01*
X58362722Y-89512823D01*
X58362720Y-89512824D01*
X58356291Y-89513670D01*
X58222375Y-89569139D01*
X58107379Y-89657379D01*
X58019139Y-89772375D01*
X57963670Y-89906291D01*
X57962824Y-89912720D01*
X57962823Y-89912722D01*
X57954569Y-89975417D01*
X57944750Y-90050000D01*
X50500500Y-90050000D01*
X50500500Y-88250000D01*
X102494750Y-88250000D01*
X102495597Y-88256433D01*
X102512306Y-88383345D01*
X102513670Y-88393709D01*
X102569139Y-88527625D01*
X102657379Y-88642621D01*
X102772375Y-88730861D01*
X102906291Y-88786330D01*
X102912720Y-88787176D01*
X102912722Y-88787177D01*
X103043567Y-88804403D01*
X103050000Y-88805250D01*
X103056433Y-88804403D01*
X103187278Y-88787177D01*
X103187280Y-88787176D01*
X103193709Y-88786330D01*
X103327625Y-88730861D01*
X103442621Y-88642621D01*
X103530861Y-88527625D01*
X103586330Y-88393709D01*
X103587695Y-88383345D01*
X103604403Y-88256433D01*
X103605250Y-88250000D01*
X103596399Y-88182774D01*
X103587177Y-88112722D01*
X103587176Y-88112720D01*
X103586330Y-88106291D01*
X103530861Y-87972375D01*
X103475325Y-87900000D01*
X111044750Y-87900000D01*
X111045597Y-87906433D01*
X111054279Y-87972375D01*
X111063670Y-88043709D01*
X111119139Y-88177625D01*
X111207379Y-88292621D01*
X111322375Y-88380861D01*
X111456291Y-88436330D01*
X111462720Y-88437176D01*
X111462722Y-88437177D01*
X111593567Y-88454403D01*
X111600000Y-88455250D01*
X111606433Y-88454403D01*
X111737278Y-88437177D01*
X111737280Y-88437176D01*
X111743709Y-88436330D01*
X111877625Y-88380861D01*
X111992621Y-88292621D01*
X112080861Y-88177625D01*
X112136330Y-88043709D01*
X112145722Y-87972375D01*
X112154403Y-87906433D01*
X112155250Y-87900000D01*
X112138022Y-87769139D01*
X112137177Y-87762722D01*
X112137176Y-87762720D01*
X112136330Y-87756291D01*
X112080861Y-87622375D01*
X111992621Y-87507379D01*
X111877625Y-87419139D01*
X111743709Y-87363670D01*
X111737280Y-87362824D01*
X111737278Y-87362823D01*
X111606433Y-87345597D01*
X111600000Y-87344750D01*
X111593567Y-87345597D01*
X111462722Y-87362823D01*
X111462720Y-87362824D01*
X111456291Y-87363670D01*
X111322375Y-87419139D01*
X111207379Y-87507379D01*
X111119139Y-87622375D01*
X111063670Y-87756291D01*
X111062824Y-87762720D01*
X111062823Y-87762722D01*
X111061978Y-87769139D01*
X111044750Y-87900000D01*
X103475325Y-87900000D01*
X103442621Y-87857379D01*
X103327625Y-87769139D01*
X103193709Y-87713670D01*
X103187280Y-87712824D01*
X103187278Y-87712823D01*
X103056433Y-87695597D01*
X103050000Y-87694750D01*
X103043567Y-87695597D01*
X102912722Y-87712823D01*
X102912720Y-87712824D01*
X102906291Y-87713670D01*
X102772375Y-87769139D01*
X102657379Y-87857379D01*
X102569139Y-87972375D01*
X102513670Y-88106291D01*
X102512824Y-88112720D01*
X102512823Y-88112722D01*
X102503601Y-88182774D01*
X102494750Y-88250000D01*
X50500500Y-88250000D01*
X50500500Y-86650000D01*
X90294750Y-86650000D01*
X90313670Y-86793709D01*
X90369139Y-86927625D01*
X90457379Y-87042621D01*
X90572375Y-87130861D01*
X90706291Y-87186330D01*
X90712720Y-87187176D01*
X90712722Y-87187177D01*
X90843567Y-87204403D01*
X90850000Y-87205250D01*
X90856433Y-87204403D01*
X90987278Y-87187177D01*
X90987280Y-87187176D01*
X90993709Y-87186330D01*
X91127625Y-87130861D01*
X91242621Y-87042621D01*
X91330861Y-86927625D01*
X91386330Y-86793709D01*
X91405250Y-86650000D01*
X91386330Y-86506291D01*
X91330861Y-86372375D01*
X91242621Y-86257379D01*
X91127625Y-86169139D01*
X90993709Y-86113670D01*
X90987280Y-86112824D01*
X90987278Y-86112823D01*
X90856433Y-86095597D01*
X90850000Y-86094750D01*
X90843567Y-86095597D01*
X90712722Y-86112823D01*
X90712720Y-86112824D01*
X90706291Y-86113670D01*
X90572375Y-86169139D01*
X90457379Y-86257379D01*
X90369139Y-86372375D01*
X90313670Y-86506291D01*
X90294750Y-86650000D01*
X50500500Y-86650000D01*
X50500500Y-85750000D01*
X100444750Y-85750000D01*
X100463670Y-85893709D01*
X100519139Y-86027625D01*
X100607379Y-86142621D01*
X100722375Y-86230861D01*
X100856291Y-86286330D01*
X100862720Y-86287176D01*
X100862722Y-86287177D01*
X100993567Y-86304403D01*
X101000000Y-86305250D01*
X101006433Y-86304403D01*
X101137278Y-86287177D01*
X101137280Y-86287176D01*
X101143709Y-86286330D01*
X101277625Y-86230861D01*
X101392621Y-86142621D01*
X101480861Y-86027625D01*
X101536330Y-85893709D01*
X101555250Y-85750000D01*
X101536330Y-85606291D01*
X101480861Y-85472375D01*
X101392621Y-85357379D01*
X101277625Y-85269139D01*
X101143709Y-85213670D01*
X101137280Y-85212824D01*
X101137278Y-85212823D01*
X101006433Y-85195597D01*
X101000000Y-85194750D01*
X100993567Y-85195597D01*
X100862722Y-85212823D01*
X100862720Y-85212824D01*
X100856291Y-85213670D01*
X100722375Y-85269139D01*
X100607379Y-85357379D01*
X100519139Y-85472375D01*
X100463670Y-85606291D01*
X100444750Y-85750000D01*
X50500500Y-85750000D01*
X50500500Y-84600000D01*
X72844750Y-84600000D01*
X72845597Y-84606433D01*
X72862699Y-84736330D01*
X72863670Y-84743709D01*
X72919139Y-84877625D01*
X73007379Y-84992621D01*
X73122375Y-85080861D01*
X73256291Y-85136330D01*
X73262720Y-85137176D01*
X73262722Y-85137177D01*
X73393567Y-85154403D01*
X73400000Y-85155250D01*
X73406433Y-85154403D01*
X73537278Y-85137177D01*
X73537280Y-85137176D01*
X73543709Y-85136330D01*
X73677625Y-85080861D01*
X73792621Y-84992621D01*
X73880861Y-84877625D01*
X73936330Y-84743709D01*
X73937302Y-84736330D01*
X73954403Y-84606433D01*
X73955250Y-84600000D01*
X73936330Y-84456291D01*
X73880861Y-84322375D01*
X73792621Y-84207379D01*
X73783005Y-84200000D01*
X81044750Y-84200000D01*
X81046399Y-84212528D01*
X81062699Y-84336330D01*
X81063670Y-84343709D01*
X81119139Y-84477625D01*
X81207379Y-84592621D01*
X81322375Y-84680861D01*
X81456291Y-84736330D01*
X81462720Y-84737176D01*
X81462722Y-84737177D01*
X81593567Y-84754403D01*
X81600000Y-84755250D01*
X81606433Y-84754403D01*
X81737278Y-84737177D01*
X81737280Y-84737176D01*
X81743709Y-84736330D01*
X81877625Y-84680861D01*
X81992621Y-84592621D01*
X82080861Y-84477625D01*
X82136330Y-84343709D01*
X82137302Y-84336330D01*
X82153601Y-84212528D01*
X82155250Y-84200000D01*
X82146094Y-84130454D01*
X82137177Y-84062722D01*
X82137176Y-84062720D01*
X82136330Y-84056291D01*
X82080861Y-83922375D01*
X81992621Y-83807379D01*
X81877625Y-83719139D01*
X81743709Y-83663670D01*
X81737280Y-83662824D01*
X81737278Y-83662823D01*
X81606433Y-83645597D01*
X81600000Y-83644750D01*
X81593567Y-83645597D01*
X81462722Y-83662823D01*
X81462720Y-83662824D01*
X81456291Y-83663670D01*
X81322375Y-83719139D01*
X81207379Y-83807379D01*
X81119139Y-83922375D01*
X81063670Y-84056291D01*
X81062824Y-84062720D01*
X81062823Y-84062722D01*
X81053906Y-84130454D01*
X81044750Y-84200000D01*
X73783005Y-84200000D01*
X73677625Y-84119139D01*
X73543709Y-84063670D01*
X73537280Y-84062824D01*
X73537278Y-84062823D01*
X73406433Y-84045597D01*
X73400000Y-84044750D01*
X73393567Y-84045597D01*
X73262722Y-84062823D01*
X73262720Y-84062824D01*
X73256291Y-84063670D01*
X73122375Y-84119139D01*
X73007379Y-84207379D01*
X72919139Y-84322375D01*
X72863670Y-84456291D01*
X72844750Y-84600000D01*
X50500500Y-84600000D01*
X50500500Y-83636069D01*
X88780164Y-83636069D01*
X88781870Y-83662101D01*
X88790487Y-83793567D01*
X88793392Y-83837894D01*
X88794508Y-83842287D01*
X88794508Y-83842289D01*
X88818632Y-83937278D01*
X88843178Y-84033928D01*
X88927856Y-84217607D01*
X89044588Y-84382780D01*
X89189466Y-84523913D01*
X89357637Y-84636282D01*
X89543470Y-84716122D01*
X89740740Y-84760760D01*
X89942842Y-84768700D01*
X89996377Y-84760938D01*
X90138519Y-84740329D01*
X90138522Y-84740328D01*
X90143007Y-84739678D01*
X90238769Y-84707171D01*
X90330234Y-84676123D01*
X90330237Y-84676121D01*
X90334531Y-84674664D01*
X90511001Y-84575837D01*
X90666505Y-84446505D01*
X90795837Y-84291001D01*
X90894664Y-84114531D01*
X90899636Y-84099886D01*
X90916008Y-84051655D01*
X91337160Y-84051655D01*
X91338222Y-84054653D01*
X91422904Y-84238341D01*
X91427422Y-84246167D01*
X91544171Y-84411363D01*
X91550035Y-84418229D01*
X91694931Y-84559381D01*
X91701954Y-84565068D01*
X91870138Y-84677446D01*
X91878093Y-84681764D01*
X92035591Y-84749431D01*
X92046938Y-84750473D01*
X92050000Y-84743346D01*
X92050000Y-84736562D01*
X92800000Y-84736562D01*
X92803447Y-84747172D01*
X92815163Y-84747095D01*
X92890454Y-84721537D01*
X92898712Y-84717859D01*
X93075194Y-84619026D01*
X93082652Y-84613900D01*
X93238157Y-84484568D01*
X93244568Y-84478157D01*
X93373900Y-84322652D01*
X93379026Y-84315194D01*
X93477859Y-84138712D01*
X93481537Y-84130454D01*
X93507201Y-84054849D01*
X93507347Y-84043693D01*
X93496230Y-84040000D01*
X92815680Y-84040000D01*
X92802995Y-84044122D01*
X92800000Y-84048243D01*
X92800000Y-84736562D01*
X92050000Y-84736562D01*
X92050000Y-84055680D01*
X92045878Y-84042995D01*
X92041757Y-84040000D01*
X91349326Y-84040000D01*
X91337415Y-84043870D01*
X91337160Y-84051655D01*
X90916008Y-84051655D01*
X90950616Y-83949703D01*
X90959678Y-83923007D01*
X90970796Y-83846330D01*
X90977513Y-83800000D01*
X107544750Y-83800000D01*
X107546399Y-83812528D01*
X107560354Y-83918519D01*
X107563670Y-83943709D01*
X107619139Y-84077625D01*
X107707379Y-84192621D01*
X107822375Y-84280861D01*
X107956291Y-84336330D01*
X107962720Y-84337176D01*
X107962722Y-84337177D01*
X108093567Y-84354403D01*
X108100000Y-84355250D01*
X108106433Y-84354403D01*
X108237278Y-84337177D01*
X108237280Y-84337176D01*
X108243709Y-84336330D01*
X108377625Y-84280861D01*
X108492621Y-84192621D01*
X108580861Y-84077625D01*
X108636330Y-83943709D01*
X108639647Y-83918519D01*
X108653601Y-83812528D01*
X108655250Y-83800000D01*
X108645470Y-83725717D01*
X108637177Y-83662722D01*
X108637176Y-83662720D01*
X108636330Y-83656291D01*
X108580861Y-83522375D01*
X108492621Y-83407379D01*
X108377625Y-83319139D01*
X108243709Y-83263670D01*
X108237280Y-83262824D01*
X108237278Y-83262823D01*
X108106433Y-83245597D01*
X108100000Y-83244750D01*
X108093567Y-83245597D01*
X107962722Y-83262823D01*
X107962720Y-83262824D01*
X107956291Y-83263670D01*
X107822375Y-83319139D01*
X107707379Y-83407379D01*
X107619139Y-83522375D01*
X107563670Y-83656291D01*
X107562824Y-83662720D01*
X107562823Y-83662722D01*
X107554530Y-83725717D01*
X107544750Y-83800000D01*
X90977513Y-83800000D01*
X90988283Y-83725717D01*
X90988700Y-83722842D01*
X90990215Y-83665000D01*
X90988355Y-83644750D01*
X90972123Y-83468109D01*
X90971708Y-83463591D01*
X90918527Y-83275024D01*
X91341842Y-83275024D01*
X91341994Y-83286650D01*
X91352540Y-83290000D01*
X92034320Y-83290000D01*
X92047005Y-83285878D01*
X92050000Y-83281757D01*
X92050000Y-83274320D01*
X92800000Y-83274320D01*
X92804122Y-83287005D01*
X92808243Y-83290000D01*
X93498505Y-83290000D01*
X93509995Y-83286267D01*
X93510199Y-83275866D01*
X93504449Y-83255481D01*
X93501208Y-83247037D01*
X93411745Y-83065624D01*
X93407020Y-83057914D01*
X93285994Y-82895840D01*
X93279945Y-82889122D01*
X93131405Y-82751814D01*
X93124240Y-82746315D01*
X93011212Y-82675000D01*
X123519750Y-82675000D01*
X123520597Y-82681433D01*
X123529707Y-82750626D01*
X123538670Y-82818709D01*
X123594139Y-82952625D01*
X123682379Y-83067621D01*
X123797375Y-83155861D01*
X123931291Y-83211330D01*
X123937720Y-83212176D01*
X123937722Y-83212177D01*
X124040858Y-83225755D01*
X124053034Y-83227358D01*
X124068567Y-83229403D01*
X124075000Y-83230250D01*
X124081433Y-83229403D01*
X124096967Y-83227358D01*
X124109142Y-83225755D01*
X124212278Y-83212177D01*
X124212280Y-83212176D01*
X124218709Y-83211330D01*
X124352625Y-83155861D01*
X124353629Y-83158284D01*
X124402563Y-83147882D01*
X124458459Y-83172767D01*
X124489052Y-83225755D01*
X124482734Y-83285880D01*
X124482695Y-83285931D01*
X124427226Y-83419847D01*
X124408306Y-83563556D01*
X124409153Y-83569989D01*
X124421662Y-83665000D01*
X124427226Y-83707265D01*
X124482695Y-83841181D01*
X124570935Y-83956177D01*
X124685931Y-84044417D01*
X124819847Y-84099886D01*
X124826276Y-84100732D01*
X124826278Y-84100733D01*
X124957123Y-84117959D01*
X124963556Y-84118806D01*
X124969989Y-84117959D01*
X125100834Y-84100733D01*
X125100836Y-84100732D01*
X125107265Y-84099886D01*
X125241181Y-84044417D01*
X125356177Y-83956177D01*
X125444417Y-83841181D01*
X125499886Y-83707265D01*
X125505451Y-83665000D01*
X125517959Y-83569989D01*
X125518806Y-83563556D01*
X125499886Y-83419847D01*
X125444417Y-83285931D01*
X125356177Y-83170935D01*
X125241181Y-83082695D01*
X125107265Y-83027226D01*
X125100836Y-83026380D01*
X125100834Y-83026379D01*
X124969989Y-83009153D01*
X124963556Y-83008306D01*
X124957123Y-83009153D01*
X124826278Y-83026379D01*
X124826276Y-83026380D01*
X124819847Y-83027226D01*
X124685931Y-83082695D01*
X124684927Y-83080272D01*
X124635993Y-83090674D01*
X124580097Y-83065789D01*
X124549504Y-83012801D01*
X124555822Y-82952676D01*
X124555861Y-82952625D01*
X124611330Y-82818709D01*
X124620294Y-82750626D01*
X124629403Y-82681433D01*
X124630250Y-82675000D01*
X124624888Y-82634272D01*
X124612177Y-82537722D01*
X124612176Y-82537720D01*
X124611330Y-82531291D01*
X124555861Y-82397375D01*
X124467621Y-82282379D01*
X124352625Y-82194139D01*
X124218709Y-82138670D01*
X124212280Y-82137824D01*
X124212278Y-82137823D01*
X124081433Y-82120597D01*
X124075000Y-82119750D01*
X124068567Y-82120597D01*
X123937722Y-82137823D01*
X123937720Y-82137824D01*
X123931291Y-82138670D01*
X123797375Y-82194139D01*
X123682379Y-82282379D01*
X123594139Y-82397375D01*
X123538670Y-82531291D01*
X123537824Y-82537720D01*
X123537823Y-82537722D01*
X123525112Y-82634272D01*
X123519750Y-82675000D01*
X93011212Y-82675000D01*
X92953163Y-82638374D01*
X92945113Y-82634272D01*
X92814564Y-82582187D01*
X92803196Y-82581442D01*
X92800000Y-82589453D01*
X92800000Y-83274320D01*
X92050000Y-83274320D01*
X92050000Y-82593175D01*
X92046702Y-82583025D01*
X92034353Y-82583267D01*
X91932054Y-82621007D01*
X91923886Y-82624903D01*
X91750047Y-82728326D01*
X91742745Y-82733631D01*
X91590657Y-82867010D01*
X91584434Y-82873568D01*
X91459209Y-83032415D01*
X91454284Y-83039998D01*
X91360097Y-83219018D01*
X91356643Y-83227358D01*
X91341842Y-83275024D01*
X90918527Y-83275024D01*
X90916807Y-83268926D01*
X90904400Y-83243766D01*
X90829359Y-83091599D01*
X90827351Y-83087527D01*
X90706335Y-82925467D01*
X90557812Y-82788174D01*
X90535125Y-82773859D01*
X90390594Y-82682667D01*
X90386757Y-82680246D01*
X90198898Y-82605298D01*
X90000526Y-82565839D01*
X89900930Y-82564535D01*
X89802826Y-82563251D01*
X89802821Y-82563251D01*
X89798286Y-82563192D01*
X89793813Y-82563961D01*
X89793808Y-82563961D01*
X89695245Y-82580898D01*
X89598949Y-82597444D01*
X89409193Y-82667449D01*
X89235371Y-82770862D01*
X89231956Y-82773857D01*
X89231953Y-82773859D01*
X89180812Y-82818709D01*
X89083305Y-82904220D01*
X89080497Y-82907782D01*
X88986336Y-83027226D01*
X88958089Y-83063057D01*
X88863914Y-83242053D01*
X88862569Y-83246384D01*
X88862568Y-83246387D01*
X88810981Y-83412528D01*
X88803937Y-83435213D01*
X88794230Y-83517226D01*
X88788747Y-83563556D01*
X88780164Y-83636069D01*
X50500500Y-83636069D01*
X50500500Y-81307790D01*
X55920431Y-81307790D01*
X55931415Y-81587334D01*
X55981676Y-81862542D01*
X55982783Y-81865860D01*
X55982784Y-81865864D01*
X56023010Y-81986434D01*
X56070214Y-82127922D01*
X56195261Y-82378180D01*
X56354322Y-82608322D01*
X56544223Y-82813756D01*
X56546933Y-82815963D01*
X56546937Y-82815966D01*
X56714797Y-82952625D01*
X56761176Y-82990383D01*
X57000851Y-83134679D01*
X57004075Y-83136044D01*
X57255238Y-83242399D01*
X57255242Y-83242400D01*
X57258467Y-83243766D01*
X57369841Y-83273296D01*
X57525487Y-83314565D01*
X57525493Y-83314566D01*
X57528883Y-83315465D01*
X57806704Y-83348347D01*
X57810193Y-83348265D01*
X57810198Y-83348265D01*
X57937701Y-83345260D01*
X58086386Y-83341756D01*
X58362349Y-83295823D01*
X58365681Y-83294769D01*
X58365686Y-83294768D01*
X58489910Y-83255481D01*
X58629088Y-83211465D01*
X58632246Y-83209949D01*
X58632250Y-83209947D01*
X58878118Y-83091883D01*
X58878119Y-83091882D01*
X58881279Y-83090365D01*
X59113891Y-82934938D01*
X59148187Y-82904220D01*
X59319671Y-82750626D01*
X59319674Y-82750623D01*
X59322282Y-82748287D01*
X59502295Y-82534136D01*
X59650338Y-82296757D01*
X59693256Y-82199678D01*
X59762042Y-82044090D01*
X59762044Y-82044084D01*
X59763458Y-82040886D01*
X59764406Y-82037523D01*
X59764409Y-82037516D01*
X59838445Y-81775001D01*
X59839396Y-81771630D01*
X59876638Y-81494360D01*
X59876790Y-81489534D01*
X59880467Y-81372528D01*
X59880467Y-81372519D01*
X59880546Y-81370000D01*
X59876389Y-81311286D01*
X59861151Y-81096069D01*
X88780164Y-81096069D01*
X88780461Y-81100597D01*
X88792690Y-81287177D01*
X88793392Y-81297894D01*
X88794508Y-81302287D01*
X88794508Y-81302289D01*
X88813868Y-81378519D01*
X88843178Y-81493928D01*
X88927856Y-81677607D01*
X89044588Y-81842780D01*
X89189466Y-81983913D01*
X89357637Y-82096282D01*
X89543470Y-82176122D01*
X89740740Y-82220760D01*
X89942842Y-82228700D01*
X89952651Y-82227278D01*
X90138519Y-82200329D01*
X90138522Y-82200328D01*
X90143007Y-82199678D01*
X90272853Y-82155601D01*
X90330234Y-82136123D01*
X90330237Y-82136121D01*
X90334531Y-82134664D01*
X90496264Y-82044090D01*
X90507039Y-82038056D01*
X90507041Y-82038055D01*
X90511001Y-82035837D01*
X90554482Y-81999674D01*
X91324500Y-81999674D01*
X91339034Y-82072740D01*
X91344451Y-82080847D01*
X91380410Y-82134664D01*
X91394399Y-82155601D01*
X91402509Y-82161020D01*
X91435381Y-82182984D01*
X91477260Y-82210966D01*
X91550326Y-82225500D01*
X93299674Y-82225500D01*
X93372740Y-82210966D01*
X93414619Y-82182984D01*
X93447491Y-82161020D01*
X93455601Y-82155601D01*
X93469591Y-82134664D01*
X93505549Y-82080847D01*
X93510966Y-82072740D01*
X93525500Y-81999674D01*
X93525500Y-80750000D01*
X107244750Y-80750000D01*
X107263670Y-80893709D01*
X107319139Y-81027625D01*
X107407379Y-81142621D01*
X107522375Y-81230861D01*
X107656291Y-81286330D01*
X107662720Y-81287176D01*
X107662722Y-81287177D01*
X107772221Y-81301593D01*
X107777510Y-81302289D01*
X107793567Y-81304403D01*
X107800000Y-81305250D01*
X107806433Y-81304403D01*
X107822491Y-81302289D01*
X107827779Y-81301593D01*
X107937278Y-81287177D01*
X107937280Y-81287176D01*
X107943709Y-81286330D01*
X108077625Y-81230861D01*
X108192621Y-81142621D01*
X108280861Y-81027625D01*
X108336330Y-80893709D01*
X108355250Y-80750000D01*
X108336330Y-80606291D01*
X108280861Y-80472375D01*
X108263692Y-80450000D01*
X110044750Y-80450000D01*
X110045597Y-80456433D01*
X110051586Y-80501920D01*
X110063670Y-80593709D01*
X110119139Y-80727625D01*
X110207379Y-80842621D01*
X110322375Y-80930861D01*
X110456291Y-80986330D01*
X110462720Y-80987176D01*
X110462722Y-80987177D01*
X110593567Y-81004403D01*
X110600000Y-81005250D01*
X110606433Y-81004403D01*
X110737278Y-80987177D01*
X110737280Y-80987176D01*
X110743709Y-80986330D01*
X110877625Y-80930861D01*
X110992621Y-80842621D01*
X111080861Y-80727625D01*
X111136330Y-80593709D01*
X111148415Y-80501920D01*
X111154403Y-80456433D01*
X111155250Y-80450000D01*
X111136330Y-80306291D01*
X111080861Y-80172375D01*
X110999987Y-80066979D01*
X110996572Y-80062528D01*
X110992621Y-80057379D01*
X110877625Y-79969139D01*
X110802378Y-79937971D01*
X125302642Y-79937971D01*
X125302854Y-79941205D01*
X125320713Y-80213670D01*
X125321937Y-80232351D01*
X125379490Y-80521693D01*
X125474319Y-80801048D01*
X125520756Y-80895213D01*
X125588594Y-81032774D01*
X125604799Y-81065635D01*
X125768698Y-81310928D01*
X125770837Y-81313367D01*
X125931765Y-81496869D01*
X125963213Y-81532729D01*
X126185014Y-81727244D01*
X126187716Y-81729049D01*
X126187718Y-81729051D01*
X126392473Y-81865864D01*
X126430306Y-81891143D01*
X126433210Y-81892575D01*
X126433215Y-81892578D01*
X126650386Y-81999674D01*
X126694894Y-82021623D01*
X126697963Y-82022665D01*
X126697966Y-82022666D01*
X126761079Y-82044090D01*
X126974249Y-82116452D01*
X127263591Y-82174005D01*
X127266813Y-82174216D01*
X127266819Y-82174217D01*
X127554737Y-82193088D01*
X127557971Y-82193300D01*
X127561205Y-82193088D01*
X127849123Y-82174217D01*
X127849129Y-82174216D01*
X127852351Y-82174005D01*
X128141693Y-82116452D01*
X128354863Y-82044090D01*
X128417976Y-82022666D01*
X128417979Y-82022665D01*
X128421048Y-82021623D01*
X128465556Y-81999674D01*
X128682727Y-81892578D01*
X128682732Y-81892575D01*
X128685636Y-81891143D01*
X128723469Y-81865864D01*
X128928224Y-81729051D01*
X128928226Y-81729049D01*
X128930928Y-81727244D01*
X129152729Y-81532729D01*
X129184178Y-81496869D01*
X129345105Y-81313367D01*
X129347244Y-81310928D01*
X129511143Y-81065635D01*
X129527349Y-81032774D01*
X129595186Y-80895213D01*
X129641623Y-80801048D01*
X129736452Y-80521693D01*
X129794005Y-80232351D01*
X129795230Y-80213670D01*
X129813088Y-79941205D01*
X129813300Y-79937971D01*
X129798802Y-79716771D01*
X129794217Y-79646819D01*
X129794216Y-79646813D01*
X129794005Y-79643591D01*
X129736452Y-79354249D01*
X129641623Y-79074894D01*
X129527324Y-78843119D01*
X129512579Y-78813218D01*
X129512576Y-78813213D01*
X129511143Y-78810307D01*
X129508555Y-78806433D01*
X129457085Y-78729403D01*
X129347244Y-78565014D01*
X129152729Y-78343213D01*
X128930928Y-78148698D01*
X128830047Y-78081291D01*
X128688333Y-77986601D01*
X128688332Y-77986600D01*
X128685636Y-77984799D01*
X128682732Y-77983367D01*
X128682727Y-77983364D01*
X128423962Y-77855756D01*
X128421048Y-77854319D01*
X128417979Y-77853277D01*
X128417976Y-77853276D01*
X128344776Y-77828428D01*
X128141693Y-77759490D01*
X127852351Y-77701937D01*
X127849129Y-77701726D01*
X127849123Y-77701725D01*
X127561205Y-77682854D01*
X127557971Y-77682642D01*
X127554737Y-77682854D01*
X127266819Y-77701725D01*
X127266813Y-77701726D01*
X127263591Y-77701937D01*
X126974249Y-77759490D01*
X126694894Y-77854319D01*
X126577854Y-77912037D01*
X126433218Y-77983363D01*
X126433213Y-77983366D01*
X126430307Y-77984799D01*
X126185014Y-78148698D01*
X125963213Y-78343213D01*
X125768698Y-78565014D01*
X125658857Y-78729403D01*
X125607388Y-78806433D01*
X125604799Y-78810307D01*
X125603366Y-78813213D01*
X125603363Y-78813218D01*
X125588618Y-78843119D01*
X125474319Y-79074894D01*
X125379490Y-79354249D01*
X125321937Y-79643591D01*
X125321726Y-79646813D01*
X125321725Y-79646819D01*
X125317140Y-79716771D01*
X125302642Y-79937971D01*
X110802378Y-79937971D01*
X110743709Y-79913670D01*
X110737280Y-79912824D01*
X110737278Y-79912823D01*
X110606433Y-79895597D01*
X110600000Y-79894750D01*
X110593567Y-79895597D01*
X110462722Y-79912823D01*
X110462720Y-79912824D01*
X110456291Y-79913670D01*
X110322375Y-79969139D01*
X110207379Y-80057379D01*
X110203428Y-80062528D01*
X110200013Y-80066979D01*
X110119139Y-80172375D01*
X110063670Y-80306291D01*
X110044750Y-80450000D01*
X108263692Y-80450000D01*
X108192621Y-80357379D01*
X108077625Y-80269139D01*
X107943709Y-80213670D01*
X107937280Y-80212824D01*
X107937278Y-80212823D01*
X107806433Y-80195597D01*
X107800000Y-80194750D01*
X107793567Y-80195597D01*
X107662722Y-80212823D01*
X107662720Y-80212824D01*
X107656291Y-80213670D01*
X107522375Y-80269139D01*
X107407379Y-80357379D01*
X107319139Y-80472375D01*
X107263670Y-80606291D01*
X107244750Y-80750000D01*
X93525500Y-80750000D01*
X93525500Y-80250326D01*
X93510966Y-80177260D01*
X93455601Y-80094399D01*
X93443856Y-80086551D01*
X93412048Y-80065298D01*
X93372740Y-80039034D01*
X93299674Y-80024500D01*
X91550326Y-80024500D01*
X91477260Y-80039034D01*
X91437952Y-80065298D01*
X91406145Y-80086551D01*
X91394399Y-80094399D01*
X91339034Y-80177260D01*
X91324500Y-80250326D01*
X91324500Y-81999674D01*
X90554482Y-81999674D01*
X90666505Y-81906505D01*
X90795837Y-81751001D01*
X90808130Y-81729051D01*
X90817412Y-81712476D01*
X90894664Y-81574531D01*
X90908126Y-81534875D01*
X90958219Y-81387304D01*
X90959678Y-81383007D01*
X90961198Y-81372528D01*
X90988283Y-81185717D01*
X90988700Y-81182842D01*
X90989650Y-81146572D01*
X90990139Y-81127913D01*
X90990139Y-81127908D01*
X90990215Y-81125000D01*
X90987407Y-81094435D01*
X90972123Y-80928109D01*
X90971708Y-80923591D01*
X90916807Y-80728926D01*
X90827351Y-80547527D01*
X90706335Y-80385467D01*
X90557812Y-80248174D01*
X90535125Y-80233859D01*
X90390594Y-80142667D01*
X90386757Y-80140246D01*
X90198898Y-80065298D01*
X90000526Y-80025839D01*
X89900930Y-80024535D01*
X89802826Y-80023251D01*
X89802821Y-80023251D01*
X89798286Y-80023192D01*
X89793813Y-80023961D01*
X89793808Y-80023961D01*
X89695245Y-80040898D01*
X89598949Y-80057444D01*
X89409193Y-80127449D01*
X89235371Y-80230862D01*
X89231956Y-80233857D01*
X89231953Y-80233859D01*
X89146534Y-80308770D01*
X89083305Y-80364220D01*
X89080497Y-80367782D01*
X88961666Y-80518520D01*
X88958089Y-80523057D01*
X88863914Y-80702053D01*
X88862569Y-80706384D01*
X88862568Y-80706387D01*
X88806401Y-80887278D01*
X88803937Y-80895213D01*
X88780164Y-81096069D01*
X59861151Y-81096069D01*
X59861035Y-81094435D01*
X59861034Y-81094429D01*
X59860787Y-81090939D01*
X59801906Y-80817445D01*
X59705076Y-80554977D01*
X59596326Y-80353428D01*
X59573891Y-80311848D01*
X59573890Y-80311846D01*
X59572230Y-80308770D01*
X59545877Y-80273090D01*
X59408097Y-80086551D01*
X59408095Y-80086549D01*
X59406019Y-80083738D01*
X59209759Y-79884371D01*
X58987365Y-79714645D01*
X58743275Y-79577948D01*
X58482360Y-79477008D01*
X58478954Y-79476219D01*
X58478949Y-79476217D01*
X58213244Y-79414630D01*
X58213241Y-79414629D01*
X58209826Y-79413838D01*
X57993589Y-79395109D01*
X57934597Y-79390000D01*
X57934596Y-79390000D01*
X57931109Y-79389698D01*
X57811088Y-79396303D01*
X57655271Y-79404878D01*
X57655265Y-79404879D01*
X57651772Y-79405071D01*
X57377387Y-79459650D01*
X57113430Y-79552345D01*
X57110331Y-79553955D01*
X56868274Y-79679693D01*
X56868268Y-79679697D01*
X56865168Y-79681307D01*
X56862320Y-79683342D01*
X56862317Y-79683344D01*
X56640402Y-79841926D01*
X56640399Y-79841929D01*
X56637552Y-79843963D01*
X56635019Y-79846379D01*
X56635017Y-79846381D01*
X56437665Y-80034646D01*
X56437659Y-80034652D01*
X56435127Y-80037068D01*
X56261929Y-80256768D01*
X56260174Y-80259790D01*
X56260173Y-80259791D01*
X56149691Y-80450000D01*
X56121415Y-80498680D01*
X56016389Y-80757978D01*
X56015547Y-80761369D01*
X56015546Y-80761371D01*
X56001617Y-80817445D01*
X55948946Y-81029487D01*
X55933531Y-81179933D01*
X55920995Y-81302289D01*
X55920431Y-81307790D01*
X50500500Y-81307790D01*
X50500500Y-79222757D01*
X59912550Y-79222757D01*
X59916786Y-79226993D01*
X60079621Y-79279902D01*
X60089035Y-79281971D01*
X60274155Y-79304046D01*
X60283781Y-79304248D01*
X60469659Y-79289945D01*
X60479153Y-79288271D01*
X60658705Y-79238139D01*
X60667702Y-79234649D01*
X60678034Y-79229430D01*
X60686074Y-79221446D01*
X60680882Y-79211212D01*
X60311086Y-78841416D01*
X60299203Y-78835362D01*
X60294172Y-78836158D01*
X59917721Y-79212609D01*
X59912550Y-79222757D01*
X50500500Y-79222757D01*
X50500500Y-78800000D01*
X67644750Y-78800000D01*
X67663670Y-78943709D01*
X67719139Y-79077625D01*
X67807379Y-79192621D01*
X67922375Y-79280861D01*
X68056291Y-79336330D01*
X68062720Y-79337176D01*
X68062722Y-79337177D01*
X68193567Y-79354403D01*
X68200000Y-79355250D01*
X68206433Y-79354403D01*
X68337278Y-79337177D01*
X68337280Y-79337176D01*
X68343709Y-79336330D01*
X68477625Y-79280861D01*
X68592621Y-79192621D01*
X68680861Y-79077625D01*
X68736330Y-78943709D01*
X68755250Y-78800000D01*
X68745787Y-78728123D01*
X68737177Y-78662722D01*
X68737176Y-78662720D01*
X68736330Y-78656291D01*
X68680861Y-78522375D01*
X68592621Y-78407379D01*
X68477625Y-78319139D01*
X68343709Y-78263670D01*
X68337280Y-78262824D01*
X68337278Y-78262823D01*
X68206433Y-78245597D01*
X68200000Y-78244750D01*
X68193567Y-78245597D01*
X68062722Y-78262823D01*
X68062720Y-78262824D01*
X68056291Y-78263670D01*
X67922375Y-78319139D01*
X67807379Y-78407379D01*
X67719139Y-78522375D01*
X67663670Y-78656291D01*
X67662824Y-78662720D01*
X67662823Y-78662722D01*
X67654213Y-78728123D01*
X67644750Y-78800000D01*
X50500500Y-78800000D01*
X50500500Y-78290790D01*
X59295664Y-78290790D01*
X59311264Y-78476574D01*
X59313002Y-78486042D01*
X59364390Y-78665253D01*
X59367938Y-78674214D01*
X59370112Y-78678444D01*
X59378240Y-78686516D01*
X59388303Y-78681367D01*
X59758584Y-78311086D01*
X59763826Y-78300797D01*
X60835362Y-78300797D01*
X60836158Y-78305828D01*
X61212139Y-78681809D01*
X61222287Y-78686980D01*
X61226641Y-78682626D01*
X61278341Y-78527212D01*
X61280475Y-78517818D01*
X61304099Y-78330810D01*
X61304486Y-78325283D01*
X61304800Y-78302759D01*
X61304570Y-78297261D01*
X61292583Y-78175000D01*
X85469750Y-78175000D01*
X85470597Y-78181433D01*
X85487101Y-78306789D01*
X85488670Y-78318709D01*
X85544139Y-78452625D01*
X85632379Y-78567621D01*
X85747375Y-78655861D01*
X85881291Y-78711330D01*
X85887720Y-78712176D01*
X85887722Y-78712177D01*
X86018567Y-78729403D01*
X86025000Y-78730250D01*
X86031433Y-78729403D01*
X86162278Y-78712177D01*
X86162280Y-78712176D01*
X86168709Y-78711330D01*
X86302625Y-78655861D01*
X86417621Y-78567621D01*
X86505861Y-78452625D01*
X86561330Y-78318709D01*
X86562900Y-78306789D01*
X86573667Y-78225000D01*
X93319750Y-78225000D01*
X93320597Y-78231433D01*
X93331365Y-78313220D01*
X93338670Y-78368709D01*
X93394139Y-78502625D01*
X93482379Y-78617621D01*
X93597375Y-78705861D01*
X93731291Y-78761330D01*
X93737720Y-78762176D01*
X93737722Y-78762177D01*
X93868567Y-78779403D01*
X93875000Y-78780250D01*
X93881433Y-78779403D01*
X94012278Y-78762177D01*
X94012280Y-78762176D01*
X94018709Y-78761330D01*
X94152625Y-78705861D01*
X94267621Y-78617621D01*
X94355861Y-78502625D01*
X94377452Y-78450498D01*
X105169750Y-78450498D01*
X105170597Y-78456931D01*
X105184827Y-78565014D01*
X105188670Y-78594207D01*
X105244139Y-78728123D01*
X105332379Y-78843119D01*
X105447375Y-78931359D01*
X105581291Y-78986828D01*
X105587720Y-78987674D01*
X105587722Y-78987675D01*
X105718567Y-79004901D01*
X105725000Y-79005748D01*
X105731433Y-79004901D01*
X105862278Y-78987675D01*
X105862280Y-78987674D01*
X105868709Y-78986828D01*
X106002625Y-78931359D01*
X106117621Y-78843119D01*
X106205861Y-78728123D01*
X106261330Y-78594207D01*
X106265174Y-78565014D01*
X106279403Y-78456931D01*
X106280250Y-78450498D01*
X106269482Y-78368709D01*
X106262177Y-78313220D01*
X106262176Y-78313218D01*
X106261330Y-78306789D01*
X106205861Y-78172873D01*
X106117621Y-78057877D01*
X106002625Y-77969637D01*
X105868709Y-77914168D01*
X105862280Y-77913322D01*
X105862278Y-77913321D01*
X105731433Y-77896095D01*
X105725000Y-77895248D01*
X105718567Y-77896095D01*
X105587722Y-77913321D01*
X105587720Y-77913322D01*
X105581291Y-77914168D01*
X105447375Y-77969637D01*
X105332379Y-78057877D01*
X105244139Y-78172873D01*
X105188670Y-78306789D01*
X105187824Y-78313218D01*
X105187823Y-78313220D01*
X105180518Y-78368709D01*
X105169750Y-78450498D01*
X94377452Y-78450498D01*
X94411330Y-78368709D01*
X94418636Y-78313220D01*
X94429403Y-78231433D01*
X94430250Y-78225000D01*
X94422709Y-78167724D01*
X94412177Y-78087722D01*
X94412176Y-78087720D01*
X94411330Y-78081291D01*
X94355861Y-77947375D01*
X94267621Y-77832379D01*
X94152625Y-77744139D01*
X94018709Y-77688670D01*
X94012280Y-77687824D01*
X94012278Y-77687823D01*
X93881433Y-77670597D01*
X93875000Y-77669750D01*
X93868567Y-77670597D01*
X93737722Y-77687823D01*
X93737720Y-77687824D01*
X93731291Y-77688670D01*
X93597375Y-77744139D01*
X93482379Y-77832379D01*
X93394139Y-77947375D01*
X93338670Y-78081291D01*
X93337824Y-78087720D01*
X93337823Y-78087722D01*
X93327291Y-78167724D01*
X93319750Y-78225000D01*
X86573667Y-78225000D01*
X86579403Y-78181433D01*
X86580250Y-78175000D01*
X86570402Y-78100198D01*
X86562177Y-78037722D01*
X86562176Y-78037720D01*
X86561330Y-78031291D01*
X86505861Y-77897375D01*
X86417621Y-77782379D01*
X86302625Y-77694139D01*
X86168709Y-77638670D01*
X86162280Y-77637824D01*
X86162278Y-77637823D01*
X86031433Y-77620597D01*
X86025000Y-77619750D01*
X86018567Y-77620597D01*
X85887722Y-77637823D01*
X85887720Y-77637824D01*
X85881291Y-77638670D01*
X85747375Y-77694139D01*
X85632379Y-77782379D01*
X85544139Y-77897375D01*
X85488670Y-78031291D01*
X85487824Y-78037720D01*
X85487823Y-78037722D01*
X85479598Y-78100198D01*
X85469750Y-78175000D01*
X61292583Y-78175000D01*
X61286174Y-78109636D01*
X61284305Y-78100198D01*
X61230419Y-77921719D01*
X61229352Y-77919131D01*
X61222488Y-77912502D01*
X61212770Y-77917560D01*
X60841416Y-78288914D01*
X60835362Y-78300797D01*
X59763826Y-78300797D01*
X59764638Y-78299203D01*
X59763842Y-78294172D01*
X59386878Y-77917208D01*
X59376730Y-77912037D01*
X59372608Y-77916159D01*
X59318583Y-78086467D01*
X59316579Y-78095895D01*
X59295798Y-78281162D01*
X59295664Y-78290790D01*
X50500500Y-78290790D01*
X50500500Y-77377894D01*
X59913010Y-77377894D01*
X59918115Y-77387785D01*
X60288914Y-77758584D01*
X60300797Y-77764638D01*
X60305828Y-77763842D01*
X60682591Y-77387079D01*
X60687957Y-77376546D01*
X60683323Y-77371798D01*
X60506673Y-77317116D01*
X60497239Y-77315179D01*
X60311831Y-77295691D01*
X60302193Y-77295624D01*
X60116532Y-77312520D01*
X60107066Y-77314326D01*
X59928224Y-77366963D01*
X59920760Y-77369979D01*
X59913010Y-77377894D01*
X50500500Y-77377894D01*
X50500500Y-75786665D01*
X59344994Y-75786665D01*
X59360592Y-75972414D01*
X59361925Y-75977062D01*
X59361925Y-75977063D01*
X59384345Y-76055250D01*
X59411971Y-76151595D01*
X59497176Y-76317385D01*
X59612959Y-76463468D01*
X59616646Y-76466606D01*
X59616648Y-76466608D01*
X59751224Y-76581141D01*
X59751229Y-76581144D01*
X59754912Y-76584279D01*
X59759134Y-76586639D01*
X59759139Y-76586642D01*
X59789191Y-76603437D01*
X59917627Y-76675217D01*
X59922225Y-76676711D01*
X60090302Y-76731323D01*
X60090304Y-76731324D01*
X60094907Y-76732819D01*
X60279998Y-76754890D01*
X60284820Y-76754519D01*
X60284823Y-76754519D01*
X60461023Y-76740961D01*
X60461028Y-76740960D01*
X60465851Y-76740589D01*
X60645387Y-76690462D01*
X60649700Y-76688283D01*
X60649706Y-76688281D01*
X60807447Y-76608600D01*
X60807449Y-76608598D01*
X60811768Y-76606417D01*
X60958655Y-76491656D01*
X61037770Y-76400000D01*
X90594750Y-76400000D01*
X90613670Y-76543709D01*
X90669139Y-76677625D01*
X90757379Y-76792621D01*
X90872375Y-76880861D01*
X91006291Y-76936330D01*
X91012720Y-76937176D01*
X91012722Y-76937177D01*
X91143567Y-76954403D01*
X91150000Y-76955250D01*
X91156433Y-76954403D01*
X91287278Y-76937177D01*
X91287280Y-76937176D01*
X91293709Y-76936330D01*
X91427625Y-76880861D01*
X91542621Y-76792621D01*
X91630861Y-76677625D01*
X91686330Y-76543709D01*
X91705250Y-76400000D01*
X91694373Y-76317385D01*
X91687177Y-76262722D01*
X91687176Y-76262720D01*
X91686330Y-76256291D01*
X91630861Y-76122375D01*
X91562931Y-76033847D01*
X91546572Y-76012528D01*
X91542621Y-76007379D01*
X91427625Y-75919139D01*
X91293709Y-75863670D01*
X91287280Y-75862824D01*
X91287278Y-75862823D01*
X91156433Y-75845597D01*
X91150000Y-75844750D01*
X91143567Y-75845597D01*
X91012722Y-75862823D01*
X91012720Y-75862824D01*
X91006291Y-75863670D01*
X90872375Y-75919139D01*
X90757379Y-76007379D01*
X90753428Y-76012528D01*
X90737069Y-76033847D01*
X90669139Y-76122375D01*
X90613670Y-76256291D01*
X90612824Y-76262720D01*
X90612823Y-76262722D01*
X90605627Y-76317385D01*
X90594750Y-76400000D01*
X61037770Y-76400000D01*
X61080454Y-76350550D01*
X61172526Y-76188474D01*
X61183361Y-76155905D01*
X61229837Y-76016192D01*
X61229837Y-76016190D01*
X61231364Y-76011601D01*
X61235248Y-75980861D01*
X61250159Y-75862823D01*
X61254727Y-75826668D01*
X61255099Y-75800000D01*
X61236909Y-75614487D01*
X61202344Y-75500000D01*
X110394750Y-75500000D01*
X110395597Y-75506433D01*
X110408737Y-75606237D01*
X110413670Y-75643709D01*
X110469139Y-75777625D01*
X110557379Y-75892621D01*
X110672375Y-75980861D01*
X110806291Y-76036330D01*
X110812720Y-76037176D01*
X110812722Y-76037177D01*
X110943567Y-76054403D01*
X110950000Y-76055250D01*
X110956433Y-76054403D01*
X111087278Y-76037177D01*
X111087280Y-76037176D01*
X111093709Y-76036330D01*
X111227625Y-75980861D01*
X111342621Y-75892621D01*
X111430861Y-75777625D01*
X111486330Y-75643709D01*
X111491264Y-75606237D01*
X111504403Y-75506433D01*
X111505250Y-75500000D01*
X111486330Y-75356291D01*
X111430861Y-75222375D01*
X111342621Y-75107379D01*
X111227625Y-75019139D01*
X111093709Y-74963670D01*
X111087280Y-74962824D01*
X111087278Y-74962823D01*
X110956433Y-74945597D01*
X110950000Y-74944750D01*
X110943567Y-74945597D01*
X110812722Y-74962823D01*
X110812720Y-74962824D01*
X110806291Y-74963670D01*
X110672375Y-75019139D01*
X110557379Y-75107379D01*
X110469139Y-75222375D01*
X110413670Y-75356291D01*
X110394750Y-75500000D01*
X61202344Y-75500000D01*
X61183033Y-75436040D01*
X61095522Y-75271456D01*
X60977710Y-75127005D01*
X60973981Y-75123920D01*
X60837812Y-75011270D01*
X60837810Y-75011269D01*
X60834085Y-75008187D01*
X60670116Y-74919529D01*
X60648212Y-74912749D01*
X60590650Y-74894930D01*
X60540652Y-74859660D01*
X60520935Y-74801739D01*
X60539028Y-74743290D01*
X60593303Y-74705004D01*
X60640724Y-74691764D01*
X60640725Y-74691764D01*
X60645387Y-74690462D01*
X60649700Y-74688283D01*
X60649706Y-74688281D01*
X60807447Y-74608600D01*
X60807449Y-74608598D01*
X60811768Y-74606417D01*
X60958655Y-74491656D01*
X61016472Y-74424674D01*
X90299500Y-74424674D01*
X90314034Y-74497740D01*
X90319451Y-74505847D01*
X90360154Y-74566764D01*
X90369399Y-74580601D01*
X90377509Y-74586020D01*
X90402711Y-74602859D01*
X90452260Y-74635966D01*
X90525326Y-74650500D01*
X92274674Y-74650500D01*
X92347740Y-74635966D01*
X92397289Y-74602859D01*
X92422491Y-74586020D01*
X92430601Y-74580601D01*
X92439847Y-74566764D01*
X92480549Y-74505847D01*
X92485966Y-74497740D01*
X92500500Y-74424674D01*
X92500500Y-73936655D01*
X92852160Y-73936655D01*
X92853222Y-73939653D01*
X92937904Y-74123341D01*
X92942422Y-74131167D01*
X93059171Y-74296363D01*
X93065035Y-74303229D01*
X93209931Y-74444381D01*
X93216954Y-74450068D01*
X93385138Y-74562446D01*
X93393093Y-74566764D01*
X93550591Y-74634431D01*
X93561938Y-74635473D01*
X93565000Y-74628346D01*
X93565000Y-74621562D01*
X94315000Y-74621562D01*
X94318447Y-74632172D01*
X94330163Y-74632095D01*
X94405454Y-74606537D01*
X94413712Y-74602859D01*
X94590194Y-74504026D01*
X94597652Y-74498900D01*
X94753157Y-74369568D01*
X94759568Y-74363157D01*
X94888900Y-74207652D01*
X94894026Y-74200194D01*
X94992859Y-74023712D01*
X94996537Y-74015454D01*
X95022201Y-73939849D01*
X95022347Y-73928693D01*
X95011230Y-73925000D01*
X94330680Y-73925000D01*
X94317995Y-73929122D01*
X94315000Y-73933243D01*
X94315000Y-74621562D01*
X93565000Y-74621562D01*
X93565000Y-73940680D01*
X93560878Y-73927995D01*
X93556757Y-73925000D01*
X92864326Y-73925000D01*
X92852415Y-73928870D01*
X92852160Y-73936655D01*
X92500500Y-73936655D01*
X92500500Y-73521069D01*
X95375164Y-73521069D01*
X95375461Y-73525597D01*
X95385872Y-73684440D01*
X95388392Y-73722894D01*
X95389508Y-73727287D01*
X95389508Y-73727289D01*
X95414120Y-73824198D01*
X95438178Y-73918928D01*
X95522856Y-74102607D01*
X95639588Y-74267780D01*
X95784466Y-74408913D01*
X95952637Y-74521282D01*
X96138470Y-74601122D01*
X96335740Y-74645760D01*
X96537842Y-74653700D01*
X96547651Y-74652278D01*
X96733519Y-74625329D01*
X96733522Y-74625328D01*
X96738007Y-74624678D01*
X96857018Y-74584279D01*
X96925234Y-74561123D01*
X96925237Y-74561121D01*
X96929531Y-74559664D01*
X97106001Y-74460837D01*
X97261505Y-74331505D01*
X97390837Y-74176001D01*
X97407114Y-74146937D01*
X97420328Y-74123341D01*
X97489664Y-73999531D01*
X97509924Y-73939849D01*
X97549285Y-73823894D01*
X97554678Y-73808007D01*
X97557773Y-73786665D01*
X97582038Y-73619305D01*
X97583700Y-73607842D01*
X97584809Y-73565493D01*
X97585139Y-73552913D01*
X97585139Y-73552908D01*
X97585215Y-73550000D01*
X97582557Y-73521069D01*
X97915164Y-73521069D01*
X97915461Y-73525597D01*
X97925872Y-73684440D01*
X97928392Y-73722894D01*
X97929508Y-73727287D01*
X97929508Y-73727289D01*
X97954120Y-73824198D01*
X97978178Y-73918928D01*
X98062856Y-74102607D01*
X98179588Y-74267780D01*
X98324466Y-74408913D01*
X98492637Y-74521282D01*
X98678470Y-74601122D01*
X98875740Y-74645760D01*
X99077842Y-74653700D01*
X99087651Y-74652278D01*
X99273519Y-74625329D01*
X99273522Y-74625328D01*
X99278007Y-74624678D01*
X99397018Y-74584279D01*
X99465234Y-74561123D01*
X99465237Y-74561121D01*
X99469531Y-74559664D01*
X99646001Y-74460837D01*
X99801505Y-74331505D01*
X99930837Y-74176001D01*
X99947114Y-74146937D01*
X99960328Y-74123341D01*
X100029664Y-73999531D01*
X100049924Y-73939849D01*
X100051008Y-73936655D01*
X100472160Y-73936655D01*
X100473222Y-73939653D01*
X100557904Y-74123341D01*
X100562422Y-74131167D01*
X100679171Y-74296363D01*
X100685035Y-74303229D01*
X100829931Y-74444381D01*
X100836954Y-74450068D01*
X101005138Y-74562446D01*
X101013093Y-74566764D01*
X101170591Y-74634431D01*
X101181938Y-74635473D01*
X101185000Y-74628346D01*
X101185000Y-74621562D01*
X101935000Y-74621562D01*
X101938447Y-74632172D01*
X101950163Y-74632095D01*
X102025454Y-74606537D01*
X102033712Y-74602859D01*
X102210194Y-74504026D01*
X102217652Y-74498900D01*
X102373157Y-74369568D01*
X102379568Y-74363157D01*
X102508900Y-74207652D01*
X102514026Y-74200194D01*
X102612859Y-74023712D01*
X102616537Y-74015454D01*
X102642201Y-73939849D01*
X102642347Y-73928693D01*
X102631230Y-73925000D01*
X101950680Y-73925000D01*
X101937995Y-73929122D01*
X101935000Y-73933243D01*
X101935000Y-74621562D01*
X101185000Y-74621562D01*
X101185000Y-73940680D01*
X101180878Y-73927995D01*
X101176757Y-73925000D01*
X100484326Y-73925000D01*
X100472415Y-73928870D01*
X100472160Y-73936655D01*
X100051008Y-73936655D01*
X100089285Y-73823894D01*
X100094678Y-73808007D01*
X100097773Y-73786665D01*
X100122038Y-73619305D01*
X100123700Y-73607842D01*
X100124809Y-73565493D01*
X100125139Y-73552913D01*
X100125139Y-73552908D01*
X100125215Y-73550000D01*
X100122557Y-73521069D01*
X102995164Y-73521069D01*
X102995461Y-73525597D01*
X103005872Y-73684440D01*
X103008392Y-73722894D01*
X103009508Y-73727287D01*
X103009508Y-73727289D01*
X103034120Y-73824198D01*
X103058178Y-73918928D01*
X103142856Y-74102607D01*
X103259588Y-74267780D01*
X103404466Y-74408913D01*
X103572637Y-74521282D01*
X103758470Y-74601122D01*
X103955740Y-74645760D01*
X104157842Y-74653700D01*
X104167651Y-74652278D01*
X104353519Y-74625329D01*
X104353522Y-74625328D01*
X104358007Y-74624678D01*
X104477018Y-74584279D01*
X104545234Y-74561123D01*
X104545237Y-74561121D01*
X104549531Y-74559664D01*
X104726001Y-74460837D01*
X104881505Y-74331505D01*
X105010837Y-74176001D01*
X105027114Y-74146937D01*
X105040328Y-74123341D01*
X105109664Y-73999531D01*
X105129924Y-73939849D01*
X105169285Y-73823894D01*
X105174678Y-73808007D01*
X105177773Y-73786665D01*
X105202038Y-73619305D01*
X105203700Y-73607842D01*
X105204809Y-73565493D01*
X105205139Y-73552913D01*
X105205139Y-73552908D01*
X105205215Y-73550000D01*
X105194744Y-73436040D01*
X105187123Y-73353109D01*
X105186708Y-73348591D01*
X105169582Y-73287868D01*
X118556882Y-73287868D01*
X118575802Y-73431577D01*
X118631271Y-73565493D01*
X118719511Y-73680489D01*
X118834507Y-73768729D01*
X118968423Y-73824198D01*
X118974852Y-73825044D01*
X118974854Y-73825045D01*
X119105699Y-73842271D01*
X119112132Y-73843118D01*
X119118565Y-73842271D01*
X119249410Y-73825045D01*
X119249412Y-73825044D01*
X119255841Y-73824198D01*
X119389757Y-73768729D01*
X119504753Y-73680489D01*
X119592993Y-73565493D01*
X119648462Y-73431577D01*
X119667382Y-73287868D01*
X119663278Y-73256695D01*
X119649309Y-73150590D01*
X119649308Y-73150588D01*
X119648462Y-73144159D01*
X119592993Y-73010243D01*
X119504753Y-72895247D01*
X119389757Y-72807007D01*
X119255841Y-72751538D01*
X119249412Y-72750692D01*
X119249410Y-72750691D01*
X119118565Y-72733465D01*
X119112132Y-72732618D01*
X119105699Y-72733465D01*
X118974854Y-72750691D01*
X118974852Y-72750692D01*
X118968423Y-72751538D01*
X118834507Y-72807007D01*
X118719511Y-72895247D01*
X118631271Y-73010243D01*
X118575802Y-73144159D01*
X118574956Y-73150588D01*
X118574955Y-73150590D01*
X118560986Y-73256695D01*
X118556882Y-73287868D01*
X105169582Y-73287868D01*
X105131807Y-73153926D01*
X105126991Y-73144159D01*
X105060950Y-73010243D01*
X105042351Y-72972527D01*
X104921335Y-72810467D01*
X104772812Y-72673174D01*
X104750125Y-72658859D01*
X104605594Y-72567667D01*
X104601757Y-72565246D01*
X104413898Y-72490298D01*
X104215526Y-72450839D01*
X104115930Y-72449535D01*
X104017826Y-72448251D01*
X104017821Y-72448251D01*
X104013286Y-72448192D01*
X104008813Y-72448961D01*
X104008808Y-72448961D01*
X103932159Y-72462132D01*
X103813949Y-72482444D01*
X103624193Y-72552449D01*
X103450371Y-72655862D01*
X103446956Y-72658857D01*
X103446953Y-72658859D01*
X103348487Y-72745212D01*
X103298305Y-72789220D01*
X103295497Y-72792782D01*
X103210662Y-72900396D01*
X103173089Y-72948057D01*
X103078914Y-73127053D01*
X103077569Y-73131384D01*
X103077568Y-73131387D01*
X103026983Y-73294301D01*
X103018937Y-73320213D01*
X102995164Y-73521069D01*
X100122557Y-73521069D01*
X100114744Y-73436040D01*
X100107123Y-73353109D01*
X100106708Y-73348591D01*
X100053527Y-73160024D01*
X100476842Y-73160024D01*
X100476994Y-73171650D01*
X100487540Y-73175000D01*
X101169320Y-73175000D01*
X101182005Y-73170878D01*
X101185000Y-73166757D01*
X101185000Y-73159320D01*
X101935000Y-73159320D01*
X101939122Y-73172005D01*
X101943243Y-73175000D01*
X102633505Y-73175000D01*
X102644995Y-73171267D01*
X102645199Y-73160866D01*
X102639449Y-73140481D01*
X102636208Y-73132037D01*
X102546745Y-72950624D01*
X102542020Y-72942914D01*
X102420994Y-72780840D01*
X102414945Y-72774122D01*
X102266405Y-72636814D01*
X102259240Y-72631315D01*
X102088163Y-72523374D01*
X102080113Y-72519272D01*
X101949564Y-72467187D01*
X101938196Y-72466442D01*
X101935000Y-72474453D01*
X101935000Y-73159320D01*
X101185000Y-73159320D01*
X101185000Y-72478175D01*
X101181702Y-72468025D01*
X101169353Y-72468267D01*
X101067054Y-72506007D01*
X101058886Y-72509903D01*
X100885047Y-72613326D01*
X100877745Y-72618631D01*
X100725657Y-72752010D01*
X100719434Y-72758568D01*
X100594209Y-72917415D01*
X100589284Y-72924998D01*
X100495097Y-73104018D01*
X100491643Y-73112358D01*
X100476842Y-73160024D01*
X100053527Y-73160024D01*
X100051807Y-73153926D01*
X100046991Y-73144159D01*
X99980950Y-73010243D01*
X99962351Y-72972527D01*
X99841335Y-72810467D01*
X99692812Y-72673174D01*
X99670125Y-72658859D01*
X99525594Y-72567667D01*
X99521757Y-72565246D01*
X99333898Y-72490298D01*
X99135526Y-72450839D01*
X99035930Y-72449535D01*
X98937826Y-72448251D01*
X98937821Y-72448251D01*
X98933286Y-72448192D01*
X98928813Y-72448961D01*
X98928808Y-72448961D01*
X98852159Y-72462132D01*
X98733949Y-72482444D01*
X98544193Y-72552449D01*
X98370371Y-72655862D01*
X98366956Y-72658857D01*
X98366953Y-72658859D01*
X98268487Y-72745212D01*
X98218305Y-72789220D01*
X98215497Y-72792782D01*
X98130662Y-72900396D01*
X98093089Y-72948057D01*
X97998914Y-73127053D01*
X97997569Y-73131384D01*
X97997568Y-73131387D01*
X97946983Y-73294301D01*
X97938937Y-73320213D01*
X97915164Y-73521069D01*
X97582557Y-73521069D01*
X97574744Y-73436040D01*
X97567123Y-73353109D01*
X97566708Y-73348591D01*
X97511807Y-73153926D01*
X97506991Y-73144159D01*
X97440950Y-73010243D01*
X97422351Y-72972527D01*
X97301335Y-72810467D01*
X97152812Y-72673174D01*
X97130125Y-72658859D01*
X96985594Y-72567667D01*
X96981757Y-72565246D01*
X96793898Y-72490298D01*
X96595526Y-72450839D01*
X96495930Y-72449535D01*
X96397826Y-72448251D01*
X96397821Y-72448251D01*
X96393286Y-72448192D01*
X96388813Y-72448961D01*
X96388808Y-72448961D01*
X96312159Y-72462132D01*
X96193949Y-72482444D01*
X96004193Y-72552449D01*
X95830371Y-72655862D01*
X95826956Y-72658857D01*
X95826953Y-72658859D01*
X95728487Y-72745212D01*
X95678305Y-72789220D01*
X95675497Y-72792782D01*
X95590662Y-72900396D01*
X95553089Y-72948057D01*
X95458914Y-73127053D01*
X95457569Y-73131384D01*
X95457568Y-73131387D01*
X95406983Y-73294301D01*
X95398937Y-73320213D01*
X95375164Y-73521069D01*
X92500500Y-73521069D01*
X92500500Y-73160024D01*
X92856842Y-73160024D01*
X92856994Y-73171650D01*
X92867540Y-73175000D01*
X93549320Y-73175000D01*
X93562005Y-73170878D01*
X93565000Y-73166757D01*
X93565000Y-73159320D01*
X94315000Y-73159320D01*
X94319122Y-73172005D01*
X94323243Y-73175000D01*
X95013505Y-73175000D01*
X95024995Y-73171267D01*
X95025199Y-73160866D01*
X95019449Y-73140481D01*
X95016208Y-73132037D01*
X94926745Y-72950624D01*
X94922020Y-72942914D01*
X94800994Y-72780840D01*
X94794945Y-72774122D01*
X94646405Y-72636814D01*
X94639240Y-72631315D01*
X94468163Y-72523374D01*
X94460113Y-72519272D01*
X94329564Y-72467187D01*
X94318196Y-72466442D01*
X94315000Y-72474453D01*
X94315000Y-73159320D01*
X93565000Y-73159320D01*
X93565000Y-72478175D01*
X93561702Y-72468025D01*
X93549353Y-72468267D01*
X93447054Y-72506007D01*
X93438886Y-72509903D01*
X93265047Y-72613326D01*
X93257745Y-72618631D01*
X93105657Y-72752010D01*
X93099434Y-72758568D01*
X92974209Y-72917415D01*
X92969284Y-72924998D01*
X92875097Y-73104018D01*
X92871643Y-73112358D01*
X92856842Y-73160024D01*
X92500500Y-73160024D01*
X92500500Y-72675326D01*
X92485966Y-72602260D01*
X92430601Y-72519399D01*
X92347740Y-72464034D01*
X92274674Y-72449500D01*
X90525326Y-72449500D01*
X90452260Y-72464034D01*
X90369399Y-72519399D01*
X90314034Y-72602260D01*
X90299500Y-72675326D01*
X90299500Y-74424674D01*
X61016472Y-74424674D01*
X61080454Y-74350550D01*
X61132683Y-74258611D01*
X61170137Y-74192680D01*
X61170138Y-74192677D01*
X61172526Y-74188474D01*
X61175515Y-74179491D01*
X61229837Y-74016192D01*
X61229837Y-74016190D01*
X61231364Y-74011601D01*
X61232389Y-74003492D01*
X61254379Y-73829420D01*
X61254727Y-73826668D01*
X61255099Y-73800000D01*
X61236909Y-73614487D01*
X61183033Y-73436040D01*
X61095522Y-73271456D01*
X60977710Y-73127005D01*
X60972916Y-73123039D01*
X60837812Y-73011270D01*
X60837810Y-73011269D01*
X60834085Y-73008187D01*
X60670116Y-72919529D01*
X60492049Y-72864409D01*
X60487239Y-72863903D01*
X60487237Y-72863903D01*
X60311484Y-72845430D01*
X60311482Y-72845430D01*
X60306668Y-72844924D01*
X60244673Y-72850566D01*
X60125852Y-72861379D01*
X60125848Y-72861380D01*
X60121032Y-72861818D01*
X60116390Y-72863184D01*
X60116386Y-72863185D01*
X59946861Y-72913080D01*
X59946858Y-72913081D01*
X59942214Y-72914448D01*
X59777023Y-73000807D01*
X59773247Y-73003843D01*
X59773244Y-73003845D01*
X59638282Y-73112358D01*
X59631752Y-73117608D01*
X59628644Y-73121312D01*
X59515044Y-73256695D01*
X59515041Y-73256699D01*
X59511935Y-73260401D01*
X59422135Y-73423746D01*
X59420672Y-73428359D01*
X59420670Y-73428363D01*
X59392691Y-73516565D01*
X59365772Y-73601424D01*
X59365232Y-73606236D01*
X59365232Y-73606237D01*
X59352655Y-73718368D01*
X59344994Y-73786665D01*
X59349735Y-73843118D01*
X59357303Y-73933243D01*
X59360592Y-73972414D01*
X59361925Y-73977062D01*
X59361925Y-73977063D01*
X59371829Y-74011601D01*
X59411971Y-74151595D01*
X59497176Y-74317385D01*
X59612959Y-74463468D01*
X59616646Y-74466606D01*
X59616648Y-74466608D01*
X59751224Y-74581141D01*
X59751229Y-74581144D01*
X59754912Y-74584279D01*
X59759134Y-74586639D01*
X59759139Y-74586642D01*
X59863127Y-74644758D01*
X59917627Y-74675217D01*
X59957834Y-74688281D01*
X60011480Y-74705712D01*
X60060980Y-74741677D01*
X60079887Y-74799867D01*
X60060980Y-74858058D01*
X60008839Y-74894839D01*
X59985252Y-74901781D01*
X59946861Y-74913080D01*
X59946858Y-74913081D01*
X59942214Y-74914448D01*
X59777023Y-75000807D01*
X59773247Y-75003843D01*
X59773244Y-75003845D01*
X59649388Y-75103428D01*
X59631752Y-75117608D01*
X59628644Y-75121312D01*
X59515044Y-75256695D01*
X59515041Y-75256699D01*
X59511935Y-75260401D01*
X59422135Y-75423746D01*
X59420672Y-75428359D01*
X59420670Y-75428363D01*
X59395905Y-75506433D01*
X59365772Y-75601424D01*
X59365232Y-75606236D01*
X59365232Y-75606237D01*
X59346681Y-75771627D01*
X59344994Y-75786665D01*
X50500500Y-75786665D01*
X50500500Y-71286665D01*
X59344994Y-71286665D01*
X59360592Y-71472414D01*
X59361925Y-71477062D01*
X59361925Y-71477063D01*
X59405098Y-71627625D01*
X59411971Y-71651595D01*
X59497176Y-71817385D01*
X59612959Y-71963468D01*
X59616646Y-71966606D01*
X59616648Y-71966608D01*
X59751224Y-72081141D01*
X59751229Y-72081144D01*
X59754912Y-72084279D01*
X59759134Y-72086639D01*
X59759139Y-72086642D01*
X59789191Y-72103437D01*
X59917627Y-72175217D01*
X59922225Y-72176711D01*
X60090302Y-72231323D01*
X60090304Y-72231324D01*
X60094907Y-72232819D01*
X60279998Y-72254890D01*
X60284820Y-72254519D01*
X60284823Y-72254519D01*
X60461023Y-72240961D01*
X60461028Y-72240960D01*
X60465851Y-72240589D01*
X60645387Y-72190462D01*
X60649700Y-72188283D01*
X60649706Y-72188281D01*
X60807447Y-72108600D01*
X60807449Y-72108598D01*
X60811768Y-72106417D01*
X60958655Y-71991656D01*
X61080454Y-71850550D01*
X61172526Y-71688474D01*
X61183361Y-71655905D01*
X61229837Y-71516192D01*
X61229837Y-71516190D01*
X61231364Y-71511601D01*
X61233625Y-71493709D01*
X61241026Y-71435124D01*
X61251780Y-71350000D01*
X65444750Y-71350000D01*
X65463670Y-71493709D01*
X65466151Y-71499700D01*
X65466152Y-71499702D01*
X65473227Y-71516782D01*
X65519139Y-71627625D01*
X65607379Y-71742621D01*
X65722375Y-71830861D01*
X65856291Y-71886330D01*
X65862720Y-71887176D01*
X65862722Y-71887177D01*
X65993567Y-71904403D01*
X66000000Y-71905250D01*
X66006433Y-71904403D01*
X66137278Y-71887177D01*
X66137280Y-71887176D01*
X66143709Y-71886330D01*
X66277625Y-71830861D01*
X66392621Y-71742621D01*
X66480861Y-71627625D01*
X66526773Y-71516782D01*
X66533848Y-71499702D01*
X66533849Y-71499700D01*
X66536330Y-71493709D01*
X66555250Y-71350000D01*
X73444750Y-71350000D01*
X73463670Y-71493709D01*
X73466151Y-71499700D01*
X73466152Y-71499702D01*
X73473227Y-71516782D01*
X73519139Y-71627625D01*
X73607379Y-71742621D01*
X73722375Y-71830861D01*
X73856291Y-71886330D01*
X73862720Y-71887176D01*
X73862722Y-71887177D01*
X73993567Y-71904403D01*
X74000000Y-71905250D01*
X74006433Y-71904403D01*
X74137278Y-71887177D01*
X74137280Y-71887176D01*
X74143709Y-71886330D01*
X74277625Y-71830861D01*
X74392621Y-71742621D01*
X74480861Y-71627625D01*
X74526773Y-71516782D01*
X74533848Y-71499702D01*
X74533849Y-71499700D01*
X74536330Y-71493709D01*
X74555250Y-71350000D01*
X74546279Y-71281857D01*
X74537177Y-71212722D01*
X74537176Y-71212720D01*
X74536330Y-71206291D01*
X74480861Y-71072375D01*
X74392621Y-70957379D01*
X74277625Y-70869139D01*
X74143709Y-70813670D01*
X74137280Y-70812824D01*
X74137278Y-70812823D01*
X74006433Y-70795597D01*
X74000000Y-70794750D01*
X73993567Y-70795597D01*
X73862722Y-70812823D01*
X73862720Y-70812824D01*
X73856291Y-70813670D01*
X73722375Y-70869139D01*
X73607379Y-70957379D01*
X73519139Y-71072375D01*
X73463670Y-71206291D01*
X73462824Y-71212720D01*
X73462823Y-71212722D01*
X73453721Y-71281857D01*
X73444750Y-71350000D01*
X66555250Y-71350000D01*
X66546279Y-71281857D01*
X66537177Y-71212722D01*
X66537176Y-71212720D01*
X66536330Y-71206291D01*
X66480861Y-71072375D01*
X66392621Y-70957379D01*
X66277625Y-70869139D01*
X66143709Y-70813670D01*
X66137280Y-70812824D01*
X66137278Y-70812823D01*
X66006433Y-70795597D01*
X66000000Y-70794750D01*
X65993567Y-70795597D01*
X65862722Y-70812823D01*
X65862720Y-70812824D01*
X65856291Y-70813670D01*
X65722375Y-70869139D01*
X65607379Y-70957379D01*
X65519139Y-71072375D01*
X65463670Y-71206291D01*
X65462824Y-71212720D01*
X65462823Y-71212722D01*
X65453721Y-71281857D01*
X65444750Y-71350000D01*
X61251780Y-71350000D01*
X61254727Y-71326668D01*
X61255099Y-71300000D01*
X61236909Y-71114487D01*
X61183033Y-70936040D01*
X61095522Y-70771456D01*
X60977710Y-70627005D01*
X60973981Y-70623920D01*
X60837812Y-70511270D01*
X60837810Y-70511269D01*
X60834085Y-70508187D01*
X60670116Y-70419529D01*
X60581276Y-70392029D01*
X115756700Y-70392029D01*
X115756912Y-70395263D01*
X115771287Y-70614576D01*
X115775995Y-70686409D01*
X115833548Y-70975751D01*
X115928377Y-71255106D01*
X115951883Y-71302771D01*
X116052498Y-71506798D01*
X116058857Y-71519693D01*
X116222756Y-71764986D01*
X116417271Y-71986787D01*
X116639072Y-72181302D01*
X116641774Y-72183107D01*
X116641776Y-72183109D01*
X116748649Y-72254519D01*
X116884364Y-72345201D01*
X116887268Y-72346633D01*
X116887273Y-72346636D01*
X117098577Y-72450839D01*
X117148952Y-72475681D01*
X117152021Y-72476723D01*
X117152024Y-72476724D01*
X117168875Y-72482444D01*
X117428307Y-72570510D01*
X117717649Y-72628063D01*
X117720871Y-72628274D01*
X117720877Y-72628275D01*
X118008795Y-72647146D01*
X118012029Y-72647358D01*
X118015263Y-72647146D01*
X118303181Y-72628275D01*
X118303187Y-72628274D01*
X118306409Y-72628063D01*
X118595751Y-72570510D01*
X118855183Y-72482444D01*
X118872034Y-72476724D01*
X118872037Y-72476723D01*
X118875106Y-72475681D01*
X118925481Y-72450839D01*
X119136785Y-72346636D01*
X119136790Y-72346633D01*
X119139694Y-72345201D01*
X119275409Y-72254519D01*
X119382282Y-72183109D01*
X119382284Y-72183107D01*
X119384986Y-72181302D01*
X119606787Y-71986787D01*
X119801302Y-71764986D01*
X119965201Y-71519693D01*
X119971561Y-71506798D01*
X120072175Y-71302771D01*
X120095681Y-71255106D01*
X120190510Y-70975751D01*
X120248063Y-70686409D01*
X120252772Y-70614576D01*
X120267146Y-70395263D01*
X120267358Y-70392029D01*
X125302642Y-70392029D01*
X125302854Y-70395263D01*
X125317229Y-70614576D01*
X125321937Y-70686409D01*
X125379490Y-70975751D01*
X125474319Y-71255106D01*
X125497825Y-71302771D01*
X125598440Y-71506798D01*
X125604799Y-71519693D01*
X125768698Y-71764986D01*
X125963213Y-71986787D01*
X126185014Y-72181302D01*
X126187716Y-72183107D01*
X126187718Y-72183109D01*
X126294591Y-72254519D01*
X126430306Y-72345201D01*
X126433210Y-72346633D01*
X126433215Y-72346636D01*
X126644519Y-72450839D01*
X126694894Y-72475681D01*
X126697963Y-72476723D01*
X126697966Y-72476724D01*
X126714817Y-72482444D01*
X126974249Y-72570510D01*
X127263591Y-72628063D01*
X127266813Y-72628274D01*
X127266819Y-72628275D01*
X127554737Y-72647146D01*
X127557971Y-72647358D01*
X127561205Y-72647146D01*
X127849123Y-72628275D01*
X127849129Y-72628274D01*
X127852351Y-72628063D01*
X128141693Y-72570510D01*
X128401125Y-72482444D01*
X128417976Y-72476724D01*
X128417979Y-72476723D01*
X128421048Y-72475681D01*
X128471423Y-72450839D01*
X128682727Y-72346636D01*
X128682732Y-72346633D01*
X128685636Y-72345201D01*
X128821351Y-72254519D01*
X128928224Y-72183109D01*
X128928226Y-72183107D01*
X128930928Y-72181302D01*
X129152729Y-71986787D01*
X129347244Y-71764986D01*
X129511143Y-71519693D01*
X129517503Y-71506798D01*
X129618117Y-71302771D01*
X129641623Y-71255106D01*
X129736452Y-70975751D01*
X129794005Y-70686409D01*
X129798714Y-70614576D01*
X129813088Y-70395263D01*
X129813300Y-70392029D01*
X129811490Y-70364409D01*
X129794217Y-70100877D01*
X129794216Y-70100871D01*
X129794005Y-70097649D01*
X129736452Y-69808307D01*
X129641623Y-69528952D01*
X129511143Y-69264365D01*
X129347244Y-69019072D01*
X129152729Y-68797271D01*
X128930928Y-68602756D01*
X128792536Y-68510285D01*
X128688333Y-68440659D01*
X128688332Y-68440658D01*
X128685636Y-68438857D01*
X128682732Y-68437425D01*
X128682727Y-68437422D01*
X128423962Y-68309814D01*
X128421048Y-68308377D01*
X128417979Y-68307335D01*
X128417976Y-68307334D01*
X128349652Y-68284141D01*
X128141693Y-68213548D01*
X127852351Y-68155995D01*
X127849129Y-68155784D01*
X127849123Y-68155783D01*
X127561205Y-68136912D01*
X127557971Y-68136700D01*
X127554737Y-68136912D01*
X127266819Y-68155783D01*
X127266813Y-68155784D01*
X127263591Y-68155995D01*
X126974249Y-68213548D01*
X126694894Y-68308377D01*
X126606786Y-68351827D01*
X126433218Y-68437421D01*
X126433213Y-68437424D01*
X126430307Y-68438857D01*
X126185014Y-68602756D01*
X126182575Y-68604895D01*
X125975354Y-68786624D01*
X125963213Y-68797271D01*
X125768698Y-69019072D01*
X125604799Y-69264365D01*
X125474319Y-69528952D01*
X125379490Y-69808307D01*
X125321937Y-70097649D01*
X125321726Y-70100871D01*
X125321725Y-70100877D01*
X125304452Y-70364409D01*
X125302642Y-70392029D01*
X120267358Y-70392029D01*
X120265548Y-70364409D01*
X120248275Y-70100877D01*
X120248274Y-70100871D01*
X120248063Y-70097649D01*
X120190510Y-69808307D01*
X120095681Y-69528952D01*
X119965201Y-69264365D01*
X119801302Y-69019072D01*
X119606787Y-68797271D01*
X119384986Y-68602756D01*
X119246594Y-68510285D01*
X119142391Y-68440659D01*
X119142390Y-68440658D01*
X119139694Y-68438857D01*
X119136790Y-68437425D01*
X119136785Y-68437422D01*
X118878020Y-68309814D01*
X118875106Y-68308377D01*
X118872037Y-68307335D01*
X118872034Y-68307334D01*
X118803710Y-68284141D01*
X118595751Y-68213548D01*
X118306409Y-68155995D01*
X118303187Y-68155784D01*
X118303181Y-68155783D01*
X118015263Y-68136912D01*
X118012029Y-68136700D01*
X118008795Y-68136912D01*
X117720877Y-68155783D01*
X117720871Y-68155784D01*
X117717649Y-68155995D01*
X117428307Y-68213548D01*
X117148952Y-68308377D01*
X117060844Y-68351827D01*
X116887276Y-68437421D01*
X116887271Y-68437424D01*
X116884365Y-68438857D01*
X116639072Y-68602756D01*
X116636633Y-68604895D01*
X116429412Y-68786624D01*
X116417271Y-68797271D01*
X116222756Y-69019072D01*
X116058857Y-69264365D01*
X115928377Y-69528952D01*
X115833548Y-69808307D01*
X115775995Y-70097649D01*
X115775784Y-70100871D01*
X115775783Y-70100877D01*
X115758510Y-70364409D01*
X115756700Y-70392029D01*
X60581276Y-70392029D01*
X60492049Y-70364409D01*
X60487239Y-70363903D01*
X60487237Y-70363903D01*
X60311484Y-70345430D01*
X60311482Y-70345430D01*
X60306668Y-70344924D01*
X60244673Y-70350566D01*
X60125852Y-70361379D01*
X60125848Y-70361380D01*
X60121032Y-70361818D01*
X60116390Y-70363184D01*
X60116386Y-70363185D01*
X59946861Y-70413080D01*
X59946858Y-70413081D01*
X59942214Y-70414448D01*
X59777023Y-70500807D01*
X59773247Y-70503843D01*
X59773244Y-70503845D01*
X59635523Y-70614576D01*
X59631752Y-70617608D01*
X59628644Y-70621312D01*
X59515044Y-70756695D01*
X59515041Y-70756699D01*
X59511935Y-70760401D01*
X59422135Y-70923746D01*
X59420672Y-70928359D01*
X59420670Y-70928363D01*
X59376620Y-71067226D01*
X59365772Y-71101424D01*
X59365232Y-71106236D01*
X59365232Y-71106237D01*
X59354682Y-71200297D01*
X59344994Y-71286665D01*
X50500500Y-71286665D01*
X50500500Y-68167790D01*
X55920431Y-68167790D01*
X55931415Y-68447334D01*
X55981676Y-68722542D01*
X55982783Y-68725860D01*
X55982784Y-68725864D01*
X56039703Y-68896471D01*
X56070214Y-68987922D01*
X56195261Y-69238180D01*
X56354322Y-69468322D01*
X56544223Y-69673756D01*
X56546933Y-69675963D01*
X56546937Y-69675966D01*
X56713391Y-69811480D01*
X56761176Y-69850383D01*
X57000851Y-69994679D01*
X57004075Y-69996044D01*
X57255238Y-70102399D01*
X57255242Y-70102400D01*
X57258467Y-70103766D01*
X57393675Y-70139616D01*
X57525487Y-70174565D01*
X57525493Y-70174566D01*
X57528883Y-70175465D01*
X57806704Y-70208347D01*
X57810193Y-70208265D01*
X57810198Y-70208265D01*
X57937701Y-70205260D01*
X58086386Y-70201756D01*
X58362349Y-70155823D01*
X58365681Y-70154769D01*
X58365686Y-70154768D01*
X58465203Y-70123295D01*
X58629088Y-70071465D01*
X58632246Y-70069949D01*
X58632250Y-70069947D01*
X58878118Y-69951883D01*
X58878119Y-69951882D01*
X58881279Y-69950365D01*
X59113891Y-69794938D01*
X59116505Y-69792597D01*
X59319671Y-69610626D01*
X59319674Y-69610623D01*
X59322282Y-69608287D01*
X59502295Y-69394136D01*
X59650338Y-69156757D01*
X59675430Y-69100000D01*
X64744750Y-69100000D01*
X64763670Y-69243709D01*
X64819139Y-69377625D01*
X64907379Y-69492621D01*
X65022375Y-69580861D01*
X65156291Y-69636330D01*
X65162720Y-69637176D01*
X65162722Y-69637177D01*
X65293567Y-69654403D01*
X65300000Y-69655250D01*
X65306433Y-69654403D01*
X65437278Y-69637177D01*
X65437280Y-69637176D01*
X65443709Y-69636330D01*
X65577625Y-69580861D01*
X65692621Y-69492621D01*
X65780861Y-69377625D01*
X65836330Y-69243709D01*
X65855250Y-69100000D01*
X65850783Y-69066067D01*
X65861933Y-69005907D01*
X65906316Y-68963790D01*
X65966978Y-68955804D01*
X66009205Y-68974606D01*
X66017221Y-68980757D01*
X66017225Y-68980760D01*
X66022375Y-68984711D01*
X66156291Y-69040180D01*
X66162720Y-69041026D01*
X66162722Y-69041027D01*
X66293567Y-69058253D01*
X66300000Y-69059100D01*
X66306433Y-69058253D01*
X66437278Y-69041027D01*
X66437280Y-69041026D01*
X66443709Y-69040180D01*
X66577625Y-68984711D01*
X66692621Y-68896471D01*
X66780861Y-68781475D01*
X66836330Y-68647559D01*
X66837318Y-68640060D01*
X66854403Y-68510283D01*
X66855250Y-68503850D01*
X66846693Y-68438857D01*
X66837177Y-68366572D01*
X66837176Y-68366570D01*
X66836330Y-68360141D01*
X66780861Y-68226225D01*
X66692621Y-68111229D01*
X66577625Y-68022989D01*
X66443709Y-67967520D01*
X66437280Y-67966674D01*
X66437278Y-67966673D01*
X66306433Y-67949447D01*
X66300000Y-67948600D01*
X66293567Y-67949447D01*
X66162722Y-67966673D01*
X66162720Y-67966674D01*
X66156291Y-67967520D01*
X66022375Y-68022989D01*
X65907379Y-68111229D01*
X65819139Y-68226225D01*
X65763670Y-68360141D01*
X65762824Y-68366570D01*
X65762823Y-68366572D01*
X65753307Y-68438857D01*
X65744750Y-68503850D01*
X65745597Y-68510283D01*
X65745597Y-68510285D01*
X65749217Y-68537783D01*
X65738067Y-68597943D01*
X65693684Y-68640060D01*
X65633022Y-68648046D01*
X65590795Y-68629244D01*
X65582779Y-68623093D01*
X65582775Y-68623090D01*
X65577625Y-68619139D01*
X65443709Y-68563670D01*
X65437280Y-68562824D01*
X65437278Y-68562823D01*
X65306433Y-68545597D01*
X65300000Y-68544750D01*
X65293567Y-68545597D01*
X65162722Y-68562823D01*
X65162720Y-68562824D01*
X65156291Y-68563670D01*
X65022375Y-68619139D01*
X64907379Y-68707379D01*
X64819139Y-68822375D01*
X64763670Y-68956291D01*
X64762824Y-68962720D01*
X64762823Y-68962722D01*
X64755050Y-69021767D01*
X64744750Y-69100000D01*
X59675430Y-69100000D01*
X59701502Y-69041027D01*
X59762042Y-68904090D01*
X59762044Y-68904084D01*
X59763458Y-68900886D01*
X59764406Y-68897523D01*
X59764409Y-68897516D01*
X59834766Y-68648046D01*
X59839396Y-68631630D01*
X59876638Y-68354360D01*
X59878116Y-68307334D01*
X59880467Y-68232528D01*
X59880467Y-68232519D01*
X59880546Y-68230000D01*
X59879381Y-68213548D01*
X59861035Y-67954435D01*
X59861034Y-67954429D01*
X59860787Y-67950939D01*
X59801906Y-67677445D01*
X59705076Y-67414977D01*
X59572230Y-67168770D01*
X59531791Y-67114019D01*
X59408097Y-66946551D01*
X59408095Y-66946549D01*
X59406019Y-66943738D01*
X59209759Y-66744371D01*
X58987365Y-66574645D01*
X58972202Y-66566153D01*
X58746325Y-66439656D01*
X58746324Y-66439656D01*
X58743275Y-66437948D01*
X58482360Y-66337008D01*
X58478954Y-66336219D01*
X58478949Y-66336217D01*
X58213244Y-66274630D01*
X58213241Y-66274629D01*
X58209826Y-66273838D01*
X57993589Y-66255109D01*
X57934597Y-66250000D01*
X57934596Y-66250000D01*
X57931109Y-66249698D01*
X57811088Y-66256303D01*
X57655271Y-66264878D01*
X57655265Y-66264879D01*
X57651772Y-66265071D01*
X57377387Y-66319650D01*
X57113430Y-66412345D01*
X57110331Y-66413955D01*
X56868274Y-66539693D01*
X56868268Y-66539697D01*
X56865168Y-66541307D01*
X56862320Y-66543342D01*
X56862317Y-66543344D01*
X56640402Y-66701926D01*
X56640399Y-66701929D01*
X56637552Y-66703963D01*
X56635019Y-66706379D01*
X56635017Y-66706381D01*
X56437665Y-66894646D01*
X56437659Y-66894652D01*
X56435127Y-66897068D01*
X56261929Y-67116768D01*
X56260174Y-67119790D01*
X56260173Y-67119791D01*
X56126457Y-67350000D01*
X56121415Y-67358680D01*
X56016389Y-67617978D01*
X56015547Y-67621369D01*
X56015546Y-67621371D01*
X56001617Y-67677445D01*
X55948946Y-67889487D01*
X55941038Y-67966673D01*
X55921640Y-68155995D01*
X55920431Y-68167790D01*
X50500500Y-68167790D01*
X50500500Y-65000000D01*
X90144750Y-65000000D01*
X90163670Y-65143709D01*
X90219139Y-65277625D01*
X90307379Y-65392621D01*
X90422375Y-65480861D01*
X90428369Y-65483344D01*
X90428373Y-65483346D01*
X90463026Y-65497699D01*
X90509552Y-65537435D01*
X90523836Y-65596930D01*
X90500421Y-65653458D01*
X90463028Y-65680627D01*
X90432875Y-65693116D01*
X90317879Y-65781356D01*
X90229639Y-65896352D01*
X90174170Y-66030268D01*
X90155250Y-66173977D01*
X90156097Y-66180410D01*
X90167218Y-66264878D01*
X90174170Y-66317686D01*
X90229639Y-66451602D01*
X90317879Y-66566598D01*
X90432875Y-66654838D01*
X90470747Y-66670525D01*
X90517272Y-66710259D01*
X90531556Y-66769754D01*
X90508142Y-66826282D01*
X90470747Y-66853452D01*
X90432875Y-66869139D01*
X90317879Y-66957379D01*
X90229639Y-67072375D01*
X90174170Y-67206291D01*
X90173324Y-67212720D01*
X90173323Y-67212722D01*
X90158907Y-67322221D01*
X90155250Y-67350000D01*
X90156097Y-67356433D01*
X90163805Y-67414977D01*
X90174170Y-67493709D01*
X90229639Y-67627625D01*
X90317879Y-67742621D01*
X90432875Y-67830861D01*
X90566791Y-67886330D01*
X90573220Y-67887176D01*
X90573222Y-67887177D01*
X90704067Y-67904403D01*
X90710500Y-67905250D01*
X90716933Y-67904403D01*
X90847778Y-67887177D01*
X90847780Y-67887176D01*
X90854209Y-67886330D01*
X90988125Y-67830861D01*
X91103121Y-67742621D01*
X91191361Y-67627625D01*
X91246830Y-67493709D01*
X91257196Y-67414977D01*
X91264903Y-67356433D01*
X91265750Y-67350000D01*
X91262093Y-67322221D01*
X91247677Y-67212722D01*
X91247676Y-67212720D01*
X91246830Y-67206291D01*
X91202803Y-67100000D01*
X92044750Y-67100000D01*
X92045597Y-67106433D01*
X92057955Y-67200297D01*
X92063670Y-67243709D01*
X92119139Y-67377625D01*
X92207379Y-67492621D01*
X92322375Y-67580861D01*
X92328369Y-67583344D01*
X92328373Y-67583346D01*
X92453190Y-67635046D01*
X92499716Y-67674782D01*
X92514000Y-67734277D01*
X92490585Y-67790805D01*
X92475572Y-67805052D01*
X92412531Y-67853425D01*
X92412528Y-67853428D01*
X92407379Y-67857379D01*
X92319139Y-67972375D01*
X92263670Y-68106291D01*
X92262824Y-68112720D01*
X92262823Y-68112722D01*
X92257154Y-68155783D01*
X92244750Y-68250000D01*
X92245597Y-68256433D01*
X92259251Y-68360141D01*
X92263670Y-68393709D01*
X92319139Y-68527625D01*
X92407379Y-68642621D01*
X92522375Y-68730861D01*
X92656291Y-68786330D01*
X92662720Y-68787176D01*
X92662722Y-68787177D01*
X92793567Y-68804403D01*
X92800000Y-68805250D01*
X92806433Y-68804403D01*
X92937278Y-68787177D01*
X92937280Y-68787176D01*
X92943709Y-68786330D01*
X93077625Y-68730861D01*
X93192621Y-68642621D01*
X93280861Y-68527625D01*
X93336330Y-68393709D01*
X93340750Y-68360141D01*
X93354403Y-68256433D01*
X93355250Y-68250000D01*
X93342846Y-68155783D01*
X93337177Y-68112722D01*
X93337176Y-68112720D01*
X93336330Y-68106291D01*
X93280861Y-67972375D01*
X93192621Y-67857379D01*
X93077625Y-67769139D01*
X93071631Y-67766656D01*
X93071627Y-67766654D01*
X92946810Y-67714954D01*
X92900284Y-67675218D01*
X92886000Y-67615723D01*
X92909415Y-67559195D01*
X92924428Y-67544948D01*
X92987469Y-67496575D01*
X92987472Y-67496572D01*
X92992621Y-67492621D01*
X93080861Y-67377625D01*
X93136330Y-67243709D01*
X93142046Y-67200297D01*
X93154403Y-67106433D01*
X93155250Y-67100000D01*
X93136330Y-66956291D01*
X93080861Y-66822375D01*
X92992621Y-66707379D01*
X92877625Y-66619139D01*
X92743709Y-66563670D01*
X92737280Y-66562824D01*
X92737278Y-66562823D01*
X92606433Y-66545597D01*
X92600000Y-66544750D01*
X92593567Y-66545597D01*
X92462722Y-66562823D01*
X92462720Y-66562824D01*
X92456291Y-66563670D01*
X92322375Y-66619139D01*
X92207379Y-66707379D01*
X92119139Y-66822375D01*
X92063670Y-66956291D01*
X92044750Y-67100000D01*
X91202803Y-67100000D01*
X91191361Y-67072375D01*
X91103121Y-66957379D01*
X90988125Y-66869139D01*
X90950253Y-66853452D01*
X90903727Y-66813715D01*
X90889444Y-66754220D01*
X90912859Y-66697692D01*
X90950252Y-66670525D01*
X90988125Y-66654838D01*
X91103121Y-66566598D01*
X91191361Y-66451602D01*
X91246830Y-66317686D01*
X91253783Y-66264878D01*
X91264903Y-66180410D01*
X91265750Y-66173977D01*
X91246830Y-66030268D01*
X91191361Y-65896352D01*
X91103121Y-65781356D01*
X90988125Y-65693116D01*
X90982131Y-65690633D01*
X90982127Y-65690631D01*
X90947474Y-65676278D01*
X90900948Y-65636542D01*
X90886664Y-65577047D01*
X90910079Y-65520519D01*
X90947473Y-65493350D01*
X90977625Y-65480861D01*
X91083005Y-65400000D01*
X92744750Y-65400000D01*
X92745597Y-65406433D01*
X92762699Y-65536330D01*
X92763670Y-65543709D01*
X92819139Y-65677625D01*
X92907379Y-65792621D01*
X93022375Y-65880861D01*
X93156291Y-65936330D01*
X93162720Y-65937176D01*
X93162722Y-65937177D01*
X93293567Y-65954403D01*
X93300000Y-65955250D01*
X93306433Y-65954403D01*
X93437278Y-65937177D01*
X93437280Y-65937176D01*
X93443709Y-65936330D01*
X93577625Y-65880861D01*
X93692621Y-65792621D01*
X93780861Y-65677625D01*
X93836330Y-65543709D01*
X93837302Y-65536330D01*
X93854403Y-65406433D01*
X93855250Y-65400000D01*
X93836330Y-65256291D01*
X93780861Y-65122375D01*
X93692621Y-65007379D01*
X93577625Y-64919139D01*
X93443709Y-64863670D01*
X93437280Y-64862824D01*
X93437278Y-64862823D01*
X93306433Y-64845597D01*
X93300000Y-64844750D01*
X93293567Y-64845597D01*
X93162722Y-64862823D01*
X93162720Y-64862824D01*
X93156291Y-64863670D01*
X93022375Y-64919139D01*
X92907379Y-65007379D01*
X92819139Y-65122375D01*
X92763670Y-65256291D01*
X92744750Y-65400000D01*
X91083005Y-65400000D01*
X91092621Y-65392621D01*
X91180861Y-65277625D01*
X91236330Y-65143709D01*
X91255250Y-65000000D01*
X91251593Y-64972221D01*
X91237177Y-64862722D01*
X91237176Y-64862720D01*
X91236330Y-64856291D01*
X91180861Y-64722375D01*
X91092621Y-64607379D01*
X90977625Y-64519139D01*
X90843709Y-64463670D01*
X90837280Y-64462824D01*
X90837278Y-64462823D01*
X90706433Y-64445597D01*
X90700000Y-64444750D01*
X90693567Y-64445597D01*
X90562722Y-64462823D01*
X90562720Y-64462824D01*
X90556291Y-64463670D01*
X90422375Y-64519139D01*
X90307379Y-64607379D01*
X90219139Y-64722375D01*
X90163670Y-64856291D01*
X90162824Y-64862720D01*
X90162823Y-64862722D01*
X90148407Y-64972221D01*
X90144750Y-65000000D01*
X50500500Y-65000000D01*
X50500500Y-62400000D01*
X90144750Y-62400000D01*
X90163670Y-62543709D01*
X90219139Y-62677625D01*
X90307379Y-62792621D01*
X90422375Y-62880861D01*
X90468581Y-62900000D01*
X90484737Y-62906692D01*
X90531263Y-62946429D01*
X90545546Y-63005924D01*
X90522131Y-63062452D01*
X90484737Y-63089620D01*
X90432875Y-63111101D01*
X90317879Y-63199341D01*
X90229639Y-63314337D01*
X90174170Y-63448253D01*
X90173324Y-63454682D01*
X90173323Y-63454684D01*
X90161466Y-63544750D01*
X90155250Y-63591962D01*
X90174170Y-63735671D01*
X90229639Y-63869587D01*
X90317879Y-63984583D01*
X90432875Y-64072823D01*
X90566791Y-64128292D01*
X90573220Y-64129138D01*
X90573222Y-64129139D01*
X90704067Y-64146365D01*
X90710500Y-64147212D01*
X90716933Y-64146365D01*
X90847778Y-64129139D01*
X90847780Y-64129138D01*
X90854209Y-64128292D01*
X90922513Y-64100000D01*
X92044750Y-64100000D01*
X92063670Y-64243709D01*
X92119139Y-64377625D01*
X92207379Y-64492621D01*
X92322375Y-64580861D01*
X92456291Y-64636330D01*
X92462720Y-64637176D01*
X92462722Y-64637177D01*
X92593567Y-64654403D01*
X92600000Y-64655250D01*
X92606433Y-64654403D01*
X92737278Y-64637177D01*
X92737280Y-64637176D01*
X92743709Y-64636330D01*
X92877625Y-64580861D01*
X92992621Y-64492621D01*
X93080861Y-64377625D01*
X93136330Y-64243709D01*
X93155250Y-64100000D01*
X93136330Y-63956291D01*
X93080861Y-63822375D01*
X92992621Y-63707379D01*
X92877625Y-63619139D01*
X92743709Y-63563670D01*
X92737280Y-63562824D01*
X92737278Y-63562823D01*
X92606433Y-63545597D01*
X92600000Y-63544750D01*
X92593567Y-63545597D01*
X92462722Y-63562823D01*
X92462720Y-63562824D01*
X92456291Y-63563670D01*
X92322375Y-63619139D01*
X92207379Y-63707379D01*
X92119139Y-63822375D01*
X92063670Y-63956291D01*
X92044750Y-64100000D01*
X90922513Y-64100000D01*
X90988125Y-64072823D01*
X91103121Y-63984583D01*
X91191361Y-63869587D01*
X91246830Y-63735671D01*
X91265750Y-63591962D01*
X91259534Y-63544750D01*
X91247677Y-63454684D01*
X91247676Y-63454682D01*
X91246830Y-63448253D01*
X91191361Y-63314337D01*
X91103121Y-63199341D01*
X90988125Y-63111101D01*
X90925763Y-63085270D01*
X90879237Y-63045533D01*
X90864954Y-62986038D01*
X90888369Y-62929510D01*
X90925763Y-62902342D01*
X90931417Y-62900000D01*
X92744750Y-62900000D01*
X92745597Y-62906433D01*
X92762749Y-63036712D01*
X92763670Y-63043709D01*
X92819139Y-63177625D01*
X92907379Y-63292621D01*
X93022375Y-63380861D01*
X93156291Y-63436330D01*
X93162720Y-63437176D01*
X93162722Y-63437177D01*
X93293567Y-63454403D01*
X93300000Y-63455250D01*
X93306433Y-63454403D01*
X93437278Y-63437177D01*
X93437280Y-63437176D01*
X93443709Y-63436330D01*
X93577625Y-63380861D01*
X93692621Y-63292621D01*
X93780861Y-63177625D01*
X93836330Y-63043709D01*
X93837252Y-63036712D01*
X93854403Y-62906433D01*
X93855250Y-62900000D01*
X93836330Y-62756291D01*
X93780861Y-62622375D01*
X93692621Y-62507379D01*
X93577625Y-62419139D01*
X93443709Y-62363670D01*
X93437280Y-62362824D01*
X93437278Y-62362823D01*
X93306433Y-62345597D01*
X93300000Y-62344750D01*
X93293567Y-62345597D01*
X93162722Y-62362823D01*
X93162720Y-62362824D01*
X93156291Y-62363670D01*
X93022375Y-62419139D01*
X92907379Y-62507379D01*
X92819139Y-62622375D01*
X92763670Y-62756291D01*
X92744750Y-62900000D01*
X90931417Y-62900000D01*
X90977625Y-62880861D01*
X91092621Y-62792621D01*
X91180861Y-62677625D01*
X91236330Y-62543709D01*
X91255250Y-62400000D01*
X91236330Y-62256291D01*
X91180861Y-62122375D01*
X91092621Y-62007379D01*
X90977625Y-61919139D01*
X90843709Y-61863670D01*
X90837280Y-61862824D01*
X90837278Y-61862823D01*
X90706433Y-61845597D01*
X90700000Y-61844750D01*
X90693567Y-61845597D01*
X90562722Y-61862823D01*
X90562720Y-61862824D01*
X90556291Y-61863670D01*
X90422375Y-61919139D01*
X90307379Y-62007379D01*
X90219139Y-62122375D01*
X90163670Y-62256291D01*
X90144750Y-62400000D01*
X50500500Y-62400000D01*
X50500500Y-61600000D01*
X69644750Y-61600000D01*
X69663670Y-61743709D01*
X69719139Y-61877625D01*
X69807379Y-61992621D01*
X69922375Y-62080861D01*
X70056291Y-62136330D01*
X70062720Y-62137176D01*
X70062722Y-62137177D01*
X70193567Y-62154403D01*
X70200000Y-62155250D01*
X70206433Y-62154403D01*
X70337278Y-62137177D01*
X70337280Y-62137176D01*
X70343709Y-62136330D01*
X70477625Y-62080861D01*
X70592621Y-61992621D01*
X70680861Y-61877625D01*
X70736330Y-61743709D01*
X70755250Y-61600000D01*
X70736330Y-61456291D01*
X70680861Y-61322375D01*
X70592621Y-61207379D01*
X70477625Y-61119139D01*
X70412013Y-61091962D01*
X90155250Y-61091962D01*
X90174170Y-61235671D01*
X90229639Y-61369587D01*
X90317879Y-61484583D01*
X90432875Y-61572823D01*
X90566791Y-61628292D01*
X90573220Y-61629138D01*
X90573222Y-61629139D01*
X90704067Y-61646365D01*
X90710500Y-61647212D01*
X90716933Y-61646365D01*
X90847778Y-61629139D01*
X90847780Y-61629138D01*
X90854209Y-61628292D01*
X90922513Y-61600000D01*
X92044750Y-61600000D01*
X92063670Y-61743709D01*
X92119139Y-61877625D01*
X92207379Y-61992621D01*
X92322375Y-62080861D01*
X92456291Y-62136330D01*
X92462720Y-62137176D01*
X92462722Y-62137177D01*
X92593567Y-62154403D01*
X92600000Y-62155250D01*
X92606433Y-62154403D01*
X92737278Y-62137177D01*
X92737280Y-62137176D01*
X92743709Y-62136330D01*
X92877625Y-62080861D01*
X92992621Y-61992621D01*
X93080861Y-61877625D01*
X93136330Y-61743709D01*
X93155250Y-61600000D01*
X93136330Y-61456291D01*
X93080861Y-61322375D01*
X92992621Y-61207379D01*
X92877625Y-61119139D01*
X92743709Y-61063670D01*
X92737280Y-61062824D01*
X92737278Y-61062823D01*
X92606433Y-61045597D01*
X92600000Y-61044750D01*
X92593567Y-61045597D01*
X92462722Y-61062823D01*
X92462720Y-61062824D01*
X92456291Y-61063670D01*
X92322375Y-61119139D01*
X92207379Y-61207379D01*
X92119139Y-61322375D01*
X92063670Y-61456291D01*
X92044750Y-61600000D01*
X90922513Y-61600000D01*
X90988125Y-61572823D01*
X91103121Y-61484583D01*
X91191361Y-61369587D01*
X91246830Y-61235671D01*
X91265750Y-61091962D01*
X91246830Y-60948253D01*
X91191361Y-60814337D01*
X91103121Y-60699341D01*
X90988125Y-60611101D01*
X90854209Y-60555632D01*
X90847780Y-60554786D01*
X90847778Y-60554785D01*
X90716933Y-60537559D01*
X90710500Y-60536712D01*
X90704067Y-60537559D01*
X90573222Y-60554785D01*
X90573220Y-60554786D01*
X90566791Y-60555632D01*
X90432875Y-60611101D01*
X90317879Y-60699341D01*
X90229639Y-60814337D01*
X90174170Y-60948253D01*
X90155250Y-61091962D01*
X70412013Y-61091962D01*
X70343709Y-61063670D01*
X70337280Y-61062824D01*
X70337278Y-61062823D01*
X70206433Y-61045597D01*
X70200000Y-61044750D01*
X70193567Y-61045597D01*
X70062722Y-61062823D01*
X70062720Y-61062824D01*
X70056291Y-61063670D01*
X69922375Y-61119139D01*
X69807379Y-61207379D01*
X69719139Y-61322375D01*
X69663670Y-61456291D01*
X69644750Y-61600000D01*
X50500500Y-61600000D01*
X50500500Y-60800000D01*
X62644750Y-60800000D01*
X62663670Y-60943709D01*
X62719139Y-61077625D01*
X62807379Y-61192621D01*
X62922375Y-61280861D01*
X63056291Y-61336330D01*
X63062720Y-61337176D01*
X63062722Y-61337177D01*
X63193567Y-61354403D01*
X63200000Y-61355250D01*
X63206433Y-61354403D01*
X63337278Y-61337177D01*
X63337280Y-61337176D01*
X63343709Y-61336330D01*
X63477625Y-61280861D01*
X63592621Y-61192621D01*
X63680861Y-61077625D01*
X63736330Y-60943709D01*
X63755250Y-60800000D01*
X63736330Y-60656291D01*
X63680861Y-60522375D01*
X63592621Y-60407379D01*
X63477625Y-60319139D01*
X63431419Y-60300000D01*
X69344750Y-60300000D01*
X69345597Y-60306433D01*
X69362699Y-60436330D01*
X69363670Y-60443709D01*
X69419139Y-60577625D01*
X69507379Y-60692621D01*
X69622375Y-60780861D01*
X69756291Y-60836330D01*
X69762720Y-60837176D01*
X69762722Y-60837177D01*
X69893567Y-60854403D01*
X69900000Y-60855250D01*
X69906433Y-60854403D01*
X70037278Y-60837177D01*
X70037280Y-60837176D01*
X70043709Y-60836330D01*
X70177625Y-60780861D01*
X70292621Y-60692621D01*
X70380861Y-60577625D01*
X70436330Y-60443709D01*
X70437302Y-60436330D01*
X70454403Y-60306433D01*
X70455250Y-60300000D01*
X92744750Y-60300000D01*
X92745597Y-60306433D01*
X92762699Y-60436330D01*
X92763670Y-60443709D01*
X92819139Y-60577625D01*
X92907379Y-60692621D01*
X93022375Y-60780861D01*
X93156291Y-60836330D01*
X93162720Y-60837176D01*
X93162722Y-60837177D01*
X93293567Y-60854403D01*
X93300000Y-60855250D01*
X93306433Y-60854403D01*
X93437278Y-60837177D01*
X93437280Y-60837176D01*
X93443709Y-60836330D01*
X93577625Y-60780861D01*
X93692621Y-60692621D01*
X93780861Y-60577625D01*
X93836330Y-60443709D01*
X93837302Y-60436330D01*
X93854403Y-60306433D01*
X93855250Y-60300000D01*
X93836330Y-60156291D01*
X93780861Y-60022375D01*
X93692621Y-59907379D01*
X93683005Y-59900000D01*
X100044750Y-59900000D01*
X100063670Y-60043709D01*
X100119139Y-60177625D01*
X100207379Y-60292621D01*
X100322375Y-60380861D01*
X100456291Y-60436330D01*
X100462720Y-60437176D01*
X100462722Y-60437177D01*
X100593567Y-60454403D01*
X100600000Y-60455250D01*
X100606433Y-60454403D01*
X100737278Y-60437177D01*
X100737280Y-60437176D01*
X100743709Y-60436330D01*
X100877625Y-60380861D01*
X100992621Y-60292621D01*
X101080861Y-60177625D01*
X101136330Y-60043709D01*
X101155250Y-59900000D01*
X101151515Y-59871627D01*
X101137177Y-59762722D01*
X101137176Y-59762720D01*
X101136330Y-59756291D01*
X101080861Y-59622375D01*
X100992621Y-59507379D01*
X100877625Y-59419139D01*
X100743709Y-59363670D01*
X100737280Y-59362824D01*
X100737278Y-59362823D01*
X100606433Y-59345597D01*
X100600000Y-59344750D01*
X100593567Y-59345597D01*
X100462722Y-59362823D01*
X100462720Y-59362824D01*
X100456291Y-59363670D01*
X100322375Y-59419139D01*
X100207379Y-59507379D01*
X100119139Y-59622375D01*
X100063670Y-59756291D01*
X100062824Y-59762720D01*
X100062823Y-59762722D01*
X100048485Y-59871627D01*
X100044750Y-59900000D01*
X93683005Y-59900000D01*
X93577625Y-59819139D01*
X93443709Y-59763670D01*
X93437280Y-59762824D01*
X93437278Y-59762823D01*
X93306433Y-59745597D01*
X93300000Y-59744750D01*
X93293567Y-59745597D01*
X93162722Y-59762823D01*
X93162720Y-59762824D01*
X93156291Y-59763670D01*
X93022375Y-59819139D01*
X92907379Y-59907379D01*
X92819139Y-60022375D01*
X92763670Y-60156291D01*
X92744750Y-60300000D01*
X70455250Y-60300000D01*
X70436330Y-60156291D01*
X70380861Y-60022375D01*
X70292621Y-59907379D01*
X70177625Y-59819139D01*
X70043709Y-59763670D01*
X70037280Y-59762824D01*
X70037278Y-59762823D01*
X69906433Y-59745597D01*
X69900000Y-59744750D01*
X69893567Y-59745597D01*
X69762722Y-59762823D01*
X69762720Y-59762824D01*
X69756291Y-59763670D01*
X69622375Y-59819139D01*
X69507379Y-59907379D01*
X69419139Y-60022375D01*
X69363670Y-60156291D01*
X69344750Y-60300000D01*
X63431419Y-60300000D01*
X63343709Y-60263670D01*
X63337280Y-60262824D01*
X63337278Y-60262823D01*
X63206433Y-60245597D01*
X63200000Y-60244750D01*
X63193567Y-60245597D01*
X63062722Y-60262823D01*
X63062720Y-60262824D01*
X63056291Y-60263670D01*
X62922375Y-60319139D01*
X62807379Y-60407379D01*
X62719139Y-60522375D01*
X62663670Y-60656291D01*
X62644750Y-60800000D01*
X50500500Y-60800000D01*
X50500500Y-59600000D01*
X89744750Y-59600000D01*
X89763670Y-59743709D01*
X89819139Y-59877625D01*
X89907379Y-59992621D01*
X90022375Y-60080861D01*
X90156291Y-60136330D01*
X90162720Y-60137176D01*
X90162722Y-60137177D01*
X90293567Y-60154403D01*
X90300000Y-60155250D01*
X90306433Y-60154403D01*
X90437278Y-60137177D01*
X90437280Y-60137176D01*
X90443709Y-60136330D01*
X90577625Y-60080861D01*
X90692621Y-59992621D01*
X90780861Y-59877625D01*
X90836330Y-59743709D01*
X90855250Y-59600000D01*
X90836330Y-59456291D01*
X90780861Y-59322375D01*
X90692621Y-59207379D01*
X90577625Y-59119139D01*
X90443709Y-59063670D01*
X90437280Y-59062824D01*
X90437278Y-59062823D01*
X90306433Y-59045597D01*
X90300000Y-59044750D01*
X90293567Y-59045597D01*
X90162722Y-59062823D01*
X90162720Y-59062824D01*
X90156291Y-59063670D01*
X90022375Y-59119139D01*
X89907379Y-59207379D01*
X89819139Y-59322375D01*
X89763670Y-59456291D01*
X89744750Y-59600000D01*
X50500500Y-59600000D01*
X50500500Y-57895000D01*
X100039750Y-57895000D01*
X100058670Y-58038709D01*
X100114139Y-58172625D01*
X100202379Y-58287621D01*
X100317375Y-58375861D01*
X100451291Y-58431330D01*
X100457720Y-58432176D01*
X100457722Y-58432177D01*
X100588567Y-58449403D01*
X100595000Y-58450250D01*
X100601433Y-58449403D01*
X100732278Y-58432177D01*
X100732280Y-58432176D01*
X100738709Y-58431330D01*
X100872625Y-58375861D01*
X100987621Y-58287621D01*
X101075861Y-58172625D01*
X101131330Y-58038709D01*
X101150250Y-57895000D01*
X101131330Y-57751291D01*
X101075861Y-57617375D01*
X100987621Y-57502379D01*
X100872625Y-57414139D01*
X100738709Y-57358670D01*
X100732280Y-57357824D01*
X100732278Y-57357823D01*
X100601433Y-57340597D01*
X100595000Y-57339750D01*
X100588567Y-57340597D01*
X100457722Y-57357823D01*
X100457720Y-57357824D01*
X100451291Y-57358670D01*
X100317375Y-57414139D01*
X100202379Y-57502379D01*
X100114139Y-57617375D01*
X100058670Y-57751291D01*
X100039750Y-57895000D01*
X50500500Y-57895000D01*
X50500500Y-55728244D01*
X52807727Y-55728244D01*
X52813878Y-55734968D01*
X53002464Y-55853267D01*
X53008400Y-55856451D01*
X53263219Y-55971505D01*
X53269517Y-55973848D01*
X53537602Y-56053258D01*
X53544155Y-56054723D01*
X53820532Y-56097015D01*
X53827238Y-56097578D01*
X54106798Y-56101969D01*
X54113503Y-56101618D01*
X54391076Y-56068028D01*
X54397675Y-56066769D01*
X54668125Y-55995818D01*
X54674492Y-55993675D01*
X54932807Y-55886678D01*
X54938824Y-55883691D01*
X55180223Y-55742628D01*
X55185782Y-55738851D01*
X55186187Y-55738533D01*
X55193627Y-55727463D01*
X55193551Y-55725388D01*
X55190893Y-55721224D01*
X54011086Y-54541416D01*
X53999203Y-54535362D01*
X53994172Y-54536158D01*
X52813586Y-55716745D01*
X52807727Y-55728244D01*
X50500500Y-55728244D01*
X50500500Y-53981327D01*
X51895402Y-53981327D01*
X51911497Y-54260455D01*
X51912339Y-54267118D01*
X51966166Y-54541477D01*
X51967911Y-54547988D01*
X52058472Y-54812495D01*
X52061077Y-54818693D01*
X52186700Y-55068467D01*
X52190131Y-55074268D01*
X52264863Y-55183004D01*
X52275444Y-55191123D01*
X52275841Y-55191133D01*
X52282493Y-55187176D01*
X53458584Y-54011086D01*
X53463826Y-54000797D01*
X54535362Y-54000797D01*
X54536158Y-54005828D01*
X55715736Y-55185405D01*
X55727619Y-55191459D01*
X55728840Y-55191266D01*
X55733682Y-55187152D01*
X55775235Y-55130584D01*
X55778842Y-55124901D01*
X55912246Y-54879198D01*
X55915049Y-54873076D01*
X56013879Y-54611535D01*
X56015821Y-54605101D01*
X56078239Y-54332570D01*
X56079292Y-54325920D01*
X56104273Y-54046013D01*
X56104465Y-54042151D01*
X56104887Y-54001937D01*
X56104775Y-53998066D01*
X56085661Y-53717696D01*
X56084747Y-53711025D01*
X56028051Y-53437248D01*
X56026242Y-53430771D01*
X55932913Y-53167218D01*
X55930243Y-53161047D01*
X55802013Y-52912605D01*
X55798521Y-52906839D01*
X55735297Y-52816881D01*
X55724630Y-52808872D01*
X55723951Y-52808861D01*
X55717717Y-52812614D01*
X54541416Y-53988914D01*
X54535362Y-54000797D01*
X53463826Y-54000797D01*
X53464638Y-53999203D01*
X53463842Y-53994172D01*
X52284617Y-52814948D01*
X52272734Y-52808894D01*
X52271789Y-52809043D01*
X52266616Y-52813485D01*
X52213028Y-52888062D01*
X52209476Y-52893790D01*
X52078651Y-53140875D01*
X52075911Y-53147029D01*
X51979829Y-53409587D01*
X51977955Y-53416035D01*
X51918390Y-53689224D01*
X51917410Y-53695863D01*
X51895473Y-53974594D01*
X51895402Y-53981327D01*
X50500500Y-53981327D01*
X50500500Y-52271782D01*
X52805889Y-52271782D01*
X52810563Y-52280232D01*
X53988914Y-53458584D01*
X54000797Y-53464638D01*
X54005828Y-53463842D01*
X55187230Y-52282439D01*
X55193012Y-52271091D01*
X55186640Y-52264198D01*
X54978070Y-52136386D01*
X54972113Y-52133271D01*
X54716095Y-52020886D01*
X54709768Y-52018609D01*
X54440887Y-51942016D01*
X54434288Y-51940614D01*
X54157504Y-51901222D01*
X54150788Y-51900728D01*
X53871192Y-51899265D01*
X53864498Y-51899686D01*
X53587295Y-51936180D01*
X53580696Y-51937510D01*
X53311017Y-52011287D01*
X53304663Y-52013500D01*
X53047501Y-52123188D01*
X53041493Y-52126249D01*
X52814150Y-52262311D01*
X52805889Y-52271782D01*
X50500500Y-52271782D01*
X50500500Y-50599500D01*
X50519407Y-50541309D01*
X50568907Y-50505345D01*
X50599500Y-50500500D01*
X57034714Y-50500500D01*
X57092905Y-50519407D01*
G37*
%TD.AperFunction*%
%TD*%
M02*
